<svg width="313" height="311" viewBox="0 0 313 311" fill="none" xmlns="http://www.w3.org/2000/svg">
<rect x="1.16663" y="0.5" width="311.333" height="310" rx="11.5" fill="white"/>
<rect x="1.16663" y="0.5" width="311.333" height="310" rx="11.5" stroke="#EFF1F5"/>
<mask id="mask0_53_3430" style="mask-type:alpha" maskUnits="userSpaceOnUse" x="16" y="16" width="17" height="16">
<rect x="16.6666" y="16" width="16" height="16" fill="#D9D9D9"/>
</mask>
<g mask="url(#mask0_53_3430)">
<path d="M27.9999 29.3334C27.811 29.3334 27.6527 29.2695 27.5249 29.1417C27.3971 29.014 27.3333 28.8556 27.3333 28.6667V25.3334C27.3333 25.1445 27.3971 24.9862 27.5249 24.8584C27.6527 24.7306 27.811 24.6667 27.9999 24.6667H29.3333C29.5221 24.6667 29.6805 24.7306 29.8083 24.8584C29.936 24.9862 29.9999 25.1445 29.9999 25.3334V28.6667C29.9999 28.8556 29.936 29.014 29.8083 29.1417C29.6805 29.2695 29.5221 29.3334 29.3333 29.3334H27.9999ZM23.9999 29.3334C23.811 29.3334 23.6527 29.2695 23.5249 29.1417C23.3971 29.014 23.3333 28.8556 23.3333 28.6667V19.3334C23.3333 19.1445 23.3971 18.9862 23.5249 18.8584C23.6527 18.7306 23.811 18.6667 23.9999 18.6667H25.3333C25.5221 18.6667 25.6805 18.7306 25.8083 18.8584C25.936 18.9862 25.9999 19.1445 25.9999 19.3334V28.6667C25.9999 28.8556 25.936 29.014 25.8083 29.1417C25.6805 29.2695 25.5221 29.3334 25.3333 29.3334H23.9999ZM19.9999 29.3334C19.811 29.3334 19.6527 29.2695 19.5249 29.1417C19.3971 29.014 19.3333 28.8556 19.3333 28.6667V22.6667C19.3333 22.4779 19.3971 22.3195 19.5249 22.1917C19.6527 22.064 19.811 22.0001 19.9999 22.0001H21.3333C21.5221 22.0001 21.6805 22.064 21.8083 22.1917C21.936 22.3195 21.9999 22.4779 21.9999 22.6667V28.6667C21.9999 28.8556 21.936 29.014 21.8083 29.1417C21.6805 29.2695 21.5221 29.3334 21.3333 29.3334H19.9999Z" fill="#1C1B1F"/>
</g>
<path d="M39.6709 30V19.8182H46.293V21.3643H41.5153V24.1286H45.95V25.6747H41.5153V28.4538H46.3328V30H39.6709ZM49.0068 22.3636L50.548 25.1825L52.1141 22.3636H54.0182L51.7164 26.1818L54.058 30H52.1638L50.548 27.2507L48.9472 30H47.0381L49.3648 26.1818L47.0977 22.3636H49.0068ZM54.8502 32.8636V22.3636H56.6201V23.6264H56.7245C56.8173 23.4408 56.9483 23.2436 57.1173 23.0348C57.2863 22.8227 57.515 22.642 57.8034 22.4929C58.0917 22.3404 58.4596 22.2642 58.9071 22.2642C59.497 22.2642 60.029 22.415 60.5029 22.7166C60.9802 23.0149 61.3581 23.4574 61.6365 24.044C61.9182 24.6274 62.0591 25.3433 62.0591 26.1918C62.0591 27.0303 61.9215 27.7429 61.6464 28.3295C61.3713 28.9162 60.9968 29.3636 60.5228 29.6719C60.0489 29.9801 59.5119 30.1342 58.912 30.1342C58.4745 30.1342 58.1116 30.0613 57.8233 29.9155C57.5349 29.7696 57.3029 29.594 57.1272 29.3885C56.9549 29.1797 56.8207 28.9825 56.7245 28.7969H56.65V32.8636H54.8502ZM56.6152 26.1818C56.6152 26.6757 56.6848 27.1082 56.824 27.4794C56.9665 27.8506 57.1703 28.1406 57.4355 28.3494C57.7039 28.5549 58.0288 28.6577 58.4099 28.6577C58.8076 28.6577 59.1407 28.5516 59.4092 28.3395C59.6777 28.1241 59.8798 27.8307 60.0157 27.4595C60.1549 27.085 60.2245 26.6591 60.2245 26.1818C60.2245 25.7079 60.1566 25.2869 60.0207 24.919C59.8848 24.5511 59.6826 24.2628 59.4142 24.054C59.1457 23.8452 58.8109 23.7408 58.4099 23.7408C58.0254 23.7408 57.699 23.8419 57.4305 24.044C57.162 24.2462 56.9582 24.5296 56.819 24.8942C56.6831 25.2588 56.6152 25.688 56.6152 26.1818ZM66.4209 30.1491C65.6553 30.1491 64.9941 29.9901 64.4373 29.6719C63.8838 29.3504 63.4579 28.8963 63.1596 28.3097C62.8613 27.7197 62.7121 27.0253 62.7121 26.2266C62.7121 25.4411 62.8613 24.7517 63.1596 24.1584C63.4612 23.5618 63.8821 23.0978 64.4224 22.7663C64.9626 22.4316 65.5973 22.2642 66.3265 22.2642C66.7971 22.2642 67.2412 22.3404 67.6589 22.4929C68.0798 22.642 68.451 22.8741 68.7725 23.1889C69.0973 23.5038 69.3525 23.9048 69.5381 24.392C69.7237 24.8759 69.8165 25.4527 69.8165 26.1222V26.674H63.5573V25.4609H68.0914C68.0881 25.1162 68.0135 24.8097 67.8677 24.5412C67.7218 24.2694 67.518 24.0556 67.2562 23.8999C66.9976 23.7441 66.696 23.6662 66.3513 23.6662C65.9834 23.6662 65.6603 23.7557 65.3819 23.9347C65.1035 24.1103 64.8864 24.3423 64.7306 24.6307C64.5781 24.9157 64.5002 25.2289 64.4969 25.5703V26.6293C64.4969 27.0734 64.5781 27.4545 64.7405 27.7727C64.9029 28.0876 65.13 28.3295 65.4216 28.4986C65.7133 28.6643 66.0547 28.7472 66.4458 28.7472C66.7076 28.7472 66.9446 28.7107 67.1567 28.6378C67.3688 28.5616 67.5528 28.4505 67.7086 28.3047C67.8643 28.1589 67.982 27.9782 68.0616 27.7628L69.742 27.9517C69.6359 28.3958 69.4337 28.7836 69.1354 29.1151C68.8404 29.4432 68.4626 29.6984 68.0019 29.8807C67.5412 30.0597 67.0142 30.1491 66.4209 30.1491ZM72.5788 25.5256V30H70.7791V22.3636H72.4992V23.6612H72.5887C72.7644 23.2337 73.0445 22.8939 73.4289 22.642C73.8167 22.3902 74.2956 22.2642 74.8657 22.2642C75.3927 22.2642 75.8518 22.3769 76.2429 22.6023C76.6373 22.8277 76.9422 23.1541 77.1576 23.5817C77.3764 24.0092 77.4841 24.5279 77.4808 25.1378V30H75.6811V25.4162C75.6811 24.9058 75.5485 24.5064 75.2833 24.218C75.0215 23.9297 74.6586 23.7855 74.1946 23.7855C73.8797 23.7855 73.5996 23.8551 73.3544 23.9943C73.1124 24.1302 72.9218 24.3274 72.7826 24.5859C72.6467 24.8445 72.5788 25.1577 72.5788 25.5256ZM84.7858 24.3821L83.1452 24.5611C83.0988 24.3954 83.0176 24.2396 82.9016 24.0938C82.7889 23.9479 82.6365 23.8303 82.4442 23.7408C82.252 23.6513 82.0167 23.6065 81.7383 23.6065C81.3637 23.6065 81.0489 23.6877 80.7937 23.8501C80.5418 24.0125 80.4175 24.223 80.4208 24.4815C80.4175 24.7036 80.4987 24.8842 80.6644 25.0234C80.8334 25.1626 81.1118 25.277 81.4996 25.3665L82.8022 25.6449C83.5247 25.8007 84.0616 26.0476 84.413 26.3857C84.7676 26.7237 84.9466 27.1662 84.9499 27.7131C84.9466 28.1937 84.8057 28.6179 84.5273 28.9858C84.2522 29.3504 83.8694 29.6354 83.3789 29.8409C82.8883 30.0464 82.3249 30.1491 81.6885 30.1491C80.7539 30.1491 80.0015 29.9536 79.4314 29.5625C78.8614 29.1681 78.5216 28.6196 78.4123 27.9169L80.1672 27.7479C80.2468 28.0926 80.4158 28.3527 80.6743 28.5284C80.9329 28.7041 81.2693 28.7919 81.6836 28.7919C82.1111 28.7919 82.4542 28.7041 82.7127 28.5284C82.9745 28.3527 83.1054 28.1357 83.1054 27.8771C83.1054 27.6584 83.0209 27.4777 82.8519 27.3352C82.6862 27.1927 82.4276 27.0833 82.0763 27.0071L80.7738 26.7337C80.0413 26.5812 79.4994 26.3243 79.1481 25.9631C78.7967 25.5985 78.6227 25.1378 78.626 24.581C78.6227 24.1103 78.7503 23.7027 79.0088 23.358C79.2707 23.0099 79.6336 22.7415 80.0976 22.5526C80.565 22.3603 81.1035 22.2642 81.7134 22.2642C82.6083 22.2642 83.3126 22.4548 83.8263 22.8359C84.3434 23.2171 84.6632 23.7325 84.7858 24.3821ZM89.2546 30.1491C88.489 30.1491 87.8278 29.9901 87.2709 29.6719C86.7174 29.3504 86.2915 28.8963 85.9932 28.3097C85.6949 27.7197 85.5458 27.0253 85.5458 26.2266C85.5458 25.4411 85.6949 24.7517 85.9932 24.1584C86.2948 23.5618 86.7158 23.0978 87.256 22.7663C87.7963 22.4316 88.431 22.2642 89.1601 22.2642C89.6308 22.2642 90.0749 22.3404 90.4925 22.4929C90.9135 22.642 91.2847 22.8741 91.6062 23.1889C91.931 23.5038 92.1862 23.9048 92.3718 24.392C92.5574 24.8759 92.6502 25.4527 92.6502 26.1222V26.674H86.391V25.4609H90.9251C90.9217 25.1162 90.8472 24.8097 90.7013 24.5412C90.5555 24.2694 90.3517 24.0556 90.0898 23.8999C89.8313 23.7441 89.5297 23.6662 89.185 23.6662C88.8171 23.6662 88.4939 23.7557 88.2155 23.9347C87.9371 24.1103 87.72 24.3423 87.5643 24.6307C87.4118 24.9157 87.3339 25.2289 87.3306 25.5703V26.6293C87.3306 27.0734 87.4118 27.4545 87.5742 27.7727C87.7366 28.0876 87.9636 28.3295 88.2553 28.4986C88.547 28.6643 88.8884 28.7472 89.2795 28.7472C89.5413 28.7472 89.7783 28.7107 89.9904 28.6378C90.2025 28.5616 90.3865 28.4505 90.5422 28.3047C90.698 28.1589 90.8157 27.9782 90.8952 27.7628L92.5756 27.9517C92.4696 28.3958 92.2674 28.7836 91.9691 29.1151C91.6741 29.4432 91.2963 29.6984 90.8356 29.8807C90.3749 30.0597 89.8479 30.1491 89.2546 30.1491ZM99.6483 24.3821L98.0076 24.5611C97.9612 24.3954 97.88 24.2396 97.764 24.0938C97.6513 23.9479 97.4989 23.8303 97.3066 23.7408C97.1144 23.6513 96.8791 23.6065 96.6007 23.6065C96.2261 23.6065 95.9113 23.6877 95.6561 23.8501C95.4042 24.0125 95.2799 24.223 95.2832 24.4815C95.2799 24.7036 95.3611 24.8842 95.5268 25.0234C95.6958 25.1626 95.9743 25.277 96.362 25.3665L97.6646 25.6449C98.3871 25.8007 98.9241 26.0476 99.2754 26.3857C99.63 26.7237 99.809 27.1662 99.8123 27.7131C99.809 28.1937 99.6681 28.6179 99.3897 28.9858C99.1146 29.3504 98.7318 29.6354 98.2413 29.8409C97.7508 30.0464 97.1873 30.1491 96.551 30.1491C95.6163 30.1491 94.8639 29.9536 94.2939 29.5625C93.7238 29.1681 93.3841 28.6196 93.2747 27.9169L95.0297 27.7479C95.1092 28.0926 95.2782 28.3527 95.5368 28.5284C95.7953 28.7041 96.1317 28.7919 96.546 28.7919C96.9735 28.7919 97.3166 28.7041 97.5751 28.5284C97.8369 28.3527 97.9679 28.1357 97.9679 27.8771C97.9679 27.6584 97.8833 27.4777 97.7143 27.3352C97.5486 27.1927 97.2901 27.0833 96.9387 27.0071L95.6362 26.7337C94.9037 26.5812 94.3618 26.3243 94.0105 25.9631C93.6592 25.5985 93.4851 25.1378 93.4885 24.581C93.4851 24.1103 93.6127 23.7027 93.8713 23.358C94.1331 23.0099 94.496 22.7415 94.9601 22.5526C95.4274 22.3603 95.966 22.2642 96.5758 22.2642C97.4707 22.2642 98.175 22.4548 98.6887 22.8359C99.2058 23.2171 99.5256 23.7325 99.6483 24.3821ZM103.729 30V19.8182H107.626C108.362 19.8182 108.974 19.9342 109.461 20.1662C109.951 20.3949 110.318 20.7081 110.56 21.1058C110.805 21.5036 110.927 21.9543 110.927 22.4581C110.927 22.8724 110.848 23.227 110.689 23.522C110.53 23.8137 110.316 24.0507 110.047 24.233C109.779 24.4152 109.479 24.5462 109.148 24.6257V24.7251C109.509 24.745 109.855 24.8561 110.187 25.0582C110.521 25.2571 110.795 25.5388 111.007 25.9034C111.219 26.268 111.325 26.7088 111.325 27.2259C111.325 27.7528 111.198 28.2268 110.942 28.6477C110.687 29.0653 110.303 29.3951 109.789 29.6371C109.275 29.879 108.629 30 107.85 30H103.729ZM105.573 28.4588H107.557C108.226 28.4588 108.708 28.3312 109.003 28.076C109.302 27.8175 109.451 27.486 109.451 27.0817C109.451 26.7801 109.376 26.5083 109.227 26.2663C109.078 26.0211 108.866 25.8288 108.591 25.6896C108.316 25.5471 107.988 25.4759 107.606 25.4759H105.573V28.4588ZM105.573 24.1484H107.398C107.716 24.1484 108.002 24.0904 108.258 23.9744C108.513 23.8551 108.713 23.6877 108.859 23.4723C109.008 23.2536 109.083 22.995 109.083 22.6967C109.083 22.3023 108.944 21.9775 108.665 21.7223C108.39 21.4671 107.981 21.3395 107.437 21.3395H105.573V24.1484ZM112.29 30V22.3636H114.035V23.6364H114.115C114.254 23.1955 114.493 22.8558 114.831 22.6172C115.172 22.3752 115.561 22.2543 115.999 22.2543C116.098 22.2543 116.209 22.2592 116.332 22.2692C116.458 22.2758 116.562 22.2874 116.645 22.304V23.9595C116.569 23.933 116.448 23.9098 116.282 23.8899C116.12 23.8667 115.963 23.8551 115.81 23.8551C115.482 23.8551 115.187 23.9264 114.925 24.0689C114.667 24.2081 114.463 24.402 114.314 24.6506C114.164 24.8991 114.09 25.1858 114.09 25.5107V30H112.29ZM120.347 30.1491C119.582 30.1491 118.92 29.9901 118.364 29.6719C117.81 29.3504 117.384 28.8963 117.086 28.3097C116.788 27.7197 116.638 27.0253 116.638 26.2266C116.638 25.4411 116.788 24.7517 117.086 24.1584C117.387 23.5618 117.808 23.0978 118.349 22.7663C118.889 22.4316 119.524 22.2642 120.253 22.2642C120.723 22.2642 121.167 22.3404 121.585 22.4929C122.006 22.642 122.377 22.8741 122.699 23.1889C123.024 23.5038 123.279 23.9048 123.464 24.392C123.65 24.8759 123.743 25.4527 123.743 26.1222V26.674H117.484V25.4609H122.018C122.014 25.1162 121.94 24.8097 121.794 24.5412C121.648 24.2694 121.444 24.0556 121.182 23.8999C120.924 23.7441 120.622 23.6662 120.278 23.6662C119.91 23.6662 119.587 23.7557 119.308 23.9347C119.03 24.1103 118.813 24.3423 118.657 24.6307C118.504 24.9157 118.426 25.2289 118.423 25.5703V26.6293C118.423 27.0734 118.504 27.4545 118.667 27.7727C118.829 28.0876 119.056 28.3295 119.348 28.4986C119.64 28.6643 119.981 28.7472 120.372 28.7472C120.634 28.7472 120.871 28.7107 121.083 28.6378C121.295 28.5616 121.479 28.4505 121.635 28.3047C121.791 28.1589 121.908 27.9782 121.988 27.7628L123.668 27.9517C123.562 28.3958 123.36 28.7836 123.062 29.1151C122.767 29.4432 122.389 29.6984 121.928 29.8807C121.467 30.0597 120.94 30.1491 120.347 30.1491ZM126.903 30.1541C126.419 30.1541 125.983 30.0679 125.595 29.8956C125.211 29.7199 124.906 29.4614 124.68 29.12C124.458 28.7786 124.347 28.3577 124.347 27.8572C124.347 27.4264 124.427 27.0701 124.586 26.7884C124.745 26.5066 124.962 26.2812 125.237 26.1122C125.512 25.9432 125.822 25.8156 126.167 25.7294C126.515 25.6399 126.875 25.5753 127.246 25.5355C127.693 25.4891 128.056 25.4477 128.335 25.4112C128.613 25.3714 128.815 25.3118 128.941 25.2322C129.07 25.1494 129.135 25.0218 129.135 24.8494V24.8196C129.135 24.4451 129.024 24.1551 128.802 23.9496C128.58 23.7441 128.26 23.6413 127.842 23.6413C127.402 23.6413 127.052 23.7375 126.793 23.9297C126.538 24.1219 126.366 24.349 126.276 24.6108L124.596 24.3722C124.729 23.9081 124.947 23.5204 125.252 23.2088C125.557 22.8939 125.93 22.6586 126.371 22.5028C126.812 22.3438 127.299 22.2642 127.832 22.2642C128.2 22.2642 128.567 22.3073 128.931 22.3935C129.296 22.4796 129.629 22.6222 129.93 22.821C130.232 23.0166 130.474 23.2834 130.656 23.6214C130.842 23.9595 130.935 24.3821 130.935 24.8892V30H129.205V28.951H129.145C129.036 29.1631 128.881 29.362 128.683 29.5476C128.487 29.7299 128.24 29.8774 127.942 29.9901C127.647 30.0994 127.3 30.1541 126.903 30.1541ZM127.37 28.8317C127.731 28.8317 128.045 28.7604 128.31 28.6179C128.575 28.4721 128.779 28.2798 128.921 28.0412C129.067 27.8026 129.14 27.5424 129.14 27.2607V26.3608C129.084 26.4072 128.988 26.4503 128.852 26.4901C128.719 26.5298 128.57 26.5646 128.404 26.5945C128.238 26.6243 128.074 26.6508 127.912 26.674C127.75 26.6972 127.609 26.7171 127.489 26.7337C127.221 26.7701 126.981 26.8298 126.769 26.9126C126.556 26.9955 126.389 27.1115 126.266 27.2607C126.144 27.4065 126.082 27.5954 126.082 27.8274C126.082 28.1589 126.203 28.4091 126.445 28.5781C126.687 28.7472 126.996 28.8317 127.37 28.8317ZM133.825 27.6037L133.82 25.4311H134.108L136.853 22.3636H138.956L135.58 26.1222H135.207L133.825 27.6037ZM132.184 30V19.8182H133.984V30H132.184ZM136.977 30L134.491 26.5249L135.704 25.2571L139.13 30H136.977ZM142.114 30.1342C141.515 30.1342 140.978 29.9801 140.504 29.6719C140.03 29.3636 139.655 28.9162 139.38 28.3295C139.105 27.7429 138.967 27.0303 138.967 26.1918C138.967 25.3433 139.107 24.6274 139.385 24.044C139.667 23.4574 140.046 23.0149 140.524 22.7166C141.001 22.415 141.533 22.2642 142.119 22.2642C142.567 22.2642 142.935 22.3404 143.223 22.4929C143.511 22.642 143.74 22.8227 143.909 23.0348C144.078 23.2436 144.209 23.4408 144.302 23.6264H144.377V19.8182H146.181V30H144.411V28.7969H144.302C144.209 28.9825 144.075 29.1797 143.899 29.3885C143.724 29.594 143.492 29.7696 143.203 29.9155C142.915 30.0613 142.552 30.1342 142.114 30.1342ZM142.617 28.6577C142.998 28.6577 143.323 28.5549 143.591 28.3494C143.859 28.1406 144.063 27.8506 144.203 27.4794C144.342 27.1082 144.411 26.6757 144.411 26.1818C144.411 25.688 144.342 25.2588 144.203 24.8942C144.067 24.5296 143.864 24.2462 143.596 24.044C143.331 23.8419 143.004 23.7408 142.617 23.7408C142.216 23.7408 141.881 23.8452 141.612 24.054C141.344 24.2628 141.142 24.5511 141.006 24.919C140.87 25.2869 140.802 25.7079 140.802 26.1818C140.802 26.6591 140.87 27.085 141.006 27.4595C141.145 27.8307 141.349 28.1241 141.617 28.3395C141.889 28.5516 142.222 28.6577 142.617 28.6577ZM150.87 30.1491C150.124 30.1491 149.478 29.9851 148.931 29.657C148.384 29.3288 147.96 28.8698 147.658 28.2798C147.36 27.6899 147.211 27.0005 147.211 26.2116C147.211 25.4228 147.36 24.7318 147.658 24.1385C147.96 23.5452 148.384 23.0845 148.931 22.7564C149.478 22.4283 150.124 22.2642 150.87 22.2642C151.616 22.2642 152.262 22.4283 152.809 22.7564C153.356 23.0845 153.778 23.5452 154.077 24.1385C154.378 24.7318 154.529 25.4228 154.529 26.2116C154.529 27.0005 154.378 27.6899 154.077 28.2798C153.778 28.8698 153.356 29.3288 152.809 29.657C152.262 29.9851 151.616 30.1491 150.87 30.1491ZM150.88 28.7074C151.284 28.7074 151.622 28.5964 151.894 28.3743C152.166 28.1489 152.368 27.8473 152.501 27.4695C152.637 27.0916 152.704 26.6707 152.704 26.2067C152.704 25.7393 152.637 25.3168 152.501 24.9389C152.368 24.5578 152.166 24.2545 151.894 24.0291C151.622 23.8037 151.284 23.6911 150.88 23.6911C150.466 23.6911 150.121 23.8037 149.846 24.0291C149.574 24.2545 149.37 24.5578 149.234 24.9389C149.102 25.3168 149.035 25.7393 149.035 26.2067C149.035 26.6707 149.102 27.0916 149.234 27.4695C149.37 27.8473 149.574 28.1489 149.846 28.3743C150.121 28.5964 150.466 28.7074 150.88 28.7074ZM156.854 30L154.696 22.3636H156.531L157.873 27.733H157.943L159.315 22.3636H161.129L162.502 27.7031H162.576L163.899 22.3636H165.738L163.575 30H161.701L160.269 24.8395H160.165L158.733 30H156.854ZM168.234 25.5256V30H166.435V22.3636H168.155V23.6612H168.244C168.42 23.2337 168.7 22.8939 169.084 22.642C169.472 22.3902 169.951 22.2642 170.521 22.2642C171.048 22.2642 171.507 22.3769 171.898 22.6023C172.293 22.8277 172.598 23.1541 172.813 23.5817C173.032 24.0092 173.14 24.5279 173.136 25.1378V30H171.337V25.4162C171.337 24.9058 171.204 24.5064 170.939 24.218C170.677 23.9297 170.314 23.7855 169.85 23.7855C169.535 23.7855 169.255 23.8551 169.01 23.9943C168.768 24.1302 168.577 24.3274 168.438 24.5859C168.302 24.8445 168.234 25.1577 168.234 25.5256Z" fill="#2B2C36"/>
<mask id="mask1_53_3430" style="mask-type:alpha" maskUnits="userSpaceOnUse" x="281" y="16" width="16" height="16">
<rect x="281" y="16" width="16" height="16" fill="#D9D9D9"/>
</mask>
<g mask="url(#mask1_53_3430)">
<path d="M291.667 21.6002L285.733 27.5335C285.611 27.6557 285.456 27.7168 285.267 27.7168C285.078 27.7168 284.922 27.6557 284.8 27.5335C284.678 27.4113 284.617 27.2557 284.617 27.0668C284.617 26.8779 284.678 26.7224 284.8 26.6002L290.733 20.6668H285.667C285.478 20.6668 285.32 20.6029 285.192 20.4752C285.064 20.3474 285 20.1891 285 20.0002C285 19.8113 285.064 19.6529 285.192 19.5252C285.32 19.3974 285.478 19.3335 285.667 19.3335H292.333C292.522 19.3335 292.681 19.3974 292.808 19.5252C292.936 19.6529 293 19.8113 293 20.0002V26.6668C293 26.8557 292.936 27.0141 292.808 27.1418C292.681 27.2696 292.522 27.3335 292.333 27.3335C292.145 27.3335 291.986 27.2696 291.858 27.1418C291.731 27.0141 291.667 26.8557 291.667 26.6668V21.6002Z" fill="#949599"/>
</g>
<path d="M18.4117 75V72.4304L25.2288 65.7475C25.8808 65.0891 26.4241 64.5043 26.8587 63.9929C27.2934 63.4815 27.6194 62.9862 27.8367 62.5067C28.0541 62.0273 28.1627 61.516 28.1627 60.9727C28.1627 60.3526 28.0221 59.8221 27.7408 59.381C27.4596 58.9336 27.0729 58.5884 26.5807 58.3455C26.0885 58.1026 25.5292 57.9812 24.9028 57.9812C24.2572 57.9812 23.6915 58.1154 23.2057 58.3839C22.7199 58.646 22.3428 59.0199 22.0743 59.5057C21.8122 59.9915 21.6812 60.57 21.6812 61.2411H18.2966C18.2966 59.9947 18.581 58.9112 19.1499 57.9908C19.7188 57.0703 20.5019 56.3576 21.499 55.8526C22.5026 55.3477 23.6531 55.0952 24.9507 55.0952C26.2675 55.0952 27.4244 55.3413 28.4216 55.8335C29.4188 56.3256 30.1922 57 30.7419 57.8565C31.298 58.7131 31.5761 59.6911 31.5761 60.7905C31.5761 61.5256 31.4354 62.2479 31.1542 62.9574C30.8729 63.6669 30.3776 64.4531 29.668 65.3161C28.9649 66.179 27.9774 67.2241 26.7053 68.4513L23.3207 71.8935V72.0277H31.8733V75H18.4117ZM33.3246 71.3565V68.5281L41.6566 55.3636H44.0152V59.3906H42.577L36.968 68.2788V68.4322H48.5983V71.3565H33.3246ZM42.6921 75V70.4936L42.7304 69.228V55.3636H46.0863V75H42.6921ZM57.8399 75.3739C56.2611 75.3739 54.906 74.9744 53.7746 74.1754C52.6496 73.37 51.7834 72.2099 51.1762 70.695C50.5753 69.1737 50.2749 67.3423 50.2749 65.201C50.2813 63.0597 50.5849 61.2379 51.1858 59.7358C51.793 58.2273 52.6591 57.0767 53.7841 56.2841C54.9155 55.4915 56.2675 55.0952 57.8399 55.0952C59.4123 55.0952 60.7643 55.4915 61.8957 56.2841C63.027 57.0767 63.8932 58.2273 64.494 59.7358C65.1013 61.2443 65.4049 63.0661 65.4049 65.201C65.4049 67.3487 65.1013 69.1832 64.494 70.7045C63.8932 72.2195 63.027 73.3764 61.8957 74.1754C60.7707 74.9744 59.4187 75.3739 57.8399 75.3739ZM57.8399 72.3729C59.0672 72.3729 60.0356 71.7688 60.7451 70.5607C61.461 69.3462 61.8189 67.5597 61.8189 65.201C61.8189 63.6413 61.656 62.331 61.33 61.2699C61.004 60.2088 60.5437 59.4098 59.9493 58.8729C59.3548 58.3295 58.6517 58.0579 57.8399 58.0579C56.619 58.0579 55.6538 58.6651 54.9443 59.8796C54.2348 61.0877 53.8768 62.8615 53.8704 65.201C53.864 66.767 54.0207 68.0838 54.3403 69.1513C54.6662 70.2187 55.1265 71.0241 55.7209 71.5675C56.3154 72.1044 57.0217 72.3729 57.8399 72.3729ZM70.8592 72.3153L70.7345 73.37C70.645 74.1754 70.4852 74.9936 70.2551 75.8246C70.0314 76.6619 69.7949 77.4322 69.5456 78.1353C69.2963 78.8384 69.0949 79.3913 68.9415 79.794H66.6021C66.6915 79.4041 66.813 78.8736 66.9664 78.2024C67.1262 77.5313 67.2796 76.777 67.4266 75.9396C67.5736 75.1023 67.6727 74.2521 67.7239 73.3892L67.791 72.3153H70.8592ZM80.1223 75.3739C78.5434 75.3739 77.1883 74.9744 76.0569 74.1754C74.9319 73.37 74.0658 72.2099 73.4586 70.695C72.8577 69.1737 72.5573 67.3423 72.5573 65.201C72.5637 63.0597 72.8673 61.2379 73.4682 59.7358C74.0754 58.2273 74.9415 57.0767 76.0665 56.2841C77.1979 55.4915 78.5498 55.0952 80.1223 55.0952C81.6947 55.0952 83.0466 55.4915 84.178 56.2841C85.3094 57.0767 86.1756 58.2273 86.7764 59.7358C87.3836 61.2443 87.6873 63.0661 87.6873 65.201C87.6873 67.3487 87.3836 69.1832 86.7764 70.7045C86.1756 72.2195 85.3094 73.3764 84.178 74.1754C83.053 74.9744 81.7011 75.3739 80.1223 75.3739ZM80.1223 72.3729C81.3496 72.3729 82.318 71.7688 83.0275 70.5607C83.7434 69.3462 84.1013 67.5597 84.1013 65.201C84.1013 63.6413 83.9383 62.331 83.6123 61.2699C83.2863 60.2088 82.8261 59.4098 82.2317 58.8729C81.6372 58.3295 80.9341 58.0579 80.1223 58.0579C78.9014 58.0579 77.9362 58.6651 77.2267 59.8796C76.5172 61.0877 76.1592 62.8615 76.1528 65.201C76.1464 66.767 76.303 68.0838 76.6226 69.1513C76.9486 70.2187 77.4089 71.0241 78.0033 71.5675C78.5978 72.1044 79.3041 72.3729 80.1223 72.3729ZM97.0511 75.3739C95.4722 75.3739 94.1171 74.9744 92.9857 74.1754C91.8607 73.37 90.9946 72.2099 90.3874 70.695C89.7865 69.1737 89.4861 67.3423 89.4861 65.201C89.4925 63.0597 89.7961 61.2379 90.397 59.7358C91.0042 58.2273 91.8703 57.0767 92.9953 56.2841C94.1267 55.4915 95.4786 55.0952 97.0511 55.0952C98.6235 55.0952 99.9754 55.4915 101.107 56.2841C102.238 57.0767 103.104 58.2273 103.705 59.7358C104.312 61.2443 104.616 63.0661 104.616 65.201C104.616 67.3487 104.312 69.1832 103.705 70.7045C103.104 72.2195 102.238 73.3764 101.107 74.1754C99.9818 74.9744 98.6299 75.3739 97.0511 75.3739ZM97.0511 72.3729C98.2783 72.3729 99.2467 71.7688 99.9563 70.5607C100.672 69.3462 101.03 67.5597 101.03 65.201C101.03 63.6413 100.867 62.331 100.541 61.2699C100.215 60.2088 99.7549 59.4098 99.1604 58.8729C98.566 58.3295 97.8629 58.0579 97.0511 58.0579C95.8302 58.0579 94.865 58.6651 94.1555 59.8796C93.446 61.0877 93.088 62.8615 93.0816 65.201C93.0752 66.767 93.2318 68.0838 93.5514 69.1513C93.8774 70.2187 94.3376 71.0241 94.9321 71.5675C95.5266 72.1044 96.2329 72.3729 97.0511 72.3729ZM113.98 75.3739C112.401 75.3739 111.046 74.9744 109.915 74.1754C108.79 73.37 107.923 72.2099 107.316 70.695C106.715 69.1737 106.415 67.3423 106.415 65.201C106.421 63.0597 106.725 61.2379 107.326 59.7358C107.933 58.2273 108.799 57.0767 109.924 56.2841C111.055 55.4915 112.407 55.0952 113.98 55.0952C115.552 55.0952 116.904 55.4915 118.036 56.2841C119.167 57.0767 120.033 58.2273 120.634 59.7358C121.241 61.2443 121.545 63.0661 121.545 65.201C121.545 67.3487 121.241 69.1832 120.634 70.7045C120.033 72.2195 119.167 73.3764 118.036 74.1754C116.911 74.9744 115.559 75.3739 113.98 75.3739ZM113.98 72.3729C115.207 72.3729 116.176 71.7688 116.885 70.5607C117.601 69.3462 117.959 67.5597 117.959 65.201C117.959 63.6413 117.796 62.331 117.47 61.2699C117.144 60.2088 116.684 59.4098 116.089 58.8729C115.495 58.3295 114.792 58.0579 113.98 58.0579C112.759 58.0579 111.794 58.6651 111.084 59.8796C110.375 61.0877 110.017 62.8615 110.01 65.201C110.004 66.767 110.161 68.0838 110.48 69.1513C110.806 70.2187 111.266 71.0241 111.861 71.5675C112.455 72.1044 113.162 72.3729 113.98 72.3729Z" fill="#2B2C36"/>
<path d="M19.1524 91.8182V102H17.6659V91.8182H19.1524ZM22.8145 102.169C22.3306 102.169 21.8931 102.08 21.502 101.901C21.1109 101.718 20.8011 101.455 20.5724 101.11C20.347 100.765 20.2343 100.343 20.2343 99.8423C20.2343 99.4115 20.3171 99.0568 20.4829 98.7784C20.6486 98.5 20.8723 98.2796 21.154 98.1172C21.4358 97.9548 21.7506 97.8321 22.0986 97.7493C22.4466 97.6664 22.8013 97.6035 23.1626 97.5604C23.6199 97.5073 23.9912 97.4643 24.2762 97.4311C24.5612 97.3946 24.7684 97.3366 24.8976 97.2571C25.0269 97.1776 25.0915 97.0483 25.0915 96.8693V96.8345C25.0915 96.4003 24.9689 96.0639 24.7236 95.8253C24.4817 95.5866 24.1204 95.4673 23.6398 95.4673C23.1394 95.4673 22.7449 95.5784 22.4566 95.8004C22.1716 96.0192 21.9743 96.2628 21.865 96.5312L20.468 96.2131C20.6337 95.7491 20.8756 95.3745 21.1938 95.0895C21.5153 94.8011 21.8849 94.5923 22.3025 94.4631C22.7201 94.3305 23.1592 94.2642 23.6199 94.2642C23.9249 94.2642 24.248 94.3007 24.5894 94.3736C24.9341 94.4432 25.2556 94.5724 25.5539 94.7614C25.8555 94.9503 26.1024 95.2204 26.2947 95.5717C26.4869 95.9197 26.583 96.3722 26.583 96.929V102H25.1313V100.956H25.0716C24.9755 101.148 24.8314 101.337 24.6391 101.523C24.4469 101.708 24.2 101.862 23.8984 101.985C23.5967 102.108 23.2355 102.169 22.8145 102.169ZM23.1377 100.976C23.5487 100.976 23.9 100.895 24.1917 100.732C24.4867 100.57 24.7104 100.358 24.8628 100.096C25.0186 99.8307 25.0965 99.5473 25.0965 99.2457V98.2614C25.0435 98.3144 24.9407 98.3641 24.7883 98.4105C24.6391 98.4536 24.4684 98.4917 24.2762 98.5249C24.084 98.5547 23.8967 98.5829 23.7144 98.6094C23.5321 98.6326 23.3796 98.6525 23.257 98.669C22.9687 98.7055 22.7052 98.7668 22.4665 98.853C22.2312 98.9392 22.0423 99.0634 21.8998 99.2259C21.7606 99.3849 21.691 99.5971 21.691 99.8622C21.691 100.23 21.8269 100.509 22.0986 100.697C22.3704 100.883 22.7168 100.976 23.1377 100.976ZM33.7252 96.228L32.3779 96.4666C32.3216 96.2943 32.2321 96.1302 32.1095 95.9744C31.9902 95.8187 31.8278 95.6911 31.6223 95.5916C31.4168 95.4922 31.1599 95.4425 30.8517 95.4425C30.4307 95.4425 30.0794 95.5369 29.7977 95.7259C29.516 95.9115 29.3751 96.1518 29.3751 96.4467C29.3751 96.7019 29.4696 96.9074 29.6585 97.0632C29.8474 97.219 30.1523 97.3466 30.5733 97.446L31.7863 97.7244C32.489 97.8868 33.0127 98.1371 33.3574 98.4751C33.702 98.8132 33.8744 99.2524 33.8744 99.7926C33.8744 100.25 33.7418 100.658 33.4767 101.016C33.2148 101.37 32.8486 101.649 32.3779 101.851C31.9106 102.053 31.3687 102.154 30.7522 102.154C29.8971 102.154 29.1994 101.972 28.6592 101.607C28.119 101.239 27.7875 100.717 27.6649 100.041L29.1017 99.8224C29.1912 100.197 29.3751 100.48 29.6535 100.673C29.9319 100.862 30.2949 100.956 30.7423 100.956C31.2295 100.956 31.619 100.855 31.9106 100.653C32.2023 100.447 32.3481 100.197 32.3481 99.902C32.3481 99.6634 32.2586 99.4628 32.0797 99.3004C31.904 99.138 31.6339 99.0154 31.2693 98.9325L29.9767 98.6491C29.2641 98.4867 28.7371 98.2282 28.3957 97.8736C28.0576 97.5189 27.8886 97.0698 27.8886 96.5263C27.8886 96.0755 28.0145 95.6811 28.2664 95.343C28.5183 95.005 28.8663 94.7415 29.3105 94.5526C29.7546 94.3603 30.2634 94.2642 30.8368 94.2642C31.662 94.2642 32.3117 94.4432 32.7856 94.8011C33.2596 95.1558 33.5728 95.6314 33.7252 96.228ZM38.5134 94.3636V95.5568H34.3423V94.3636H38.5134ZM35.4609 92.5341H36.9474V99.7578C36.9474 100.046 36.9905 100.263 37.0766 100.409C37.1628 100.552 37.2739 100.649 37.4097 100.702C37.5489 100.752 37.6998 100.777 37.8622 100.777C37.9815 100.777 38.0859 100.769 38.1754 100.752C38.2649 100.736 38.3345 100.722 38.3842 100.712L38.6526 101.94C38.5665 101.973 38.4438 102.007 38.2847 102.04C38.1257 102.076 37.9268 102.096 37.6882 102.099C37.2971 102.106 36.9325 102.036 36.5944 101.891C36.2563 101.745 35.9829 101.519 35.7741 101.214C35.5653 100.91 35.4609 100.527 35.4609 100.066V92.5341ZM46.2777 102.139C45.8236 102.133 45.3762 102.05 44.9353 101.891C44.4978 101.732 44.1001 101.466 43.7422 101.095C43.3842 100.724 43.0975 100.225 42.8821 99.5987C42.67 98.9723 42.5639 98.1901 42.5639 97.2521C42.5639 96.3639 42.6517 95.575 42.8274 94.8857C43.0064 94.1963 43.2632 93.6146 43.598 93.1406C43.9327 92.6634 44.3371 92.3004 44.8111 92.0518C45.285 91.8033 45.817 91.679 46.4069 91.679C47.0135 91.679 47.5521 91.7983 48.0227 92.0369C48.4933 92.2756 48.8745 92.6054 49.1662 93.0263C49.4611 93.4472 49.6484 93.9261 49.728 94.4631H48.2116C48.1089 94.0388 47.905 93.6925 47.6001 93.424C47.2952 93.1555 46.8975 93.0213 46.4069 93.0213C45.6612 93.0213 45.0795 93.3461 44.6619 93.9957C44.2476 94.6454 44.0388 95.5485 44.0355 96.7053H44.1101C44.2857 96.4169 44.5012 96.1716 44.7564 95.9695C45.0149 95.764 45.3032 95.6065 45.6214 95.4972C45.9429 95.3845 46.281 95.3281 46.6356 95.3281C47.2256 95.3281 47.7592 95.4723 48.2365 95.7607C48.7171 96.0457 49.0999 96.4401 49.3849 96.9439C49.67 97.4477 49.8125 98.0244 49.8125 98.674C49.8125 99.3236 49.665 99.9119 49.37 100.439C49.0783 100.966 48.6673 101.384 48.137 101.692C47.6067 101.997 46.987 102.146 46.2777 102.139ZM46.2727 100.847C46.6638 100.847 47.0135 100.75 47.3217 100.558C47.6299 100.366 47.8736 100.107 48.0525 99.7827C48.2315 99.4579 48.321 99.0949 48.321 98.6939C48.321 98.3028 48.2332 97.9465 48.0575 97.625C47.8852 97.3035 47.6465 97.0483 47.3416 96.8594C47.04 96.6705 46.6953 96.576 46.3075 96.576C46.0125 96.576 45.7391 96.6323 45.4872 96.745C45.2386 96.8577 45.0199 97.0135 44.8309 97.2124C44.642 97.4112 44.4929 97.6399 44.3835 97.8984C44.2774 98.1536 44.2244 98.4238 44.2244 98.7088C44.2244 99.09 44.3122 99.4429 44.4879 99.7678C44.6669 100.093 44.9105 100.354 45.2187 100.553C45.5303 100.749 45.8816 100.847 46.2727 100.847ZM54.2283 102V94.3636H55.6552V95.6065H55.7496C55.9087 95.1856 56.1689 94.8575 56.5302 94.6222C56.8915 94.3835 57.324 94.2642 57.8278 94.2642C58.3382 94.2642 58.7657 94.3835 59.1104 94.6222C59.4585 94.8608 59.7153 95.1889 59.881 95.6065H59.9606C60.1429 95.1989 60.4329 94.8741 60.8306 94.6321C61.2283 94.3868 61.7023 94.2642 62.2525 94.2642C62.9452 94.2642 63.5103 94.4813 63.9478 94.9155C64.3886 95.3497 64.609 96.0043 64.609 96.8793V102H63.1225V97.0185C63.1225 96.5014 62.9817 96.1269 62.6999 95.8949C62.4182 95.6629 62.0818 95.5469 61.6907 95.5469C61.2068 95.5469 60.8306 95.696 60.5621 95.9943C60.2937 96.2893 60.1594 96.6688 60.1594 97.1328V102H58.6779V96.924C58.6779 96.5097 58.5487 96.1766 58.2901 95.9247C58.0316 95.6728 57.6952 95.5469 57.2809 95.5469C56.9992 95.5469 56.739 95.6214 56.5004 95.7706C56.265 95.9164 56.0745 96.1203 55.9286 96.3821C55.7861 96.6439 55.7148 96.9472 55.7148 97.2919V102H54.2283ZM69.258 102.154C68.5421 102.154 67.9173 101.99 67.3837 101.662C66.8501 101.334 66.4358 100.875 66.1408 100.285C65.8458 99.6948 65.6983 99.0054 65.6983 98.2166C65.6983 97.4245 65.8458 96.7318 66.1408 96.1385C66.4358 95.5452 66.8501 95.0845 67.3837 94.7564C67.9173 94.4283 68.5421 94.2642 69.258 94.2642C69.9739 94.2642 70.5987 94.4283 71.1323 94.7564C71.6659 95.0845 72.0802 95.5452 72.3752 96.1385C72.6702 96.7318 72.8177 97.4245 72.8177 98.2166C72.8177 99.0054 72.6702 99.6948 72.3752 100.285C72.0802 100.875 71.6659 101.334 71.1323 101.662C70.5987 101.99 69.9739 102.154 69.258 102.154ZM69.263 100.906C69.727 100.906 70.1115 100.784 70.4164 100.538C70.7213 100.293 70.9467 99.9666 71.0925 99.5589C71.2417 99.1513 71.3162 98.7022 71.3162 98.2116C71.3162 97.7244 71.2417 97.277 71.0925 96.8693C70.9467 96.4583 70.7213 96.1286 70.4164 95.88C70.1115 95.6314 69.727 95.5071 69.263 95.5071C68.7956 95.5071 68.4079 95.6314 68.0996 95.88C67.7947 96.1286 67.5677 96.4583 67.4185 96.8693C67.2727 97.277 67.1998 97.7244 67.1998 98.2116C67.1998 98.7022 67.2727 99.1513 67.4185 99.5589C67.5677 99.9666 67.7947 100.293 68.0996 100.538C68.4079 100.784 68.7956 100.906 69.263 100.906ZM75.4034 97.4659V102H73.9169V94.3636H75.3438V95.6065H75.4382C75.6139 95.2022 75.889 94.8774 76.2635 94.6321C76.6414 94.3868 77.117 94.2642 77.6904 94.2642C78.2107 94.2642 78.6665 94.3736 79.0576 94.5923C79.4487 94.8078 79.7519 95.1293 79.9674 95.5568C80.1828 95.9844 80.2905 96.513 80.2905 97.1428V102H78.804V97.3217C78.804 96.7682 78.6598 96.3357 78.3715 96.0241C78.0831 95.7093 77.6871 95.5518 77.1833 95.5518C76.8386 95.5518 76.532 95.6264 76.2635 95.7756C75.9984 95.9247 75.7879 96.1435 75.6321 96.4318C75.4797 96.7169 75.4034 97.0616 75.4034 97.4659ZM85.2888 94.3636V95.5568H81.1176V94.3636H85.2888ZM82.2362 92.5341H83.7227V99.7578C83.7227 100.046 83.7658 100.263 83.852 100.409C83.9381 100.552 84.0492 100.649 84.1851 100.702C84.3243 100.752 84.4751 100.777 84.6375 100.777C84.7568 100.777 84.8612 100.769 84.9507 100.752C85.0402 100.736 85.1098 100.722 85.1595 100.712L85.428 101.94C85.3418 101.973 85.2191 102.007 85.0601 102.04C84.901 102.076 84.7021 102.096 84.4635 102.099C84.0724 102.106 83.7078 102.036 83.3697 101.891C83.0316 101.745 82.7582 101.519 82.5494 101.214C82.3406 100.91 82.2362 100.527 82.2362 100.066V92.5341ZM88.0237 97.4659V102H86.5372V91.8182H88.0038V95.6065H88.0982C88.2772 95.1955 88.5507 94.8691 88.9186 94.6271C89.2865 94.3852 89.767 94.2642 90.3603 94.2642C90.884 94.2642 91.3414 94.3719 91.7325 94.5874C92.1269 94.8028 92.4318 95.1243 92.6472 95.5518C92.866 95.9761 92.9754 96.5064 92.9754 97.1428V102H91.4889V97.3217C91.4889 96.7616 91.3447 96.3274 91.0563 96.0192C90.768 95.7076 90.3669 95.5518 89.8532 95.5518C89.5019 95.5518 89.187 95.6264 88.9086 95.7756C88.6335 95.9247 88.4164 96.1435 88.2573 96.4318C88.1016 96.7169 88.0237 97.0616 88.0237 97.4659ZM100.121 96.228L98.774 96.4666C98.7177 96.2943 98.6282 96.1302 98.5056 95.9744C98.3863 95.8187 98.2239 95.6911 98.0184 95.5916C97.8129 95.4922 97.556 95.4425 97.2478 95.4425C96.8268 95.4425 96.4755 95.5369 96.1938 95.7259C95.9121 95.9115 95.7712 96.1518 95.7712 96.4467C95.7712 96.7019 95.8657 96.9074 96.0546 97.0632C96.2435 97.219 96.5484 97.3466 96.9694 97.446L98.1824 97.7244C98.8851 97.8868 99.4087 98.1371 99.7534 98.4751C100.098 98.8132 100.27 99.2524 100.27 99.7926C100.27 100.25 100.138 100.658 99.8728 101.016C99.6109 101.37 99.2447 101.649 98.774 101.851C98.3067 102.053 97.7648 102.154 97.1483 102.154C96.2932 102.154 95.5955 101.972 95.0553 101.607C94.515 101.239 94.1836 100.717 94.061 100.041L95.4978 99.8224C95.5872 100.197 95.7712 100.48 96.0496 100.673C96.328 100.862 96.6909 100.956 97.1384 100.956C97.6256 100.956 98.015 100.855 98.3067 100.653C98.5984 100.447 98.7442 100.197 98.7442 99.902C98.7442 99.6634 98.6547 99.4628 98.4757 99.3004C98.3001 99.138 98.03 99.0154 97.6654 98.9325L96.3728 98.6491C95.6602 98.4867 95.1332 98.2282 94.7918 97.8736C94.4537 97.5189 94.2847 97.0698 94.2847 96.5263C94.2847 96.0755 94.4106 95.6811 94.6625 95.343C94.9144 95.005 95.2624 94.7415 95.7066 94.5526C96.1507 94.3603 96.6595 94.2642 97.2328 94.2642C98.0581 94.2642 98.7078 94.4432 99.1817 94.8011C99.6557 95.1558 99.9689 95.6314 100.121 96.228Z" fill="#949599"/>
<path d="M25.1254 263.727V271H24.0246V264.828H23.982L22.2419 265.964V264.913L24.0565 263.727H25.1254ZM29.2247 271.121C28.6636 271.118 28.1842 270.97 27.7865 270.677C27.3888 270.383 27.0846 269.956 26.8739 269.395C26.6632 268.834 26.5578 268.158 26.5578 267.367C26.5578 266.579 26.6632 265.905 26.8739 265.347C27.0869 264.788 27.3923 264.362 27.7901 264.068C28.1902 263.775 28.6684 263.628 29.2247 263.628C29.7811 263.628 30.2581 263.776 30.6558 264.072C31.0536 264.365 31.3578 264.791 31.5685 265.35C31.7815 265.906 31.8881 266.579 31.8881 267.367C31.8881 268.16 31.7827 268.837 31.572 269.398C31.3613 269.957 31.0571 270.384 30.6594 270.68C30.2617 270.974 29.7834 271.121 29.2247 271.121ZM29.2247 270.173C29.7171 270.173 30.1019 269.932 30.3788 269.452C30.6582 268.971 30.7979 268.276 30.7979 267.367C30.7979 266.763 30.734 266.253 30.6061 265.837C30.4806 265.418 30.2995 265.1 30.0628 264.885C29.8284 264.667 29.5491 264.558 29.2247 264.558C28.7347 264.558 28.35 264.8 28.0706 265.283C27.7912 265.766 27.6504 266.46 27.648 267.367C27.648 267.973 27.7108 268.486 27.8362 268.905C27.9641 269.321 28.1452 269.638 28.3796 269.853C28.6139 270.066 28.8957 270.173 29.2247 270.173Z" fill="#B7B7BA"/>
<path d="M47 121V278" stroke="#F4F6FA"/>
<path d="M290 152.4L17 152.4" stroke="#F4F6FA"/>
<path d="M290 183.8L17 183.8" stroke="#F4F6FA"/>
<path d="M290 215.2L17 215.2" stroke="#F4F6FA"/>
<path d="M290 246.6L17 246.6" stroke="#F4F6FA"/>
<path d="M290 278L17 278" stroke="#F4F6FA"/>
<path d="M25.1254 139.727V147H24.0246V140.828H23.982L22.2419 141.964V140.913L24.0565 139.727H25.1254ZM29.2247 147.121C28.6636 147.118 28.1842 146.97 27.7865 146.677C27.3888 146.383 27.0846 145.956 26.8739 145.395C26.6632 144.834 26.5578 144.158 26.5578 143.367C26.5578 142.579 26.6632 141.905 26.8739 141.347C27.0869 140.788 27.3923 140.362 27.7901 140.068C28.1902 139.775 28.6684 139.628 29.2247 139.628C29.7811 139.628 30.2581 139.776 30.6558 140.072C31.0536 140.365 31.3578 140.791 31.5685 141.35C31.7815 141.906 31.8881 142.579 31.8881 143.367C31.8881 144.16 31.7827 144.837 31.572 145.398C31.3613 145.957 31.0571 146.384 30.6594 146.68C30.2617 146.974 29.7834 147.121 29.2247 147.121ZM29.2247 146.173C29.7171 146.173 30.1019 145.932 30.3788 145.452C30.6582 144.971 30.7979 144.276 30.7979 143.367C30.7979 142.763 30.734 142.253 30.6061 141.837C30.4806 141.418 30.2995 141.1 30.0628 140.885C29.8284 140.667 29.5491 140.558 29.2247 140.558C28.7347 140.558 28.35 140.8 28.0706 141.283C27.7912 141.766 27.6504 142.46 27.648 143.367C27.648 143.973 27.7108 144.486 27.8362 144.905C27.9641 145.321 28.1452 145.638 28.3796 145.853C28.6139 146.066 28.8957 146.173 29.2247 146.173ZM35.2798 147.121C34.7187 147.118 34.2393 146.97 33.8416 146.677C33.4439 146.383 33.1396 145.956 32.9289 145.395C32.7182 144.834 32.6129 144.158 32.6129 143.367C32.6129 142.579 32.7182 141.905 32.9289 141.347C33.142 140.788 33.4474 140.362 33.8451 140.068C34.2452 139.775 34.7235 139.628 35.2798 139.628C35.8361 139.628 36.3132 139.776 36.7109 140.072C37.1086 140.365 37.4128 140.791 37.6236 141.35C37.8366 141.906 37.9432 142.579 37.9432 143.367C37.9432 144.16 37.8378 144.837 37.6271 145.398C37.4164 145.957 37.1122 146.384 36.7145 146.68C36.3167 146.974 35.8385 147.121 35.2798 147.121ZM35.2798 146.173C35.7722 146.173 36.1569 145.932 36.4339 145.452C36.7133 144.971 36.853 144.276 36.853 143.367C36.853 142.763 36.789 142.253 36.6612 141.837C36.5357 141.418 36.3546 141.1 36.1179 140.885C35.8835 140.667 35.6041 140.558 35.2798 140.558C34.7897 140.558 34.405 140.8 34.1257 141.283C33.8463 141.766 33.7055 142.46 33.7031 143.367C33.7031 143.973 33.7658 144.486 33.8913 144.905C34.0191 145.321 34.2003 145.638 34.4346 145.853C34.669 146.066 34.9507 146.173 35.2798 146.173Z" fill="#B7B7BA"/>
<path d="M24.8236 178.099C24.3146 178.099 23.8648 178.012 23.4742 177.837C23.0859 177.661 22.7817 177.42 22.5615 177.112C22.3413 176.804 22.2324 176.454 22.2348 176.061C22.2324 175.753 22.2952 175.47 22.423 175.212C22.5532 174.952 22.7296 174.735 22.9521 174.562C23.1747 174.387 23.4233 174.276 23.6979 174.229V174.186C23.3357 174.098 23.0457 173.904 22.8278 173.604C22.61 173.303 22.5023 172.957 22.5047 172.567C22.5023 172.195 22.6006 171.864 22.7994 171.572C23.0007 171.279 23.2765 171.048 23.6269 170.88C23.9772 170.712 24.3761 170.628 24.8236 170.628C25.2663 170.628 25.6617 170.713 26.0097 170.884C26.36 171.052 26.6358 171.282 26.8371 171.576C27.0383 171.867 27.1401 172.197 27.1425 172.567C27.1401 172.957 27.0288 173.303 26.8087 173.604C26.5885 173.904 26.302 174.098 25.9493 174.186V174.229C26.2216 174.276 26.4666 174.387 26.6844 174.562C26.9046 174.735 27.0797 174.952 27.2099 175.212C27.3425 175.47 27.41 175.753 27.4124 176.061C27.41 176.454 27.2987 176.804 27.0786 177.112C26.8584 177.42 26.553 177.661 26.1624 177.837C25.7741 178.012 25.3278 178.099 24.8236 178.099ZM24.8236 177.201C25.1242 177.201 25.3847 177.151 25.6048 177.052C25.825 176.95 25.9955 176.809 26.1162 176.629C26.2369 176.447 26.2985 176.234 26.3009 175.99C26.2985 175.737 26.2322 175.513 26.102 175.319C25.9742 175.125 25.8001 174.972 25.58 174.861C25.3598 174.75 25.1077 174.694 24.8236 174.694C24.5371 174.694 24.2826 174.75 24.0601 174.861C23.8376 174.972 23.6624 175.125 23.5345 175.319C23.4067 175.513 23.3439 175.737 23.3463 175.99C23.3439 176.234 23.4019 176.447 23.5203 176.629C23.6411 176.809 23.8127 176.95 24.0352 177.052C24.2578 177.151 24.5206 177.201 24.8236 177.201ZM24.8236 173.817C25.0651 173.817 25.2793 173.768 25.4663 173.671C25.6534 173.574 25.8001 173.439 25.9067 173.266C26.0156 173.094 26.0712 172.891 26.0736 172.659C26.0712 172.432 26.0168 172.233 25.9102 172.062C25.8061 171.892 25.6605 171.761 25.4734 171.668C25.2864 171.574 25.0698 171.526 24.8236 171.526C24.5726 171.526 24.3525 171.574 24.1631 171.668C23.976 171.761 23.8305 171.892 23.7263 172.062C23.6221 172.233 23.5712 172.432 23.5736 172.659C23.5712 172.891 23.6233 173.094 23.7298 173.266C23.8364 173.439 23.9832 173.574 24.1702 173.671C24.3596 173.768 24.5774 173.817 24.8236 173.817ZM30.8165 178.121C30.2554 178.118 29.776 177.97 29.3783 177.677C28.9806 177.383 28.6764 176.956 28.4657 176.395C28.255 175.834 28.1496 175.158 28.1496 174.367C28.1496 173.579 28.255 172.905 28.4657 172.347C28.6787 171.788 28.9841 171.362 29.3819 171.068C29.782 170.775 30.2602 170.628 30.8165 170.628C31.3729 170.628 31.8499 170.776 32.2476 171.072C32.6454 171.365 32.9496 171.791 33.1603 172.35C33.3733 172.906 33.4799 173.579 33.4799 174.367C33.4799 175.16 33.3745 175.837 33.1638 176.398C32.9531 176.957 32.6489 177.384 32.2512 177.68C31.8535 177.974 31.3752 178.121 30.8165 178.121ZM30.8165 177.173C31.3089 177.173 31.6937 176.932 31.9706 176.452C32.25 175.971 32.3897 175.276 32.3897 174.367C32.3897 173.763 32.3258 173.253 32.1979 172.837C32.0724 172.418 31.8913 172.1 31.6546 171.885C31.4202 171.667 31.1409 171.558 30.8165 171.558C30.3265 171.558 29.9418 171.8 29.6624 172.283C29.383 172.766 29.2422 173.46 29.2398 174.367C29.2398 174.973 29.3026 175.486 29.428 175.905C29.5559 176.321 29.737 176.638 29.9713 176.853C30.2057 177.066 30.4874 177.173 30.8165 177.173Z" fill="#B7B7BA"/>
<path d="M24.9053 209.099C24.5809 209.095 24.2613 209.036 23.9465 208.922C23.634 208.808 23.3499 208.619 23.0942 208.354C22.8385 208.089 22.6337 207.732 22.4798 207.285C22.3283 206.837 22.2526 206.279 22.2526 205.609C22.2526 204.974 22.3153 204.411 22.4408 203.918C22.5686 203.426 22.7521 203.01 22.9912 202.672C23.2303 202.331 23.5191 202.072 23.8577 201.894C24.1962 201.717 24.5762 201.628 24.9976 201.628C25.4308 201.628 25.8155 201.713 26.1517 201.884C26.4879 202.054 26.7601 202.29 26.9685 202.59C27.1792 202.891 27.3129 203.233 27.3698 203.616H26.2867C26.2133 203.313 26.0677 203.066 25.8499 202.874C25.6321 202.683 25.348 202.587 24.9976 202.587C24.4649 202.587 24.0494 202.819 23.7511 203.283C23.4552 203.747 23.3061 204.392 23.3037 205.218H23.357C23.4824 205.012 23.6363 204.837 23.8186 204.692C24.0033 204.546 24.2092 204.433 24.4365 204.355C24.6662 204.275 24.9076 204.234 25.1609 204.234C25.5823 204.234 25.9635 204.337 26.3044 204.543C26.6477 204.747 26.9211 205.029 27.1247 205.388C27.3283 205.748 27.4301 206.16 27.4301 206.624C27.4301 207.088 27.3248 207.509 27.1141 207.885C26.9057 208.261 26.6122 208.56 26.2334 208.78C25.8546 208.998 25.4119 209.104 24.9053 209.099ZM24.9017 208.176C25.1811 208.176 25.4308 208.107 25.651 207.97C25.8712 207.833 26.0452 207.648 26.173 207.416C26.3009 207.184 26.3648 206.925 26.3648 206.638C26.3648 206.359 26.302 206.105 26.1766 205.875C26.0535 205.645 25.883 205.463 25.6652 205.328C25.4498 205.193 25.2036 205.126 24.9266 205.126C24.7159 205.126 24.5206 205.166 24.3406 205.246C24.1631 205.327 24.0068 205.438 23.8719 205.58C23.7369 205.722 23.6304 205.886 23.5523 206.07C23.4765 206.253 23.4386 206.446 23.4386 206.649C23.4386 206.921 23.5014 207.174 23.6269 207.406C23.7547 207.638 23.9287 207.825 24.1489 207.967C24.3714 208.106 24.6224 208.176 24.9017 208.176ZM30.8556 209.121C30.2945 209.118 29.8151 208.97 29.4174 208.677C29.0196 208.383 28.7154 207.956 28.5047 207.395C28.294 206.834 28.1887 206.158 28.1887 205.367C28.1887 204.579 28.294 203.905 28.5047 203.347C28.7178 202.788 29.0232 202.362 29.4209 202.068C29.821 201.775 30.2992 201.628 30.8556 201.628C31.4119 201.628 31.889 201.776 32.2867 202.072C32.6844 202.365 32.9886 202.791 33.1993 203.35C33.4124 203.906 33.5189 204.579 33.5189 205.367C33.5189 206.16 33.4136 206.837 33.2029 207.398C32.9922 207.957 32.688 208.384 32.2902 208.68C31.8925 208.974 31.4143 209.121 30.8556 209.121ZM30.8556 208.173C31.348 208.173 31.7327 207.932 32.0097 207.452C32.2891 206.971 32.4287 206.276 32.4287 205.367C32.4287 204.763 32.3648 204.253 32.237 203.837C32.1115 203.418 31.9304 203.1 31.6937 202.885C31.4593 202.667 31.1799 202.558 30.8556 202.558C30.3655 202.558 29.9808 202.8 29.7015 203.283C29.4221 203.766 29.2812 204.46 29.2789 205.367C29.2789 205.973 29.3416 206.486 29.4671 206.905C29.5949 207.321 29.776 207.638 30.0104 207.853C30.2448 208.066 30.5265 208.173 30.8556 208.173Z" fill="#B7B7BA"/>
<path d="M22.2135 238.58V237.692L25.3563 232.727H26.0558V234.034H25.6119L23.3641 237.592V237.649H27.6716V238.58H22.2135ZM25.6617 240V238.31L25.6688 237.905V232.727H26.7092V240H25.6617ZM31.0411 240.121C30.48 240.118 30.0006 239.97 29.6029 239.677C29.2052 239.383 28.901 238.956 28.6903 238.395C28.4796 237.834 28.3742 237.158 28.3742 236.367C28.3742 235.579 28.4796 234.905 28.6903 234.347C28.9033 233.788 29.2087 233.362 29.6065 233.068C30.0066 232.775 30.4848 232.628 31.0411 232.628C31.5975 232.628 32.0745 232.776 32.4722 233.072C32.87 233.365 33.1742 233.791 33.3849 234.35C33.5979 234.906 33.7045 235.579 33.7045 236.367C33.7045 237.16 33.5991 237.837 33.3884 238.398C33.1777 238.957 32.8735 239.384 32.4758 239.68C32.0781 239.974 31.5998 240.121 31.0411 240.121ZM31.0411 239.173C31.5336 239.173 31.9183 238.932 32.1952 238.452C32.4746 237.971 32.6143 237.276 32.6143 236.367C32.6143 235.763 32.5504 235.253 32.4225 234.837C32.297 234.418 32.1159 234.1 31.8792 233.885C31.6448 233.667 31.3655 233.558 31.0411 233.558C30.5511 233.558 30.1664 233.8 29.887 234.283C29.6077 234.766 29.4668 235.46 29.4644 236.367C29.4644 236.973 29.5272 237.486 29.6526 237.905C29.7805 238.321 29.9616 238.638 30.196 238.853C30.4303 239.066 30.7121 239.173 31.0411 239.173Z" fill="#B7B7BA"/>
<g clip-path="url(#clip0_53_3430)">
<path d="M65.3333 169C65.3333 164.582 68.915 161 73.3333 161H90.3333C94.7515 161 98.3333 164.582 98.3333 169V278H65.3333V169Z" fill="#B0D5D2"/>
<rect width="43" height="81" transform="translate(65.3333 197)" fill="#3EB4A8"/>
</g>
<g clip-path="url(#clip1_53_3430)">
<path d="M111.333 207C111.333 202.582 114.915 199 119.333 199H137.333C141.752 199 145.333 202.582 145.333 207V278H111.333V207Z" fill="#B0D5D2"/>
<rect width="34" height="97" transform="translate(111.333 219)" fill="#3EB4A8"/>
</g>
<g clip-path="url(#clip2_53_3430)">
<path d="M203.333 212C203.333 207.582 206.915 204 211.333 204H229.333C233.752 204 237.333 207.582 237.333 212V278H203.333V212Z" fill="#B0D5D2"/>
<rect width="43" height="91" transform="translate(203.333 230)" fill="#3EB4A8"/>
</g>
<g clip-path="url(#clip3_53_3430)">
<path d="M157.333 176C157.333 171.582 160.915 168 165.333 168H183.333C187.752 168 191.333 171.582 191.333 176V278H157.333V176Z" fill="#B0D5D2"/>
<rect width="43" height="81" transform="translate(157.333 204)" fill="#3EB4A8"/>
</g>
<g clip-path="url(#clip4_53_3430)">
<path d="M250.333 195C250.333 190.582 253.915 187 258.333 187H276.333C280.752 187 284.333 190.582 284.333 195V278H250.333V195Z" fill="#B0D5D2"/>
<rect width="43" height="81" transform="translate(250.333 223)" fill="#3EB4A8"/>
</g>
<path d="M82.2315 292.099C81.7438 292.099 81.3082 292.015 80.9247 291.847C80.5436 291.679 80.2417 291.446 80.0192 291.148C79.799 290.847 79.6806 290.499 79.6641 290.104H80.7791C80.7933 290.319 80.8655 290.506 80.9957 290.665C81.1283 290.821 81.3011 290.942 81.5142 291.027C81.7273 291.112 81.964 291.155 82.2244 291.155C82.5109 291.155 82.7642 291.105 82.9844 291.006C83.2069 290.906 83.3809 290.768 83.5064 290.59C83.6319 290.41 83.6946 290.203 83.6946 289.969C83.6946 289.725 83.6319 289.511 83.5064 289.326C83.3833 289.139 83.2022 288.992 82.9631 288.886C82.7263 288.779 82.4399 288.726 82.1037 288.726H81.4893V287.831H82.1037C82.3736 287.831 82.6103 287.782 82.8139 287.685C83.0199 287.588 83.1809 287.453 83.2969 287.281C83.4129 287.105 83.4709 286.901 83.4709 286.666C83.4709 286.441 83.42 286.246 83.3182 286.08C83.2188 285.912 83.0767 285.781 82.892 285.686C82.7098 285.591 82.4943 285.544 82.2457 285.544C82.009 285.544 81.7876 285.588 81.5817 285.675C81.3781 285.761 81.2124 285.884 81.0845 286.045C80.9567 286.203 80.888 286.394 80.8786 286.616H79.8168C79.8286 286.223 79.9446 285.878 80.1648 285.58C80.3873 285.281 80.6809 285.048 81.0455 284.88C81.41 284.712 81.8149 284.628 82.2599 284.628C82.7263 284.628 83.1288 284.719 83.4673 284.901C83.8082 285.081 84.071 285.321 84.2557 285.622C84.4427 285.923 84.535 286.252 84.5327 286.609C84.535 287.017 84.4214 287.362 84.1918 287.646C83.9645 287.93 83.6615 288.121 83.2827 288.218V288.275C83.7656 288.348 84.1397 288.54 84.4048 288.85C84.6723 289.16 84.8049 289.545 84.8026 290.004C84.8049 290.404 84.6937 290.763 84.4688 291.08C84.2462 291.397 83.942 291.647 83.5561 291.83C83.1702 292.009 82.7287 292.099 82.2315 292.099Z" fill="#B7B7BA"/>
<path d="M127.214 290.58V289.692L130.356 284.727H131.056V286.034H130.612L128.364 289.592V289.649H132.672V290.58H127.214ZM130.662 292V290.31L130.669 289.905V284.727H131.709V292H130.662Z" fill="#B7B7BA"/>
<path d="M177.572 292.099C177.248 292.095 176.928 292.036 176.613 291.922C176.301 291.808 176.017 291.619 175.761 291.354C175.505 291.089 175.3 290.732 175.147 290.285C174.995 289.837 174.919 289.279 174.919 288.609C174.919 287.974 174.982 287.411 175.108 286.918C175.235 286.426 175.419 286.01 175.658 285.672C175.897 285.331 176.186 285.072 176.524 284.894C176.863 284.717 177.243 284.628 177.664 284.628C178.098 284.628 178.482 284.713 178.818 284.884C179.155 285.054 179.427 285.29 179.635 285.59C179.846 285.891 179.98 286.233 180.036 286.616H178.953C178.88 286.313 178.734 286.066 178.517 285.874C178.299 285.683 178.015 285.587 177.664 285.587C177.132 285.587 176.716 285.819 176.418 286.283C176.122 286.747 175.973 287.392 175.97 288.218H176.024C176.149 288.012 176.303 287.837 176.485 287.692C176.67 287.546 176.876 287.433 177.103 287.355C177.333 287.275 177.574 287.234 177.828 287.234C178.249 287.234 178.63 287.337 178.971 287.543C179.314 287.747 179.588 288.029 179.791 288.388C179.995 288.748 180.097 289.16 180.097 289.624C180.097 290.088 179.992 290.509 179.781 290.885C179.572 291.261 179.279 291.56 178.9 291.78C178.521 291.998 178.079 292.104 177.572 292.099ZM177.568 291.176C177.848 291.176 178.098 291.107 178.318 290.97C178.538 290.833 178.712 290.648 178.84 290.416C178.968 290.184 179.032 289.925 179.032 289.638C179.032 289.359 178.969 289.105 178.843 288.875C178.72 288.645 178.55 288.463 178.332 288.328C178.117 288.193 177.87 288.126 177.593 288.126C177.383 288.126 177.187 288.166 177.007 288.246C176.83 288.327 176.674 288.438 176.539 288.58C176.404 288.722 176.297 288.886 176.219 289.07C176.143 289.253 176.105 289.446 176.105 289.649C176.105 289.921 176.168 290.174 176.294 290.406C176.421 290.638 176.595 290.825 176.816 290.967C177.038 291.106 177.289 291.176 177.568 291.176Z" fill="#B7B7BA"/>
<path d="M225.157 292.099C224.648 292.099 224.198 292.012 223.808 291.837C223.419 291.661 223.115 291.42 222.895 291.112C222.675 290.804 222.566 290.454 222.568 290.061C222.566 289.753 222.629 289.47 222.756 289.212C222.887 288.952 223.063 288.735 223.286 288.562C223.508 288.387 223.757 288.276 224.031 288.229V288.186C223.669 288.098 223.379 287.904 223.161 287.604C222.943 287.303 222.836 286.957 222.838 286.567C222.836 286.195 222.934 285.864 223.133 285.572C223.334 285.279 223.61 285.048 223.96 284.88C224.311 284.712 224.71 284.628 225.157 284.628C225.6 284.628 225.995 284.713 226.343 284.884C226.693 285.052 226.969 285.282 227.17 285.576C227.372 285.867 227.473 286.197 227.476 286.567C227.473 286.957 227.362 287.303 227.142 287.604C226.922 287.904 226.635 288.098 226.283 288.186V288.229C226.555 288.276 226.8 288.387 227.018 288.562C227.238 288.735 227.413 288.952 227.543 289.212C227.676 289.47 227.743 289.753 227.746 290.061C227.743 290.454 227.632 290.804 227.412 291.112C227.192 291.42 226.886 291.661 226.496 291.837C226.107 292.012 225.661 292.099 225.157 292.099ZM225.157 291.201C225.458 291.201 225.718 291.151 225.938 291.052C226.158 290.95 226.329 290.809 226.45 290.629C226.57 290.447 226.632 290.234 226.634 289.99C226.632 289.737 226.566 289.513 226.435 289.319C226.308 289.125 226.134 288.972 225.913 288.861C225.693 288.75 225.441 288.694 225.157 288.694C224.871 288.694 224.616 288.75 224.393 288.861C224.171 288.972 223.996 289.125 223.868 289.319C223.74 289.513 223.677 289.737 223.68 289.99C223.677 290.234 223.735 290.447 223.854 290.629C223.974 290.809 224.146 290.95 224.369 291.052C224.591 291.151 224.854 291.201 225.157 291.201ZM225.157 287.817C225.398 287.817 225.613 287.768 225.8 287.671C225.987 287.574 226.134 287.439 226.24 287.266C226.349 287.094 226.405 286.891 226.407 286.659C226.405 286.432 226.35 286.233 226.244 286.062C226.139 285.892 225.994 285.761 225.807 285.668C225.62 285.574 225.403 285.526 225.157 285.526C224.906 285.526 224.686 285.574 224.496 285.668C224.309 285.761 224.164 285.892 224.06 286.062C223.955 286.233 223.905 286.432 223.907 286.659C223.905 286.891 223.957 287.094 224.063 287.266C224.17 287.439 224.317 287.574 224.504 287.671C224.693 287.768 224.911 287.817 225.157 287.817Z" fill="#B7B7BA"/>
<path d="M272.785 284.628C273.109 284.63 273.428 284.689 273.743 284.805C274.058 284.921 274.342 285.111 274.596 285.374C274.851 285.636 275.055 285.991 275.206 286.439C275.36 286.884 275.438 287.438 275.441 288.101C275.441 288.738 275.377 289.305 275.249 289.802C275.121 290.297 274.938 290.714 274.699 291.055C274.462 291.396 274.174 291.656 273.836 291.833C273.497 292.011 273.116 292.099 272.692 292.099C272.259 292.099 271.874 292.014 271.538 291.844C271.202 291.673 270.928 291.438 270.718 291.137C270.507 290.834 270.376 290.486 270.324 290.093H271.407C271.478 290.406 271.622 290.659 271.84 290.853C272.06 291.045 272.344 291.141 272.692 291.141C273.225 291.141 273.64 290.909 273.939 290.445C274.237 289.978 274.387 289.327 274.39 288.491H274.333C274.21 288.695 274.056 288.87 273.871 289.017C273.689 289.164 273.484 289.277 273.257 289.358C273.03 289.438 272.787 289.479 272.529 289.479C272.11 289.479 271.729 289.376 271.385 289.17C271.042 288.964 270.769 288.681 270.565 288.321C270.361 287.961 270.26 287.55 270.26 287.089C270.26 286.629 270.364 286.213 270.572 285.839C270.783 285.465 271.076 285.169 271.453 284.951C271.832 284.731 272.276 284.623 272.785 284.628ZM272.788 285.551C272.511 285.551 272.261 285.62 272.039 285.757C271.819 285.892 271.645 286.076 271.517 286.308C271.389 286.537 271.325 286.793 271.325 287.075C271.325 287.356 271.387 287.612 271.51 287.842C271.635 288.069 271.806 288.25 272.021 288.385C272.239 288.518 272.487 288.584 272.767 288.584C272.975 288.584 273.169 288.544 273.349 288.463C273.529 288.383 273.687 288.271 273.821 288.129C273.956 287.985 274.062 287.821 274.138 287.639C274.213 287.457 274.251 287.265 274.251 287.064C274.251 286.796 274.187 286.548 274.059 286.318C273.934 286.089 273.761 285.904 273.541 285.764C273.321 285.622 273.07 285.551 272.788 285.551Z" fill="#B7B7BA"/>
<defs>
<clipPath id="clip0_53_3430">
<path d="M65.3333 169C65.3333 164.582 68.915 161 73.3333 161H90.3333C94.7515 161 98.3333 164.582 98.3333 169V278H65.3333V169Z" fill="white"/>
</clipPath>
<clipPath id="clip1_53_3430">
<path d="M111.333 207C111.333 202.582 114.915 199 119.333 199H137.333C141.752 199 145.333 202.582 145.333 207V278H111.333V207Z" fill="white"/>
</clipPath>
<clipPath id="clip2_53_3430">
<path d="M203.333 212C203.333 207.582 206.915 204 211.333 204H229.333C233.752 204 237.333 207.582 237.333 212V278H203.333V212Z" fill="white"/>
</clipPath>
<clipPath id="clip3_53_3430">
<path d="M157.333 176C157.333 171.582 160.915 168 165.333 168H183.333C187.752 168 191.333 171.582 191.333 176V278H157.333V176Z" fill="white"/>
</clipPath>
<clipPath id="clip4_53_3430">
<path d="M250.333 195C250.333 190.582 253.915 187 258.333 187H276.333C280.752 187 284.333 190.582 284.333 195V278H250.333V195Z" fill="white"/>
</clipPath>
</defs>
</svg>
