<svg width="313" height="311" viewBox="0 0 313 311" fill="none" xmlns="http://www.w3.org/2000/svg">
<rect x="0.5" y="0.5" width="311.333" height="310" rx="11.5" fill="white"/>
<rect x="0.5" y="0.5" width="311.333" height="310" rx="11.5" stroke="#EFF1F5"/>
<mask id="mask0_53_3287" style="mask-type:alpha" maskUnits="userSpaceOnUse" x="16" y="16" width="16" height="16">
<rect x="16" y="16" width="16" height="16" fill="#D9D9D9"/>
</mask>
<g mask="url(#mask0_53_3287)">
<path d="M27.3333 29.3334C27.1444 29.3334 26.9861 29.2695 26.8583 29.1417C26.7305 29.014 26.6667 28.8556 26.6667 28.6667V25.3334C26.6667 25.1445 26.7305 24.9862 26.8583 24.8584C26.9861 24.7306 27.1444 24.6667 27.3333 24.6667H28.6667C28.8555 24.6667 29.0139 24.7306 29.1417 24.8584C29.2694 24.9862 29.3333 25.1445 29.3333 25.3334V28.6667C29.3333 28.8556 29.2694 29.014 29.1417 29.1417C29.0139 29.2695 28.8555 29.3334 28.6667 29.3334H27.3333ZM23.3333 29.3334C23.1444 29.3334 22.9861 29.2695 22.8583 29.1417C22.7305 29.014 22.6667 28.8556 22.6667 28.6667V19.3334C22.6667 19.1445 22.7305 18.9862 22.8583 18.8584C22.9861 18.7306 23.1444 18.6667 23.3333 18.6667H24.6667C24.8555 18.6667 25.0139 18.7306 25.1417 18.8584C25.2694 18.9862 25.3333 19.1445 25.3333 19.3334V28.6667C25.3333 28.8556 25.2694 29.014 25.1417 29.1417C25.0139 29.2695 24.8555 29.3334 24.6667 29.3334H23.3333ZM19.3333 29.3334C19.1444 29.3334 18.9861 29.2695 18.8583 29.1417C18.7305 29.014 18.6667 28.8556 18.6667 28.6667V22.6667C18.6667 22.4779 18.7305 22.3195 18.8583 22.1917C18.9861 22.064 19.1444 22.0001 19.3333 22.0001H20.6667C20.8555 22.0001 21.0139 22.064 21.1417 22.1917C21.2694 22.3195 21.3333 22.4779 21.3333 22.6667V28.6667C21.3333 28.8556 21.2694 29.014 21.1417 29.1417C21.0139 29.2695 20.8555 29.3334 20.6667 29.3334H19.3333Z" fill="#1C1B1F"/>
</g>
<path d="M39.0043 30V19.8182H45.6264V21.3643H40.8487V24.1286H45.2834V25.6747H40.8487V28.4538H45.6662V30H39.0043ZM48.3402 22.3636L49.8814 25.1825L51.4475 22.3636H53.3516L51.0497 26.1818L53.3913 30H51.4972L49.8814 27.2507L48.2806 30H46.3715L48.6982 26.1818L46.4311 22.3636H48.3402ZM54.1836 32.8636V22.3636H55.9535V23.6264H56.0579C56.1507 23.4408 56.2816 23.2436 56.4507 23.0348C56.6197 22.8227 56.8484 22.642 57.1367 22.4929C57.4251 22.3404 57.793 22.2642 58.2404 22.2642C58.8304 22.2642 59.3624 22.415 59.8363 22.7166C60.3136 23.0149 60.6914 23.4574 60.9698 24.044C61.2516 24.6274 61.3924 25.3433 61.3924 26.1918C61.3924 27.0303 61.2549 27.7429 60.9798 28.3295C60.7047 28.9162 60.3302 29.3636 59.8562 29.6719C59.3822 29.9801 58.8453 30.1342 58.2454 30.1342C57.8079 30.1342 57.445 30.0613 57.1566 29.9155C56.8683 29.7696 56.6363 29.594 56.4606 29.3885C56.2883 29.1797 56.154 28.9825 56.0579 28.7969H55.9833V32.8636H54.1836ZM55.9485 26.1818C55.9485 26.6757 56.0181 27.1082 56.1573 27.4794C56.2999 27.8506 56.5037 28.1406 56.7688 28.3494C57.0373 28.5549 57.3621 28.6577 57.7433 28.6577C58.141 28.6577 58.4741 28.5516 58.7426 28.3395C59.011 28.1241 59.2132 27.8307 59.3491 27.4595C59.4883 27.085 59.5579 26.6591 59.5579 26.1818C59.5579 25.7079 59.49 25.2869 59.3541 24.919C59.2182 24.5511 59.016 24.2628 58.7475 24.054C58.4791 23.8452 58.1443 23.7408 57.7433 23.7408C57.3588 23.7408 57.0323 23.8419 56.7639 24.044C56.4954 24.2462 56.2916 24.5296 56.1524 24.8942C56.0165 25.2588 55.9485 25.688 55.9485 26.1818ZM65.7543 30.1491C64.9887 30.1491 64.3275 29.9901 63.7706 29.6719C63.2171 29.3504 62.7912 28.8963 62.4929 28.3097C62.1946 27.7197 62.0455 27.0253 62.0455 26.2266C62.0455 25.4411 62.1946 24.7517 62.4929 24.1584C62.7945 23.5618 63.2155 23.0978 63.7557 22.7663C64.296 22.4316 64.9307 22.2642 65.6598 22.2642C66.1305 22.2642 66.5746 22.3404 66.9922 22.4929C67.4132 22.642 67.7844 22.8741 68.1059 23.1889C68.4307 23.5038 68.6859 23.9048 68.8715 24.392C69.0571 24.8759 69.1499 25.4527 69.1499 26.1222V26.674H62.8907V25.4609H67.4248C67.4214 25.1162 67.3469 24.8097 67.201 24.5412C67.0552 24.2694 66.8514 24.0556 66.5895 23.8999C66.331 23.7441 66.0294 23.6662 65.6847 23.6662C65.3168 23.6662 64.9937 23.7557 64.7152 23.9347C64.4368 24.1103 64.2197 24.3423 64.064 24.6307C63.9115 24.9157 63.8336 25.2289 63.8303 25.5703V26.6293C63.8303 27.0734 63.9115 27.4545 64.0739 27.7727C64.2363 28.0876 64.4633 28.3295 64.755 28.4986C65.0467 28.6643 65.3881 28.7472 65.7792 28.7472C66.041 28.7472 66.278 28.7107 66.4901 28.6378C66.7022 28.5616 66.8862 28.4505 67.0419 28.3047C67.1977 28.1589 67.3154 27.9782 67.3949 27.7628L69.0753 27.9517C68.9693 28.3958 68.7671 28.7836 68.4688 29.1151C68.1738 29.4432 67.796 29.6984 67.3353 29.8807C66.8746 30.0597 66.3476 30.1491 65.7543 30.1491ZM71.9122 25.5256V30H70.1125V22.3636H71.8326V23.6612H71.9221C72.0978 23.2337 72.3778 22.8939 72.7623 22.642C73.1501 22.3902 73.629 22.2642 74.1991 22.2642C74.7261 22.2642 75.1851 22.3769 75.5762 22.6023C75.9706 22.8277 76.2756 23.1541 76.491 23.5817C76.7098 24.0092 76.8175 24.5279 76.8142 25.1378V30H75.0144V25.4162C75.0144 24.9058 74.8819 24.5064 74.6167 24.218C74.3549 23.9297 73.9919 23.7855 73.5279 23.7855C73.2131 23.7855 72.933 23.8551 72.6877 23.9943C72.4458 24.1302 72.2552 24.3274 72.116 24.5859C71.9801 24.8445 71.9122 25.1577 71.9122 25.5256ZM84.1192 24.3821L82.4786 24.5611C82.4322 24.3954 82.351 24.2396 82.235 24.0938C82.1223 23.9479 81.9698 23.8303 81.7776 23.7408C81.5854 23.6513 81.35 23.6065 81.0716 23.6065C80.6971 23.6065 80.3822 23.6877 80.127 23.8501C79.8751 24.0125 79.7508 24.223 79.7542 24.4815C79.7508 24.7036 79.832 24.8842 79.9978 25.0234C80.1668 25.1626 80.4452 25.277 80.833 25.3665L82.1355 25.6449C82.8581 25.8007 83.395 26.0476 83.7463 26.3857C84.101 26.7237 84.28 27.1662 84.2833 27.7131C84.28 28.1937 84.1391 28.6179 83.8607 28.9858C83.5856 29.3504 83.2028 29.6354 82.7123 29.8409C82.2217 30.0464 81.6583 30.1491 81.0219 30.1491C80.0873 30.1491 79.3349 29.9536 78.7648 29.5625C78.1947 29.1681 77.855 28.6196 77.7456 27.9169L79.5006 27.7479C79.5801 28.0926 79.7492 28.3527 80.0077 28.5284C80.2662 28.7041 80.6026 28.7919 81.0169 28.7919C81.4445 28.7919 81.7875 28.7041 82.0461 28.5284C82.3079 28.3527 82.4388 28.1357 82.4388 27.8771C82.4388 27.6584 82.3543 27.4777 82.1853 27.3352C82.0195 27.1927 81.761 27.0833 81.4097 27.0071L80.1071 26.7337C79.3747 26.5812 78.8328 26.3243 78.4814 25.9631C78.1301 25.5985 77.9561 25.1378 77.9594 24.581C77.9561 24.1103 78.0837 23.7027 78.3422 23.358C78.6041 23.0099 78.967 22.7415 79.431 22.5526C79.8983 22.3603 80.4369 22.2642 81.0468 22.2642C81.9417 22.2642 82.646 22.4548 83.1597 22.8359C83.6767 23.2171 83.9966 23.7325 84.1192 24.3821ZM88.588 30.1491C87.8224 30.1491 87.1611 29.9901 86.6043 29.6719C86.0508 29.3504 85.6249 28.8963 85.3266 28.3097C85.0283 27.7197 84.8792 27.0253 84.8792 26.2266C84.8792 25.4411 85.0283 24.7517 85.3266 24.1584C85.6282 23.5618 86.0491 23.0978 86.5894 22.7663C87.1296 22.4316 87.7643 22.2642 88.4935 22.2642C88.9642 22.2642 89.4083 22.3404 89.8259 22.4929C90.2468 22.642 90.618 22.8741 90.9395 23.1889C91.2643 23.5038 91.5196 23.9048 91.7052 24.392C91.8908 24.8759 91.9836 25.4527 91.9836 26.1222V26.674H85.7243V25.4609H90.2584C90.2551 25.1162 90.1805 24.8097 90.0347 24.5412C89.8889 24.2694 89.685 24.0556 89.4232 23.8999C89.1647 23.7441 88.8631 23.6662 88.5184 23.6662C88.1505 23.6662 87.8273 23.7557 87.5489 23.9347C87.2705 24.1103 87.0534 24.3423 86.8976 24.6307C86.7452 24.9157 86.6673 25.2289 86.664 25.5703V26.6293C86.664 27.0734 86.7452 27.4545 86.9076 27.7727C87.07 28.0876 87.297 28.3295 87.5887 28.4986C87.8804 28.6643 88.2217 28.7472 88.6128 28.7472C88.8747 28.7472 89.1116 28.7107 89.3238 28.6378C89.5359 28.5616 89.7198 28.4505 89.8756 28.3047C90.0314 28.1589 90.1491 27.9782 90.2286 27.7628L91.909 27.9517C91.8029 28.3958 91.6008 28.7836 91.3025 29.1151C91.0075 29.4432 90.6296 29.6984 90.1689 29.8807C89.7082 30.0597 89.1813 30.1491 88.588 30.1491ZM98.9816 24.3821L97.341 24.5611C97.2946 24.3954 97.2134 24.2396 97.0974 24.0938C96.9847 23.9479 96.8323 23.8303 96.64 23.7408C96.4478 23.6513 96.2125 23.6065 95.9341 23.6065C95.5595 23.6065 95.2447 23.6877 94.9894 23.8501C94.7376 24.0125 94.6133 24.223 94.6166 24.4815C94.6133 24.7036 94.6945 24.8842 94.8602 25.0234C95.0292 25.1626 95.3076 25.277 95.6954 25.3665L96.998 25.6449C97.7205 25.8007 98.2574 26.0476 98.6088 26.3857C98.9634 26.7237 99.1424 27.1662 99.1457 27.7131C99.1424 28.1937 99.0015 28.6179 98.7231 28.9858C98.448 29.3504 98.0652 29.6354 97.5747 29.8409C97.0841 30.0464 96.5207 30.1491 95.8843 30.1491C94.9497 30.1491 94.1973 29.9536 93.6272 29.5625C93.0572 29.1681 92.7174 28.6196 92.6081 27.9169L94.363 27.7479C94.4426 28.0926 94.6116 28.3527 94.8701 28.5284C95.1287 28.7041 95.4651 28.7919 95.8794 28.7919C96.3069 28.7919 96.65 28.7041 96.9085 28.5284C97.1703 28.3527 97.3012 28.1357 97.3012 27.8771C97.3012 27.6584 97.2167 27.4777 97.0477 27.3352C96.882 27.1927 96.6234 27.0833 96.2721 27.0071L94.9696 26.7337C94.2371 26.5812 93.6952 26.3243 93.3439 25.9631C92.9925 25.5985 92.8185 25.1378 92.8218 24.581C92.8185 24.1103 92.9461 23.7027 93.2046 23.358C93.4665 23.0099 93.8294 22.7415 94.2934 22.5526C94.7608 22.3603 95.2993 22.2642 95.9092 22.2642C96.8041 22.2642 97.5084 22.4548 98.0221 22.8359C98.5392 23.2171 98.859 23.7325 98.9816 24.3821ZM103.062 30V19.8182H106.96C107.695 19.8182 108.307 19.9342 108.794 20.1662C109.285 20.3949 109.651 20.7081 109.893 21.1058C110.138 21.5036 110.261 21.9543 110.261 22.4581C110.261 22.8724 110.181 23.227 110.022 23.522C109.863 23.8137 109.649 24.0507 109.381 24.233C109.112 24.4152 108.812 24.5462 108.481 24.6257V24.7251C108.842 24.745 109.189 24.8561 109.52 25.0582C109.855 25.2571 110.128 25.5388 110.34 25.9034C110.552 26.268 110.659 26.7088 110.659 27.2259C110.659 27.7528 110.531 28.2268 110.276 28.6477C110.02 29.0653 109.636 29.3951 109.122 29.6371C108.609 29.879 107.962 30 107.183 30H103.062ZM104.906 28.4588H106.89C107.56 28.4588 108.042 28.3312 108.337 28.076C108.635 27.8175 108.784 27.486 108.784 27.0817C108.784 26.7801 108.71 26.5083 108.56 26.2663C108.411 26.0211 108.199 25.8288 107.924 25.6896C107.649 25.5471 107.321 25.4759 106.94 25.4759H104.906V28.4588ZM104.906 24.1484H106.731C107.049 24.1484 107.336 24.0904 107.591 23.9744C107.846 23.8551 108.047 23.6877 108.193 23.4723C108.342 23.2536 108.416 22.995 108.416 22.6967C108.416 22.3023 108.277 21.9775 107.999 21.7223C107.724 21.4671 107.314 21.3395 106.771 21.3395H104.906V24.1484ZM111.624 30V22.3636H113.369V23.6364H113.448C113.587 23.1955 113.826 22.8558 114.164 22.6172C114.505 22.3752 114.895 22.2543 115.332 22.2543C115.432 22.2543 115.543 22.2592 115.665 22.2692C115.791 22.2758 115.896 22.2874 115.979 22.304V23.9595C115.902 23.933 115.781 23.9098 115.616 23.8899C115.453 23.8667 115.296 23.8551 115.143 23.8551C114.815 23.8551 114.52 23.9264 114.258 24.0689C114 24.2081 113.796 24.402 113.647 24.6506C113.498 24.8991 113.423 25.1858 113.423 25.5107V30H111.624ZM119.681 30.1491C118.915 30.1491 118.254 29.9901 117.697 29.6719C117.143 29.3504 116.717 28.8963 116.419 28.3097C116.121 27.7197 115.972 27.0253 115.972 26.2266C115.972 25.4411 116.121 24.7517 116.419 24.1584C116.721 23.5618 117.142 23.0978 117.682 22.7663C118.222 22.4316 118.857 22.2642 119.586 22.2642C120.057 22.2642 120.501 22.3404 120.918 22.4929C121.339 22.642 121.711 22.8741 122.032 23.1889C122.357 23.5038 122.612 23.9048 122.798 24.392C122.983 24.8759 123.076 25.4527 123.076 26.1222V26.674H116.817V25.4609H121.351C121.348 25.1162 121.273 24.8097 121.127 24.5412C120.981 24.2694 120.778 24.0556 120.516 23.8999C120.257 23.7441 119.956 23.6662 119.611 23.6662C119.243 23.6662 118.92 23.7557 118.641 23.9347C118.363 24.1103 118.146 24.3423 117.99 24.6307C117.838 24.9157 117.76 25.2289 117.757 25.5703V26.6293C117.757 27.0734 117.838 27.4545 118 27.7727C118.163 28.0876 118.39 28.3295 118.681 28.4986C118.973 28.6643 119.314 28.7472 119.705 28.7472C119.967 28.7472 120.204 28.7107 120.416 28.6378C120.628 28.5616 120.812 28.4505 120.968 28.3047C121.124 28.1589 121.242 27.9782 121.321 27.7628L123.002 27.9517C122.896 28.3958 122.693 28.7836 122.395 29.1151C122.1 29.4432 121.722 29.6984 121.262 29.8807C120.801 30.0597 120.274 30.1491 119.681 30.1491ZM126.236 30.1541C125.752 30.1541 125.316 30.0679 124.929 29.8956C124.544 29.7199 124.239 29.4614 124.014 29.12C123.792 28.7786 123.681 28.3577 123.681 27.8572C123.681 27.4264 123.76 27.0701 123.919 26.7884C124.078 26.5066 124.296 26.2812 124.571 26.1122C124.846 25.9432 125.156 25.8156 125.5 25.7294C125.848 25.6399 126.208 25.5753 126.579 25.5355C127.027 25.4891 127.39 25.4477 127.668 25.4112C127.946 25.3714 128.149 25.3118 128.274 25.2322C128.404 25.1494 128.468 25.0218 128.468 24.8494V24.8196C128.468 24.4451 128.357 24.1551 128.135 23.9496C127.913 23.7441 127.593 23.6413 127.176 23.6413C126.735 23.6413 126.385 23.7375 126.127 23.9297C125.872 24.1219 125.699 24.349 125.61 24.6108L123.929 24.3722C124.062 23.9081 124.281 23.5204 124.586 23.2088C124.89 22.8939 125.263 22.6586 125.704 22.5028C126.145 22.3438 126.632 22.2642 127.166 22.2642C127.534 22.2642 127.9 22.3073 128.265 22.3935C128.629 22.4796 128.962 22.6222 129.264 22.821C129.565 23.0166 129.807 23.2834 129.99 23.6214C130.175 23.9595 130.268 24.3821 130.268 24.8892V30H128.538V28.951H128.478C128.369 29.1631 128.215 29.362 128.016 29.5476C127.82 29.7299 127.574 29.8774 127.275 29.9901C126.98 30.0994 126.634 30.1541 126.236 30.1541ZM126.703 28.8317C127.065 28.8317 127.378 28.7604 127.643 28.6179C127.908 28.4721 128.112 28.2798 128.255 28.0412C128.4 27.8026 128.473 27.5424 128.473 27.2607V26.3608C128.417 26.4072 128.321 26.4503 128.185 26.4901C128.052 26.5298 127.903 26.5646 127.738 26.5945C127.572 26.6243 127.408 26.6508 127.245 26.674C127.083 26.6972 126.942 26.7171 126.823 26.7337C126.554 26.7701 126.314 26.8298 126.102 26.9126C125.89 26.9955 125.722 27.1115 125.6 27.2607C125.477 27.4065 125.416 27.5954 125.416 27.8274C125.416 28.1589 125.537 28.4091 125.779 28.5781C126.021 28.7472 126.329 28.8317 126.703 28.8317ZM133.158 27.6037L133.153 25.4311H133.442L136.186 22.3636H138.289L134.913 26.1222H134.54L133.158 27.6037ZM131.518 30V19.8182H133.317V30H131.518ZM136.31 30L133.825 26.5249L135.038 25.2571L138.463 30H136.31ZM141.448 30.1342C140.848 30.1342 140.311 29.9801 139.837 29.6719C139.363 29.3636 138.989 28.9162 138.713 28.3295C138.438 27.7429 138.301 27.0303 138.301 26.1918C138.301 25.3433 138.44 24.6274 138.718 24.044C139 23.4574 139.38 23.0149 139.857 22.7166C140.334 22.415 140.866 22.2642 141.453 22.2642C141.9 22.2642 142.268 22.3404 142.556 22.4929C142.845 22.642 143.074 22.8227 143.243 23.0348C143.412 23.2436 143.543 23.4408 143.635 23.6264H143.71V19.8182H145.515V30H143.745V28.7969H143.635C143.543 28.9825 143.408 29.1797 143.233 29.3885C143.057 29.594 142.825 29.7696 142.537 29.9155C142.248 30.0613 141.885 30.1342 141.448 30.1342ZM141.95 28.6577C142.331 28.6577 142.656 28.5549 142.924 28.3494C143.193 28.1406 143.397 27.8506 143.536 27.4794C143.675 27.1082 143.745 26.6757 143.745 26.1818C143.745 25.688 143.675 25.2588 143.536 24.8942C143.4 24.5296 143.198 24.2462 142.929 24.044C142.664 23.8419 142.338 23.7408 141.95 23.7408C141.549 23.7408 141.214 23.8452 140.946 24.054C140.677 24.2628 140.475 24.5511 140.339 24.919C140.203 25.2869 140.135 25.7079 140.135 26.1818C140.135 26.6591 140.203 27.085 140.339 27.4595C140.478 27.8307 140.682 28.1241 140.951 28.3395C141.222 28.5516 141.556 28.6577 141.95 28.6577ZM150.203 30.1491C149.458 30.1491 148.811 29.9851 148.264 29.657C147.718 29.3288 147.293 28.8698 146.992 28.2798C146.693 27.6899 146.544 27.0005 146.544 26.2116C146.544 25.4228 146.693 24.7318 146.992 24.1385C147.293 23.5452 147.718 23.0845 148.264 22.7564C148.811 22.4283 149.458 22.2642 150.203 22.2642C150.949 22.2642 151.595 22.4283 152.142 22.7564C152.689 23.0845 153.112 23.5452 153.41 24.1385C153.712 24.7318 153.862 25.4228 153.862 26.2116C153.862 27.0005 153.712 27.6899 153.41 28.2798C153.112 28.8698 152.689 29.3288 152.142 29.657C151.595 29.9851 150.949 30.1491 150.203 30.1491ZM150.213 28.7074C150.618 28.7074 150.956 28.5964 151.227 28.3743C151.499 28.1489 151.701 27.8473 151.834 27.4695C151.97 27.0916 152.038 26.6707 152.038 26.2067C152.038 25.7393 151.97 25.3168 151.834 24.9389C151.701 24.5578 151.499 24.2545 151.227 24.0291C150.956 23.8037 150.618 23.6911 150.213 23.6911C149.799 23.6911 149.454 23.8037 149.179 24.0291C148.907 24.2545 148.704 24.5578 148.568 24.9389C148.435 25.3168 148.369 25.7393 148.369 26.2067C148.369 26.6707 148.435 27.0916 148.568 27.4695C148.704 27.8473 148.907 28.1489 149.179 28.3743C149.454 28.5964 149.799 28.7074 150.213 28.7074ZM156.187 30L154.03 22.3636H155.864L157.206 27.733H157.276L158.648 22.3636H160.463L161.835 27.7031H161.909L163.232 22.3636H165.071L162.909 30H161.034L159.603 24.8395H159.498L158.066 30H156.187ZM167.568 25.5256V30H165.768V22.3636H167.488V23.6612H167.578C167.753 23.2337 168.033 22.8939 168.418 22.642C168.806 22.3902 169.285 22.2642 169.855 22.2642C170.382 22.2642 170.841 22.3769 171.232 22.6023C171.626 22.8277 171.931 23.1541 172.147 23.5817C172.365 24.0092 172.473 24.5279 172.47 25.1378V30H170.67V25.4162C170.67 24.9058 170.537 24.5064 170.272 24.218C170.01 23.9297 169.647 23.7855 169.183 23.7855C168.869 23.7855 168.589 23.8551 168.343 23.9943C168.101 24.1302 167.911 24.3274 167.772 24.5859C167.636 24.8445 167.568 25.1577 167.568 25.5256Z" fill="#2B2C36"/>
<mask id="mask1_53_3287" style="mask-type:alpha" maskUnits="userSpaceOnUse" x="280" y="16" width="17" height="16">
<rect x="280.333" y="16" width="16" height="16" fill="#D9D9D9"/>
</mask>
<g mask="url(#mask1_53_3287)">
<path d="M291 21.6002L285.067 27.5335C284.945 27.6557 284.789 27.7168 284.6 27.7168C284.411 27.7168 284.256 27.6557 284.134 27.5335C284.011 27.4113 283.95 27.2557 283.95 27.0668C283.95 26.8779 284.011 26.7224 284.134 26.6002L290.067 20.6668H285C284.811 20.6668 284.653 20.6029 284.525 20.4752C284.397 20.3474 284.334 20.1891 284.334 20.0002C284.334 19.8113 284.397 19.6529 284.525 19.5252C284.653 19.3974 284.811 19.3335 285 19.3335H291.667C291.856 19.3335 292.014 19.3974 292.142 19.5252C292.27 19.6529 292.334 19.8113 292.334 20.0002V26.6668C292.334 26.8557 292.27 27.0141 292.142 27.1418C292.014 27.2696 291.856 27.3335 291.667 27.3335C291.478 27.3335 291.32 27.2696 291.192 27.1418C291.064 27.0141 291 26.8557 291 26.6668V21.6002Z" fill="#949599"/>
</g>
<path d="M17.745 75V72.4304L24.5621 65.7475C25.2141 65.0891 25.7575 64.5043 26.1921 63.9929C26.6268 63.4815 26.9528 62.9862 27.1701 62.5067C27.3874 62.0273 27.4961 61.516 27.4961 60.9727C27.4961 60.3526 27.3555 59.8221 27.0742 59.381C26.793 58.9336 26.4062 58.5884 25.9141 58.3455C25.4219 58.1026 24.8626 57.9812 24.2362 57.9812C23.5906 57.9812 23.0249 58.1154 22.5391 58.3839C22.0533 58.646 21.6761 59.0199 21.4077 59.5057C21.1456 59.9915 21.0146 60.57 21.0146 61.2411H17.63C17.63 59.9947 17.9144 58.9112 18.4833 57.9908C19.0522 57.0703 19.8352 56.3576 20.8324 55.8526C21.8359 55.3477 22.9865 55.0952 24.2841 55.0952C25.6009 55.0952 26.7578 55.3413 27.755 55.8335C28.7521 56.3256 29.5256 57 30.0753 57.8565C30.6314 58.7131 30.9094 59.6911 30.9094 60.7905C30.9094 61.5256 30.7688 62.2479 30.4876 62.9574C30.2063 63.6669 29.7109 64.4531 29.0014 65.3161C28.2983 66.179 27.3107 67.2241 26.0387 68.4513L22.6541 71.8935V72.0277H31.2067V75H17.745ZM32.6579 71.3565V68.5281L40.99 55.3636H43.3486V59.3906H41.9104L36.3014 68.2788V68.4322H47.9317V71.3565H32.6579ZM42.0255 75V70.4936L42.0638 69.228V55.3636H45.4196V75H42.0255ZM57.1733 75.3739C55.5944 75.3739 54.2393 74.9744 53.1079 74.1754C51.9829 73.37 51.1168 72.2099 50.5096 70.695C49.9087 69.1737 49.6083 67.3423 49.6083 65.201C49.6147 63.0597 49.9183 61.2379 50.5192 59.7358C51.1264 58.2273 51.9925 57.0767 53.1175 56.2841C54.2489 55.4915 55.6008 55.0952 57.1733 55.0952C58.7457 55.0952 60.0976 55.4915 61.229 56.2841C62.3604 57.0767 63.2265 58.2273 63.8274 59.7358C64.4346 61.2443 64.7383 63.0661 64.7383 65.201C64.7383 67.3487 64.4346 69.1832 63.8274 70.7045C63.2265 72.2195 62.3604 73.3764 61.229 74.1754C60.104 74.9744 58.7521 75.3739 57.1733 75.3739ZM57.1733 72.3729C58.4005 72.3729 59.3689 71.7688 60.0785 70.5607C60.7944 69.3462 61.1523 67.5597 61.1523 65.201C61.1523 63.6413 60.9893 62.331 60.6633 61.2699C60.3373 60.2088 59.8771 59.4098 59.2826 58.8729C58.6882 58.3295 57.9851 58.0579 57.1733 58.0579C55.9524 58.0579 54.9872 58.6651 54.2777 59.8796C53.5682 61.0877 53.2102 62.8615 53.2038 65.201C53.1974 66.767 53.354 68.0838 53.6736 69.1513C53.9996 70.2187 54.4599 71.0241 55.0543 71.5675C55.6488 72.1044 56.3551 72.3729 57.1733 72.3729ZM70.1925 72.3153L70.0679 73.37C69.9784 74.1754 69.8186 74.9936 69.5885 75.8246C69.3648 76.6619 69.1283 77.4322 68.879 78.1353C68.6297 78.8384 68.4283 79.3913 68.2749 79.794H65.9354C66.0249 79.4041 66.1464 78.8736 66.2998 78.2024C66.4596 77.5313 66.613 76.777 66.76 75.9396C66.907 75.1023 67.0061 74.2521 67.0572 73.3892L67.1243 72.3153H70.1925ZM79.4557 75.3739C77.8768 75.3739 76.5217 74.9744 75.3903 74.1754C74.2653 73.37 73.3992 72.2099 72.7919 70.695C72.1911 69.1737 71.8907 67.3423 71.8907 65.201C71.8971 63.0597 72.2007 61.2379 72.8015 59.7358C73.4088 58.2273 74.2749 57.0767 75.3999 56.2841C76.5313 55.4915 77.8832 55.0952 79.4557 55.0952C81.0281 55.0952 82.38 55.4915 83.5114 56.2841C84.6428 57.0767 85.5089 58.2273 86.1098 59.7358C86.717 61.2443 87.0206 63.0661 87.0206 65.201C87.0206 67.3487 86.717 69.1832 86.1098 70.7045C85.5089 72.2195 84.6428 73.3764 83.5114 74.1754C82.3864 74.9744 81.0345 75.3739 79.4557 75.3739ZM79.4557 72.3729C80.6829 72.3729 81.6513 71.7688 82.3608 70.5607C83.0768 69.3462 83.4347 67.5597 83.4347 65.201C83.4347 63.6413 83.2717 62.331 82.9457 61.2699C82.6197 60.2088 82.1595 59.4098 81.565 58.8729C80.9706 58.3295 80.2674 58.0579 79.4557 58.0579C78.2348 58.0579 77.2696 58.6651 76.5601 59.8796C75.8505 61.0877 75.4926 62.8615 75.4862 65.201C75.4798 66.767 75.6364 68.0838 75.956 69.1513C76.282 70.2187 76.7422 71.0241 77.3367 71.5675C77.9312 72.1044 78.6375 72.3729 79.4557 72.3729ZM96.3844 75.3739C94.8056 75.3739 93.4505 74.9744 92.3191 74.1754C91.1941 73.37 90.328 72.2099 89.7207 70.695C89.1199 69.1737 88.8195 67.3423 88.8195 65.201C88.8259 63.0597 89.1295 61.2379 89.7303 59.7358C90.3376 58.2273 91.2037 57.0767 92.3287 56.2841C93.4601 55.4915 94.812 55.0952 96.3844 55.0952C97.9569 55.0952 99.3088 55.4915 100.44 56.2841C101.572 57.0767 102.438 58.2273 103.039 59.7358C103.646 61.2443 103.949 63.0661 103.949 65.201C103.949 67.3487 103.646 69.1832 103.039 70.7045C102.438 72.2195 101.572 73.3764 100.44 74.1754C99.3152 74.9744 97.9633 75.3739 96.3844 75.3739ZM96.3844 72.3729C97.6117 72.3729 98.5801 71.7688 99.2896 70.5607C100.006 69.3462 100.363 67.5597 100.363 65.201C100.363 63.6413 100.2 62.331 99.8745 61.2699C99.5485 60.2088 99.0883 59.4098 98.4938 58.8729C97.8994 58.3295 97.1962 58.0579 96.3844 58.0579C95.1636 58.0579 94.1984 58.6651 93.4888 59.8796C92.7793 61.0877 92.4214 62.8615 92.415 65.201C92.4086 66.767 92.5652 68.0838 92.8848 69.1513C93.2108 70.2187 93.671 71.0241 94.2655 71.5675C94.8599 72.1044 95.5663 72.3729 96.3844 72.3729ZM113.313 75.3739C111.734 75.3739 110.379 74.9744 109.248 74.1754C108.123 73.37 107.257 72.2099 106.65 70.695C106.049 69.1737 105.748 67.3423 105.748 65.201C105.755 63.0597 106.058 61.2379 106.659 59.7358C107.266 58.2273 108.132 57.0767 109.257 56.2841C110.389 55.4915 111.741 55.0952 113.313 55.0952C114.886 55.0952 116.238 55.4915 117.369 56.2841C118.5 57.0767 119.366 58.2273 119.967 59.7358C120.575 61.2443 120.878 63.0661 120.878 65.201C120.878 67.3487 120.575 69.1832 119.967 70.7045C119.366 72.2195 118.5 73.3764 117.369 74.1754C116.244 74.9744 114.892 75.3739 113.313 75.3739ZM113.313 72.3729C114.541 72.3729 115.509 71.7688 116.218 70.5607C116.934 69.3462 117.292 67.5597 117.292 65.201C117.292 63.6413 117.129 62.331 116.803 61.2699C116.477 60.2088 116.017 59.4098 115.423 58.8729C114.828 58.3295 114.125 58.0579 113.313 58.0579C112.092 58.0579 111.127 58.6651 110.418 59.8796C109.708 61.0877 109.35 62.8615 109.344 65.201C109.337 66.767 109.494 68.0838 109.814 69.1513C110.14 70.2187 110.6 71.0241 111.194 71.5675C111.789 72.1044 112.495 72.3729 113.313 72.3729Z" fill="#2B2C36"/>
<path d="M18.4858 91.8182V102H16.9993V91.8182H18.4858ZM22.1479 102.169C21.664 102.169 21.2265 102.08 20.8354 101.901C20.4443 101.718 20.1344 101.455 19.9057 101.11C19.6804 100.765 19.5677 100.343 19.5677 99.8423C19.5677 99.4115 19.6505 99.0568 19.8162 98.7784C19.982 98.5 20.2057 98.2796 20.4874 98.1172C20.7691 97.9548 21.084 97.8321 21.432 97.7493C21.78 97.6664 22.1347 97.6035 22.4959 97.5604C22.9533 97.5073 23.3245 97.4643 23.6096 97.4311C23.8946 97.3946 24.1018 97.3366 24.231 97.2571C24.3603 97.1776 24.4249 97.0483 24.4249 96.8693V96.8345C24.4249 96.4003 24.3023 96.0639 24.057 95.8253C23.8151 95.5866 23.4538 95.4673 22.9732 95.4673C22.4727 95.4673 22.0783 95.5784 21.79 95.8004C21.5049 96.0192 21.3077 96.2628 21.1983 96.5312L19.8013 96.2131C19.967 95.7491 20.209 95.3745 20.5272 95.0895C20.8487 94.8011 21.2182 94.5923 21.6358 94.4631C22.0535 94.3305 22.4926 94.2642 22.9533 94.2642C23.2582 94.2642 23.5814 94.3007 23.9228 94.3736C24.2675 94.4432 24.589 94.5724 24.8873 94.7614C25.1889 94.9503 25.4358 95.2204 25.628 95.5717C25.8203 95.9197 25.9164 96.3722 25.9164 96.929V102H24.4647V100.956H24.405C24.3089 101.148 24.1647 101.337 23.9725 101.523C23.7803 101.708 23.5333 101.862 23.2317 101.985C22.9301 102.108 22.5688 102.169 22.1479 102.169ZM22.4711 100.976C22.8821 100.976 23.2334 100.895 23.525 100.732C23.82 100.57 24.0438 100.358 24.1962 100.096C24.352 99.8307 24.4299 99.5473 24.4299 99.2457V98.2614C24.3768 98.3144 24.2741 98.3641 24.1216 98.4105C23.9725 98.4536 23.8018 98.4917 23.6096 98.5249C23.4173 98.5547 23.2301 98.5829 23.0478 98.6094C22.8655 98.6326 22.713 98.6525 22.5904 98.669C22.302 98.7055 22.0385 98.7668 21.7999 98.853C21.5646 98.9392 21.3757 99.0634 21.2331 99.2259C21.0939 99.3849 21.0243 99.5971 21.0243 99.8622C21.0243 100.23 21.1602 100.509 21.432 100.697C21.7038 100.883 22.0501 100.976 22.4711 100.976ZM33.0586 96.228L31.7113 96.4666C31.655 96.2943 31.5655 96.1302 31.4429 95.9744C31.3235 95.8187 31.1611 95.6911 30.9556 95.5916C30.7501 95.4922 30.4933 95.4425 30.185 95.4425C29.7641 95.4425 29.4128 95.5369 29.1311 95.7259C28.8493 95.9115 28.7085 96.1518 28.7085 96.4467C28.7085 96.7019 28.8029 96.9074 28.9919 97.0632C29.1808 97.219 29.4857 97.3466 29.9066 97.446L31.1197 97.7244C31.8224 97.8868 32.346 98.1371 32.6907 98.4751C33.0354 98.8132 33.2078 99.2524 33.2078 99.7926C33.2078 100.25 33.0752 100.658 32.81 101.016C32.5482 101.37 32.182 101.649 31.7113 101.851C31.244 102.053 30.7021 102.154 30.0856 102.154C29.2305 102.154 28.5328 101.972 27.9926 101.607C27.4523 101.239 27.1209 100.717 26.9983 100.041L28.435 99.8224C28.5245 100.197 28.7085 100.48 28.9869 100.673C29.2653 100.862 29.6282 100.956 30.0757 100.956C30.5629 100.956 30.9523 100.855 31.244 100.653C31.5357 100.447 31.6815 100.197 31.6815 99.902C31.6815 99.6634 31.592 99.4628 31.413 99.3004C31.2374 99.138 30.9672 99.0154 30.6027 98.9325L29.31 98.6491C28.5974 98.4867 28.0705 98.2282 27.7291 97.8736C27.391 97.5189 27.222 97.0698 27.222 96.5263C27.222 96.0755 27.3479 95.6811 27.5998 95.343C27.8517 95.005 28.1997 94.7415 28.6438 94.5526C29.088 94.3603 29.5967 94.2642 30.1701 94.2642C30.9954 94.2642 31.645 94.4432 32.119 94.8011C32.593 95.1558 32.9062 95.6314 33.0586 96.228ZM37.8468 94.3636V95.5568H33.6756V94.3636H37.8468ZM34.7943 92.5341H36.2808V99.7578C36.2808 100.046 36.3238 100.263 36.41 100.409C36.4962 100.552 36.6072 100.649 36.7431 100.702C36.8823 100.752 37.0331 100.777 37.1955 100.777C37.3149 100.777 37.4193 100.769 37.5087 100.752C37.5982 100.736 37.6678 100.722 37.7175 100.712L37.986 101.94C37.8998 101.973 37.7772 102.007 37.6181 102.04C37.459 102.076 37.2602 102.096 37.0215 102.099C36.6304 102.106 36.2658 102.036 35.9278 101.891C35.5897 101.745 35.3163 101.519 35.1075 101.214C34.8987 100.91 34.7943 100.527 34.7943 100.066V92.5341ZM45.611 102.139C45.157 102.133 44.7095 102.05 44.2687 101.891C43.8312 101.732 43.4335 101.466 43.0755 101.095C42.7176 100.724 42.4309 100.225 42.2154 99.5987C42.0033 98.9723 41.8973 98.1901 41.8973 97.2521C41.8973 96.3639 41.9851 95.575 42.1608 94.8857C42.3397 94.1963 42.5966 93.6146 42.9314 93.1406C43.2661 92.6634 43.6705 92.3004 44.1444 92.0518C44.6184 91.8033 45.1503 91.679 45.7403 91.679C46.3468 91.679 46.8854 91.7983 47.3561 92.0369C47.8267 92.2756 48.2079 92.6054 48.4995 93.0263C48.7945 93.4472 48.9818 93.9261 49.0613 94.4631H47.545C47.4422 94.0388 47.2384 93.6925 46.9335 93.424C46.6286 93.1555 46.2308 93.0213 45.7403 93.0213C44.9946 93.0213 44.4129 93.3461 43.9953 93.9957C43.581 94.6454 43.3722 95.5485 43.3689 96.7053H43.4434C43.6191 96.4169 43.8345 96.1716 44.0897 95.9695C44.3483 95.764 44.6366 95.6065 44.9548 95.4972C45.2763 95.3845 45.6144 95.3281 45.969 95.3281C46.559 95.3281 47.0926 95.4723 47.5699 95.7607C48.0504 96.0457 48.4333 96.4401 48.7183 96.9439C49.0033 97.4477 49.1458 98.0244 49.1458 98.674C49.1458 99.3236 48.9984 99.9119 48.7034 100.439C48.4117 100.966 48.0007 101.384 47.4704 101.692C46.9401 101.997 46.3203 102.146 45.611 102.139ZM45.6061 100.847C45.9972 100.847 46.3468 100.75 46.6551 100.558C46.9633 100.366 47.2069 100.107 47.3859 99.7827C47.5649 99.4579 47.6544 99.0949 47.6544 98.6939C47.6544 98.3028 47.5665 97.9465 47.3909 97.625C47.2185 97.3035 46.9799 97.0483 46.675 96.8594C46.3734 96.6705 46.0287 96.576 45.6409 96.576C45.3459 96.576 45.0725 96.6323 44.8206 96.745C44.572 96.8577 44.3532 97.0135 44.1643 97.2124C43.9754 97.4112 43.8262 97.6399 43.7169 97.8984C43.6108 98.1536 43.5578 98.4238 43.5578 98.7088C43.5578 99.09 43.6456 99.4429 43.8213 99.7678C44.0002 100.093 44.2439 100.354 44.5521 100.553C44.8636 100.749 45.215 100.847 45.6061 100.847ZM53.5617 102V94.3636H54.9886V95.6065H55.083C55.2421 95.1856 55.5023 94.8575 55.8636 94.6222C56.2248 94.3835 56.6574 94.2642 57.1611 94.2642C57.6716 94.2642 58.0991 94.3835 58.4438 94.6222C58.7918 94.8608 59.0487 95.1889 59.2144 95.6065H59.294C59.4762 95.1989 59.7663 94.8741 60.164 94.6321C60.5617 94.3868 61.0357 94.2642 61.5859 94.2642C62.2786 94.2642 62.8437 94.4813 63.2812 94.9155C63.722 95.3497 63.9424 96.0043 63.9424 96.8793V102H62.4559V97.0185C62.4559 96.5014 62.315 96.1269 62.0333 95.8949C61.7516 95.6629 61.4152 95.5469 61.0241 95.5469C60.5402 95.5469 60.164 95.696 59.8955 95.9943C59.6271 96.2893 59.4928 96.6688 59.4928 97.1328V102H58.0113V96.924C58.0113 96.5097 57.882 96.1766 57.6235 95.9247C57.365 95.6728 57.0286 95.5469 56.6143 95.5469C56.3325 95.5469 56.0724 95.6214 55.8337 95.7706C55.5984 95.9164 55.4078 96.1203 55.262 96.3821C55.1195 96.6439 55.0482 96.9472 55.0482 97.2919V102H53.5617ZM68.5914 102.154C67.8755 102.154 67.2507 101.99 66.7171 101.662C66.1835 101.334 65.7692 100.875 65.4742 100.285C65.1792 99.6948 65.0317 99.0054 65.0317 98.2166C65.0317 97.4245 65.1792 96.7318 65.4742 96.1385C65.7692 95.5452 66.1835 95.0845 66.7171 94.7564C67.2507 94.4283 67.8755 94.2642 68.5914 94.2642C69.3073 94.2642 69.9321 94.4283 70.4657 94.7564C70.9993 95.0845 71.4136 95.5452 71.7086 96.1385C72.0035 96.7318 72.151 97.4245 72.151 98.2166C72.151 99.0054 72.0035 99.6948 71.7086 100.285C71.4136 100.875 70.9993 101.334 70.4657 101.662C69.9321 101.99 69.3073 102.154 68.5914 102.154ZM68.5964 100.906C69.0604 100.906 69.4448 100.784 69.7498 100.538C70.0547 100.293 70.2801 99.9666 70.4259 99.5589C70.575 99.1513 70.6496 98.7022 70.6496 98.2116C70.6496 97.7244 70.575 97.277 70.4259 96.8693C70.2801 96.4583 70.0547 96.1286 69.7498 95.88C69.4448 95.6314 69.0604 95.5071 68.5964 95.5071C68.129 95.5071 67.7412 95.6314 67.433 95.88C67.1281 96.1286 66.901 96.4583 66.7519 96.8693C66.6061 97.277 66.5331 97.7244 66.5331 98.2116C66.5331 98.7022 66.6061 99.1513 66.7519 99.5589C66.901 99.9666 67.1281 100.293 67.433 100.538C67.7412 100.784 68.129 100.906 68.5964 100.906ZM74.7368 97.4659V102H73.2503V94.3636H74.6772V95.6065H74.7716C74.9473 95.2022 75.2224 94.8774 75.5969 94.6321C75.9747 94.3868 76.4504 94.2642 77.0237 94.2642C77.5441 94.2642 77.9998 94.3736 78.3909 94.5923C78.782 94.8078 79.0853 95.1293 79.3007 95.5568C79.5162 95.9844 79.6239 96.513 79.6239 97.1428V102H78.1374V97.3217C78.1374 96.7682 77.9932 96.3357 77.7048 96.0241C77.4165 95.7093 77.0204 95.5518 76.5166 95.5518C76.1719 95.5518 75.8654 95.6264 75.5969 95.7756C75.3317 95.9247 75.1213 96.1435 74.9655 96.4318C74.813 96.7169 74.7368 97.0616 74.7368 97.4659ZM84.6221 94.3636V95.5568H80.451V94.3636H84.6221ZM81.5696 92.5341H83.0561V99.7578C83.0561 100.046 83.0992 100.263 83.1853 100.409C83.2715 100.552 83.3825 100.649 83.5184 100.702C83.6576 100.752 83.8084 100.777 83.9708 100.777C84.0902 100.777 84.1946 100.769 84.2841 100.752C84.3735 100.736 84.4431 100.722 84.4929 100.712L84.7613 101.94C84.6752 101.973 84.5525 102.007 84.3934 102.04C84.2343 102.076 84.0355 102.096 83.7968 102.099C83.4057 102.106 83.0412 102.036 82.7031 101.891C82.365 101.745 82.0916 101.519 81.8828 101.214C81.674 100.91 81.5696 100.527 81.5696 100.066V92.5341ZM87.357 97.4659V102H85.8705V91.8182H87.3372V95.6065H87.4316C87.6106 95.1955 87.884 94.8691 88.2519 94.6271C88.6198 94.3852 89.1004 94.2642 89.6937 94.2642C90.2174 94.2642 90.6748 94.3719 91.0658 94.5874C91.4603 94.8028 91.7652 95.1243 91.9806 95.5518C92.1994 95.9761 92.3087 96.5064 92.3087 97.1428V102H90.8222V97.3217C90.8222 96.7616 90.6781 96.3274 90.3897 96.0192C90.1014 95.7076 89.7003 95.5518 89.1866 95.5518C88.8353 95.5518 88.5204 95.6264 88.242 95.7756C87.9669 95.9247 87.7498 96.1435 87.5907 96.4318C87.4349 96.7169 87.357 97.0616 87.357 97.4659ZM99.4547 96.228L98.1074 96.4666C98.0511 96.2943 97.9616 96.1302 97.8389 95.9744C97.7196 95.8187 97.5572 95.6911 97.3517 95.5916C97.1462 95.4922 96.8894 95.4425 96.5811 95.4425C96.1602 95.4425 95.8089 95.5369 95.5272 95.7259C95.2454 95.9115 95.1046 96.1518 95.1046 96.4467C95.1046 96.7019 95.199 96.9074 95.388 97.0632C95.5769 97.219 95.8818 97.3466 96.3027 97.446L97.5158 97.7244C98.2184 97.8868 98.7421 98.1371 99.0868 98.4751C99.4315 98.8132 99.6039 99.2524 99.6039 99.7926C99.6039 100.25 99.4713 100.658 99.2061 101.016C98.9443 101.37 98.5781 101.649 98.1074 101.851C97.6401 102.053 97.0982 102.154 96.4817 102.154C95.6266 102.154 94.9289 101.972 94.3887 101.607C93.8484 101.239 93.517 100.717 93.3943 100.041L94.8311 99.8224C94.9206 100.197 95.1046 100.48 95.383 100.673C95.6614 100.862 96.0243 100.956 96.4718 100.956C96.959 100.956 97.3484 100.855 97.6401 100.653C97.9318 100.447 98.0776 100.197 98.0776 99.902C98.0776 99.6634 97.9881 99.4628 97.8091 99.3004C97.6335 99.138 97.3633 99.0154 96.9987 98.9325L95.7061 98.6491C94.9935 98.4867 94.4666 98.2282 94.1252 97.8736C93.7871 97.5189 93.6181 97.0698 93.6181 96.5263C93.6181 96.0755 93.744 95.6811 93.9959 95.343C94.2478 95.005 94.5958 94.7415 95.0399 94.5526C95.4841 94.3603 95.9928 94.2642 96.5662 94.2642C97.3915 94.2642 98.0411 94.4432 98.5151 94.8011C98.989 95.1558 99.3023 95.6314 99.4547 96.228Z" fill="#949599"/>
<path d="M24.4588 263.727V271H23.358V264.828H23.3153L21.5753 265.964V264.913L23.3899 263.727H24.4588ZM28.5581 271.121C27.997 271.118 27.5176 270.97 27.1199 270.677C26.7222 270.383 26.4179 269.956 26.2072 269.395C25.9965 268.834 25.8912 268.158 25.8912 267.367C25.8912 266.579 25.9965 265.905 26.2072 265.347C26.4203 264.788 26.7257 264.362 27.1234 264.068C27.5235 263.775 28.0018 263.628 28.5581 263.628C29.1144 263.628 29.5915 263.776 29.9892 264.072C30.3869 264.365 30.6911 264.791 30.9018 265.35C31.1149 265.906 31.2214 266.579 31.2214 267.367C31.2214 268.16 31.1161 268.837 30.9054 269.398C30.6947 269.957 30.3905 270.384 29.9928 270.68C29.595 270.974 29.1168 271.121 28.5581 271.121ZM28.5581 270.173C29.0505 270.173 29.4352 269.932 29.7122 269.452C29.9916 268.971 30.1312 268.276 30.1312 267.367C30.1312 266.763 30.0673 266.253 29.9395 265.837C29.814 265.418 29.6329 265.1 29.3962 264.885C29.1618 264.667 28.8824 264.558 28.5581 264.558C28.068 264.558 27.6833 264.8 27.404 265.283C27.1246 265.766 26.9838 266.46 26.9814 267.367C26.9814 267.973 27.0441 268.486 27.1696 268.905C27.2974 269.321 27.4786 269.638 27.7129 269.853C27.9473 270.066 28.229 270.173 28.5581 270.173Z" fill="#B7B7BA"/>
<path d="M46.3333 121V278" stroke="#F4F6FA"/>
<path d="M289.333 152.4L16.3334 152.4" stroke="#F4F6FA"/>
<path d="M289.333 183.8L16.3334 183.8" stroke="#F4F6FA"/>
<path d="M289.333 215.2L16.3334 215.2" stroke="#F4F6FA"/>
<path d="M289.333 246.6L16.3334 246.6" stroke="#F4F6FA"/>
<path d="M289.333 278L16.3334 278" stroke="#F4F6FA"/>
<path d="M24.4588 139.727V147H23.358V140.828H23.3153L21.5753 141.964V140.913L23.3899 139.727H24.4588ZM28.5581 147.121C27.997 147.118 27.5176 146.97 27.1199 146.677C26.7222 146.383 26.4179 145.956 26.2072 145.395C25.9965 144.834 25.8912 144.158 25.8912 143.367C25.8912 142.579 25.9965 141.905 26.2072 141.347C26.4203 140.788 26.7257 140.362 27.1234 140.068C27.5235 139.775 28.0018 139.628 28.5581 139.628C29.1144 139.628 29.5915 139.776 29.9892 140.072C30.3869 140.365 30.6911 140.791 30.9018 141.35C31.1149 141.906 31.2214 142.579 31.2214 143.367C31.2214 144.16 31.1161 144.837 30.9054 145.398C30.6947 145.957 30.3905 146.384 29.9928 146.68C29.595 146.974 29.1168 147.121 28.5581 147.121ZM28.5581 146.173C29.0505 146.173 29.4352 145.932 29.7122 145.452C29.9916 144.971 30.1312 144.276 30.1312 143.367C30.1312 142.763 30.0673 142.253 29.9395 141.837C29.814 141.418 29.6329 141.1 29.3962 140.885C29.1618 140.667 28.8824 140.558 28.5581 140.558C28.068 140.558 27.6833 140.8 27.404 141.283C27.1246 141.766 26.9838 142.46 26.9814 143.367C26.9814 143.973 27.0441 144.486 27.1696 144.905C27.2974 145.321 27.4786 145.638 27.7129 145.853C27.9473 146.066 28.229 146.173 28.5581 146.173ZM34.6132 147.121C34.0521 147.118 33.5727 146.97 33.175 146.677C32.7772 146.383 32.473 145.956 32.2623 145.395C32.0516 144.834 31.9463 144.158 31.9463 143.367C31.9463 142.579 32.0516 141.905 32.2623 141.347C32.4754 140.788 32.7808 140.362 33.1785 140.068C33.5786 139.775 34.0568 139.628 34.6132 139.628C35.1695 139.628 35.6466 139.776 36.0443 140.072C36.442 140.365 36.7462 140.791 36.9569 141.35C37.17 141.906 37.2765 142.579 37.2765 143.367C37.2765 144.16 37.1712 144.837 36.9605 145.398C36.7498 145.957 36.4456 146.384 36.0478 146.68C35.6501 146.974 35.1719 147.121 34.6132 147.121ZM34.6132 146.173C35.1056 146.173 35.4903 145.932 35.7673 145.452C36.0466 144.971 36.1863 144.276 36.1863 143.367C36.1863 142.763 36.1224 142.253 35.9946 141.837C35.8691 141.418 35.688 141.1 35.4512 140.885C35.2169 140.667 34.9375 140.558 34.6132 140.558C34.1231 140.558 33.7384 140.8 33.4591 141.283C33.1797 141.766 33.0388 142.46 33.0365 143.367C33.0365 143.973 33.0992 144.486 33.2247 144.905C33.3525 145.321 33.5336 145.638 33.768 145.853C34.0024 146.066 34.2841 146.173 34.6132 146.173Z" fill="#B7B7BA"/>
<path d="M24.157 178.099C23.648 178.099 23.1982 178.012 22.8075 177.837C22.4193 177.661 22.1151 177.42 21.8949 177.112C21.6747 176.804 21.5658 176.454 21.5682 176.061C21.5658 175.753 21.6286 175.47 21.7564 175.212C21.8866 174.952 22.063 174.735 22.2855 174.562C22.508 174.387 22.7566 174.276 23.0312 174.229V174.186C22.669 174.098 22.379 173.904 22.1612 173.604C21.9434 173.303 21.8357 172.957 21.8381 172.567C21.8357 172.195 21.9339 171.864 22.1328 171.572C22.334 171.279 22.6098 171.048 22.9602 170.88C23.3106 170.712 23.7095 170.628 24.157 170.628C24.5997 170.628 24.995 170.713 25.343 170.884C25.6934 171.052 25.9692 171.282 26.1705 171.576C26.3717 171.867 26.4735 172.197 26.4759 172.567C26.4735 172.957 26.3622 173.303 26.142 173.604C25.9219 173.904 25.6354 174.098 25.2827 174.186V174.229C25.5549 174.276 25.8 174.387 26.0178 174.562C26.2379 174.735 26.4131 174.952 26.5433 175.212C26.6759 175.47 26.7434 175.753 26.7457 176.061C26.7434 176.454 26.6321 176.804 26.4119 177.112C26.1918 177.42 25.8864 177.661 25.4957 177.837C25.1075 178.012 24.6612 178.099 24.157 178.099ZM24.157 177.201C24.4576 177.201 24.718 177.151 24.9382 177.052C25.1584 176.95 25.3288 176.809 25.4496 176.629C25.5703 176.447 25.6319 176.234 25.6342 175.99C25.6319 175.737 25.5656 175.513 25.4354 175.319C25.3075 175.125 25.1335 174.972 24.9134 174.861C24.6932 174.75 24.4411 174.694 24.157 174.694C23.8705 174.694 23.616 174.75 23.3935 174.861C23.1709 174.972 22.9957 175.125 22.8679 175.319C22.7401 175.513 22.6773 175.737 22.6797 175.99C22.6773 176.234 22.7353 176.447 22.8537 176.629C22.9744 176.809 23.1461 176.95 23.3686 177.052C23.5911 177.151 23.8539 177.201 24.157 177.201ZM24.157 173.817C24.3984 173.817 24.6127 173.768 24.7997 173.671C24.9867 173.574 25.1335 173.439 25.2401 173.266C25.349 173.094 25.4046 172.891 25.407 172.659C25.4046 172.432 25.3501 172.233 25.2436 172.062C25.1394 171.892 24.9938 171.761 24.8068 171.668C24.6198 171.574 24.4032 171.526 24.157 171.526C23.906 171.526 23.6858 171.574 23.4964 171.668C23.3094 171.761 23.1638 171.892 23.0597 172.062C22.9555 172.233 22.9046 172.432 22.907 172.659C22.9046 172.891 22.9567 173.094 23.0632 173.266C23.1697 173.439 23.3165 173.574 23.5036 173.671C23.6929 173.768 23.9107 173.817 24.157 173.817ZM30.1499 178.121C29.5888 178.118 29.1094 177.97 28.7117 177.677C28.314 177.383 28.0097 176.956 27.799 176.395C27.5883 175.834 27.483 175.158 27.483 174.367C27.483 173.579 27.5883 172.905 27.799 172.347C28.0121 171.788 28.3175 171.362 28.7152 171.068C29.1153 170.775 29.5935 170.628 30.1499 170.628C30.7062 170.628 31.1833 170.776 31.581 171.072C31.9787 171.365 32.2829 171.791 32.4936 172.35C32.7067 172.906 32.8132 173.579 32.8132 174.367C32.8132 175.16 32.7079 175.837 32.4972 176.398C32.2865 176.957 31.9823 177.384 31.5846 177.68C31.1868 177.974 30.7086 178.121 30.1499 178.121ZM30.1499 177.173C30.6423 177.173 31.027 176.932 31.304 176.452C31.5834 175.971 31.723 175.276 31.723 174.367C31.723 173.763 31.6591 173.253 31.5313 172.837C31.4058 172.418 31.2247 172.1 30.988 171.885C30.7536 171.667 30.4742 171.558 30.1499 171.558C29.6598 171.558 29.2751 171.8 28.9958 172.283C28.7164 172.766 28.5756 173.46 28.5732 174.367C28.5732 174.973 28.6359 175.486 28.7614 175.905C28.8892 176.321 29.0703 176.638 29.3047 176.853C29.5391 177.066 29.8208 177.173 30.1499 177.173Z" fill="#B7B7BA"/>
<path d="M24.2386 209.099C23.9143 209.095 23.5947 209.036 23.2798 208.922C22.9673 208.808 22.6832 208.619 22.4276 208.354C22.1719 208.089 21.9671 207.732 21.8132 207.285C21.6617 206.837 21.5859 206.279 21.5859 205.609C21.5859 204.974 21.6487 204.411 21.7741 203.918C21.902 203.426 22.0855 203.01 22.3246 202.672C22.5637 202.331 22.8525 202.072 23.1911 201.894C23.5296 201.717 23.9096 201.628 24.331 201.628C24.7642 201.628 25.1489 201.713 25.4851 201.884C25.8213 202.054 26.0935 202.29 26.3018 202.59C26.5125 202.891 26.6463 203.233 26.7031 203.616H25.62C25.5466 203.313 25.401 203.066 25.1832 202.874C24.9654 202.683 24.6813 202.587 24.331 202.587C23.7983 202.587 23.3828 202.819 23.0845 203.283C22.7886 203.747 22.6394 204.392 22.6371 205.218H22.6903C22.8158 205.012 22.9697 204.837 23.152 204.692C23.3366 204.546 23.5426 204.433 23.7699 204.355C23.9995 204.275 24.241 204.234 24.4943 204.234C24.9157 204.234 25.2969 204.337 25.6378 204.543C25.9811 204.747 26.2545 205.029 26.4581 205.388C26.6617 205.748 26.7635 206.16 26.7635 206.624C26.7635 207.088 26.6581 207.509 26.4474 207.885C26.2391 208.261 25.9455 208.56 25.5668 208.78C25.188 208.998 24.7453 209.104 24.2386 209.099ZM24.2351 208.176C24.5144 208.176 24.7642 208.107 24.9844 207.97C25.2045 207.833 25.3786 207.648 25.5064 207.416C25.6342 207.184 25.6982 206.925 25.6982 206.638C25.6982 206.359 25.6354 206.105 25.5099 205.875C25.3868 205.645 25.2164 205.463 24.9986 205.328C24.7831 205.193 24.5369 205.126 24.2599 205.126C24.0492 205.126 23.8539 205.166 23.674 205.246C23.4964 205.327 23.3402 205.438 23.2053 205.58C23.0703 205.722 22.9638 205.886 22.8857 206.07C22.8099 206.253 22.772 206.446 22.772 206.649C22.772 206.921 22.8348 207.174 22.9602 207.406C23.0881 207.638 23.2621 207.825 23.4822 207.967C23.7048 208.106 23.9557 208.176 24.2351 208.176ZM30.189 209.121C29.6279 209.118 29.1485 208.97 28.7507 208.677C28.353 208.383 28.0488 207.956 27.8381 207.395C27.6274 206.834 27.5221 206.158 27.5221 205.367C27.5221 204.579 27.6274 203.905 27.8381 203.347C28.0512 202.788 28.3566 202.362 28.7543 202.068C29.1544 201.775 29.6326 201.628 30.189 201.628C30.7453 201.628 31.2223 201.776 31.6201 202.072C32.0178 202.365 32.322 202.791 32.5327 203.35C32.7458 203.906 32.8523 204.579 32.8523 205.367C32.8523 206.16 32.747 206.837 32.5363 207.398C32.3256 207.957 32.0213 208.384 31.6236 208.68C31.2259 208.974 30.7477 209.121 30.189 209.121ZM30.189 208.173C30.6814 208.173 31.0661 207.932 31.3431 207.452C31.6224 206.971 31.7621 206.276 31.7621 205.367C31.7621 204.763 31.6982 204.253 31.5703 203.837C31.4449 203.418 31.2638 203.1 31.027 202.885C30.7926 202.667 30.5133 202.558 30.189 202.558C29.6989 202.558 29.3142 202.8 29.0348 203.283C28.7555 203.766 28.6146 204.46 28.6123 205.367C28.6123 205.973 28.675 206.486 28.8005 206.905C28.9283 207.321 29.1094 207.638 29.3438 207.853C29.5782 208.066 29.8599 208.173 30.189 208.173Z" fill="#B7B7BA"/>
<path d="M21.5469 238.58V237.692L24.6896 232.727H25.3892V234.034H24.9453L22.6974 237.592V237.649H27.005V238.58H21.5469ZM24.995 240V238.31L25.0021 237.905V232.727H26.0426V240H24.995ZM30.3745 240.121C29.8134 240.118 29.334 239.97 28.9363 239.677C28.5386 239.383 28.2344 238.956 28.0237 238.395C27.8129 237.834 27.7076 237.158 27.7076 236.367C27.7076 235.579 27.8129 234.905 28.0237 234.347C28.2367 233.788 28.5421 233.362 28.9398 233.068C29.3399 232.775 29.8182 232.628 30.3745 232.628C30.9308 232.628 31.4079 232.776 31.8056 233.072C32.2033 233.365 32.5076 233.791 32.7183 234.35C32.9313 234.906 33.0379 235.579 33.0379 236.367C33.0379 237.16 32.9325 237.837 32.7218 238.398C32.5111 238.957 32.2069 239.384 31.8092 239.68C31.4114 239.974 30.9332 240.121 30.3745 240.121ZM30.3745 239.173C30.8669 239.173 31.2516 238.932 31.5286 238.452C31.808 237.971 31.9477 237.276 31.9477 236.367C31.9477 235.763 31.8837 235.253 31.7559 234.837C31.6304 234.418 31.4493 234.1 31.2126 233.885C30.9782 233.667 30.6988 233.558 30.3745 233.558C29.8844 233.558 29.4997 233.8 29.2204 234.283C28.941 234.766 28.8002 235.46 28.7978 236.367C28.7978 236.973 28.8605 237.486 28.986 237.905C29.1138 238.321 29.295 238.638 29.5293 238.853C29.7637 239.066 30.0454 239.173 30.3745 239.173Z" fill="#B7B7BA"/>
<g clip-path="url(#clip0_53_3287)">
<path d="M64.6666 169C64.6666 164.582 68.2483 161 72.6666 161H89.6666C94.0849 161 97.6666 164.582 97.6666 169V278H64.6666V169Z" fill="#F5E1F3"/>
<rect width="43" height="81" transform="translate(64.6666 197)" fill="url(#paint0_linear_53_3287)"/>
</g>
<g clip-path="url(#clip1_53_3287)">
<path d="M110.667 207C110.667 202.582 114.248 199 118.667 199H136.667C141.085 199 144.667 202.582 144.667 207V278H110.667V207Z" fill="#F5E1F3"/>
<rect width="34" height="97" transform="translate(110.667 219)" fill="url(#paint1_linear_53_3287)"/>
</g>
<g clip-path="url(#clip2_53_3287)">
<path d="M202.667 212C202.667 207.582 206.248 204 210.667 204H228.667C233.085 204 236.667 207.582 236.667 212V278H202.667V212Z" fill="#F5E1F3"/>
<rect width="43" height="91" transform="translate(202.667 230)" fill="url(#paint2_linear_53_3287)"/>
</g>
<g clip-path="url(#clip3_53_3287)">
<path d="M156.667 176C156.667 171.582 160.248 168 164.667 168H182.667C187.085 168 190.667 171.582 190.667 176V278H156.667V176Z" fill="#F5E1F3"/>
<rect width="43" height="81" transform="translate(156.667 204)" fill="url(#paint3_linear_53_3287)"/>
</g>
<g clip-path="url(#clip4_53_3287)">
<path d="M249.667 195C249.667 190.582 253.248 187 257.667 187H275.667C280.085 187 283.667 190.582 283.667 195V278H249.667V195Z" fill="#F5E1F3"/>
<rect width="43" height="81" transform="translate(249.667 223)" fill="url(#paint4_linear_53_3287)"/>
</g>
<path d="M81.5649 292.099C81.0772 292.099 80.6416 292.015 80.2581 291.847C79.8769 291.679 79.5751 291.446 79.3525 291.148C79.1323 290.847 79.014 290.499 78.9974 290.104H80.1125C80.1267 290.319 80.1989 290.506 80.3291 290.665C80.4617 290.821 80.6345 290.942 80.8475 291.027C81.0606 291.112 81.2974 291.155 81.5578 291.155C81.8442 291.155 82.0975 291.105 82.3177 291.006C82.5403 290.906 82.7143 290.768 82.8397 290.59C82.9652 290.41 83.0279 290.203 83.0279 289.969C83.0279 289.725 82.9652 289.511 82.8397 289.326C82.7166 289.139 82.5355 288.992 82.2964 288.886C82.0597 288.779 81.7732 288.726 81.437 288.726H80.8227V287.831H81.437C81.7069 287.831 81.9437 287.782 82.1473 287.685C82.3532 287.588 82.5142 287.453 82.6302 287.281C82.7462 287.105 82.8042 286.901 82.8042 286.666C82.8042 286.441 82.7533 286.246 82.6515 286.08C82.5521 285.912 82.41 285.781 82.2254 285.686C82.0431 285.591 81.8277 285.544 81.5791 285.544C81.3423 285.544 81.121 285.588 80.915 285.675C80.7114 285.761 80.5457 285.884 80.4179 286.045C80.29 286.203 80.2214 286.394 80.2119 286.616H79.1501C79.1619 286.223 79.2779 285.878 79.4981 285.58C79.7207 285.281 80.0142 285.048 80.3788 284.88C80.7434 284.712 81.1482 284.628 81.5933 284.628C82.0597 284.628 82.4621 284.719 82.8007 284.901C83.1416 285.081 83.4044 285.321 83.589 285.622C83.7761 285.923 83.8684 286.252 83.866 286.609C83.8684 287.017 83.7547 287.362 83.5251 287.646C83.2978 287.93 82.9948 288.121 82.616 288.218V288.275C83.099 288.348 83.473 288.54 83.7382 288.85C84.0057 289.16 84.1383 289.545 84.1359 290.004C84.1383 290.404 84.027 290.763 83.8021 291.08C83.5796 291.397 83.2753 291.647 82.8895 291.83C82.5036 292.009 82.062 292.099 81.5649 292.099Z" fill="#B7B7BA"/>
<path d="M126.547 290.58V289.692L129.69 284.727H130.389V286.034H129.945L127.697 289.592V289.649H132.005V290.58H126.547ZM129.995 292V290.31L130.002 289.905V284.727H131.043V292H129.995Z" fill="#B7B7BA"/>
<path d="M176.905 292.099C176.581 292.095 176.261 292.036 175.947 291.922C175.634 291.808 175.35 291.619 175.094 291.354C174.839 291.089 174.634 290.732 174.48 290.285C174.328 289.837 174.253 289.279 174.253 288.609C174.253 287.974 174.315 287.411 174.441 286.918C174.569 286.426 174.752 286.01 174.991 285.672C175.23 285.331 175.519 285.072 175.858 284.894C176.196 284.717 176.576 284.628 176.998 284.628C177.431 284.628 177.816 284.713 178.152 284.884C178.488 285.054 178.76 285.29 178.969 285.59C179.179 285.891 179.313 286.233 179.37 286.616H178.287C178.213 286.313 178.068 286.066 177.85 285.874C177.632 285.683 177.348 285.587 176.998 285.587C176.465 285.587 176.049 285.819 175.751 286.283C175.455 286.747 175.306 287.392 175.304 288.218H175.357C175.483 288.012 175.636 287.837 175.819 287.692C176.003 287.546 176.209 287.433 176.437 287.355C176.666 287.275 176.908 287.234 177.161 287.234C177.582 287.234 177.964 287.337 178.304 287.543C178.648 287.747 178.921 288.029 179.125 288.388C179.328 288.748 179.43 289.16 179.43 289.624C179.43 290.088 179.325 290.509 179.114 290.885C178.906 291.261 178.612 291.56 178.233 291.78C177.855 291.998 177.412 292.104 176.905 292.099ZM176.902 291.176C177.181 291.176 177.431 291.107 177.651 290.97C177.871 290.833 178.045 290.648 178.173 290.416C178.301 290.184 178.365 289.925 178.365 289.638C178.365 289.359 178.302 289.105 178.177 288.875C178.054 288.645 177.883 288.463 177.665 288.328C177.45 288.193 177.204 288.126 176.927 288.126C176.716 288.126 176.521 288.166 176.341 288.246C176.163 288.327 176.007 288.438 175.872 288.58C175.737 288.722 175.63 288.886 175.552 289.07C175.477 289.253 175.439 289.446 175.439 289.649C175.439 289.921 175.501 290.174 175.627 290.406C175.755 290.638 175.929 290.825 176.149 290.967C176.371 291.106 176.622 291.176 176.902 291.176Z" fill="#B7B7BA"/>
<path d="M224.49 292.099C223.981 292.099 223.531 292.012 223.141 291.837C222.753 291.661 222.448 291.42 222.228 291.112C222.008 290.804 221.899 290.454 221.901 290.061C221.899 289.753 221.962 289.47 222.09 289.212C222.22 288.952 222.396 288.735 222.619 288.562C222.841 288.387 223.09 288.276 223.365 288.229V288.186C223.002 288.098 222.712 287.904 222.495 287.604C222.277 287.303 222.169 286.957 222.171 286.567C222.169 286.195 222.267 285.864 222.466 285.572C222.667 285.279 222.943 285.048 223.294 284.88C223.644 284.712 224.043 284.628 224.49 284.628C224.933 284.628 225.328 284.713 225.676 284.884C226.027 285.052 226.303 285.282 226.504 285.576C226.705 285.867 226.807 286.197 226.809 286.567C226.807 286.957 226.696 287.303 226.475 287.604C226.255 287.904 225.969 288.098 225.616 288.186V288.229C225.888 288.276 226.133 288.387 226.351 288.562C226.571 288.735 226.746 288.952 226.877 289.212C227.009 289.47 227.077 289.753 227.079 290.061C227.077 290.454 226.965 290.804 226.745 291.112C226.525 291.42 226.22 291.661 225.829 291.837C225.441 292.012 224.995 292.099 224.49 292.099ZM224.49 291.201C224.791 291.201 225.051 291.151 225.272 291.052C225.492 290.95 225.662 290.809 225.783 290.629C225.904 290.447 225.965 290.234 225.968 289.99C225.965 289.737 225.899 289.513 225.769 289.319C225.641 289.125 225.467 288.972 225.247 288.861C225.026 288.75 224.774 288.694 224.49 288.694C224.204 288.694 223.949 288.75 223.727 288.861C223.504 288.972 223.329 289.125 223.201 289.319C223.073 289.513 223.011 289.737 223.013 289.99C223.011 290.234 223.069 290.447 223.187 290.629C223.308 290.809 223.479 290.95 223.702 291.052C223.924 291.151 224.187 291.201 224.49 291.201ZM224.49 287.817C224.732 287.817 224.946 287.768 225.133 287.671C225.32 287.574 225.467 287.439 225.573 287.266C225.682 287.094 225.738 286.891 225.74 286.659C225.738 286.432 225.683 286.233 225.577 286.062C225.473 285.892 225.327 285.761 225.14 285.668C224.953 285.574 224.736 285.526 224.49 285.526C224.239 285.526 224.019 285.574 223.83 285.668C223.643 285.761 223.497 285.892 223.393 286.062C223.289 286.233 223.238 286.432 223.24 286.659C223.238 286.891 223.29 287.094 223.397 287.266C223.503 287.439 223.65 287.574 223.837 287.671C224.026 287.768 224.244 287.817 224.49 287.817Z" fill="#B7B7BA"/>
<path d="M272.118 284.628C272.442 284.63 272.762 284.689 273.077 284.805C273.392 284.921 273.676 285.111 273.929 285.374C274.185 285.636 274.388 285.991 274.54 286.439C274.694 286.884 274.772 287.438 274.774 288.101C274.774 288.738 274.71 289.305 274.582 289.802C274.455 290.297 274.271 290.714 274.032 291.055C273.795 291.396 273.508 291.656 273.169 291.833C272.83 292.011 272.449 292.099 272.026 292.099C271.592 292.099 271.208 292.014 270.871 291.844C270.535 291.673 270.262 291.438 270.051 291.137C269.84 290.834 269.709 290.486 269.657 290.093H270.74C270.811 290.406 270.955 290.659 271.173 290.853C271.393 291.045 271.678 291.141 272.026 291.141C272.558 291.141 272.974 290.909 273.272 290.445C273.57 289.978 273.721 289.327 273.723 288.491H273.666C273.543 288.695 273.389 288.87 273.205 289.017C273.022 289.164 272.817 289.277 272.59 289.358C272.363 289.438 272.12 289.479 271.862 289.479C271.443 289.479 271.062 289.376 270.719 289.17C270.375 288.964 270.102 288.681 269.898 288.321C269.695 287.961 269.593 287.55 269.593 287.089C269.593 286.629 269.697 286.213 269.906 285.839C270.116 285.465 270.41 285.169 270.786 284.951C271.165 284.731 271.609 284.623 272.118 284.628ZM272.121 285.551C271.844 285.551 271.595 285.62 271.372 285.757C271.152 285.892 270.978 286.076 270.85 286.308C270.722 286.537 270.658 286.793 270.658 287.075C270.658 287.356 270.72 287.612 270.843 287.842C270.969 288.069 271.139 288.25 271.354 288.385C271.572 288.518 271.821 288.584 272.1 288.584C272.308 288.584 272.503 288.544 272.683 288.463C272.862 288.383 273.02 288.271 273.155 288.129C273.29 287.985 273.395 287.821 273.471 287.639C273.547 287.457 273.585 287.265 273.585 287.064C273.585 286.796 273.521 286.548 273.393 286.318C273.267 286.089 273.094 285.904 272.874 285.764C272.654 285.622 272.403 285.551 272.121 285.551Z" fill="#B7B7BA"/>
<defs>
<linearGradient id="paint0_linear_53_3287" x1="21.5" y1="0" x2="21.5" y2="81" gradientUnits="userSpaceOnUse">
<stop stop-color="#F280E2"/>
<stop offset="1" stop-color="#EDB7E6"/>
</linearGradient>
<linearGradient id="paint1_linear_53_3287" x1="17.3334" y1="-14.5" x2="17" y2="97" gradientUnits="userSpaceOnUse">
<stop stop-color="#F280E2"/>
<stop offset="1" stop-color="#EDB7E6"/>
</linearGradient>
<linearGradient id="paint2_linear_53_3287" x1="21.5" y1="0" x2="21.5" y2="91" gradientUnits="userSpaceOnUse">
<stop stop-color="#F280E2"/>
<stop offset="1" stop-color="#EDB7E6"/>
</linearGradient>
<linearGradient id="paint3_linear_53_3287" x1="21.3334" y1="-15.5" x2="21.5" y2="81" gradientUnits="userSpaceOnUse">
<stop stop-color="#F280E2"/>
<stop offset="1" stop-color="#EDB7E6"/>
</linearGradient>
<linearGradient id="paint4_linear_53_3287" x1="21.5" y1="0" x2="21.5" y2="81" gradientUnits="userSpaceOnUse">
<stop stop-color="#F280E2"/>
<stop offset="1" stop-color="#EDB7E6"/>
</linearGradient>
<clipPath id="clip0_53_3287">
<path d="M64.6666 169C64.6666 164.582 68.2483 161 72.6666 161H89.6666C94.0849 161 97.6666 164.582 97.6666 169V278H64.6666V169Z" fill="white"/>
</clipPath>
<clipPath id="clip1_53_3287">
<path d="M110.667 207C110.667 202.582 114.248 199 118.667 199H136.667C141.085 199 144.667 202.582 144.667 207V278H110.667V207Z" fill="white"/>
</clipPath>
<clipPath id="clip2_53_3287">
<path d="M202.667 212C202.667 207.582 206.248 204 210.667 204H228.667C233.085 204 236.667 207.582 236.667 212V278H202.667V212Z" fill="white"/>
</clipPath>
<clipPath id="clip3_53_3287">
<path d="M156.667 176C156.667 171.582 160.248 168 164.667 168H182.667C187.085 168 190.667 171.582 190.667 176V278H156.667V176Z" fill="white"/>
</clipPath>
<clipPath id="clip4_53_3287">
<path d="M249.667 195C249.667 190.582 253.248 187 257.667 187H275.667C280.085 187 283.667 190.582 283.667 195V278H249.667V195Z" fill="white"/>
</clipPath>
</defs>
</svg>
