<svg width="313" height="311" viewBox="0 0 313 311" fill="none" xmlns="http://www.w3.org/2000/svg">
<rect x="0.5" y="0.5" width="311.333" height="310" rx="11.5" fill="white"/>
<rect x="0.5" y="0.5" width="311.333" height="310" rx="11.5" stroke="#EFF1F5"/>
<mask id="mask0_53_3064" style="mask-type:alpha" maskUnits="userSpaceOnUse" x="16" y="16" width="16" height="16">
<rect x="16" y="16" width="16" height="16" fill="#D9D9D9"/>
</mask>
<g mask="url(#mask0_53_3064)">
<path d="M27.3333 29.3334C27.1444 29.3334 26.9861 29.2695 26.8583 29.1417C26.7305 29.014 26.6667 28.8556 26.6667 28.6667V25.3334C26.6667 25.1445 26.7305 24.9862 26.8583 24.8584C26.9861 24.7306 27.1444 24.6667 27.3333 24.6667H28.6667C28.8555 24.6667 29.0139 24.7306 29.1417 24.8584C29.2694 24.9862 29.3333 25.1445 29.3333 25.3334V28.6667C29.3333 28.8556 29.2694 29.014 29.1417 29.1417C29.0139 29.2695 28.8555 29.3334 28.6667 29.3334H27.3333ZM23.3333 29.3334C23.1444 29.3334 22.9861 29.2695 22.8583 29.1417C22.7305 29.014 22.6667 28.8556 22.6667 28.6667V19.3334C22.6667 19.1445 22.7305 18.9862 22.8583 18.8584C22.9861 18.7306 23.1444 18.6667 23.3333 18.6667H24.6667C24.8555 18.6667 25.0139 18.7306 25.1417 18.8584C25.2694 18.9862 25.3333 19.1445 25.3333 19.3334V28.6667C25.3333 28.8556 25.2694 29.014 25.1417 29.1417C25.0139 29.2695 24.8555 29.3334 24.6667 29.3334H23.3333ZM19.3333 29.3334C19.1444 29.3334 18.9861 29.2695 18.8583 29.1417C18.7305 29.014 18.6667 28.8556 18.6667 28.6667V22.6667C18.6667 22.4779 18.7305 22.3195 18.8583 22.1917C18.9861 22.064 19.1444 22.0001 19.3333 22.0001H20.6667C20.8555 22.0001 21.0139 22.064 21.1417 22.1917C21.2694 22.3195 21.3333 22.4779 21.3333 22.6667V28.6667C21.3333 28.8556 21.2694 29.014 21.1417 29.1417C21.0139 29.2695 20.8555 29.3334 20.6667 29.3334H19.3333Z" fill="#1C1B1F"/>
</g>
<path d="M39.0043 30V19.8182H42.8224C43.6046 19.8182 44.2609 19.9541 44.7912 20.2259C45.3248 20.4976 45.7275 20.8788 45.9993 21.3693C46.2744 21.8565 46.4119 22.425 46.4119 23.0746C46.4119 23.7275 46.2727 24.2943 45.9943 24.7749C45.7192 25.2521 45.3132 25.6217 44.7763 25.8835C44.2393 26.142 43.5798 26.2713 42.7976 26.2713H40.0781V24.7401H42.549C43.0064 24.7401 43.3809 24.6771 43.6726 24.5511C43.9643 24.4219 44.1797 24.2346 44.3189 23.9893C44.4614 23.7408 44.5327 23.4358 44.5327 23.0746C44.5327 22.7133 44.4614 22.4051 44.3189 22.1499C44.1764 21.8913 43.9593 21.6958 43.6676 21.5632C43.3759 21.4273 42.9998 21.3594 42.5391 21.3594H40.8487V30H39.0043ZM44.2642 25.3864L46.7848 30H44.7266L42.2507 25.3864H44.2642ZM50.7415 30.1491C49.9759 30.1491 49.3146 29.9901 48.7578 29.6719C48.2043 29.3504 47.7784 28.8963 47.4801 28.3097C47.1818 27.7197 47.0327 27.0253 47.0327 26.2266C47.0327 25.4411 47.1818 24.7517 47.4801 24.1584C47.7817 23.5618 48.2027 23.0978 48.7429 22.7663C49.2832 22.4316 49.9179 22.2642 50.647 22.2642C51.1177 22.2642 51.5618 22.3404 51.9794 22.4929C52.4003 22.642 52.7716 22.8741 53.0931 23.1889C53.4179 23.5038 53.6731 23.9048 53.8587 24.392C54.0443 24.8759 54.1371 25.4527 54.1371 26.1222V26.674H47.8779V25.4609H52.4119C52.4086 25.1162 52.3341 24.8097 52.1882 24.5412C52.0424 24.2694 51.8386 24.0556 51.5767 23.8999C51.3182 23.7441 51.0166 23.6662 50.6719 23.6662C50.304 23.6662 49.9808 23.7557 49.7024 23.9347C49.424 24.1103 49.2069 24.3423 49.0512 24.6307C48.8987 24.9157 48.8208 25.2289 48.8175 25.5703V26.6293C48.8175 27.0734 48.8987 27.4545 49.0611 27.7727C49.2235 28.0876 49.4505 28.3295 49.7422 28.4986C50.0339 28.6643 50.3753 28.7472 50.7663 28.7472C51.0282 28.7472 51.2652 28.7107 51.4773 28.6378C51.6894 28.5616 51.8734 28.4505 52.0291 28.3047C52.1849 28.1589 52.3026 27.9782 52.3821 27.7628L54.0625 27.9517C53.9565 28.3958 53.7543 28.7836 53.456 29.1151C53.161 29.4432 52.7832 29.6984 52.3225 29.8807C51.8618 30.0597 51.3348 30.1491 50.7415 30.1491ZM61.7019 22.3636L58.9825 30H56.9938L54.2744 22.3636H56.1934L57.9484 28.0362H58.0279L59.7878 22.3636H61.7019ZM65.5082 30.1491C64.7426 30.1491 64.0814 29.9901 63.5245 29.6719C62.971 29.3504 62.5451 28.8963 62.2468 28.3097C61.9486 27.7197 61.7994 27.0253 61.7994 26.2266C61.7994 25.4411 61.9486 24.7517 62.2468 24.1584C62.5485 23.5618 62.9694 23.0978 63.5096 22.7663C64.0499 22.4316 64.6846 22.2642 65.4137 22.2642C65.8844 22.2642 66.3285 22.3404 66.7461 22.4929C67.1671 22.642 67.5383 22.8741 67.8598 23.1889C68.1846 23.5038 68.4398 23.9048 68.6254 24.392C68.811 24.8759 68.9038 25.4527 68.9038 26.1222V26.674H62.6446V25.4609H67.1787C67.1754 25.1162 67.1008 24.8097 66.9549 24.5412C66.8091 24.2694 66.6053 24.0556 66.3434 23.8999C66.0849 23.7441 65.7833 23.6662 65.4386 23.6662C65.0707 23.6662 64.7476 23.7557 64.4691 23.9347C64.1907 24.1103 63.9736 24.3423 63.8179 24.6307C63.6654 24.9157 63.5875 25.2289 63.5842 25.5703V26.6293C63.5842 27.0734 63.6654 27.4545 63.8278 27.7727C63.9902 28.0876 64.2173 28.3295 64.5089 28.4986C64.8006 28.6643 65.142 28.7472 65.5331 28.7472C65.7949 28.7472 66.0319 28.7107 66.244 28.6378C66.4561 28.5616 66.6401 28.4505 66.7959 28.3047C66.9516 28.1589 67.0693 27.9782 67.1488 27.7628L68.8292 27.9517C68.7232 28.3958 68.521 28.7836 68.2227 29.1151C67.9277 29.4432 67.5499 29.6984 67.0892 29.8807C66.6285 30.0597 66.1015 30.1491 65.5082 30.1491ZM71.6661 25.5256V30H69.8664V22.3636H71.5865V23.6612H71.676C71.8517 23.2337 72.1317 22.8939 72.5162 22.642C72.904 22.3902 73.3829 22.2642 73.953 22.2642C74.48 22.2642 74.939 22.3769 75.3301 22.6023C75.7245 22.8277 76.0295 23.1541 76.2449 23.5817C76.4637 24.0092 76.5714 24.5279 76.5681 25.1378V30H74.7683V25.4162C74.7683 24.9058 74.6358 24.5064 74.3706 24.218C74.1088 23.9297 73.7459 23.7855 73.2818 23.7855C72.967 23.7855 72.6869 23.8551 72.4416 23.9943C72.1997 24.1302 72.0091 24.3274 71.8699 24.5859C71.734 24.8445 71.6661 25.1577 71.6661 25.5256ZM82.7048 26.7884V22.3636H84.5045V30H82.7595V28.6428H82.6799C82.5076 29.0703 82.2242 29.42 81.8298 29.6918C81.4387 29.9635 80.9565 30.0994 80.3831 30.0994C79.8826 30.0994 79.4401 29.9884 79.0556 29.7663C78.6745 29.541 78.3762 29.2145 78.1608 28.7869C77.9453 28.3561 77.8376 27.8357 77.8376 27.2259V22.3636H79.6373V26.9474C79.6373 27.4313 79.7699 27.8158 80.0351 28.1009C80.3002 28.3859 80.6482 28.5284 81.0791 28.5284C81.3442 28.5284 81.6011 28.4638 81.8497 28.3345C82.0983 28.2053 82.3021 28.013 82.4612 27.7578C82.6236 27.4993 82.7048 27.1761 82.7048 26.7884ZM89.1759 30.1491C88.4102 30.1491 87.749 29.9901 87.1922 29.6719C86.6387 29.3504 86.2128 28.8963 85.9145 28.3097C85.6162 27.7197 85.4671 27.0253 85.4671 26.2266C85.4671 25.4411 85.6162 24.7517 85.9145 24.1584C86.2161 23.5618 86.637 23.0978 87.1773 22.7663C87.7175 22.4316 88.3522 22.2642 89.0814 22.2642C89.552 22.2642 89.9962 22.3404 90.4138 22.4929C90.8347 22.642 91.2059 22.8741 91.5274 23.1889C91.8522 23.5038 92.1074 23.9048 92.2931 24.392C92.4787 24.8759 92.5715 25.4527 92.5715 26.1222V26.674H86.3122V25.4609H90.8463C90.843 25.1162 90.7684 24.8097 90.6226 24.5412C90.4768 24.2694 90.2729 24.0556 90.0111 23.8999C89.7526 23.7441 89.451 23.6662 89.1063 23.6662C88.7384 23.6662 88.4152 23.7557 88.1368 23.9347C87.8584 24.1103 87.6413 24.3423 87.4855 24.6307C87.3331 24.9157 87.2552 25.2289 87.2519 25.5703V26.6293C87.2519 27.0734 87.3331 27.4545 87.4955 27.7727C87.6579 28.0876 87.8849 28.3295 88.1766 28.4986C88.4682 28.6643 88.8096 28.7472 89.2007 28.7472C89.4626 28.7472 89.6995 28.7107 89.9117 28.6378C90.1238 28.5616 90.3077 28.4505 90.4635 28.3047C90.6193 28.1589 90.7369 27.9782 90.8165 27.7628L92.4969 27.9517C92.3908 28.3958 92.1887 28.7836 91.8904 29.1151C91.5954 29.4432 91.2175 29.6984 90.7568 29.8807C90.2961 30.0597 89.7691 30.1491 89.1759 30.1491ZM96.0788 21.3643V19.8182H104.202V21.3643H101.055V30H99.2258V21.3643H96.0788ZM104.336 30V22.3636H106.081V23.6364H106.16C106.3 23.1955 106.538 22.8558 106.876 22.6172C107.218 22.3752 107.607 22.2543 108.045 22.2543C108.144 22.2543 108.255 22.2592 108.378 22.2692C108.504 22.2758 108.608 22.2874 108.691 22.304V23.9595C108.615 23.933 108.494 23.9098 108.328 23.8899C108.166 23.8667 108.008 23.8551 107.856 23.8551C107.528 23.8551 107.233 23.9264 106.971 24.0689C106.712 24.2081 106.508 24.402 106.359 24.6506C106.21 24.8991 106.136 25.1858 106.136 25.5107V30H104.336ZM112.393 30.1491C111.627 30.1491 110.966 29.9901 110.409 29.6719C109.856 29.3504 109.43 28.8963 109.132 28.3097C108.833 27.7197 108.684 27.0253 108.684 26.2266C108.684 25.4411 108.833 24.7517 109.132 24.1584C109.433 23.5618 109.854 23.0978 110.394 22.7663C110.935 22.4316 111.569 22.2642 112.298 22.2642C112.769 22.2642 113.213 22.3404 113.631 22.4929C114.052 22.642 114.423 22.8741 114.744 23.1889C115.069 23.5038 115.324 23.9048 115.51 24.392C115.696 24.8759 115.788 25.4527 115.788 26.1222V26.674H109.529V25.4609H114.063C114.06 25.1162 113.985 24.8097 113.84 24.5412C113.694 24.2694 113.49 24.0556 113.228 23.8999C112.97 23.7441 112.668 23.6662 112.323 23.6662C111.955 23.6662 111.632 23.7557 111.354 23.9347C111.075 24.1103 110.858 24.3423 110.703 24.6307C110.55 24.9157 110.472 25.2289 110.469 25.5703V26.6293C110.469 27.0734 110.55 27.4545 110.713 27.7727C110.875 28.0876 111.102 28.3295 111.394 28.4986C111.685 28.6643 112.027 28.7472 112.418 28.7472C112.68 28.7472 112.917 28.7107 113.129 28.6378C113.341 28.5616 113.525 28.4505 113.681 28.3047C113.836 28.1589 113.954 27.9782 114.034 27.7628L115.714 27.9517C115.608 28.3958 115.406 28.7836 115.107 29.1151C114.812 29.4432 114.435 29.6984 113.974 29.8807C113.513 30.0597 112.986 30.1491 112.393 30.1491ZM118.551 25.5256V30H116.751V22.3636H118.471V23.6612H118.561C118.736 23.2337 119.016 22.8939 119.401 22.642C119.789 22.3902 120.268 22.2642 120.838 22.2642C121.365 22.2642 121.824 22.3769 122.215 22.6023C122.609 22.8277 122.914 23.1541 123.13 23.5817C123.348 24.0092 123.456 24.5279 123.453 25.1378V30H121.653V25.4162C121.653 24.9058 121.52 24.5064 121.255 24.218C120.993 23.9297 120.631 23.7855 120.167 23.7855C119.852 23.7855 119.572 23.8551 119.326 23.9943C119.084 24.1302 118.894 24.3274 118.755 24.5859C118.619 24.8445 118.551 25.1577 118.551 25.5256ZM127.556 30.1342C126.956 30.1342 126.419 29.9801 125.945 29.6719C125.471 29.3636 125.097 28.9162 124.822 28.3295C124.547 27.7429 124.409 27.0303 124.409 26.1918C124.409 25.3433 124.548 24.6274 124.827 24.044C125.108 23.4574 125.488 23.0149 125.965 22.7166C126.442 22.415 126.974 22.2642 127.561 22.2642C128.009 22.2642 128.376 22.3404 128.665 22.4929C128.953 22.642 129.182 22.8227 129.351 23.0348C129.52 23.2436 129.651 23.4408 129.744 23.6264H129.818V19.8182H131.623V30H129.853V28.7969H129.744C129.651 28.9825 129.517 29.1797 129.341 29.3885C129.165 29.594 128.933 29.7696 128.645 29.9155C128.357 30.0613 127.994 30.1342 127.556 30.1342ZM128.058 28.6577C128.439 28.6577 128.764 28.5549 129.033 28.3494C129.301 28.1406 129.505 27.8506 129.644 27.4794C129.783 27.1082 129.853 26.6757 129.853 26.1818C129.853 25.688 129.783 25.2588 129.644 24.8942C129.508 24.5296 129.306 24.2462 129.038 24.044C128.772 23.8419 128.446 23.7408 128.058 23.7408C127.657 23.7408 127.322 23.8452 127.054 24.054C126.786 24.2628 126.583 24.5511 126.447 24.919C126.312 25.2869 126.244 25.7079 126.244 26.1818C126.244 26.6591 126.312 27.085 126.447 27.4595C126.587 27.8307 126.79 28.1241 127.059 28.3395C127.331 28.5516 127.664 28.6577 128.058 28.6577ZM139.016 24.3821L137.376 24.5611C137.329 24.3954 137.248 24.2396 137.132 24.0938C137.019 23.9479 136.867 23.8303 136.675 23.7408C136.482 23.6513 136.247 23.6065 135.969 23.6065C135.594 23.6065 135.279 23.6877 135.024 23.8501C134.772 24.0125 134.648 24.223 134.651 24.4815C134.648 24.7036 134.729 24.8842 134.895 25.0234C135.064 25.1626 135.342 25.277 135.73 25.3665L137.033 25.6449C137.755 25.8007 138.292 26.0476 138.643 26.3857C138.998 26.7237 139.177 27.1662 139.18 27.7131C139.177 28.1937 139.036 28.6179 138.758 28.9858C138.483 29.3504 138.1 29.6354 137.609 29.8409C137.119 30.0464 136.555 30.1491 135.919 30.1491C134.984 30.1491 134.232 29.9536 133.662 29.5625C133.092 29.1681 132.752 28.6196 132.643 27.9169L134.398 27.7479C134.477 28.0926 134.646 28.3527 134.905 28.5284C135.163 28.7041 135.5 28.7919 135.914 28.7919C136.341 28.7919 136.684 28.7041 136.943 28.5284C137.205 28.3527 137.336 28.1357 137.336 27.8771C137.336 27.6584 137.251 27.4777 137.082 27.3352C136.916 27.1927 136.658 27.0833 136.307 27.0071L135.004 26.7337C134.272 26.5812 133.73 26.3243 133.378 25.9631C133.027 25.5985 132.853 25.1378 132.856 24.581C132.853 24.1103 132.981 23.7027 133.239 23.358C133.501 23.0099 133.864 22.7415 134.328 22.5526C134.795 22.3603 135.334 22.2642 135.944 22.2642C136.839 22.2642 137.543 22.4548 138.057 22.8359C138.574 23.2171 138.894 23.7325 139.016 24.3821Z" fill="#2B2C36"/>
<mask id="mask1_53_3064" style="mask-type:alpha" maskUnits="userSpaceOnUse" x="280" y="16" width="17" height="16">
<rect x="280.333" y="16" width="16" height="16" fill="#D9D9D9"/>
</mask>
<g mask="url(#mask1_53_3064)">
<path d="M291 21.6002L285.067 27.5335C284.945 27.6557 284.789 27.7168 284.6 27.7168C284.411 27.7168 284.256 27.6557 284.134 27.5335C284.011 27.4113 283.95 27.2557 283.95 27.0668C283.95 26.8779 284.011 26.7224 284.134 26.6002L290.067 20.6668H285C284.811 20.6668 284.653 20.6029 284.525 20.4752C284.397 20.3474 284.334 20.1891 284.334 20.0002C284.334 19.8113 284.397 19.6529 284.525 19.5252C284.653 19.3974 284.811 19.3335 285 19.3335H291.667C291.856 19.3335 292.014 19.3974 292.142 19.5252C292.27 19.6529 292.334 19.8113 292.334 20.0002V26.6668C292.334 26.8557 292.27 27.0141 292.142 27.1418C292.014 27.2696 291.856 27.3335 291.667 27.3335C291.478 27.3335 291.32 27.2696 291.192 27.1418C291.064 27.0141 291 26.8557 291 26.6668V21.6002Z" fill="#949599"/>
</g>
<path d="M17.745 75V72.4304L24.5621 65.7475C25.2141 65.0891 25.7575 64.5043 26.1921 63.9929C26.6268 63.4815 26.9528 62.9862 27.1701 62.5067C27.3874 62.0273 27.4961 61.516 27.4961 60.9727C27.4961 60.3526 27.3555 59.8221 27.0742 59.381C26.793 58.9336 26.4062 58.5884 25.9141 58.3455C25.4219 58.1026 24.8626 57.9812 24.2362 57.9812C23.5906 57.9812 23.0249 58.1154 22.5391 58.3839C22.0533 58.646 21.6761 59.0199 21.4077 59.5057C21.1456 59.9915 21.0146 60.57 21.0146 61.2411H17.63C17.63 59.9947 17.9144 58.9112 18.4833 57.9908C19.0522 57.0703 19.8352 56.3576 20.8324 55.8526C21.8359 55.3477 22.9865 55.0952 24.2841 55.0952C25.6009 55.0952 26.7578 55.3413 27.755 55.8335C28.7521 56.3256 29.5256 57 30.0753 57.8565C30.6314 58.7131 30.9094 59.6911 30.9094 60.7905C30.9094 61.5256 30.7688 62.2479 30.4876 62.9574C30.2063 63.6669 29.7109 64.4531 29.0014 65.3161C28.2983 66.179 27.3107 67.2241 26.0387 68.4513L22.6541 71.8935V72.0277H31.2067V75H17.745ZM32.6579 71.3565V68.5281L40.99 55.3636H43.3486V59.3906H41.9104L36.3014 68.2788V68.4322H47.9317V71.3565H32.6579ZM42.0255 75V70.4936L42.0638 69.228V55.3636H45.4196V75H42.0255ZM57.1733 75.3739C55.5944 75.3739 54.2393 74.9744 53.1079 74.1754C51.9829 73.37 51.1168 72.2099 50.5096 70.695C49.9087 69.1737 49.6083 67.3423 49.6083 65.201C49.6147 63.0597 49.9183 61.2379 50.5192 59.7358C51.1264 58.2273 51.9925 57.0767 53.1175 56.2841C54.2489 55.4915 55.6008 55.0952 57.1733 55.0952C58.7457 55.0952 60.0976 55.4915 61.229 56.2841C62.3604 57.0767 63.2265 58.2273 63.8274 59.7358C64.4346 61.2443 64.7383 63.0661 64.7383 65.201C64.7383 67.3487 64.4346 69.1832 63.8274 70.7045C63.2265 72.2195 62.3604 73.3764 61.229 74.1754C60.104 74.9744 58.7521 75.3739 57.1733 75.3739ZM57.1733 72.3729C58.4005 72.3729 59.3689 71.7688 60.0785 70.5607C60.7944 69.3462 61.1523 67.5597 61.1523 65.201C61.1523 63.6413 60.9893 62.331 60.6633 61.2699C60.3373 60.2088 59.8771 59.4098 59.2826 58.8729C58.6882 58.3295 57.9851 58.0579 57.1733 58.0579C55.9524 58.0579 54.9872 58.6651 54.2777 59.8796C53.5682 61.0877 53.2102 62.8615 53.2038 65.201C53.1974 66.767 53.354 68.0838 53.6736 69.1513C53.9996 70.2187 54.4599 71.0241 55.0543 71.5675C55.6488 72.1044 56.3551 72.3729 57.1733 72.3729ZM70.1925 72.3153L70.0679 73.37C69.9784 74.1754 69.8186 74.9936 69.5885 75.8246C69.3648 76.6619 69.1283 77.4322 68.879 78.1353C68.6297 78.8384 68.4283 79.3913 68.2749 79.794H65.9354C66.0249 79.4041 66.1464 78.8736 66.2998 78.2024C66.4596 77.5313 66.613 76.777 66.76 75.9396C66.907 75.1023 67.0061 74.2521 67.0572 73.3892L67.1243 72.3153H70.1925ZM79.4557 75.3739C77.8768 75.3739 76.5217 74.9744 75.3903 74.1754C74.2653 73.37 73.3992 72.2099 72.7919 70.695C72.1911 69.1737 71.8907 67.3423 71.8907 65.201C71.8971 63.0597 72.2007 61.2379 72.8015 59.7358C73.4088 58.2273 74.2749 57.0767 75.3999 56.2841C76.5313 55.4915 77.8832 55.0952 79.4557 55.0952C81.0281 55.0952 82.38 55.4915 83.5114 56.2841C84.6428 57.0767 85.5089 58.2273 86.1098 59.7358C86.717 61.2443 87.0206 63.0661 87.0206 65.201C87.0206 67.3487 86.717 69.1832 86.1098 70.7045C85.5089 72.2195 84.6428 73.3764 83.5114 74.1754C82.3864 74.9744 81.0345 75.3739 79.4557 75.3739ZM79.4557 72.3729C80.6829 72.3729 81.6513 71.7688 82.3608 70.5607C83.0768 69.3462 83.4347 67.5597 83.4347 65.201C83.4347 63.6413 83.2717 62.331 82.9457 61.2699C82.6197 60.2088 82.1595 59.4098 81.565 58.8729C80.9706 58.3295 80.2674 58.0579 79.4557 58.0579C78.2348 58.0579 77.2696 58.6651 76.5601 59.8796C75.8505 61.0877 75.4926 62.8615 75.4862 65.201C75.4798 66.767 75.6364 68.0838 75.956 69.1513C76.282 70.2187 76.7422 71.0241 77.3367 71.5675C77.9312 72.1044 78.6375 72.3729 79.4557 72.3729ZM96.3844 75.3739C94.8056 75.3739 93.4505 74.9744 92.3191 74.1754C91.1941 73.37 90.328 72.2099 89.7207 70.695C89.1199 69.1737 88.8195 67.3423 88.8195 65.201C88.8259 63.0597 89.1295 61.2379 89.7303 59.7358C90.3376 58.2273 91.2037 57.0767 92.3287 56.2841C93.4601 55.4915 94.812 55.0952 96.3844 55.0952C97.9569 55.0952 99.3088 55.4915 100.44 56.2841C101.572 57.0767 102.438 58.2273 103.039 59.7358C103.646 61.2443 103.949 63.0661 103.949 65.201C103.949 67.3487 103.646 69.1832 103.039 70.7045C102.438 72.2195 101.572 73.3764 100.44 74.1754C99.3152 74.9744 97.9633 75.3739 96.3844 75.3739ZM96.3844 72.3729C97.6117 72.3729 98.5801 71.7688 99.2896 70.5607C100.006 69.3462 100.363 67.5597 100.363 65.201C100.363 63.6413 100.2 62.331 99.8745 61.2699C99.5485 60.2088 99.0883 59.4098 98.4938 58.8729C97.8994 58.3295 97.1962 58.0579 96.3844 58.0579C95.1636 58.0579 94.1984 58.6651 93.4888 59.8796C92.7793 61.0877 92.4214 62.8615 92.415 65.201C92.4086 66.767 92.5652 68.0838 92.8848 69.1513C93.2108 70.2187 93.671 71.0241 94.2655 71.5675C94.8599 72.1044 95.5663 72.3729 96.3844 72.3729ZM113.313 75.3739C111.734 75.3739 110.379 74.9744 109.248 74.1754C108.123 73.37 107.257 72.2099 106.65 70.695C106.049 69.1737 105.748 67.3423 105.748 65.201C105.755 63.0597 106.058 61.2379 106.659 59.7358C107.266 58.2273 108.132 57.0767 109.257 56.2841C110.389 55.4915 111.741 55.0952 113.313 55.0952C114.886 55.0952 116.238 55.4915 117.369 56.2841C118.5 57.0767 119.366 58.2273 119.967 59.7358C120.575 61.2443 120.878 63.0661 120.878 65.201C120.878 67.3487 120.575 69.1832 119.967 70.7045C119.366 72.2195 118.5 73.3764 117.369 74.1754C116.244 74.9744 114.892 75.3739 113.313 75.3739ZM113.313 72.3729C114.541 72.3729 115.509 71.7688 116.218 70.5607C116.934 69.3462 117.292 67.5597 117.292 65.201C117.292 63.6413 117.129 62.331 116.803 61.2699C116.477 60.2088 116.017 59.4098 115.423 58.8729C114.828 58.3295 114.125 58.0579 113.313 58.0579C112.092 58.0579 111.127 58.6651 110.418 59.8796C109.708 61.0877 109.35 62.8615 109.344 65.201C109.337 66.767 109.494 68.0838 109.814 69.1513C110.14 70.2187 110.6 71.0241 111.194 71.5675C111.789 72.1044 112.495 72.3729 113.313 72.3729Z" fill="#2B2C36"/>
<path d="M18.4858 91.8182V102H16.9993V91.8182H18.4858ZM22.1479 102.169C21.664 102.169 21.2265 102.08 20.8354 101.901C20.4443 101.718 20.1344 101.455 19.9057 101.11C19.6804 100.765 19.5677 100.343 19.5677 99.8423C19.5677 99.4115 19.6505 99.0568 19.8162 98.7784C19.982 98.5 20.2057 98.2796 20.4874 98.1172C20.7691 97.9548 21.084 97.8321 21.432 97.7493C21.78 97.6664 22.1347 97.6035 22.4959 97.5604C22.9533 97.5073 23.3245 97.4643 23.6096 97.4311C23.8946 97.3946 24.1018 97.3366 24.231 97.2571C24.3603 97.1776 24.4249 97.0483 24.4249 96.8693V96.8345C24.4249 96.4003 24.3023 96.0639 24.057 95.8253C23.8151 95.5866 23.4538 95.4673 22.9732 95.4673C22.4727 95.4673 22.0783 95.5784 21.79 95.8004C21.5049 96.0192 21.3077 96.2628 21.1983 96.5312L19.8013 96.2131C19.967 95.7491 20.209 95.3745 20.5272 95.0895C20.8487 94.8011 21.2182 94.5923 21.6358 94.4631C22.0535 94.3305 22.4926 94.2642 22.9533 94.2642C23.2582 94.2642 23.5814 94.3007 23.9228 94.3736C24.2675 94.4432 24.589 94.5724 24.8873 94.7614C25.1889 94.9503 25.4358 95.2204 25.628 95.5717C25.8203 95.9197 25.9164 96.3722 25.9164 96.929V102H24.4647V100.956H24.405C24.3089 101.148 24.1647 101.337 23.9725 101.523C23.7803 101.708 23.5333 101.862 23.2317 101.985C22.9301 102.108 22.5688 102.169 22.1479 102.169ZM22.4711 100.976C22.8821 100.976 23.2334 100.895 23.525 100.732C23.82 100.57 24.0438 100.358 24.1962 100.096C24.352 99.8307 24.4299 99.5473 24.4299 99.2457V98.2614C24.3768 98.3144 24.2741 98.3641 24.1216 98.4105C23.9725 98.4536 23.8018 98.4917 23.6096 98.5249C23.4173 98.5547 23.2301 98.5829 23.0478 98.6094C22.8655 98.6326 22.713 98.6525 22.5904 98.669C22.302 98.7055 22.0385 98.7668 21.7999 98.853C21.5646 98.9392 21.3757 99.0634 21.2331 99.2259C21.0939 99.3849 21.0243 99.5971 21.0243 99.8622C21.0243 100.23 21.1602 100.509 21.432 100.697C21.7038 100.883 22.0501 100.976 22.4711 100.976ZM33.0586 96.228L31.7113 96.4666C31.655 96.2943 31.5655 96.1302 31.4429 95.9744C31.3235 95.8187 31.1611 95.6911 30.9556 95.5916C30.7501 95.4922 30.4933 95.4425 30.185 95.4425C29.7641 95.4425 29.4128 95.5369 29.1311 95.7259C28.8493 95.9115 28.7085 96.1518 28.7085 96.4467C28.7085 96.7019 28.8029 96.9074 28.9919 97.0632C29.1808 97.219 29.4857 97.3466 29.9066 97.446L31.1197 97.7244C31.8224 97.8868 32.346 98.1371 32.6907 98.4751C33.0354 98.8132 33.2078 99.2524 33.2078 99.7926C33.2078 100.25 33.0752 100.658 32.81 101.016C32.5482 101.37 32.182 101.649 31.7113 101.851C31.244 102.053 30.7021 102.154 30.0856 102.154C29.2305 102.154 28.5328 101.972 27.9926 101.607C27.4523 101.239 27.1209 100.717 26.9983 100.041L28.435 99.8224C28.5245 100.197 28.7085 100.48 28.9869 100.673C29.2653 100.862 29.6282 100.956 30.0757 100.956C30.5629 100.956 30.9523 100.855 31.244 100.653C31.5357 100.447 31.6815 100.197 31.6815 99.902C31.6815 99.6634 31.592 99.4628 31.413 99.3004C31.2374 99.138 30.9672 99.0154 30.6027 98.9325L29.31 98.6491C28.5974 98.4867 28.0705 98.2282 27.7291 97.8736C27.391 97.5189 27.222 97.0698 27.222 96.5263C27.222 96.0755 27.3479 95.6811 27.5998 95.343C27.8517 95.005 28.1997 94.7415 28.6438 94.5526C29.088 94.3603 29.5967 94.2642 30.1701 94.2642C30.9954 94.2642 31.645 94.4432 32.119 94.8011C32.593 95.1558 32.9062 95.6314 33.0586 96.228ZM37.8468 94.3636V95.5568H33.6756V94.3636H37.8468ZM34.7943 92.5341H36.2808V99.7578C36.2808 100.046 36.3238 100.263 36.41 100.409C36.4962 100.552 36.6072 100.649 36.7431 100.702C36.8823 100.752 37.0331 100.777 37.1955 100.777C37.3149 100.777 37.4193 100.769 37.5087 100.752C37.5982 100.736 37.6678 100.722 37.7175 100.712L37.986 101.94C37.8998 101.973 37.7772 102.007 37.6181 102.04C37.459 102.076 37.2602 102.096 37.0215 102.099C36.6304 102.106 36.2658 102.036 35.9278 101.891C35.5897 101.745 35.3163 101.519 35.1075 101.214C34.8987 100.91 34.7943 100.527 34.7943 100.066V92.5341ZM42.0564 102V100.886L45.5017 97.3168C45.8696 96.929 46.1728 96.5893 46.4115 96.2976C46.6534 96.0026 46.8341 95.7225 46.9534 95.4574C47.0727 95.1922 47.1324 94.9105 47.1324 94.6122C47.1324 94.2741 47.0528 93.9825 46.8937 93.7372C46.7346 93.4886 46.5175 93.2981 46.2424 93.1655C45.9673 93.0296 45.6574 92.9616 45.3127 92.9616C44.9482 92.9616 44.63 93.0362 44.3582 93.1854C44.0864 93.3345 43.8776 93.545 43.7318 93.8168C43.586 94.0885 43.513 94.4067 43.513 94.7713H42.0464C42.0464 94.1515 42.1889 93.6096 42.474 93.1456C42.759 92.6816 43.1501 92.322 43.6473 92.0668C44.1444 91.8082 44.7095 91.679 45.3426 91.679C45.9823 91.679 46.5457 91.8066 47.0329 92.0618C47.5235 92.3137 47.9063 92.6584 48.1814 93.0959C48.4565 93.5301 48.594 94.0206 48.594 94.5675C48.594 94.9453 48.5227 95.3149 48.3802 95.6761C48.241 96.0374 47.9974 96.4401 47.6494 96.8842C47.3014 97.325 46.8175 97.8603 46.1977 98.4901L44.1743 100.608V100.683H48.7581V102H42.0564ZM54.1869 104.864C53.9648 104.864 53.7626 104.845 53.5804 104.809C53.3981 104.776 53.2622 104.739 53.1727 104.7L53.5306 103.482C53.8024 103.554 54.0444 103.586 54.2565 103.576C54.4686 103.566 54.6559 103.487 54.8183 103.337C54.984 103.188 55.1298 102.945 55.2558 102.607L55.4397 102.099L52.6457 94.3636H54.2366L56.1706 100.29H56.2501L58.1841 94.3636H59.7799L56.6329 103.019C56.4871 103.417 56.3015 103.753 56.0761 104.028C55.8507 104.307 55.5823 104.516 55.2707 104.655C54.9591 104.794 54.5979 104.864 54.1869 104.864ZM63.6484 102.154C62.896 102.154 62.248 101.993 61.7045 101.672C61.1642 101.347 60.7466 100.891 60.4516 100.305C60.16 99.7147 60.0141 99.0237 60.0141 98.2315C60.0141 97.4493 60.16 96.7599 60.4516 96.1634C60.7466 95.5668 61.1576 95.1011 61.6846 94.7663C62.2149 94.4316 62.8347 94.2642 63.544 94.2642C63.9748 94.2642 64.3925 94.3355 64.7968 94.478C65.2012 94.6205 65.5641 94.8442 65.8856 95.1491C66.2071 95.4541 66.4606 95.8501 66.6462 96.3374C66.8318 96.8213 66.9247 97.4096 66.9247 98.1023V98.6293H60.8543V97.5156H65.468C65.468 97.1245 65.3884 96.7782 65.2293 96.4766C65.0702 96.1716 64.8465 95.9313 64.5582 95.7557C64.2731 95.58 63.9384 95.4922 63.5539 95.4922C63.1363 95.4922 62.7717 95.5949 62.4602 95.8004C62.1519 96.0026 61.9133 96.2678 61.7443 96.5959C61.5785 96.9207 61.4957 97.2737 61.4957 97.6548V98.5249C61.4957 99.0353 61.5852 99.4695 61.7641 99.8274C61.9464 100.185 62.2 100.459 62.5248 100.648C62.8496 100.833 63.2291 100.926 63.6633 100.926C63.945 100.926 64.2019 100.886 64.4339 100.807C64.6659 100.724 64.8664 100.601 65.0354 100.439C65.2045 100.277 65.3337 100.076 65.4232 99.8374L66.8302 100.091C66.7175 100.505 66.5153 100.868 66.2237 101.18C65.9353 101.488 65.5724 101.728 65.1349 101.901C64.7007 102.07 64.2052 102.154 63.6484 102.154ZM70.2363 102.169C69.7524 102.169 69.3149 102.08 68.9238 101.901C68.5327 101.718 68.2228 101.455 67.9941 101.11C67.7687 100.765 67.656 100.343 67.656 99.8423C67.656 99.4115 67.7389 99.0568 67.9046 98.7784C68.0703 98.5 68.294 98.2796 68.5758 98.1172C68.8575 97.9548 69.1724 97.8321 69.5204 97.7493C69.8684 97.6664 70.223 97.6035 70.5843 97.5604C71.0417 97.5073 71.4129 97.4643 71.6979 97.4311C71.983 97.3946 72.1901 97.3366 72.3194 97.2571C72.4486 97.1776 72.5133 97.0483 72.5133 96.8693V96.8345C72.5133 96.4003 72.3906 96.0639 72.1454 95.8253C71.9034 95.5866 71.5421 95.4673 71.0616 95.4673C70.5611 95.4673 70.1667 95.5784 69.8783 95.8004C69.5933 96.0192 69.3961 96.2628 69.2867 96.5312L67.8897 96.2131C68.0554 95.7491 68.2974 95.3745 68.6155 95.0895C68.937 94.8011 69.3066 94.5923 69.7242 94.4631C70.1418 94.3305 70.581 94.2642 71.0417 94.2642C71.3466 94.2642 71.6698 94.3007 72.0111 94.3736C72.3558 94.4432 72.6773 94.5724 72.9756 94.7614C73.2772 94.9503 73.5242 95.2204 73.7164 95.5717C73.9086 95.9197 74.0047 96.3722 74.0047 96.929V102H72.553V100.956H72.4934C72.3973 101.148 72.2531 101.337 72.0609 101.523C71.8686 101.708 71.6217 101.862 71.3201 101.985C71.0185 102.108 70.6572 102.169 70.2363 102.169ZM70.5594 100.976C70.9704 100.976 71.3217 100.895 71.6134 100.732C71.9084 100.57 72.1321 100.358 72.2846 100.096C72.4403 99.8307 72.5182 99.5473 72.5182 99.2457V98.2614C72.4652 98.3144 72.3625 98.3641 72.21 98.4105C72.0609 98.4536 71.8902 98.4917 71.6979 98.5249C71.5057 98.5547 71.3184 98.5829 71.1361 98.6094C70.9538 98.6326 70.8014 98.6525 70.6787 98.669C70.3904 98.7055 70.1269 98.7668 69.8883 98.853C69.6529 98.9392 69.464 99.0634 69.3215 99.2259C69.1823 99.3849 69.1127 99.5971 69.1127 99.8622C69.1127 100.23 69.2486 100.509 69.5204 100.697C69.7921 100.883 70.1385 100.976 70.5594 100.976ZM75.4247 102V94.3636H76.8615V95.5767H76.941C77.0802 95.1657 77.3255 94.8426 77.6768 94.6072C78.0315 94.3686 78.4325 94.2493 78.8799 94.2493C78.9727 94.2493 79.0821 94.2526 79.2081 94.2592C79.3373 94.2659 79.4384 94.2741 79.5113 94.2841V95.706C79.4517 95.6894 79.3456 95.6712 79.1931 95.6513C79.0407 95.6281 78.8882 95.6165 78.7358 95.6165C78.3844 95.6165 78.0712 95.6911 77.7961 95.8402C77.5244 95.986 77.3089 96.1899 77.1498 96.4517C76.9907 96.7102 76.9112 97.0052 76.9112 97.3366V102H75.4247ZM85.96 96.228L84.6127 96.4666C84.5564 96.2943 84.4669 96.1302 84.3443 95.9744C84.2249 95.8187 84.0625 95.6911 83.857 95.5916C83.6516 95.4922 83.3947 95.4425 83.0864 95.4425C82.6655 95.4425 82.3142 95.5369 82.0325 95.7259C81.7507 95.9115 81.6099 96.1518 81.6099 96.4467C81.6099 96.7019 81.7043 96.9074 81.8933 97.0632C82.0822 97.219 82.3871 97.3466 82.808 97.446L84.0211 97.7244C84.7238 97.8868 85.2474 98.1371 85.5921 98.4751C85.9368 98.8132 86.1092 99.2524 86.1092 99.7926C86.1092 100.25 85.9766 100.658 85.7114 101.016C85.4496 101.37 85.0834 101.649 84.6127 101.851C84.1454 102.053 83.6035 102.154 82.987 102.154C82.1319 102.154 81.4342 101.972 80.894 101.607C80.3537 101.239 80.0223 100.717 79.8997 100.041L81.3364 99.8224C81.4259 100.197 81.6099 100.48 81.8883 100.673C82.1667 100.862 82.5296 100.956 82.9771 100.956C83.4643 100.956 83.8537 100.855 84.1454 100.653C84.4371 100.447 84.5829 100.197 84.5829 99.902C84.5829 99.6634 84.4934 99.4628 84.3144 99.3004C84.1388 99.138 83.8686 99.0154 83.5041 98.9325L82.2114 98.6491C81.4989 98.4867 80.9719 98.2282 80.6305 97.8736C80.2924 97.5189 80.1234 97.0698 80.1234 96.5263C80.1234 96.0755 80.2493 95.6811 80.5012 95.343C80.7531 95.005 81.1011 94.7415 81.5453 94.5526C81.9894 94.3603 82.4981 94.2642 83.0715 94.2642C83.8968 94.2642 84.5464 94.4432 85.0204 94.8011C85.4944 95.1558 85.8076 95.6314 85.96 96.228Z" fill="#949599"/>
<g clip-path="url(#clip0_53_3064)">
<path d="M24.4588 263.727V271H23.358V264.828H23.3153L21.5753 265.964V264.913L23.3899 263.727H24.4588ZM28.5581 271.121C27.997 271.118 27.5176 270.97 27.1199 270.677C26.7222 270.383 26.4179 269.956 26.2072 269.395C25.9965 268.834 25.8912 268.158 25.8912 267.367C25.8912 266.579 25.9965 265.905 26.2072 265.347C26.4203 264.788 26.7257 264.362 27.1234 264.068C27.5235 263.775 28.0018 263.628 28.5581 263.628C29.1144 263.628 29.5915 263.776 29.9892 264.072C30.3869 264.365 30.6911 264.791 30.9018 265.35C31.1149 265.906 31.2214 266.579 31.2214 267.367C31.2214 268.16 31.1161 268.837 30.9054 269.398C30.6947 269.957 30.3905 270.384 29.9928 270.68C29.595 270.974 29.1168 271.121 28.5581 271.121ZM28.5581 270.173C29.0505 270.173 29.4352 269.932 29.7122 269.452C29.9916 268.971 30.1312 268.276 30.1312 267.367C30.1312 266.763 30.0673 266.253 29.9395 265.837C29.814 265.418 29.6329 265.1 29.3962 264.885C29.1618 264.667 28.8824 264.558 28.5581 264.558C28.068 264.558 27.6833 264.8 27.404 265.283C27.1246 265.766 26.9838 266.46 26.9814 267.367C26.9814 267.973 27.0441 268.486 27.1696 268.905C27.2974 269.321 27.4786 269.638 27.7129 269.853C27.9473 270.066 28.229 270.173 28.5581 270.173Z" fill="#B7B7BA"/>
<g clip-path="url(#clip1_53_3064)">
<path d="M16 121V278" stroke="#F4F6FA"/>
<path d="M46.3333 121V278" stroke="#F4F6FA"/>
<path d="M76.6667 121V278" stroke="#F4F6FA"/>
<path d="M107 121V278" stroke="#F4F6FA"/>
<path d="M137.333 121V278" stroke="#F4F6FA"/>
<path d="M167.667 121V278" stroke="#F4F6FA"/>
<path d="M198 121V278" stroke="#F4F6FA"/>
<path d="M228.333 121V278" stroke="#F4F6FA"/>
<path d="M258.667 121V278" stroke="#F4F6FA"/>
<path d="M289 121V278" stroke="#F4F6FA"/>
<path d="M289.333 121L16.3334 121" stroke="#F4F6FA"/>
<path d="M289.333 152.4L16.3334 152.4" stroke="#F4F6FA"/>
<path d="M289.333 183.8L16.3334 183.8" stroke="#F4F6FA"/>
<path d="M289.333 215.2L16.3334 215.2" stroke="#F4F6FA"/>
<path d="M289.333 246.6L16.3334 246.6" stroke="#F4F6FA"/>
<path d="M289.333 278L16.3334 278" stroke="#F4F6FA"/>
</g>
<rect x="16.5" y="121.5" width="272.333" height="156" rx="3.5" stroke="#EFF1F5"/>
<path d="M16 278L46.5 246.5L55 236L62 232L70 238L76.5 215.5L86.5 205L93 206L101 201L107 215.5L115 206L122 209L130 202L137.5 184L146.5 174.5L153.5 179.5L161 174.5L167.5 184L176 192.5L183.5 201L193 205L198 194.5L206 191L211.5 199L221 202L228.5 194.5L234.5 191L244 188.5L251.5 194.5L258.5 191L265 194.5L274.5 202L282.5 194.5L289 183.5" stroke="#4A92FF" stroke-width="2"/>
<circle cx="70" cy="237" r="2.5" fill="white" stroke="#4A92FF"/>
<circle cx="54" cy="237" r="2.5" fill="white" stroke="#4A92FF"/>
<circle cx="77" cy="215" r="2.5" fill="white" stroke="#4A92FF"/>
<circle cx="101" cy="202" r="2.5" fill="white" stroke="#4A92FF"/>
<circle cx="87" cy="206" r="2.5" fill="white" stroke="#4A92FF"/>
<circle cx="107" cy="215" r="2.5" fill="white" stroke="#4A92FF"/>
<circle cx="122" cy="209" r="2.5" fill="white" stroke="#4A92FF"/>
<circle cx="137.5" cy="184.5" r="2.57143" fill="white" stroke="#4A92FF" stroke-width="0.857143"/>
<circle cx="153.5" cy="178.5" r="2.57143" fill="white" stroke="#4A92FF" stroke-width="0.857143"/>
<circle cx="168.5" cy="184.5" r="2.57143" fill="white" stroke="#4A92FF" stroke-width="0.857143"/>
<circle cx="182.5" cy="200.5" r="2.57143" fill="white" stroke="#4A92FF" stroke-width="0.857143"/>
<circle cx="182.5" cy="200.5" r="2.57143" fill="white" stroke="#4A92FF" stroke-width="0.857143"/>
<circle cx="198.5" cy="194.5" r="2.57143" fill="white" stroke="#4A92FF" stroke-width="0.857143"/>
<circle cx="211.5" cy="198.5" r="2.57143" fill="white" stroke="#4A92FF" stroke-width="0.857143"/>
<circle cx="228.5" cy="195.5" r="2.57143" fill="white" stroke="#4A92FF" stroke-width="0.857143"/>
<circle cx="244" cy="189" r="2.63265" fill="white" stroke="#4A92FF" stroke-width="0.734694"/>
<circle cx="258.5" cy="191.5" r="2.63265" fill="white" stroke="#4A92FF" stroke-width="0.734694"/>
<circle cx="275" cy="201" r="2.63265" fill="white" stroke="#4A92FF" stroke-width="0.734694"/>
<circle cx="287.5" cy="184.5" r="2.63265" fill="white" stroke="#4A92FF" stroke-width="0.734694"/>
<path d="M24.4588 139.727V147H23.358V140.828H23.3153L21.5753 141.964V140.913L23.3899 139.727H24.4588ZM28.5581 147.121C27.997 147.118 27.5176 146.97 27.1199 146.677C26.7222 146.383 26.4179 145.956 26.2072 145.395C25.9965 144.834 25.8912 144.158 25.8912 143.367C25.8912 142.579 25.9965 141.905 26.2072 141.347C26.4203 140.788 26.7257 140.362 27.1234 140.068C27.5235 139.775 28.0018 139.628 28.5581 139.628C29.1144 139.628 29.5915 139.776 29.9892 140.072C30.3869 140.365 30.6911 140.791 30.9018 141.35C31.1149 141.906 31.2214 142.579 31.2214 143.367C31.2214 144.16 31.1161 144.837 30.9054 145.398C30.6947 145.957 30.3905 146.384 29.9928 146.68C29.595 146.974 29.1168 147.121 28.5581 147.121ZM28.5581 146.173C29.0505 146.173 29.4352 145.932 29.7122 145.452C29.9916 144.971 30.1312 144.276 30.1312 143.367C30.1312 142.763 30.0673 142.253 29.9395 141.837C29.814 141.418 29.6329 141.1 29.3962 140.885C29.1618 140.667 28.8824 140.558 28.5581 140.558C28.068 140.558 27.6833 140.8 27.404 141.283C27.1246 141.766 26.9838 142.46 26.9814 143.367C26.9814 143.973 27.0441 144.486 27.1696 144.905C27.2974 145.321 27.4786 145.638 27.7129 145.853C27.9473 146.066 28.229 146.173 28.5581 146.173ZM34.6132 147.121C34.0521 147.118 33.5727 146.97 33.175 146.677C32.7772 146.383 32.473 145.956 32.2623 145.395C32.0516 144.834 31.9463 144.158 31.9463 143.367C31.9463 142.579 32.0516 141.905 32.2623 141.347C32.4754 140.788 32.7808 140.362 33.1785 140.068C33.5786 139.775 34.0568 139.628 34.6132 139.628C35.1695 139.628 35.6466 139.776 36.0443 140.072C36.442 140.365 36.7462 140.791 36.9569 141.35C37.17 141.906 37.2765 142.579 37.2765 143.367C37.2765 144.16 37.1712 144.837 36.9605 145.398C36.7498 145.957 36.4456 146.384 36.0478 146.68C35.6501 146.974 35.1719 147.121 34.6132 147.121ZM34.6132 146.173C35.1056 146.173 35.4903 145.932 35.7673 145.452C36.0466 144.971 36.1863 144.276 36.1863 143.367C36.1863 142.763 36.1224 142.253 35.9946 141.837C35.8691 141.418 35.688 141.1 35.4512 140.885C35.2169 140.667 34.9375 140.558 34.6132 140.558C34.1231 140.558 33.7384 140.8 33.4591 141.283C33.1797 141.766 33.0388 142.46 33.0365 143.367C33.0365 143.973 33.0992 144.486 33.2247 144.905C33.3525 145.321 33.5336 145.638 33.768 145.853C34.0024 146.066 34.2841 146.173 34.6132 146.173Z" fill="#B7B7BA"/>
<path d="M24.157 178.099C23.648 178.099 23.1982 178.012 22.8075 177.837C22.4193 177.661 22.1151 177.42 21.8949 177.112C21.6747 176.804 21.5658 176.454 21.5682 176.061C21.5658 175.753 21.6286 175.47 21.7564 175.212C21.8866 174.952 22.063 174.735 22.2855 174.562C22.508 174.387 22.7566 174.276 23.0312 174.229V174.186C22.669 174.098 22.379 173.904 22.1612 173.604C21.9434 173.303 21.8357 172.957 21.8381 172.567C21.8357 172.195 21.9339 171.864 22.1328 171.572C22.334 171.279 22.6098 171.048 22.9602 170.88C23.3106 170.712 23.7095 170.628 24.157 170.628C24.5997 170.628 24.995 170.713 25.343 170.884C25.6934 171.052 25.9692 171.282 26.1705 171.576C26.3717 171.867 26.4735 172.197 26.4759 172.567C26.4735 172.957 26.3622 173.303 26.142 173.604C25.9219 173.904 25.6354 174.098 25.2827 174.186V174.229C25.5549 174.276 25.8 174.387 26.0178 174.562C26.2379 174.735 26.4131 174.952 26.5433 175.212C26.6759 175.47 26.7434 175.753 26.7457 176.061C26.7434 176.454 26.6321 176.804 26.4119 177.112C26.1918 177.42 25.8864 177.661 25.4957 177.837C25.1075 178.012 24.6612 178.099 24.157 178.099ZM24.157 177.201C24.4576 177.201 24.718 177.151 24.9382 177.052C25.1584 176.95 25.3288 176.809 25.4496 176.629C25.5703 176.447 25.6319 176.234 25.6342 175.99C25.6319 175.737 25.5656 175.513 25.4354 175.319C25.3075 175.125 25.1335 174.972 24.9134 174.861C24.6932 174.75 24.4411 174.694 24.157 174.694C23.8705 174.694 23.616 174.75 23.3935 174.861C23.1709 174.972 22.9957 175.125 22.8679 175.319C22.7401 175.513 22.6773 175.737 22.6797 175.99C22.6773 176.234 22.7353 176.447 22.8537 176.629C22.9744 176.809 23.1461 176.95 23.3686 177.052C23.5911 177.151 23.8539 177.201 24.157 177.201ZM24.157 173.817C24.3984 173.817 24.6127 173.768 24.7997 173.671C24.9867 173.574 25.1335 173.439 25.2401 173.266C25.349 173.094 25.4046 172.891 25.407 172.659C25.4046 172.432 25.3501 172.233 25.2436 172.062C25.1394 171.892 24.9938 171.761 24.8068 171.668C24.6198 171.574 24.4032 171.526 24.157 171.526C23.906 171.526 23.6858 171.574 23.4964 171.668C23.3094 171.761 23.1638 171.892 23.0597 172.062C22.9555 172.233 22.9046 172.432 22.907 172.659C22.9046 172.891 22.9567 173.094 23.0632 173.266C23.1697 173.439 23.3165 173.574 23.5036 173.671C23.6929 173.768 23.9107 173.817 24.157 173.817ZM30.1499 178.121C29.5888 178.118 29.1094 177.97 28.7117 177.677C28.314 177.383 28.0097 176.956 27.799 176.395C27.5883 175.834 27.483 175.158 27.483 174.367C27.483 173.579 27.5883 172.905 27.799 172.347C28.0121 171.788 28.3175 171.362 28.7152 171.068C29.1153 170.775 29.5935 170.628 30.1499 170.628C30.7062 170.628 31.1833 170.776 31.581 171.072C31.9787 171.365 32.2829 171.791 32.4936 172.35C32.7067 172.906 32.8132 173.579 32.8132 174.367C32.8132 175.16 32.7079 175.837 32.4972 176.398C32.2865 176.957 31.9823 177.384 31.5846 177.68C31.1868 177.974 30.7086 178.121 30.1499 178.121ZM30.1499 177.173C30.6423 177.173 31.027 176.932 31.304 176.452C31.5834 175.971 31.723 175.276 31.723 174.367C31.723 173.763 31.6591 173.253 31.5313 172.837C31.4058 172.418 31.2247 172.1 30.988 171.885C30.7536 171.667 30.4742 171.558 30.1499 171.558C29.6598 171.558 29.2751 171.8 28.9958 172.283C28.7164 172.766 28.5756 173.46 28.5732 174.367C28.5732 174.973 28.6359 175.486 28.7614 175.905C28.8892 176.321 29.0703 176.638 29.3047 176.853C29.5391 177.066 29.8208 177.173 30.1499 177.173Z" fill="#B7B7BA"/>
<path d="M24.2386 209.099C23.9143 209.095 23.5947 209.036 23.2798 208.922C22.9673 208.808 22.6832 208.619 22.4276 208.354C22.1719 208.089 21.9671 207.732 21.8132 207.285C21.6617 206.837 21.5859 206.279 21.5859 205.609C21.5859 204.974 21.6487 204.411 21.7741 203.918C21.902 203.426 22.0855 203.01 22.3246 202.672C22.5637 202.331 22.8525 202.072 23.1911 201.894C23.5296 201.717 23.9096 201.628 24.331 201.628C24.7642 201.628 25.1489 201.713 25.4851 201.884C25.8213 202.054 26.0935 202.29 26.3018 202.59C26.5125 202.891 26.6463 203.233 26.7031 203.616H25.62C25.5466 203.313 25.401 203.066 25.1832 202.874C24.9654 202.683 24.6813 202.587 24.331 202.587C23.7983 202.587 23.3828 202.819 23.0845 203.283C22.7886 203.747 22.6394 204.392 22.6371 205.218H22.6903C22.8158 205.012 22.9697 204.837 23.152 204.692C23.3366 204.546 23.5426 204.433 23.7699 204.355C23.9995 204.275 24.241 204.234 24.4943 204.234C24.9157 204.234 25.2969 204.337 25.6378 204.543C25.9811 204.747 26.2545 205.029 26.4581 205.388C26.6617 205.748 26.7635 206.16 26.7635 206.624C26.7635 207.088 26.6581 207.509 26.4474 207.885C26.2391 208.261 25.9455 208.56 25.5668 208.78C25.188 208.998 24.7453 209.104 24.2386 209.099ZM24.2351 208.176C24.5144 208.176 24.7642 208.107 24.9844 207.97C25.2045 207.833 25.3786 207.648 25.5064 207.416C25.6342 207.184 25.6982 206.925 25.6982 206.638C25.6982 206.359 25.6354 206.105 25.5099 205.875C25.3868 205.645 25.2164 205.463 24.9986 205.328C24.7831 205.193 24.5369 205.126 24.2599 205.126C24.0492 205.126 23.8539 205.166 23.674 205.246C23.4964 205.327 23.3402 205.438 23.2053 205.58C23.0703 205.722 22.9638 205.886 22.8857 206.07C22.8099 206.253 22.772 206.446 22.772 206.649C22.772 206.921 22.8348 207.174 22.9602 207.406C23.0881 207.638 23.2621 207.825 23.4822 207.967C23.7048 208.106 23.9557 208.176 24.2351 208.176ZM30.189 209.121C29.6279 209.118 29.1485 208.97 28.7507 208.677C28.353 208.383 28.0488 207.956 27.8381 207.395C27.6274 206.834 27.5221 206.158 27.5221 205.367C27.5221 204.579 27.6274 203.905 27.8381 203.347C28.0512 202.788 28.3566 202.362 28.7543 202.068C29.1544 201.775 29.6326 201.628 30.189 201.628C30.7453 201.628 31.2223 201.776 31.6201 202.072C32.0178 202.365 32.322 202.791 32.5327 203.35C32.7458 203.906 32.8523 204.579 32.8523 205.367C32.8523 206.16 32.747 206.837 32.5363 207.398C32.3256 207.957 32.0213 208.384 31.6236 208.68C31.2259 208.974 30.7477 209.121 30.189 209.121ZM30.189 208.173C30.6814 208.173 31.0661 207.932 31.3431 207.452C31.6224 206.971 31.7621 206.276 31.7621 205.367C31.7621 204.763 31.6982 204.253 31.5703 203.837C31.4449 203.418 31.2638 203.1 31.027 202.885C30.7926 202.667 30.5133 202.558 30.189 202.558C29.6989 202.558 29.3142 202.8 29.0348 203.283C28.7555 203.766 28.6146 204.46 28.6123 205.367C28.6123 205.973 28.675 206.486 28.8005 206.905C28.9283 207.321 29.1094 207.638 29.3438 207.853C29.5782 208.066 29.8599 208.173 30.189 208.173Z" fill="#B7B7BA"/>
<path d="M21.5469 238.58V237.692L24.6896 232.727H25.3892V234.034H24.9453L22.6974 237.592V237.649H27.005V238.58H21.5469ZM24.995 240V238.31L25.0021 237.905V232.727H26.0426V240H24.995ZM30.3745 240.121C29.8134 240.118 29.334 239.97 28.9363 239.677C28.5386 239.383 28.2344 238.956 28.0237 238.395C27.8129 237.834 27.7076 237.158 27.7076 236.367C27.7076 235.579 27.8129 234.905 28.0237 234.347C28.2367 233.788 28.5421 233.362 28.9398 233.068C29.3399 232.775 29.8182 232.628 30.3745 232.628C30.9308 232.628 31.4079 232.776 31.8056 233.072C32.2033 233.365 32.5076 233.791 32.7183 234.35C32.9313 234.906 33.0379 235.579 33.0379 236.367C33.0379 237.16 32.9325 237.837 32.7218 238.398C32.5111 238.957 32.2069 239.384 31.8092 239.68C31.4114 239.974 30.9332 240.121 30.3745 240.121ZM30.3745 239.173C30.8669 239.173 31.2516 238.932 31.5286 238.452C31.808 237.971 31.9477 237.276 31.9477 236.367C31.9477 235.763 31.8837 235.253 31.7559 234.837C31.6304 234.418 31.4493 234.1 31.2126 233.885C30.9782 233.667 30.6988 233.558 30.3745 233.558C29.8844 233.558 29.4997 233.8 29.2204 234.283C28.941 234.766 28.8002 235.46 28.7978 236.367C28.7978 236.973 28.8605 237.486 28.986 237.905C29.1138 238.321 29.295 238.638 29.5293 238.853C29.7637 239.066 30.0454 239.173 30.3745 239.173Z" fill="#B7B7BA"/>
</g>
<path d="M32.5329 284.727V292H31.432V285.828H31.3894L29.6494 286.964V285.913L31.464 284.727H32.5329Z" fill="#B7B7BA"/>
<path d="M59.9218 292V291.205L62.3827 288.655C62.6455 288.378 62.8621 288.135 63.0326 287.927C63.2054 287.716 63.3344 287.516 63.4197 287.327C63.5049 287.137 63.5475 286.936 63.5475 286.723C63.5475 286.482 63.4907 286.273 63.3771 286.098C63.2634 285.92 63.1084 285.784 62.9119 285.69C62.7154 285.593 62.494 285.544 62.2478 285.544C61.9874 285.544 61.7601 285.597 61.566 285.704C61.3719 285.81 61.2227 285.961 61.1185 286.155C61.0144 286.349 60.9623 286.576 60.9623 286.837H59.9147C59.9147 286.394 60.0165 286.007 60.2201 285.675C60.4237 285.344 60.7031 285.087 61.0582 284.905C61.4133 284.72 61.8169 284.628 62.2691 284.628C62.726 284.628 63.1285 284.719 63.4765 284.901C63.8269 285.081 64.1003 285.327 64.2968 285.64C64.4933 285.95 64.5915 286.3 64.5915 286.691C64.5915 286.961 64.5406 287.225 64.4388 287.483C64.3394 287.741 64.1654 288.029 63.9168 288.346C63.6683 288.661 63.3226 289.043 62.8799 289.493L61.4346 291.006V291.059H64.7087V292H59.9218Z" fill="#B7B7BA"/>
<path d="M93.6019 292.099C93.1142 292.099 92.6786 292.015 92.2951 291.847C91.9139 291.679 91.6121 291.446 91.3895 291.148C91.1694 290.847 91.051 290.499 91.0344 290.104H92.1495C92.1637 290.319 92.2359 290.506 92.3661 290.665C92.4987 290.821 92.6715 290.942 92.8846 291.027C93.0976 291.112 93.3344 291.155 93.5948 291.155C93.8813 291.155 94.1346 291.105 94.3547 291.006C94.5773 290.906 94.7513 290.768 94.8768 290.59C95.0022 290.41 95.065 290.203 95.065 289.969C95.065 289.725 95.0022 289.511 94.8768 289.326C94.7536 289.139 94.5725 288.992 94.3334 288.886C94.0967 288.779 93.8102 288.726 93.4741 288.726H92.8597V287.831H93.4741C93.7439 287.831 93.9807 287.782 94.1843 287.685C94.3902 287.588 94.5512 287.453 94.6672 287.281C94.7832 287.105 94.8412 286.901 94.8412 286.666C94.8412 286.441 94.7903 286.246 94.6885 286.08C94.5891 285.912 94.4471 285.781 94.2624 285.686C94.0801 285.591 93.8647 285.544 93.6161 285.544C93.3794 285.544 93.158 285.588 92.952 285.675C92.7484 285.761 92.5827 285.884 92.4549 286.045C92.327 286.203 92.2584 286.394 92.2489 286.616H91.1871C91.199 286.223 91.315 285.878 91.5351 285.58C91.7577 285.281 92.0512 285.048 92.4158 284.88C92.7804 284.712 93.1852 284.628 93.6303 284.628C94.0967 284.628 94.4991 284.719 94.8377 284.901C95.1786 285.081 95.4414 285.321 95.626 285.622C95.8131 285.923 95.9054 286.252 95.903 286.609C95.9054 287.017 95.7918 287.362 95.5621 287.646C95.3349 287.93 95.0318 288.121 94.653 288.218V288.275C95.136 288.348 95.51 288.54 95.7752 288.85C96.0427 289.16 96.1753 289.545 96.1729 290.004C96.1753 290.404 96.064 290.763 95.8391 291.08C95.6166 291.397 95.3124 291.647 94.9265 291.83C94.5406 292.009 94.0991 292.099 93.6019 292.099Z" fill="#B7B7BA"/>
<path d="M122.065 290.58V289.692L125.208 284.727H125.908V286.034H125.464L123.216 289.592V289.649H127.523V290.58H122.065ZM125.514 292V290.31L125.521 289.905V284.727H126.561V292H125.514Z" fill="#B7B7BA"/>
<path d="M155.767 292.099C155.322 292.099 154.922 292.014 154.567 291.844C154.214 291.671 153.932 291.434 153.721 291.134C153.511 290.833 153.398 290.49 153.384 290.104H154.449C154.475 290.416 154.614 290.673 154.865 290.874C155.116 291.076 155.416 291.176 155.767 291.176C156.046 291.176 156.294 291.112 156.509 290.984C156.727 290.854 156.897 290.675 157.02 290.448C157.146 290.221 157.209 289.962 157.209 289.67C157.209 289.375 157.145 289.111 157.017 288.879C156.889 288.647 156.713 288.464 156.488 288.332C156.265 288.199 156.009 288.132 155.721 288.129C155.5 288.129 155.279 288.167 155.057 288.243C154.834 288.319 154.654 288.418 154.517 288.541L153.512 288.392L153.92 284.727H157.919V285.668H154.833L154.602 287.703H154.645C154.787 287.566 154.975 287.451 155.209 287.359C155.446 287.266 155.699 287.22 155.969 287.22C156.412 287.22 156.806 287.326 157.152 287.536C157.5 287.747 157.773 288.035 157.972 288.399C158.173 288.761 158.273 289.178 158.27 289.649C158.273 290.12 158.166 290.54 157.951 290.91C157.738 291.279 157.442 291.57 157.063 291.783C156.687 291.994 156.254 292.099 155.767 292.099Z" fill="#B7B7BA"/>
<path d="M187.053 292.099C186.729 292.095 186.41 292.036 186.095 291.922C185.782 291.808 185.498 291.619 185.242 291.354C184.987 291.089 184.782 290.732 184.628 290.285C184.477 289.837 184.401 289.279 184.401 288.609C184.401 287.974 184.463 287.411 184.589 286.918C184.717 286.426 184.9 286.01 185.139 285.672C185.379 285.331 185.667 285.072 186.006 284.894C186.344 284.717 186.724 284.628 187.146 284.628C187.579 284.628 187.964 284.713 188.3 284.884C188.636 285.054 188.908 285.29 189.117 285.59C189.327 285.891 189.461 286.233 189.518 286.616H188.435C188.361 286.313 188.216 286.066 187.998 285.874C187.78 285.683 187.496 285.587 187.146 285.587C186.613 285.587 186.198 285.819 185.899 286.283C185.603 286.747 185.454 287.392 185.452 288.218H185.505C185.631 288.012 185.785 287.837 185.967 287.692C186.151 287.546 186.357 287.433 186.585 287.355C186.814 287.275 187.056 287.234 187.309 287.234C187.731 287.234 188.112 287.337 188.453 287.543C188.796 287.747 189.069 288.029 189.273 288.388C189.477 288.748 189.578 289.16 189.578 289.624C189.578 290.088 189.473 290.509 189.262 290.885C189.054 291.261 188.76 291.56 188.382 291.78C188.003 291.998 187.56 292.104 187.053 292.099ZM187.05 291.176C187.329 291.176 187.579 291.107 187.799 290.97C188.019 290.833 188.193 290.648 188.321 290.416C188.449 290.184 188.513 289.925 188.513 289.638C188.513 289.359 188.45 289.105 188.325 288.875C188.202 288.645 188.031 288.463 187.813 288.328C187.598 288.193 187.352 288.126 187.075 288.126C186.864 288.126 186.669 288.166 186.489 288.246C186.311 288.327 186.155 288.438 186.02 288.58C185.885 288.722 185.779 288.886 185.7 289.07C185.625 289.253 185.587 289.446 185.587 289.649C185.587 289.921 185.65 290.174 185.775 290.406C185.903 290.638 186.077 290.825 186.297 290.967C186.52 291.106 186.771 291.176 187.05 291.176Z" fill="#B7B7BA"/>
<path d="M216.408 292L219.582 285.722V285.668H215.91V284.727H220.719V285.7L217.555 292H216.408Z" fill="#B7B7BA"/>
<path d="M249.268 292.099C248.759 292.099 248.309 292.012 247.919 291.837C247.53 291.661 247.226 291.42 247.006 291.112C246.786 290.804 246.677 290.454 246.679 290.061C246.677 289.753 246.74 289.47 246.868 289.212C246.998 288.952 247.174 288.735 247.397 288.562C247.619 288.387 247.868 288.276 248.142 288.229V288.186C247.78 288.098 247.49 287.904 247.272 287.604C247.055 287.303 246.947 286.957 246.949 286.567C246.947 286.195 247.045 285.864 247.244 285.572C247.445 285.279 247.721 285.048 248.071 284.88C248.422 284.712 248.821 284.628 249.268 284.628C249.711 284.628 250.106 284.713 250.454 284.884C250.805 285.052 251.08 285.282 251.282 285.576C251.483 285.867 251.585 286.197 251.587 286.567C251.585 286.957 251.473 287.303 251.253 287.604C251.033 287.904 250.747 288.098 250.394 288.186V288.229C250.666 288.276 250.911 288.387 251.129 288.562C251.349 288.735 251.524 288.952 251.654 289.212C251.787 289.47 251.855 289.753 251.857 290.061C251.855 290.454 251.743 290.804 251.523 291.112C251.303 291.42 250.998 291.661 250.607 291.837C250.219 292.012 249.772 292.099 249.268 292.099ZM249.268 291.201C249.569 291.201 249.829 291.151 250.049 291.052C250.27 290.95 250.44 290.809 250.561 290.629C250.681 290.447 250.743 290.234 250.745 289.99C250.743 289.737 250.677 289.513 250.547 289.319C250.419 289.125 250.245 288.972 250.024 288.861C249.804 288.75 249.552 288.694 249.268 288.694C248.982 288.694 248.727 288.75 248.505 288.861C248.282 288.972 248.107 289.125 247.979 289.319C247.851 289.513 247.788 289.737 247.791 289.99C247.788 290.234 247.846 290.447 247.965 290.629C248.086 290.809 248.257 290.95 248.48 291.052C248.702 291.151 248.965 291.201 249.268 291.201ZM249.268 287.817C249.51 287.817 249.724 287.768 249.911 287.671C250.098 287.574 250.245 287.439 250.351 287.266C250.46 287.094 250.516 286.891 250.518 286.659C250.516 286.432 250.461 286.233 250.355 286.062C250.251 285.892 250.105 285.761 249.918 285.668C249.731 285.574 249.514 285.526 249.268 285.526C249.017 285.526 248.797 285.574 248.608 285.668C248.421 285.761 248.275 285.892 248.171 286.062C248.067 286.233 248.016 286.432 248.018 286.659C248.016 286.891 248.068 287.094 248.174 287.266C248.281 287.439 248.428 287.574 248.615 287.671C248.804 287.768 249.022 287.817 249.268 287.817Z" fill="#B7B7BA"/>
<path d="M280.377 284.628C280.702 284.63 281.021 284.689 281.336 284.805C281.651 284.921 281.935 285.111 282.188 285.374C282.444 285.636 282.648 285.991 282.799 286.439C282.953 286.884 283.031 287.438 283.033 288.101C283.033 288.738 282.97 289.305 282.842 289.802C282.714 290.297 282.53 290.714 282.291 291.055C282.054 291.396 281.767 291.656 281.428 291.833C281.09 292.011 280.709 292.099 280.285 292.099C279.852 292.099 279.467 292.014 279.131 291.844C278.795 291.673 278.521 291.438 278.31 291.137C278.1 290.834 277.968 290.486 277.916 290.093H278.999C279.07 290.406 279.215 290.659 279.433 290.853C279.653 291.045 279.937 291.141 280.285 291.141C280.818 291.141 281.233 290.909 281.531 290.445C281.83 289.978 281.98 289.327 281.982 288.491H281.925C281.802 288.695 281.648 288.87 281.464 289.017C281.282 289.164 281.077 289.277 280.849 289.358C280.622 289.438 280.38 289.479 280.121 289.479C279.702 289.479 279.321 289.376 278.978 289.17C278.635 288.964 278.361 288.681 278.158 288.321C277.954 287.961 277.852 287.55 277.852 287.089C277.852 286.629 277.956 286.213 278.165 285.839C278.376 285.465 278.669 285.169 279.045 284.951C279.424 284.731 279.868 284.623 280.377 284.628ZM280.381 285.551C280.104 285.551 279.854 285.62 279.631 285.757C279.411 285.892 279.237 286.076 279.109 286.308C278.982 286.537 278.918 286.793 278.918 287.075C278.918 287.356 278.979 287.612 279.102 287.842C279.228 288.069 279.398 288.25 279.614 288.385C279.831 288.518 280.08 288.584 280.359 288.584C280.568 288.584 280.762 288.544 280.942 288.463C281.122 288.383 281.279 288.271 281.414 288.129C281.549 287.985 281.654 287.821 281.73 287.639C281.806 287.457 281.844 287.265 281.844 287.064C281.844 286.796 281.78 286.548 281.652 286.318C281.527 286.089 281.354 285.904 281.134 285.764C280.913 285.622 280.662 285.551 280.381 285.551Z" fill="#B7B7BA"/>
<defs>
<clipPath id="clip0_53_3064">
<rect x="16" y="121" width="280.333" height="157" rx="4" fill="white"/>
</clipPath>
<clipPath id="clip1_53_3064">
<rect x="16" y="121" width="273.333" height="157" rx="4" fill="white"/>
</clipPath>
</defs>
</svg>
