<svg width="313" height="311" viewBox="0 0 313 311" fill="none" xmlns="http://www.w3.org/2000/svg">
<rect x="0.833374" y="0.5" width="311.333" height="310" rx="11.5" fill="white"/>
<rect x="0.833374" y="0.5" width="311.333" height="310" rx="11.5" stroke="#EFF1F5"/>
<mask id="mask0_53_3144" style="mask-type:alpha" maskUnits="userSpaceOnUse" x="16" y="16" width="17" height="16">
<rect x="16.3334" y="16" width="16" height="16" fill="#D9D9D9"/>
</mask>
<g mask="url(#mask0_53_3144)">
<path d="M27.6667 29.3334C27.4778 29.3334 27.3195 29.2695 27.1917 29.1417C27.064 29.014 27.0001 28.8556 27.0001 28.6667V25.3334C27.0001 25.1445 27.064 24.9862 27.1917 24.8584C27.3195 24.7306 27.4778 24.6667 27.6667 24.6667H29.0001C29.189 24.6667 29.3473 24.7306 29.4751 24.8584C29.6028 24.9862 29.6667 25.1445 29.6667 25.3334V28.6667C29.6667 28.8556 29.6028 29.014 29.4751 29.1417C29.3473 29.2695 29.189 29.3334 29.0001 29.3334H27.6667ZM23.6667 29.3334C23.4778 29.3334 23.3195 29.2695 23.1917 29.1417C23.064 29.014 23.0001 28.8556 23.0001 28.6667V19.3334C23.0001 19.1445 23.064 18.9862 23.1917 18.8584C23.3195 18.7306 23.4778 18.6667 23.6667 18.6667H25.0001C25.189 18.6667 25.3473 18.7306 25.4751 18.8584C25.6028 18.9862 25.6667 19.1445 25.6667 19.3334V28.6667C25.6667 28.8556 25.6028 29.014 25.4751 29.1417C25.3473 29.2695 25.189 29.3334 25.0001 29.3334H23.6667ZM19.6667 29.3334C19.4778 29.3334 19.3195 29.2695 19.1917 29.1417C19.0639 29.014 19.0001 28.8556 19.0001 28.6667V22.6667C19.0001 22.4779 19.0639 22.3195 19.1917 22.1917C19.3195 22.064 19.4778 22.0001 19.6667 22.0001H21.0001C21.189 22.0001 21.3473 22.064 21.4751 22.1917C21.6028 22.3195 21.6667 22.4779 21.6667 22.6667V28.6667C21.6667 28.8556 21.6028 29.014 21.4751 29.1417C21.3473 29.2695 21.189 29.3334 21.0001 29.3334H19.6667Z" fill="#1C1B1F"/>
</g>
<path d="M39.3376 30V19.8182H45.9598V21.3643H41.1821V24.1286H45.6168V25.6747H41.1821V28.4538H45.9996V30H39.3376ZM48.6736 22.3636L50.2148 25.1825L51.7808 22.3636H53.685L51.3831 26.1818L53.7247 30H51.8305L50.2148 27.2507L48.6139 30H46.7048L49.0315 26.1818L46.7645 22.3636H48.6736ZM54.517 32.8636V22.3636H56.2869V23.6264H56.3913C56.4841 23.4408 56.615 23.2436 56.784 23.0348C56.9531 22.8227 57.1818 22.642 57.4701 22.4929C57.7585 22.3404 58.1264 22.2642 58.5738 22.2642C59.1638 22.2642 59.6957 22.415 60.1697 22.7166C60.647 23.0149 61.0248 23.4574 61.3032 24.044C61.5849 24.6274 61.7258 25.3433 61.7258 26.1918C61.7258 27.0303 61.5883 27.7429 61.3132 28.3295C61.0381 28.9162 60.6635 29.3636 60.1896 29.6719C59.7156 29.9801 59.1787 30.1342 58.5788 30.1342C58.1413 30.1342 57.7784 30.0613 57.49 29.9155C57.2017 29.7696 56.9696 29.594 56.794 29.3885C56.6216 29.1797 56.4874 28.9825 56.3913 28.7969H56.3167V32.8636H54.517ZM56.2819 26.1818C56.2819 26.6757 56.3515 27.1082 56.4907 27.4794C56.6332 27.8506 56.8371 28.1406 57.1022 28.3494C57.3707 28.5549 57.6955 28.6577 58.0767 28.6577C58.4744 28.6577 58.8075 28.5516 59.0759 28.3395C59.3444 28.1241 59.5466 27.8307 59.6825 27.4595C59.8217 27.085 59.8913 26.6591 59.8913 26.1818C59.8913 25.7079 59.8233 25.2869 59.6875 24.919C59.5516 24.5511 59.3494 24.2628 59.0809 24.054C58.8125 23.8452 58.4777 23.7408 58.0767 23.7408C57.6922 23.7408 57.3657 23.8419 57.0973 24.044C56.8288 24.2462 56.625 24.5296 56.4857 24.8942C56.3499 25.2588 56.2819 25.688 56.2819 26.1818ZM66.0877 30.1491C65.3221 30.1491 64.6608 29.9901 64.104 29.6719C63.5505 29.3504 63.1246 28.8963 62.8263 28.3097C62.528 27.7197 62.3789 27.0253 62.3789 26.2266C62.3789 25.4411 62.528 24.7517 62.8263 24.1584C63.1279 23.5618 63.5489 23.0978 64.0891 22.7663C64.6293 22.4316 65.2641 22.2642 65.9932 22.2642C66.4639 22.2642 66.908 22.3404 67.3256 22.4929C67.7465 22.642 68.1177 22.8741 68.4392 23.1889C68.7641 23.5038 69.0193 23.9048 69.2049 24.392C69.3905 24.8759 69.4833 25.4527 69.4833 26.1222V26.674H63.224V25.4609H67.7581C67.7548 25.1162 67.6802 24.8097 67.5344 24.5412C67.3886 24.2694 67.1847 24.0556 66.9229 23.8999C66.6644 23.7441 66.3628 23.6662 66.0181 23.6662C65.6502 23.6662 65.327 23.7557 65.0486 23.9347C64.7702 24.1103 64.5531 24.3423 64.3973 24.6307C64.2449 24.9157 64.167 25.2289 64.1637 25.5703V26.6293C64.1637 27.0734 64.2449 27.4545 64.4073 27.7727C64.5697 28.0876 64.7967 28.3295 65.0884 28.4986C65.3801 28.6643 65.7214 28.7472 66.1125 28.7472C66.3744 28.7472 66.6114 28.7107 66.8235 28.6378C67.0356 28.5616 67.2195 28.4505 67.3753 28.3047C67.5311 28.1589 67.6488 27.9782 67.7283 27.7628L69.4087 27.9517C69.3026 28.3958 69.1005 28.7836 68.8022 29.1151C68.5072 29.4432 68.1293 29.6984 67.6686 29.8807C67.2079 30.0597 66.681 30.1491 66.0877 30.1491ZM72.2455 25.5256V30H70.4458V22.3636H72.166V23.6612H72.2555C72.4311 23.2337 72.7112 22.8939 73.0957 22.642C73.4835 22.3902 73.9624 22.2642 74.5325 22.2642C75.0595 22.2642 75.5185 22.3769 75.9096 22.6023C76.304 22.8277 76.6089 23.1541 76.8244 23.5817C77.0431 24.0092 77.1508 24.5279 77.1475 25.1378V30H75.3478V25.4162C75.3478 24.9058 75.2152 24.5064 74.9501 24.218C74.6882 23.9297 74.3253 23.7855 73.8613 23.7855C73.5464 23.7855 73.2664 23.8551 73.0211 23.9943C72.7792 24.1302 72.5886 24.3274 72.4494 24.5859C72.3135 24.8445 72.2455 25.1577 72.2455 25.5256ZM84.4526 24.3821L82.812 24.5611C82.7656 24.3954 82.6844 24.2396 82.5684 24.0938C82.4557 23.9479 82.3032 23.8303 82.111 23.7408C81.9187 23.6513 81.6834 23.6065 81.405 23.6065C81.0305 23.6065 80.7156 23.6877 80.4604 23.8501C80.2085 24.0125 80.0842 24.223 80.0875 24.4815C80.0842 24.7036 80.1654 24.8842 80.3311 25.0234C80.5002 25.1626 80.7786 25.277 81.1664 25.3665L82.4689 25.6449C83.1915 25.8007 83.7284 26.0476 84.0797 26.3857C84.4344 26.7237 84.6133 27.1662 84.6166 27.7131C84.6133 28.1937 84.4725 28.6179 84.1941 28.9858C83.919 29.3504 83.5362 29.6354 83.0456 29.8409C82.5551 30.0464 81.9916 30.1491 81.3553 30.1491C80.4206 30.1491 79.6683 29.9536 79.0982 29.5625C78.5281 29.1681 78.1884 28.6196 78.079 27.9169L79.834 27.7479C79.9135 28.0926 80.0826 28.3527 80.3411 28.5284C80.5996 28.7041 80.936 28.7919 81.3503 28.7919C81.7779 28.7919 82.1209 28.7041 82.3794 28.5284C82.6413 28.3527 82.7722 28.1357 82.7722 27.8771C82.7722 27.6584 82.6877 27.4777 82.5186 27.3352C82.3529 27.1927 82.0944 27.0833 81.7431 27.0071L80.4405 26.7337C79.708 26.5812 79.1661 26.3243 78.8148 25.9631C78.4635 25.5985 78.2895 25.1378 78.2928 24.581C78.2895 24.1103 78.4171 23.7027 78.6756 23.358C78.9374 23.0099 79.3004 22.7415 79.7644 22.5526C80.2317 22.3603 80.7703 22.2642 81.3801 22.2642C82.275 22.2642 82.9793 22.4548 83.4931 22.8359C84.0101 23.2171 84.33 23.7325 84.4526 24.3821ZM88.9213 30.1491C88.1557 30.1491 87.4945 29.9901 86.9377 29.6719C86.3842 29.3504 85.9583 28.8963 85.66 28.3097C85.3617 27.7197 85.2125 27.0253 85.2125 26.2266C85.2125 25.4411 85.3617 24.7517 85.66 24.1584C85.9616 23.5618 86.3825 23.0978 86.9228 22.7663C87.463 22.4316 88.0977 22.2642 88.8269 22.2642C89.2975 22.2642 89.7417 22.3404 90.1593 22.4929C90.5802 22.642 90.9514 22.8741 91.2729 23.1889C91.5977 23.5038 91.8529 23.9048 92.0385 24.392C92.2241 24.8759 92.3169 25.4527 92.3169 26.1222V26.674H86.0577V25.4609H90.5918C90.5885 25.1162 90.5139 24.8097 90.3681 24.5412C90.2222 24.2694 90.0184 24.0556 89.7566 23.8999C89.4981 23.7441 89.1964 23.6662 88.8517 23.6662C88.4838 23.6662 88.1607 23.7557 87.8823 23.9347C87.6039 24.1103 87.3868 24.3423 87.231 24.6307C87.0785 24.9157 87.0007 25.2289 86.9973 25.5703V26.6293C86.9973 27.0734 87.0785 27.4545 87.241 27.7727C87.4034 28.0876 87.6304 28.3295 87.9221 28.4986C88.2137 28.6643 88.5551 28.7472 88.9462 28.7472C89.208 28.7472 89.445 28.7107 89.6571 28.6378C89.8693 28.5616 90.0532 28.4505 90.209 28.3047C90.3648 28.1589 90.4824 27.9782 90.562 27.7628L92.2424 27.9517C92.1363 28.3958 91.9341 28.7836 91.6358 29.1151C91.3409 29.4432 90.963 29.6984 90.5023 29.8807C90.0416 30.0597 89.5146 30.1491 88.9213 30.1491ZM99.315 24.3821L97.6744 24.5611C97.628 24.3954 97.5468 24.2396 97.4308 24.0938C97.3181 23.9479 97.1656 23.8303 96.9734 23.7408C96.7812 23.6513 96.5458 23.6065 96.2674 23.6065C95.8929 23.6065 95.578 23.6877 95.3228 23.8501C95.0709 24.0125 94.9466 24.223 94.95 24.4815C94.9466 24.7036 95.0278 24.8842 95.1936 25.0234C95.3626 25.1626 95.641 25.277 96.0288 25.3665L97.3313 25.6449C98.0539 25.8007 98.5908 26.0476 98.9421 26.3857C99.2968 26.7237 99.4758 27.1662 99.4791 27.7131C99.4758 28.1937 99.3349 28.6179 99.0565 28.9858C98.7814 29.3504 98.3986 29.6354 97.908 29.8409C97.4175 30.0464 96.8541 30.1491 96.2177 30.1491C95.283 30.1491 94.5307 29.9536 93.9606 29.5625C93.3905 29.1681 93.0508 28.6196 92.9414 27.9169L94.6964 27.7479C94.7759 28.0926 94.945 28.3527 95.2035 28.5284C95.462 28.7041 95.7984 28.7919 96.2127 28.7919C96.6403 28.7919 96.9833 28.7041 97.2419 28.5284C97.5037 28.3527 97.6346 28.1357 97.6346 27.8771C97.6346 27.6584 97.5501 27.4777 97.3811 27.3352C97.2153 27.1927 96.9568 27.0833 96.6055 27.0071L95.3029 26.7337C94.5705 26.5812 94.0286 26.3243 93.6772 25.9631C93.3259 25.5985 93.1519 25.1378 93.1552 24.581C93.1519 24.1103 93.2795 23.7027 93.538 23.358C93.7999 23.0099 94.1628 22.7415 94.6268 22.5526C95.0941 22.3603 95.6327 22.2642 96.2426 22.2642C97.1375 22.2642 97.8418 22.4548 98.3555 22.8359C98.8725 23.2171 99.1924 23.7325 99.315 24.3821ZM103.395 30V19.8182H107.293C108.029 19.8182 108.64 19.9342 109.128 20.1662C109.618 20.3949 109.984 20.7081 110.226 21.1058C110.472 21.5036 110.594 21.9543 110.594 22.4581C110.594 22.8724 110.515 23.227 110.356 23.522C110.196 23.8137 109.983 24.0507 109.714 24.233C109.446 24.4152 109.146 24.5462 108.814 24.6257V24.7251C109.176 24.745 109.522 24.8561 109.853 25.0582C110.188 25.2571 110.462 25.5388 110.674 25.9034C110.886 26.268 110.992 26.7088 110.992 27.2259C110.992 27.7528 110.864 28.2268 110.609 28.6477C110.354 29.0653 109.969 29.3951 109.456 29.6371C108.942 29.879 108.296 30 107.517 30H103.395ZM105.24 28.4588H107.223C107.893 28.4588 108.375 28.3312 108.67 28.076C108.968 27.8175 109.118 27.486 109.118 27.0817C109.118 26.7801 109.043 26.5083 108.894 26.2663C108.745 26.0211 108.533 25.8288 108.258 25.6896C107.982 25.5471 107.654 25.4759 107.273 25.4759H105.24V28.4588ZM105.24 24.1484H107.064C107.383 24.1484 107.669 24.0904 107.924 23.9744C108.18 23.8551 108.38 23.6877 108.526 23.4723C108.675 23.2536 108.75 22.995 108.75 22.6967C108.75 22.3023 108.61 21.9775 108.332 21.7223C108.057 21.4671 107.648 21.3395 107.104 21.3395H105.24V24.1484ZM111.957 30V22.3636H113.702V23.6364H113.781C113.921 23.1955 114.159 22.8558 114.497 22.6172C114.839 22.3752 115.228 22.2543 115.666 22.2543C115.765 22.2543 115.876 22.2592 115.999 22.2692C116.125 22.2758 116.229 22.2874 116.312 22.304V23.9595C116.236 23.933 116.115 23.9098 115.949 23.8899C115.787 23.8667 115.629 23.8551 115.477 23.8551C115.149 23.8551 114.854 23.9264 114.592 24.0689C114.333 24.2081 114.13 24.402 113.98 24.6506C113.831 24.8991 113.757 25.1858 113.757 25.5107V30H111.957ZM120.014 30.1491C119.248 30.1491 118.587 29.9901 118.03 29.6719C117.477 29.3504 117.051 28.8963 116.753 28.3097C116.454 27.7197 116.305 27.0253 116.305 26.2266C116.305 25.4411 116.454 24.7517 116.753 24.1584C117.054 23.5618 117.475 23.0978 118.015 22.7663C118.556 22.4316 119.19 22.2642 119.919 22.2642C120.39 22.2642 120.834 22.3404 121.252 22.4929C121.673 22.642 122.044 22.8741 122.365 23.1889C122.69 23.5038 122.946 23.9048 123.131 24.392C123.317 24.8759 123.41 25.4527 123.41 26.1222V26.674H117.15V25.4609H121.684C121.681 25.1162 121.606 24.8097 121.461 24.5412C121.315 24.2694 121.111 24.0556 120.849 23.8999C120.591 23.7441 120.289 23.6662 119.944 23.6662C119.576 23.6662 119.253 23.7557 118.975 23.9347C118.696 24.1103 118.479 24.3423 118.324 24.6307C118.171 24.9157 118.093 25.2289 118.09 25.5703V26.6293C118.09 27.0734 118.171 27.4545 118.334 27.7727C118.496 28.0876 118.723 28.3295 119.015 28.4986C119.306 28.6643 119.648 28.7472 120.039 28.7472C120.301 28.7472 120.538 28.7107 120.75 28.6378C120.962 28.5616 121.146 28.4505 121.302 28.3047C121.457 28.1589 121.575 27.9782 121.655 27.7628L123.335 27.9517C123.229 28.3958 123.027 28.7836 122.728 29.1151C122.433 29.4432 122.056 29.6984 121.595 29.8807C121.134 30.0597 120.607 30.1491 120.014 30.1491ZM126.57 30.1541C126.086 30.1541 125.65 30.0679 125.262 29.8956C124.878 29.7199 124.573 29.4614 124.347 29.12C124.125 28.7786 124.014 28.3577 124.014 27.8572C124.014 27.4264 124.094 27.0701 124.253 26.7884C124.412 26.5066 124.629 26.2812 124.904 26.1122C125.179 25.9432 125.489 25.8156 125.834 25.7294C126.182 25.6399 126.541 25.5753 126.913 25.5355C127.36 25.4891 127.723 25.4477 128.001 25.4112C128.28 25.3714 128.482 25.3118 128.608 25.2322C128.737 25.1494 128.802 25.0218 128.802 24.8494V24.8196C128.802 24.4451 128.691 24.1551 128.469 23.9496C128.247 23.7441 127.927 23.6413 127.509 23.6413C127.068 23.6413 126.719 23.7375 126.46 23.9297C126.205 24.1219 126.033 24.349 125.943 24.6108L124.263 24.3722C124.395 23.9081 124.614 23.5204 124.919 23.2088C125.224 22.8939 125.597 22.6586 126.038 22.5028C126.478 22.3438 126.966 22.2642 127.499 22.2642C127.867 22.2642 128.233 22.3073 128.598 22.3935C128.963 22.4796 129.296 22.6222 129.597 22.821C129.899 23.0166 130.141 23.2834 130.323 23.6214C130.509 23.9595 130.601 24.3821 130.601 24.8892V30H128.871V28.951H128.812C128.702 29.1631 128.548 29.362 128.349 29.5476C128.154 29.7299 127.907 29.8774 127.609 29.9901C127.314 30.0994 126.967 30.1541 126.57 30.1541ZM127.037 28.8317C127.398 28.8317 127.711 28.7604 127.976 28.6179C128.242 28.4721 128.445 28.2798 128.588 28.0412C128.734 27.8026 128.807 27.5424 128.807 27.2607V26.3608C128.75 26.4072 128.654 26.4503 128.518 26.4901C128.386 26.5298 128.237 26.5646 128.071 26.5945C127.905 26.6243 127.741 26.6508 127.579 26.674C127.416 26.6972 127.275 26.7171 127.156 26.7337C126.888 26.7701 126.647 26.8298 126.435 26.9126C126.223 26.9955 126.056 27.1115 125.933 27.2607C125.811 27.4065 125.749 27.5954 125.749 27.8274C125.749 28.1589 125.87 28.4091 126.112 28.5781C126.354 28.7472 126.662 28.8317 127.037 28.8317ZM133.492 27.6037L133.487 25.4311H133.775L136.519 22.3636H138.622L135.247 26.1222H134.874L133.492 27.6037ZM131.851 30V19.8182H133.651V30H131.851ZM136.644 30L134.158 26.5249L135.371 25.2571L138.796 30H136.644ZM141.781 30.1342C141.181 30.1342 140.644 29.9801 140.17 29.6719C139.696 29.3636 139.322 28.9162 139.047 28.3295C138.772 27.7429 138.634 27.0303 138.634 26.1918C138.634 25.3433 138.773 24.6274 139.052 24.044C139.334 23.4574 139.713 23.0149 140.19 22.7166C140.668 22.415 141.2 22.2642 141.786 22.2642C142.234 22.2642 142.602 22.3404 142.89 22.4929C143.178 22.642 143.407 22.8227 143.576 23.0348C143.745 23.2436 143.876 23.4408 143.969 23.6264H144.043V19.8182H145.848V30H144.078V28.7969H143.969C143.876 28.9825 143.742 29.1797 143.566 29.3885C143.39 29.594 143.158 29.7696 142.87 29.9155C142.582 30.0613 142.219 30.1342 141.781 30.1342ZM142.283 28.6577C142.664 28.6577 142.989 28.5549 143.258 28.3494C143.526 28.1406 143.73 27.8506 143.869 27.4794C144.008 27.1082 144.078 26.6757 144.078 26.1818C144.078 25.688 144.008 25.2588 143.869 24.8942C143.733 24.5296 143.531 24.2462 143.263 24.044C142.998 23.8419 142.671 23.7408 142.283 23.7408C141.882 23.7408 141.548 23.8452 141.279 24.054C141.011 24.2628 140.808 24.5511 140.673 24.919C140.537 25.2869 140.469 25.7079 140.469 26.1818C140.469 26.6591 140.537 27.085 140.673 27.4595C140.812 27.8307 141.016 28.1241 141.284 28.3395C141.556 28.5516 141.889 28.6577 142.283 28.6577ZM150.537 30.1491C149.791 30.1491 149.145 29.9851 148.598 29.657C148.051 29.3288 147.627 28.8698 147.325 28.2798C147.027 27.6899 146.878 27.0005 146.878 26.2116C146.878 25.4228 147.027 24.7318 147.325 24.1385C147.627 23.5452 148.051 23.0845 148.598 22.7564C149.145 22.4283 149.791 22.2642 150.537 22.2642C151.282 22.2642 151.929 22.4283 152.476 22.7564C153.023 23.0845 153.445 23.5452 153.743 24.1385C154.045 24.7318 154.196 25.4228 154.196 26.2116C154.196 27.0005 154.045 27.6899 153.743 28.2798C153.445 28.8698 153.023 29.3288 152.476 29.657C151.929 29.9851 151.282 30.1491 150.537 30.1491ZM150.547 28.7074C150.951 28.7074 151.289 28.5964 151.561 28.3743C151.833 28.1489 152.035 27.8473 152.167 27.4695C152.303 27.0916 152.371 26.6707 152.371 26.2067C152.371 25.7393 152.303 25.3168 152.167 24.9389C152.035 24.5578 151.833 24.2545 151.561 24.0291C151.289 23.8037 150.951 23.6911 150.547 23.6911C150.132 23.6911 149.788 23.8037 149.513 24.0291C149.241 24.2545 149.037 24.5578 148.901 24.9389C148.768 25.3168 148.702 25.7393 148.702 26.2067C148.702 26.6707 148.768 27.0916 148.901 27.4695C149.037 27.8473 149.241 28.1489 149.513 28.3743C149.788 28.5964 150.132 28.7074 150.547 28.7074ZM156.521 30L154.363 22.3636H156.197L157.54 27.733H157.609L158.982 22.3636H160.796L162.168 27.7031H162.243L163.565 22.3636H165.405L163.242 30H161.368L159.936 24.8395H159.832L158.4 30H156.521ZM167.901 25.5256V30H166.101V22.3636H167.822V23.6612H167.911C168.087 23.2337 168.367 22.8939 168.751 22.642C169.139 22.3902 169.618 22.2642 170.188 22.2642C170.715 22.2642 171.174 22.3769 171.565 22.6023C171.96 22.8277 172.264 23.1541 172.48 23.5817C172.699 24.0092 172.806 24.5279 172.803 25.1378V30H171.003V25.4162C171.003 24.9058 170.871 24.5064 170.606 24.218C170.344 23.9297 169.981 23.7855 169.517 23.7855C169.202 23.7855 168.922 23.8551 168.677 23.9943C168.435 24.1302 168.244 24.3274 168.105 24.5859C167.969 24.8445 167.901 25.1577 167.901 25.5256Z" fill="#2B2C36"/>
<mask id="mask1_53_3144" style="mask-type:alpha" maskUnits="userSpaceOnUse" x="280" y="16" width="17" height="16">
<rect x="280.667" y="16" width="16" height="16" fill="#D9D9D9"/>
</mask>
<g mask="url(#mask1_53_3144)">
<path d="M291.334 21.6002L285.4 27.5335C285.278 27.6557 285.122 27.7168 284.934 27.7168C284.745 27.7168 284.589 27.6557 284.467 27.5335C284.345 27.4113 284.284 27.2557 284.284 27.0668C284.284 26.8779 284.345 26.7224 284.467 26.6002L290.4 20.6668H285.334C285.145 20.6668 284.986 20.6029 284.859 20.4752C284.731 20.3474 284.667 20.1891 284.667 20.0002C284.667 19.8113 284.731 19.6529 284.859 19.5252C284.986 19.3974 285.145 19.3335 285.334 19.3335H292C292.189 19.3335 292.347 19.3974 292.475 19.5252C292.603 19.6529 292.667 19.8113 292.667 20.0002V26.6668C292.667 26.8557 292.603 27.0141 292.475 27.1418C292.347 27.2696 292.189 27.3335 292 27.3335C291.811 27.3335 291.653 27.2696 291.525 27.1418C291.397 27.0141 291.334 26.8557 291.334 26.6668V21.6002Z" fill="#949599"/>
</g>
<path d="M18.0784 75V72.4304L24.8955 65.7475C25.5475 65.0891 26.0908 64.5043 26.5255 63.9929C26.9601 63.4815 27.2861 62.9862 27.5035 62.5067C27.7208 62.0273 27.8295 61.516 27.8295 60.9727C27.8295 60.3526 27.6888 59.8221 27.4076 59.381C27.1263 58.9336 26.7396 58.5884 26.2474 58.3455C25.7552 58.1026 25.1959 57.9812 24.5695 57.9812C23.9239 57.9812 23.3582 58.1154 22.8724 58.3839C22.3866 58.646 22.0095 59.0199 21.741 59.5057C21.479 59.9915 21.3479 60.57 21.3479 61.2411H17.9633C17.9633 59.9947 18.2478 58.9112 18.8167 57.9908C19.3856 57.0703 20.1686 56.3576 21.1658 55.8526C22.1693 55.3477 23.3199 55.0952 24.6175 55.0952C25.9342 55.0952 27.0912 55.3413 28.0883 55.8335C29.0855 56.3256 29.8589 57 30.4087 57.8565C30.9648 58.7131 31.2428 59.6911 31.2428 60.7905C31.2428 61.5256 31.1022 62.2479 30.8209 62.9574C30.5397 63.6669 30.0443 64.4531 29.3348 65.3161C28.6317 66.179 27.6441 67.2241 26.3721 68.4513L22.9875 71.8935V72.0277H31.5401V75H18.0784ZM32.9913 71.3565V68.5281L41.3233 55.3636H43.682V59.3906H42.2438L36.6348 68.2788V68.4322H48.2651V71.3565H32.9913ZM42.3588 75V70.4936L42.3972 69.228V55.3636H45.753V75H42.3588ZM57.5066 75.3739C55.9278 75.3739 54.5727 74.9744 53.4413 74.1754C52.3163 73.37 51.4502 72.2099 50.8429 70.695C50.2421 69.1737 49.9417 67.3423 49.9417 65.201C49.9481 63.0597 50.2517 61.2379 50.8525 59.7358C51.4598 58.2273 52.3259 57.0767 53.4509 56.2841C54.5823 55.4915 55.9342 55.0952 57.5066 55.0952C59.0791 55.0952 60.431 55.4915 61.5624 56.2841C62.6938 57.0767 63.5599 58.2273 64.1608 59.7358C64.768 61.2443 65.0716 63.0661 65.0716 65.201C65.0716 67.3487 64.768 69.1832 64.1608 70.7045C63.5599 72.2195 62.6938 73.3764 61.5624 74.1754C60.4374 74.9744 59.0855 75.3739 57.5066 75.3739ZM57.5066 72.3729C58.7339 72.3729 59.7023 71.7688 60.4118 70.5607C61.1277 69.3462 61.4857 67.5597 61.4857 65.201C61.4857 63.6413 61.3227 62.331 60.9967 61.2699C60.6707 60.2088 60.2105 59.4098 59.616 58.8729C59.0216 58.3295 58.3184 58.0579 57.5066 58.0579C56.2858 58.0579 55.3206 58.6651 54.6111 59.8796C53.9015 61.0877 53.5436 62.8615 53.5372 65.201C53.5308 66.767 53.6874 68.0838 54.007 69.1513C54.333 70.2187 54.7932 71.0241 55.3877 71.5675C55.9821 72.1044 56.6885 72.3729 57.5066 72.3729ZM70.5259 72.3153L70.4013 73.37C70.3118 74.1754 70.152 74.9936 69.9219 75.8246C69.6981 76.6619 69.4616 77.4322 69.2123 78.1353C68.963 78.8384 68.7617 79.3913 68.6083 79.794H66.2688C66.3583 79.4041 66.4797 78.8736 66.6331 78.2024C66.7929 77.5313 66.9464 76.777 67.0934 75.9396C67.2404 75.1023 67.3395 74.2521 67.3906 73.3892L67.4577 72.3153H70.5259ZM79.789 75.3739C78.2102 75.3739 76.8551 74.9744 75.7237 74.1754C74.5987 73.37 73.7326 72.2099 73.1253 70.695C72.5245 69.1737 72.224 67.3423 72.224 65.201C72.2304 63.0597 72.5341 61.2379 73.1349 59.7358C73.7422 58.2273 74.6083 57.0767 75.7333 56.2841C76.8647 55.4915 78.2166 55.0952 79.789 55.0952C81.3615 55.0952 82.7134 55.4915 83.8448 56.2841C84.9762 57.0767 85.8423 58.2273 86.4432 59.7358C87.0504 61.2443 87.354 63.0661 87.354 65.201C87.354 67.3487 87.0504 69.1832 86.4432 70.7045C85.8423 72.2195 84.9762 73.3764 83.8448 74.1754C82.7198 74.9744 81.3679 75.3739 79.789 75.3739ZM79.789 72.3729C81.0163 72.3729 81.9847 71.7688 82.6942 70.5607C83.4101 69.3462 83.7681 67.5597 83.7681 65.201C83.7681 63.6413 83.6051 62.331 83.2791 61.2699C82.9531 60.2088 82.4929 59.4098 81.8984 58.8729C81.3039 58.3295 80.6008 58.0579 79.789 58.0579C78.5682 58.0579 77.603 58.6651 76.8934 59.8796C76.1839 61.0877 75.826 62.8615 75.8196 65.201C75.8132 66.767 75.9698 68.0838 76.2894 69.1513C76.6154 70.2187 77.0756 71.0241 77.6701 71.5675C78.2645 72.1044 78.9708 72.3729 79.789 72.3729ZM96.7178 75.3739C95.139 75.3739 93.7839 74.9744 92.6525 74.1754C91.5275 73.37 90.6614 72.2099 90.0541 70.695C89.4533 69.1737 89.1528 67.3423 89.1528 65.201C89.1592 63.0597 89.4628 61.2379 90.0637 59.7358C90.6709 58.2273 91.5371 57.0767 92.6621 56.2841C93.7935 55.4915 95.1454 55.0952 96.7178 55.0952C98.2903 55.0952 99.6422 55.4915 100.774 56.2841C101.905 57.0767 102.771 58.2273 103.372 59.7358C103.979 61.2443 104.283 63.0661 104.283 65.201C104.283 67.3487 103.979 69.1832 103.372 70.7045C102.771 72.2195 101.905 73.3764 100.774 74.1754C99.6486 74.9744 98.2967 75.3739 96.7178 75.3739ZM96.7178 72.3729C97.9451 72.3729 98.9135 71.7688 99.623 70.5607C100.339 69.3462 100.697 67.5597 100.697 65.201C100.697 63.6413 100.534 62.331 100.208 61.2699C99.8819 60.2088 99.4217 59.4098 98.8272 58.8729C98.2327 58.3295 97.5296 58.0579 96.7178 58.0579C95.4969 58.0579 94.5317 58.6651 93.8222 59.8796C93.1127 61.0877 92.7548 62.8615 92.7484 65.201C92.742 66.767 92.8986 68.0838 93.2182 69.1513C93.5442 70.2187 94.0044 71.0241 94.5989 71.5675C95.1933 72.1044 95.8996 72.3729 96.7178 72.3729ZM113.647 75.3739C112.068 75.3739 110.713 74.9744 109.581 74.1754C108.456 73.37 107.59 72.2099 106.983 70.695C106.382 69.1737 106.082 67.3423 106.082 65.201C106.088 63.0597 106.392 61.2379 106.992 59.7358C107.6 58.2273 108.466 57.0767 109.591 56.2841C110.722 55.4915 112.074 55.0952 113.647 55.0952C115.219 55.0952 116.571 55.4915 117.702 56.2841C118.834 57.0767 119.7 58.2273 120.301 59.7358C120.908 61.2443 121.212 63.0661 121.212 65.201C121.212 67.3487 120.908 69.1832 120.301 70.7045C119.7 72.2195 118.834 73.3764 117.702 74.1754C116.577 74.9744 115.225 75.3739 113.647 75.3739ZM113.647 72.3729C114.874 72.3729 115.842 71.7688 116.552 70.5607C117.268 69.3462 117.626 67.5597 117.626 65.201C117.626 63.6413 117.463 62.331 117.137 61.2699C116.811 60.2088 116.35 59.4098 115.756 58.8729C115.162 58.3295 114.458 58.0579 113.647 58.0579C112.426 58.0579 111.461 58.6651 110.751 59.8796C110.041 61.0877 109.684 62.8615 109.677 65.201C109.671 66.767 109.827 68.0838 110.147 69.1513C110.473 70.2187 110.933 71.0241 111.528 71.5675C112.122 72.1044 112.828 72.3729 113.647 72.3729Z" fill="#2B2C36"/>
<path d="M18.8192 91.8182V102H17.3327V91.8182H18.8192ZM22.4813 102.169C21.9974 102.169 21.5599 102.08 21.1688 101.901C20.7777 101.718 20.4678 101.455 20.2391 101.11C20.0137 100.765 19.901 100.343 19.901 99.8423C19.901 99.4115 19.9839 99.0568 20.1496 98.7784C20.3153 98.5 20.5391 98.2796 20.8208 98.1172C21.1025 97.9548 21.4174 97.8321 21.7654 97.7493C22.1134 97.6664 22.468 97.6035 22.8293 97.5604C23.2867 97.5073 23.6579 97.4643 23.9429 97.4311C24.228 97.3946 24.4351 97.3366 24.5644 97.2571C24.6937 97.1776 24.7583 97.0483 24.7583 96.8693V96.8345C24.7583 96.4003 24.6356 96.0639 24.3904 95.8253C24.1484 95.5866 23.7872 95.4673 23.3066 95.4673C22.8061 95.4673 22.4117 95.5784 22.1233 95.8004C21.8383 96.0192 21.6411 96.2628 21.5317 96.5312L20.1347 96.2131C20.3004 95.7491 20.5424 95.3745 20.8606 95.0895C21.1821 94.8011 21.5516 94.5923 21.9692 94.4631C22.3868 94.3305 22.826 94.2642 23.2867 94.2642C23.5916 94.2642 23.9148 94.3007 24.2562 94.3736C24.6008 94.4432 24.9223 94.5724 25.2206 94.7614C25.5222 94.9503 25.7692 95.2204 25.9614 95.5717C26.1536 95.9197 26.2498 96.3722 26.2498 96.929V102H24.7981V100.956H24.7384C24.6423 101.148 24.4981 101.337 24.3059 101.523C24.1136 101.708 23.8667 101.862 23.5651 101.985C23.2635 102.108 22.9022 102.169 22.4813 102.169ZM22.8044 100.976C23.2154 100.976 23.5668 100.895 23.8584 100.732C24.1534 100.57 24.3771 100.358 24.5296 100.096C24.6854 99.8307 24.7633 99.5473 24.7633 99.2457V98.2614C24.7102 98.3144 24.6075 98.3641 24.455 98.4105C24.3059 98.4536 24.1352 98.4917 23.9429 98.5249C23.7507 98.5547 23.5634 98.5829 23.3812 98.6094C23.1989 98.6326 23.0464 98.6525 22.9238 98.669C22.6354 98.7055 22.3719 98.7668 22.1333 98.853C21.898 98.9392 21.709 99.0634 21.5665 99.2259C21.4273 99.3849 21.3577 99.5971 21.3577 99.8622C21.3577 100.23 21.4936 100.509 21.7654 100.697C22.0372 100.883 22.3835 100.976 22.8044 100.976ZM33.392 96.228L32.0447 96.4666C31.9884 96.2943 31.8989 96.1302 31.7762 95.9744C31.6569 95.8187 31.4945 95.6911 31.289 95.5916C31.0835 95.4922 30.8267 95.4425 30.5184 95.4425C30.0975 95.4425 29.7462 95.5369 29.4644 95.7259C29.1827 95.9115 29.0419 96.1518 29.0419 96.4467C29.0419 96.7019 29.1363 96.9074 29.3252 97.0632C29.5142 97.219 29.8191 97.3466 30.24 97.446L31.4531 97.7244C32.1557 97.8868 32.6794 98.1371 33.0241 98.4751C33.3688 98.8132 33.5411 99.2524 33.5411 99.7926C33.5411 100.25 33.4086 100.658 33.1434 101.016C32.8816 101.37 32.5153 101.649 32.0447 101.851C31.5774 102.053 31.0355 102.154 30.419 102.154C29.5639 102.154 28.8662 101.972 28.3259 101.607C27.7857 101.239 27.4543 100.717 27.3316 100.041L28.7684 99.8224C28.8579 100.197 29.0419 100.48 29.3203 100.673C29.5987 100.862 29.9616 100.956 30.409 100.956C30.8963 100.956 31.2857 100.855 31.5774 100.653C31.869 100.447 32.0149 100.197 32.0149 99.902C32.0149 99.6634 31.9254 99.4628 31.7464 99.3004C31.5707 99.138 31.3006 99.0154 30.936 98.9325L29.6434 98.6491C28.9308 98.4867 28.4038 98.2282 28.0625 97.8736C27.7244 97.5189 27.5553 97.0698 27.5553 96.5263C27.5553 96.0755 27.6813 95.6811 27.9332 95.343C28.1851 95.005 28.5331 94.7415 28.9772 94.5526C29.4214 94.3603 29.9301 94.2642 30.5035 94.2642C31.3288 94.2642 31.9784 94.4432 32.4524 94.8011C32.9263 95.1558 33.2395 95.6314 33.392 96.228ZM38.1802 94.3636V95.5568H34.009V94.3636H38.1802ZM35.1276 92.5341H36.6141V99.7578C36.6141 100.046 36.6572 100.263 36.7434 100.409C36.8296 100.552 36.9406 100.649 37.0765 100.702C37.2157 100.752 37.3665 100.777 37.5289 100.777C37.6482 100.777 37.7526 100.769 37.8421 100.752C37.9316 100.736 38.0012 100.722 38.0509 100.712L38.3194 101.94C38.2332 101.973 38.1106 102.007 37.9515 102.04C37.7924 102.076 37.5935 102.096 37.3549 102.099C36.9638 102.106 36.5992 102.036 36.2612 101.891C35.9231 101.745 35.6496 101.519 35.4408 101.214C35.232 100.91 35.1276 100.527 35.1276 100.066V92.5341ZM45.9444 102.139C45.4903 102.133 45.0429 102.05 44.6021 101.891C44.1646 101.732 43.7669 101.466 43.4089 101.095C43.051 100.724 42.7643 100.225 42.5488 99.5987C42.3367 98.9723 42.2306 98.1901 42.2306 97.2521C42.2306 96.3639 42.3185 95.575 42.4941 94.8857C42.6731 94.1963 42.93 93.6146 43.2647 93.1406C43.5995 92.6634 44.0038 92.3004 44.4778 92.0518C44.9518 91.8033 45.4837 91.679 46.0737 91.679C46.6802 91.679 47.2188 91.7983 47.6894 92.0369C48.1601 92.2756 48.5412 92.6054 48.8329 93.0263C49.1279 93.4472 49.3152 93.9261 49.3947 94.4631H47.8784C47.7756 94.0388 47.5718 93.6925 47.2669 93.424C46.9619 93.1555 46.5642 93.0213 46.0737 93.0213C45.3279 93.0213 44.7463 93.3461 44.3287 93.9957C43.9144 94.6454 43.7055 95.5485 43.7022 96.7053H43.7768C43.9525 96.4169 44.1679 96.1716 44.4231 95.9695C44.6816 95.764 44.97 95.6065 45.2882 95.4972C45.6097 95.3845 45.9477 95.3281 46.3024 95.3281C46.8923 95.3281 47.426 95.4723 47.9032 95.7607C48.3838 96.0457 48.7666 96.4401 49.0517 96.9439C49.3367 97.4477 49.4792 98.0244 49.4792 98.674C49.4792 99.3236 49.3317 99.9119 49.0367 100.439C48.7451 100.966 48.3341 101.384 47.8038 101.692C47.2735 101.997 46.6537 102.146 45.9444 102.139ZM45.9394 100.847C46.3305 100.847 46.6802 100.75 46.9885 100.558C47.2967 100.366 47.5403 100.107 47.7193 99.7827C47.8983 99.4579 47.9877 99.0949 47.9877 98.6939C47.9877 98.3028 47.8999 97.9465 47.7242 97.625C47.5519 97.3035 47.3133 97.0483 47.0083 96.8594C46.7067 96.6705 46.362 96.576 45.9742 96.576C45.6793 96.576 45.4058 96.6323 45.1539 96.745C44.9054 96.8577 44.6866 97.0135 44.4977 97.2124C44.3088 97.4112 44.1596 97.6399 44.0502 97.8984C43.9442 98.1536 43.8912 98.4238 43.8912 98.7088C43.8912 99.09 43.979 99.4429 44.1546 99.7678C44.3336 100.093 44.5772 100.354 44.8855 100.553C45.197 100.749 45.5483 100.847 45.9394 100.847ZM53.8951 102V94.3636H55.3219V95.6065H55.4164C55.5755 95.1856 55.8357 94.8575 56.1969 94.6222C56.5582 94.3835 56.9907 94.2642 57.4945 94.2642C58.0049 94.2642 58.4325 94.3835 58.7772 94.6222C59.1252 94.8608 59.3821 95.1889 59.5478 95.6065H59.6273C59.8096 95.1989 60.0996 94.8741 60.4974 94.6321C60.8951 94.3868 61.369 94.2642 61.9192 94.2642C62.6119 94.2642 63.177 94.4813 63.6145 94.9155C64.0554 95.3497 64.2758 96.0043 64.2758 96.8793V102H62.7893V97.0185C62.7893 96.5014 62.6484 96.1269 62.3667 95.8949C62.085 95.6629 61.7485 95.5469 61.3574 95.5469C60.8735 95.5469 60.4974 95.696 60.2289 95.9943C59.9604 96.2893 59.8262 96.6688 59.8262 97.1328V102H58.3447V96.924C58.3447 96.5097 58.2154 96.1766 57.9569 95.9247C57.6984 95.6728 57.3619 95.5469 56.9476 95.5469C56.6659 95.5469 56.4057 95.6214 56.1671 95.7706C55.9318 95.9164 55.7412 96.1203 55.5954 96.3821C55.4529 96.6439 55.3816 96.9472 55.3816 97.2919V102H53.8951ZM68.9248 102.154C68.2088 102.154 67.5841 101.99 67.0505 101.662C66.5168 101.334 66.1025 100.875 65.8076 100.285C65.5126 99.6948 65.3651 99.0054 65.3651 98.2166C65.3651 97.4245 65.5126 96.7318 65.8076 96.1385C66.1025 95.5452 66.5168 95.0845 67.0505 94.7564C67.5841 94.4283 68.2088 94.2642 68.9248 94.2642C69.6407 94.2642 70.2654 94.4283 70.799 94.7564C71.3327 95.0845 71.747 95.5452 72.0419 96.1385C72.3369 96.7318 72.4844 97.4245 72.4844 98.2166C72.4844 99.0054 72.3369 99.6948 72.0419 100.285C71.747 100.875 71.3327 101.334 70.799 101.662C70.2654 101.99 69.6407 102.154 68.9248 102.154ZM68.9297 100.906C69.3937 100.906 69.7782 100.784 70.0831 100.538C70.3881 100.293 70.6134 99.9666 70.7593 99.5589C70.9084 99.1513 70.983 98.7022 70.983 98.2116C70.983 97.7244 70.9084 97.277 70.7593 96.8693C70.6134 96.4583 70.3881 96.1286 70.0831 95.88C69.7782 95.6314 69.3937 95.5071 68.9297 95.5071C68.4624 95.5071 68.0746 95.6314 67.7664 95.88C67.4614 96.1286 67.2344 96.4583 67.0853 96.8693C66.9394 97.277 66.8665 97.7244 66.8665 98.2116C66.8665 98.7022 66.9394 99.1513 67.0853 99.5589C67.2344 99.9666 67.4614 100.293 67.7664 100.538C68.0746 100.784 68.4624 100.906 68.9297 100.906ZM75.0702 97.4659V102H73.5837V94.3636H75.0105V95.6065H75.105C75.2806 95.2022 75.5557 94.8774 75.9303 94.6321C76.3081 94.3868 76.7837 94.2642 77.3571 94.2642C77.8775 94.2642 78.3332 94.3736 78.7243 94.5923C79.1154 94.8078 79.4187 95.1293 79.6341 95.5568C79.8495 95.9844 79.9573 96.513 79.9573 97.1428V102H78.4708V97.3217C78.4708 96.7682 78.3266 96.3357 78.0382 96.0241C77.7499 95.7093 77.3538 95.5518 76.85 95.5518C76.5053 95.5518 76.1987 95.6264 75.9303 95.7756C75.6651 95.9247 75.4547 96.1435 75.2989 96.4318C75.1464 96.7169 75.0702 97.0616 75.0702 97.4659ZM84.9555 94.3636V95.5568H80.7843V94.3636H84.9555ZM81.9029 92.5341H83.3894V99.7578C83.3894 100.046 83.4325 100.263 83.5187 100.409C83.6049 100.552 83.7159 100.649 83.8518 100.702C83.991 100.752 84.1418 100.777 84.3042 100.777C84.4235 100.777 84.5279 100.769 84.6174 100.752C84.7069 100.736 84.7765 100.722 84.8262 100.712L85.0947 101.94C85.0085 101.973 84.8859 102.007 84.7268 102.04C84.5677 102.076 84.3689 102.096 84.1302 102.099C83.7391 102.106 83.3745 102.036 83.0365 101.891C82.6984 101.745 82.425 101.519 82.2162 101.214C82.0073 100.91 81.9029 100.527 81.9029 100.066V92.5341ZM87.6904 97.4659V102H86.2039V91.8182H87.6705V95.6065H87.765C87.944 95.1955 88.2174 94.8691 88.5853 94.6271C88.9532 94.3852 89.4338 94.2642 90.0271 94.2642C90.5507 94.2642 91.0081 94.3719 91.3992 94.5874C91.7936 94.8028 92.0986 95.1243 92.314 95.5518C92.5327 95.9761 92.6421 96.5064 92.6421 97.1428V102H91.1556V97.3217C91.1556 96.7616 91.0114 96.3274 90.7231 96.0192C90.4347 95.7076 90.0337 95.5518 89.52 95.5518C89.1686 95.5518 88.8538 95.6264 88.5754 95.7756C88.3003 95.9247 88.0832 96.1435 87.9241 96.4318C87.7683 96.7169 87.6904 97.0616 87.6904 97.4659ZM99.7881 96.228L98.4408 96.4666C98.3844 96.2943 98.295 96.1302 98.1723 95.9744C98.053 95.8187 97.8906 95.6911 97.6851 95.5916C97.4796 95.4922 97.2227 95.4425 96.9145 95.4425C96.4936 95.4425 96.1423 95.5369 95.8605 95.7259C95.5788 95.9115 95.4379 96.1518 95.4379 96.4467C95.4379 96.7019 95.5324 96.9074 95.7213 97.0632C95.9102 97.219 96.2152 97.3466 96.6361 97.446L97.8492 97.7244C98.5518 97.8868 99.0755 98.1371 99.4202 98.4751C99.7649 98.8132 99.9372 99.2524 99.9372 99.7926C99.9372 100.25 99.8047 100.658 99.5395 101.016C99.2777 101.37 98.9114 101.649 98.4408 101.851C97.9735 102.053 97.4316 102.154 96.8151 102.154C95.96 102.154 95.2623 101.972 94.722 101.607C94.1818 101.239 93.8504 100.717 93.7277 100.041L95.1645 99.8224C95.254 100.197 95.4379 100.48 95.7164 100.673C95.9948 100.862 96.3577 100.956 96.8051 100.956C97.2924 100.956 97.6818 100.855 97.9735 100.653C98.2651 100.447 98.411 100.197 98.411 99.902C98.411 99.6634 98.3215 99.4628 98.1425 99.3004C97.9668 99.138 97.6967 99.0154 97.3321 98.9325L96.0395 98.6491C95.3269 98.4867 94.7999 98.2282 94.4585 97.8736C94.1205 97.5189 93.9514 97.0698 93.9514 96.5263C93.9514 96.0755 94.0774 95.6811 94.3293 95.343C94.5812 95.005 94.9292 94.7415 95.3733 94.5526C95.8174 94.3603 96.3262 94.2642 96.8996 94.2642C97.7249 94.2642 98.3745 94.4432 98.8485 94.8011C99.3224 95.1558 99.6356 95.6314 99.7881 96.228Z" fill="#949599"/>
<path d="M24.7922 263.727V271H23.6913V264.828H23.6487L21.9087 265.964V264.913L23.7233 263.727H24.7922ZM28.8915 271.121C28.3304 271.118 27.851 270.97 27.4533 270.677C27.0555 270.383 26.7513 269.956 26.5406 269.395C26.3299 268.834 26.2246 268.158 26.2246 267.367C26.2246 266.579 26.3299 265.905 26.5406 265.347C26.7537 264.788 27.0591 264.362 27.4568 264.068C27.8569 263.775 28.3351 263.628 28.8915 263.628C29.4478 263.628 29.9249 263.776 30.3226 264.072C30.7203 264.365 31.0245 264.791 31.2352 265.35C31.4483 265.906 31.5548 266.579 31.5548 267.367C31.5548 268.16 31.4495 268.837 31.2388 269.398C31.0281 269.957 30.7239 270.384 30.3261 270.68C29.9284 270.974 29.4502 271.121 28.8915 271.121ZM28.8915 270.173C29.3839 270.173 29.7686 269.932 30.0456 269.452C30.3249 268.971 30.4646 268.276 30.4646 267.367C30.4646 266.763 30.4007 266.253 30.2729 265.837C30.1474 265.418 29.9663 265.1 29.7295 264.885C29.4952 264.667 29.2158 264.558 28.8915 264.558C28.4014 264.558 28.0167 264.8 27.7374 265.283C27.458 265.766 27.3171 266.46 27.3148 267.367C27.3148 267.973 27.3775 268.486 27.503 268.905C27.6308 269.321 27.8119 269.638 28.0463 269.853C28.2807 270.066 28.5624 270.173 28.8915 270.173Z" fill="#B7B7BA"/>
<path d="M46.6667 121V278" stroke="#F4F6FA"/>
<path d="M289.667 152.4L16.6667 152.4" stroke="#F4F6FA"/>
<path d="M289.667 183.8L16.6667 183.8" stroke="#F4F6FA"/>
<path d="M289.667 215.2L16.6667 215.2" stroke="#F4F6FA"/>
<path d="M289.667 246.6L16.6667 246.6" stroke="#F4F6FA"/>
<path d="M289.667 278L16.6667 278" stroke="#F4F6FA"/>
<path d="M24.7922 139.727V147H23.6913V140.828H23.6487L21.9087 141.964V140.913L23.7233 139.727H24.7922ZM28.8915 147.121C28.3304 147.118 27.851 146.97 27.4533 146.677C27.0555 146.383 26.7513 145.956 26.5406 145.395C26.3299 144.834 26.2246 144.158 26.2246 143.367C26.2246 142.579 26.3299 141.905 26.5406 141.347C26.7537 140.788 27.0591 140.362 27.4568 140.068C27.8569 139.775 28.3351 139.628 28.8915 139.628C29.4478 139.628 29.9249 139.776 30.3226 140.072C30.7203 140.365 31.0245 140.791 31.2352 141.35C31.4483 141.906 31.5548 142.579 31.5548 143.367C31.5548 144.16 31.4495 144.837 31.2388 145.398C31.0281 145.957 30.7239 146.384 30.3261 146.68C29.9284 146.974 29.4502 147.121 28.8915 147.121ZM28.8915 146.173C29.3839 146.173 29.7686 145.932 30.0456 145.452C30.3249 144.971 30.4646 144.276 30.4646 143.367C30.4646 142.763 30.4007 142.253 30.2729 141.837C30.1474 141.418 29.9663 141.1 29.7295 140.885C29.4952 140.667 29.2158 140.558 28.8915 140.558C28.4014 140.558 28.0167 140.8 27.7374 141.283C27.458 141.766 27.3171 142.46 27.3148 143.367C27.3148 143.973 27.3775 144.486 27.503 144.905C27.6308 145.321 27.8119 145.638 28.0463 145.853C28.2807 146.066 28.5624 146.173 28.8915 146.173ZM34.9465 147.121C34.3855 147.118 33.9061 146.97 33.5083 146.677C33.1106 146.383 32.8064 145.956 32.5957 145.395C32.385 144.834 32.2796 144.158 32.2796 143.367C32.2796 142.579 32.385 141.905 32.5957 141.347C32.8088 140.788 33.1142 140.362 33.5119 140.068C33.912 139.775 34.3902 139.628 34.9465 139.628C35.5029 139.628 35.9799 139.776 36.3777 140.072C36.7754 140.365 37.0796 140.791 37.2903 141.35C37.5034 141.906 37.6099 142.579 37.6099 143.367C37.6099 144.16 37.5046 144.837 37.2939 145.398C37.0831 145.957 36.7789 146.384 36.3812 146.68C35.9835 146.974 35.5053 147.121 34.9465 147.121ZM34.9465 146.173C35.439 146.173 35.8237 145.932 36.1007 145.452C36.38 144.971 36.5197 144.276 36.5197 143.367C36.5197 142.763 36.4558 142.253 36.3279 141.837C36.2025 141.418 36.0214 141.1 35.7846 140.885C35.5502 140.667 35.2709 140.558 34.9465 140.558C34.4565 140.558 34.0718 140.8 33.7924 141.283C33.5131 141.766 33.3722 142.46 33.3698 143.367C33.3698 143.973 33.4326 144.486 33.5581 144.905C33.6859 145.321 33.867 145.638 34.1014 145.853C34.3358 146.066 34.6175 146.173 34.9465 146.173Z" fill="#B7B7BA"/>
<path d="M24.4903 178.099C23.9813 178.099 23.5315 178.012 23.1409 177.837C22.7526 177.661 22.4484 177.42 22.2283 177.112C22.0081 176.804 21.8992 176.454 21.9016 176.061C21.8992 175.753 21.9619 175.47 22.0898 175.212C22.22 174.952 22.3963 174.735 22.6189 174.562C22.8414 174.387 23.09 174.276 23.3646 174.229V174.186C23.0024 174.098 22.7124 173.904 22.4946 173.604C22.2768 173.303 22.1691 172.957 22.1714 172.567C22.1691 172.195 22.2673 171.864 22.4662 171.572C22.6674 171.279 22.9432 171.048 23.2936 170.88C23.644 170.712 24.0429 170.628 24.4903 170.628C24.933 170.628 25.3284 170.713 25.6764 170.884C26.0268 171.052 26.3026 171.282 26.5038 171.576C26.7051 171.867 26.8069 172.197 26.8092 172.567C26.8069 172.957 26.6956 173.303 26.4754 173.604C26.2552 173.904 25.9688 174.098 25.616 174.186V174.229C25.8883 174.276 26.1333 174.387 26.3511 174.562C26.5713 174.735 26.7465 174.952 26.8767 175.212C27.0093 175.47 27.0767 175.753 27.0791 176.061C27.0767 176.454 26.9655 176.804 26.7453 177.112C26.5251 177.42 26.2197 177.661 25.8291 177.837C25.4409 178.012 24.9946 178.099 24.4903 178.099ZM24.4903 177.201C24.791 177.201 25.0514 177.151 25.2716 177.052C25.4918 176.95 25.6622 176.809 25.7829 176.629C25.9037 176.447 25.9652 176.234 25.9676 175.99C25.9652 175.737 25.899 175.513 25.7687 175.319C25.6409 175.125 25.4669 174.972 25.2467 174.861C25.0266 174.75 24.7744 174.694 24.4903 174.694C24.2039 174.694 23.9494 174.75 23.7268 174.861C23.5043 174.972 23.3291 175.125 23.2013 175.319C23.0734 175.513 23.0107 175.737 23.0131 175.99C23.0107 176.234 23.0687 176.447 23.1871 176.629C23.3078 176.809 23.4794 176.95 23.702 177.052C23.9245 177.151 24.1873 177.201 24.4903 177.201ZM24.4903 173.817C24.7318 173.817 24.9461 173.768 25.1331 173.671C25.3201 173.574 25.4669 173.439 25.5734 173.266C25.6823 173.094 25.738 172.891 25.7403 172.659C25.738 172.432 25.6835 172.233 25.577 172.062C25.4728 171.892 25.3272 171.761 25.1402 171.668C24.9532 171.574 24.7365 171.526 24.4903 171.526C24.2394 171.526 24.0192 171.574 23.8298 171.668C23.6428 171.761 23.4972 171.892 23.393 172.062C23.2889 172.233 23.238 172.432 23.2403 172.659C23.238 172.891 23.2901 173.094 23.3966 173.266C23.5031 173.439 23.6499 173.574 23.8369 173.671C24.0263 173.768 24.2441 173.817 24.4903 173.817ZM30.4833 178.121C29.9222 178.118 29.4428 177.97 29.0451 177.677C28.6473 177.383 28.3431 176.956 28.1324 176.395C27.9217 175.834 27.8164 175.158 27.8164 174.367C27.8164 173.579 27.9217 172.905 28.1324 172.347C28.3455 171.788 28.6509 171.362 29.0486 171.068C29.4487 170.775 29.9269 170.628 30.4833 170.628C31.0396 170.628 31.5166 170.776 31.9144 171.072C32.3121 171.365 32.6163 171.791 32.827 172.35C33.0401 172.906 33.1466 173.579 33.1466 174.367C33.1466 175.16 33.0413 175.837 32.8306 176.398C32.6199 176.957 32.3157 177.384 31.9179 177.68C31.5202 177.974 31.042 178.121 30.4833 178.121ZM30.4833 177.173C30.9757 177.173 31.3604 176.932 31.6374 176.452C31.9167 175.971 32.0564 175.276 32.0564 174.367C32.0564 173.763 31.9925 173.253 31.8647 172.837C31.7392 172.418 31.5581 172.1 31.3213 171.885C31.087 171.667 30.8076 171.558 30.4833 171.558C29.9932 171.558 29.6085 171.8 29.3291 172.283C29.0498 172.766 28.9089 173.46 28.9066 174.367C28.9066 174.973 28.9693 175.486 29.0948 175.905C29.2226 176.321 29.4037 176.638 29.6381 176.853C29.8725 177.066 30.1542 177.173 30.4833 177.173Z" fill="#B7B7BA"/>
<path d="M24.572 209.099C24.2477 209.095 23.9281 209.036 23.6132 208.922C23.3007 208.808 23.0166 208.619 22.7609 208.354C22.5052 208.089 22.3005 207.732 22.1466 207.285C21.9951 206.837 21.9193 206.279 21.9193 205.609C21.9193 204.974 21.982 204.411 22.1075 203.918C22.2354 203.426 22.4188 203.01 22.6579 202.672C22.8971 202.331 23.1859 202.072 23.5244 201.894C23.863 201.717 24.2429 201.628 24.6643 201.628C25.0976 201.628 25.4823 201.713 25.8185 201.884C26.1546 202.054 26.4269 202.29 26.6352 202.59C26.8459 202.891 26.9797 203.233 27.0365 203.616H25.9534C25.88 203.313 25.7344 203.066 25.5166 202.874C25.2988 202.683 25.0147 202.587 24.6643 202.587C24.1317 202.587 23.7162 202.819 23.4179 203.283C23.122 203.747 22.9728 204.392 22.9704 205.218H23.0237C23.1492 205.012 23.3031 204.837 23.4854 204.692C23.67 204.546 23.876 204.433 24.1033 204.355C24.3329 204.275 24.5744 204.234 24.8277 204.234C25.2491 204.234 25.6302 204.337 25.9712 204.543C26.3144 204.747 26.5879 205.029 26.7915 205.388C26.9951 205.748 27.0969 206.16 27.0969 206.624C27.0969 207.088 26.9915 207.509 26.7808 207.885C26.5725 208.261 26.2789 208.56 25.9001 208.78C25.5213 208.998 25.0786 209.104 24.572 209.099ZM24.5685 208.176C24.8478 208.176 25.0976 208.107 25.3177 207.97C25.5379 207.833 25.7119 207.648 25.8398 207.416C25.9676 207.184 26.0315 206.925 26.0315 206.638C26.0315 206.359 25.9688 206.105 25.8433 205.875C25.7202 205.645 25.5498 205.463 25.332 205.328C25.1165 205.193 24.8703 205.126 24.5933 205.126C24.3826 205.126 24.1873 205.166 24.0074 205.246C23.8298 205.327 23.6736 205.438 23.5386 205.58C23.4037 205.722 23.2972 205.886 23.219 206.07C23.1433 206.253 23.1054 206.446 23.1054 206.649C23.1054 206.921 23.1681 207.174 23.2936 207.406C23.4214 207.638 23.5954 207.825 23.8156 207.967C24.0382 208.106 24.2891 208.176 24.5685 208.176ZM30.5223 209.121C29.9613 209.118 29.4818 208.97 29.0841 208.677C28.6864 208.383 28.3822 207.956 28.1715 207.395C27.9608 206.834 27.8554 206.158 27.8554 205.367C27.8554 204.579 27.9608 203.905 28.1715 203.347C28.3845 202.788 28.6899 202.362 29.0877 202.068C29.4878 201.775 29.966 201.628 30.5223 201.628C31.0787 201.628 31.5557 201.776 31.9534 202.072C32.3512 202.365 32.6554 202.791 32.8661 203.35C33.0791 203.906 33.1857 204.579 33.1857 205.367C33.1857 206.16 33.0803 206.837 32.8696 207.398C32.6589 207.957 32.3547 208.384 31.957 208.68C31.5593 208.974 31.081 209.121 30.5223 209.121ZM30.5223 208.173C31.0148 208.173 31.3995 207.932 31.6764 207.452C31.9558 206.971 32.0955 206.276 32.0955 205.367C32.0955 204.763 32.0316 204.253 31.9037 203.837C31.7782 203.418 31.5971 203.1 31.3604 202.885C31.126 202.667 30.8467 202.558 30.5223 202.558C30.0323 202.558 29.6476 202.8 29.3682 203.283C29.0889 203.766 28.948 204.46 28.9456 205.367C28.9456 205.973 29.0084 206.486 29.1338 206.905C29.2617 207.321 29.4428 207.638 29.6772 207.853C29.9115 208.066 30.1933 208.173 30.5223 208.173Z" fill="#B7B7BA"/>
<path d="M21.8802 238.58V237.692L25.023 232.727H25.7226V234.034H25.2787L23.0308 237.592V237.649H27.3383V238.58H21.8802ZM25.3284 240V238.31L25.3355 237.905V232.727H26.376V240H25.3284ZM30.7079 240.121C30.1468 240.118 29.6674 239.97 29.2697 239.677C28.8719 239.383 28.5677 238.956 28.357 238.395C28.1463 237.834 28.041 237.158 28.041 236.367C28.041 235.579 28.1463 234.905 28.357 234.347C28.5701 233.788 28.8755 233.362 29.2732 233.068C29.6733 232.775 30.1515 232.628 30.7079 232.628C31.2642 232.628 31.7413 232.776 32.139 233.072C32.5367 233.365 32.8409 233.791 33.0516 234.35C33.2647 234.906 33.3712 235.579 33.3712 236.367C33.3712 237.16 33.2659 237.837 33.0552 238.398C32.8445 238.957 32.5403 239.384 32.1425 239.68C31.7448 239.974 31.2666 240.121 30.7079 240.121ZM30.7079 239.173C31.2003 239.173 31.585 238.932 31.862 238.452C32.1414 237.971 32.281 237.276 32.281 236.367C32.281 235.763 32.2171 235.253 32.0893 234.837C31.9638 234.418 31.7827 234.1 31.5459 233.885C31.3116 233.667 31.0322 233.558 30.7079 233.558C30.2178 233.558 29.8331 233.8 29.5538 234.283C29.2744 234.766 29.1335 235.46 29.1312 236.367C29.1312 236.973 29.1939 237.486 29.3194 237.905C29.4472 238.321 29.6283 238.638 29.8627 238.853C30.0971 239.066 30.3788 239.173 30.7079 239.173Z" fill="#B7B7BA"/>
<g clip-path="url(#clip0_53_3144)">
<path d="M65 169C65 164.582 68.5817 161 73 161H90C94.4183 161 98 164.582 98 169V278H65V169Z" fill="#D4DEFB"/>
<rect width="43" height="81" transform="translate(65 197)" fill="url(#paint0_linear_53_3144)"/>
</g>
<g clip-path="url(#clip1_53_3144)">
<path d="M111 207C111 202.582 114.582 199 119 199H137C141.418 199 145 202.582 145 207V278H111V207Z" fill="#D4DEFB"/>
<rect width="34" height="97" transform="translate(111 219)" fill="url(#paint1_linear_53_3144)"/>
</g>
<g clip-path="url(#clip2_53_3144)">
<path d="M203 212C203 207.582 206.582 204 211 204H229C233.418 204 237 207.582 237 212V278H203V212Z" fill="#D4DEFB"/>
<rect width="43" height="91" transform="translate(203 230)" fill="url(#paint2_linear_53_3144)"/>
</g>
<g clip-path="url(#clip3_53_3144)">
<path d="M157 176C157 171.582 160.582 168 165 168H183C187.418 168 191 171.582 191 176V278H157V176Z" fill="#D4DEFB"/>
<rect width="43" height="81" transform="translate(157 204)" fill="url(#paint3_linear_53_3144)"/>
</g>
<g clip-path="url(#clip4_53_3144)">
<path d="M250 195C250 190.582 253.582 187 258 187H276C280.418 187 284 190.582 284 195V278H250V195Z" fill="#D4DEFB"/>
<rect width="43" height="81" transform="translate(250 223)" fill="url(#paint4_linear_53_3144)"/>
</g>
<path d="M81.8982 292.099C81.4105 292.099 80.9749 292.015 80.5914 291.847C80.2102 291.679 79.9084 291.446 79.6859 291.148C79.4657 290.847 79.3473 290.499 79.3307 290.104H80.4458C80.46 290.319 80.5322 290.506 80.6624 290.665C80.795 290.821 80.9678 290.942 81.1809 291.027C81.394 291.112 81.6307 291.155 81.8911 291.155C82.1776 291.155 82.4309 291.105 82.6511 291.006C82.8736 290.906 83.0476 290.768 83.1731 290.59C83.2986 290.41 83.3613 290.203 83.3613 289.969C83.3613 289.725 83.2986 289.511 83.1731 289.326C83.05 289.139 82.8689 288.992 82.6298 288.886C82.393 288.779 82.1066 288.726 81.7704 288.726H81.156V287.831H81.7704C82.0403 287.831 82.277 287.782 82.4806 287.685C82.6866 287.588 82.8476 287.453 82.9636 287.281C83.0796 287.105 83.1376 286.901 83.1376 286.666C83.1376 286.441 83.0867 286.246 82.9849 286.08C82.8854 285.912 82.7434 285.781 82.5587 285.686C82.3764 285.591 82.161 285.544 81.9124 285.544C81.6757 285.544 81.4543 285.588 81.2484 285.675C81.0448 285.761 80.879 285.884 80.7512 286.045C80.6234 286.203 80.5547 286.394 80.5452 286.616H79.4834C79.4953 286.223 79.6113 285.878 79.8315 285.58C80.054 285.281 80.3476 285.048 80.7121 284.88C81.0767 284.712 81.4816 284.628 81.9266 284.628C82.393 284.628 82.7955 284.719 83.134 284.901C83.4749 285.081 83.7377 285.321 83.9224 285.622C84.1094 285.923 84.2017 286.252 84.1994 286.609C84.2017 287.017 84.0881 287.362 83.8584 287.646C83.6312 287.93 83.3281 288.121 82.9494 288.218V288.275C83.4323 288.348 83.8064 288.54 84.0715 288.85C84.339 289.16 84.4716 289.545 84.4692 290.004C84.4716 290.404 84.3603 290.763 84.1354 291.08C83.9129 291.397 83.6087 291.647 83.2228 291.83C82.8369 292.009 82.3954 292.099 81.8982 292.099Z" fill="#B7B7BA"/>
<path d="M126.88 290.58V289.692L130.023 284.727H130.723V286.034H130.279L128.031 289.592V289.649H132.338V290.58H126.88ZM130.328 292V290.31L130.336 289.905V284.727H131.376V292H130.328Z" fill="#B7B7BA"/>
<path d="M177.239 292.099C176.914 292.095 176.595 292.036 176.28 291.922C175.967 291.808 175.683 291.619 175.428 291.354C175.172 291.089 174.967 290.732 174.813 290.285C174.662 289.837 174.586 289.279 174.586 288.609C174.586 287.974 174.649 287.411 174.774 286.918C174.902 286.426 175.085 286.01 175.325 285.672C175.564 285.331 175.853 285.072 176.191 284.894C176.53 284.717 176.91 284.628 177.331 284.628C177.764 284.628 178.149 284.713 178.485 284.884C178.821 285.054 179.094 285.29 179.302 285.59C179.513 285.891 179.646 286.233 179.703 286.616H178.62C178.547 286.313 178.401 286.066 178.183 285.874C177.965 285.683 177.681 285.587 177.331 285.587C176.798 285.587 176.383 285.819 176.085 286.283C175.789 286.747 175.639 287.392 175.637 288.218H175.69C175.816 288.012 175.97 287.837 176.152 287.692C176.337 287.546 176.543 287.433 176.77 287.355C177 287.275 177.241 287.234 177.494 287.234C177.916 287.234 178.297 287.337 178.638 287.543C178.981 287.747 179.254 288.029 179.458 288.388C179.662 288.748 179.763 289.16 179.763 289.624C179.763 290.088 179.658 290.509 179.447 290.885C179.239 291.261 178.946 291.56 178.567 291.78C178.188 291.998 177.745 292.104 177.239 292.099ZM177.235 291.176C177.514 291.176 177.764 291.107 177.984 290.97C178.205 290.833 178.379 290.648 178.506 290.416C178.634 290.184 178.698 289.925 178.698 289.638C178.698 289.359 178.635 289.105 178.51 288.875C178.387 288.645 178.216 288.463 177.999 288.328C177.783 288.193 177.537 288.126 177.26 288.126C177.049 288.126 176.854 288.166 176.674 288.246C176.496 288.327 176.34 288.438 176.205 288.58C176.07 288.722 175.964 288.886 175.886 289.07C175.81 289.253 175.772 289.446 175.772 289.649C175.772 289.921 175.835 290.174 175.96 290.406C176.088 290.638 176.262 290.825 176.482 290.967C176.705 291.106 176.956 291.176 177.235 291.176Z" fill="#B7B7BA"/>
<path d="M224.824 292.099C224.315 292.099 223.865 292.012 223.474 291.837C223.086 291.661 222.782 291.42 222.562 291.112C222.341 290.804 222.233 290.454 222.235 290.061C222.233 289.753 222.295 289.47 222.423 289.212C222.553 288.952 222.73 288.735 222.952 288.562C223.175 288.387 223.423 288.276 223.698 288.229V288.186C223.336 288.098 223.046 287.904 222.828 287.604C222.61 287.303 222.502 286.957 222.505 286.567C222.502 286.195 222.601 285.864 222.799 285.572C223.001 285.279 223.277 285.048 223.627 284.88C223.977 284.712 224.376 284.628 224.824 284.628C225.266 284.628 225.662 284.713 226.01 284.884C226.36 285.052 226.636 285.282 226.837 285.576C227.038 285.867 227.14 286.197 227.143 286.567C227.14 286.957 227.029 287.303 226.809 287.604C226.589 287.904 226.302 288.098 225.949 288.186V288.229C226.222 288.276 226.467 288.387 226.684 288.562C226.905 288.735 227.08 288.952 227.21 289.212C227.343 289.47 227.41 289.753 227.412 290.061C227.41 290.454 227.299 290.804 227.079 291.112C226.858 291.42 226.553 291.661 226.162 291.837C225.774 292.012 225.328 292.099 224.824 292.099ZM224.824 291.201C225.124 291.201 225.385 291.151 225.605 291.052C225.825 290.95 225.996 290.809 226.116 290.629C226.237 290.447 226.299 290.234 226.301 289.99C226.299 289.737 226.232 289.513 226.102 289.319C225.974 289.125 225.8 288.972 225.58 288.861C225.36 288.75 225.108 288.694 224.824 288.694C224.537 288.694 224.283 288.75 224.06 288.861C223.838 288.972 223.662 289.125 223.535 289.319C223.407 289.513 223.344 289.737 223.346 289.99C223.344 290.234 223.402 290.447 223.52 290.629C223.641 290.809 223.813 290.95 224.035 291.052C224.258 291.151 224.521 291.201 224.824 291.201ZM224.824 287.817C225.065 287.817 225.279 287.768 225.466 287.671C225.653 287.574 225.8 287.439 225.907 287.266C226.016 287.094 226.071 286.891 226.074 286.659C226.071 286.432 226.017 286.233 225.91 286.062C225.806 285.892 225.661 285.761 225.474 285.668C225.286 285.574 225.07 285.526 224.824 285.526C224.573 285.526 224.353 285.574 224.163 285.668C223.976 285.761 223.831 285.892 223.726 286.062C223.622 286.233 223.571 286.432 223.574 286.659C223.571 286.891 223.623 287.094 223.73 287.266C223.836 287.439 223.983 287.574 224.17 287.671C224.36 287.768 224.577 287.817 224.824 287.817Z" fill="#B7B7BA"/>
<path d="M272.451 284.628C272.776 284.63 273.095 284.689 273.41 284.805C273.725 284.921 274.009 285.111 274.262 285.374C274.518 285.636 274.722 285.991 274.873 286.439C275.027 286.884 275.105 287.438 275.107 288.101C275.107 288.738 275.044 289.305 274.916 289.802C274.788 290.297 274.604 290.714 274.365 291.055C274.129 291.396 273.841 291.656 273.502 291.833C273.164 292.011 272.783 292.099 272.359 292.099C271.926 292.099 271.541 292.014 271.205 291.844C270.869 291.673 270.595 291.438 270.384 291.137C270.174 290.834 270.042 290.486 269.99 290.093H271.073C271.144 290.406 271.289 290.659 271.507 290.853C271.727 291.045 272.011 291.141 272.359 291.141C272.892 291.141 273.307 290.909 273.605 290.445C273.904 289.978 274.054 289.327 274.056 288.491H274C273.876 288.695 273.723 288.87 273.538 289.017C273.356 289.164 273.151 289.277 272.924 289.358C272.696 289.438 272.454 289.479 272.196 289.479C271.776 289.479 271.395 289.376 271.052 289.17C270.709 288.964 270.435 288.681 270.232 288.321C270.028 287.961 269.926 287.55 269.926 287.089C269.926 286.629 270.031 286.213 270.239 285.839C270.45 285.465 270.743 285.169 271.12 284.951C271.498 284.731 271.942 284.623 272.451 284.628ZM272.455 285.551C272.178 285.551 271.928 285.62 271.705 285.757C271.485 285.892 271.311 286.076 271.183 286.308C271.056 286.537 270.992 286.793 270.992 287.075C270.992 287.356 271.053 287.612 271.176 287.842C271.302 288.069 271.472 288.25 271.688 288.385C271.906 288.518 272.154 288.584 272.433 288.584C272.642 288.584 272.836 288.544 273.016 288.463C273.196 288.383 273.353 288.271 273.488 288.129C273.623 287.985 273.728 287.821 273.804 287.639C273.88 287.457 273.918 287.265 273.918 287.064C273.918 286.796 273.854 286.548 273.726 286.318C273.601 286.089 273.428 285.904 273.208 285.764C272.987 285.622 272.736 285.551 272.455 285.551Z" fill="#B7B7BA"/>
<defs>
<linearGradient id="paint0_linear_53_3144" x1="21.5" y1="0" x2="21.5" y2="81" gradientUnits="userSpaceOnUse">
<stop stop-color="#6A85ED"/>
<stop offset="1" stop-color="#9EB0F3"/>
</linearGradient>
<linearGradient id="paint1_linear_53_3144" x1="17" y1="0" x2="17" y2="97" gradientUnits="userSpaceOnUse">
<stop stop-color="#6A85ED"/>
<stop offset="1" stop-color="#9EB0F3"/>
</linearGradient>
<linearGradient id="paint2_linear_53_3144" x1="21.5" y1="0" x2="21.5" y2="91" gradientUnits="userSpaceOnUse">
<stop stop-color="#6A85ED"/>
<stop offset="1" stop-color="#9EB0F3"/>
</linearGradient>
<linearGradient id="paint3_linear_53_3144" x1="21.5" y1="0" x2="21.5" y2="81" gradientUnits="userSpaceOnUse">
<stop stop-color="#6A85ED"/>
<stop offset="1" stop-color="#9EB0F3"/>
</linearGradient>
<linearGradient id="paint4_linear_53_3144" x1="21.5" y1="0" x2="21.5" y2="81" gradientUnits="userSpaceOnUse">
<stop stop-color="#6A85ED"/>
<stop offset="1" stop-color="#9EB0F3"/>
</linearGradient>
<clipPath id="clip0_53_3144">
<path d="M65 169C65 164.582 68.5817 161 73 161H90C94.4183 161 98 164.582 98 169V278H65V169Z" fill="white"/>
</clipPath>
<clipPath id="clip1_53_3144">
<path d="M111 207C111 202.582 114.582 199 119 199H137C141.418 199 145 202.582 145 207V278H111V207Z" fill="white"/>
</clipPath>
<clipPath id="clip2_53_3144">
<path d="M203 212C203 207.582 206.582 204 211 204H229C233.418 204 237 207.582 237 212V278H203V212Z" fill="white"/>
</clipPath>
<clipPath id="clip3_53_3144">
<path d="M157 176C157 171.582 160.582 168 165 168H183C187.418 168 191 171.582 191 176V278H157V176Z" fill="white"/>
</clipPath>
<clipPath id="clip4_53_3144">
<path d="M250 195C250 190.582 253.582 187 258 187H276C280.418 187 284 190.582 284 195V278H250V195Z" fill="white"/>
</clipPath>
</defs>
</svg>
