<svg width="313" height="311" viewBox="0 0 313 311" fill="none" xmlns="http://www.w3.org/2000/svg">
<rect x="0.833374" y="0.5" width="311.333" height="310" rx="11.5" fill="white"/>
<rect x="0.833374" y="0.5" width="311.333" height="310" rx="11.5" stroke="#EFF1F5"/>
<mask id="mask0_53_3349" style="mask-type:alpha" maskUnits="userSpaceOnUse" x="16" y="16" width="17" height="16">
<rect x="16.3334" y="16" width="16" height="16" fill="#D9D9D9"/>
</mask>
<g mask="url(#mask0_53_3349)">
<path d="M27.6667 29.3334C27.4778 29.3334 27.3195 29.2695 27.1917 29.1417C27.064 29.014 27.0001 28.8556 27.0001 28.6667V25.3334C27.0001 25.1445 27.064 24.9862 27.1917 24.8584C27.3195 24.7306 27.4778 24.6667 27.6667 24.6667H29.0001C29.189 24.6667 29.3473 24.7306 29.4751 24.8584C29.6028 24.9862 29.6667 25.1445 29.6667 25.3334V28.6667C29.6667 28.8556 29.6028 29.014 29.4751 29.1417C29.3473 29.2695 29.189 29.3334 29.0001 29.3334H27.6667ZM23.6667 29.3334C23.4778 29.3334 23.3195 29.2695 23.1917 29.1417C23.064 29.014 23.0001 28.8556 23.0001 28.6667V19.3334C23.0001 19.1445 23.064 18.9862 23.1917 18.8584C23.3195 18.7306 23.4778 18.6667 23.6667 18.6667H25.0001C25.189 18.6667 25.3473 18.7306 25.4751 18.8584C25.6028 18.9862 25.6667 19.1445 25.6667 19.3334V28.6667C25.6667 28.8556 25.6028 29.014 25.4751 29.1417C25.3473 29.2695 25.189 29.3334 25.0001 29.3334H23.6667ZM19.6667 29.3334C19.4778 29.3334 19.3195 29.2695 19.1917 29.1417C19.0639 29.014 19.0001 28.8556 19.0001 28.6667V22.6667C19.0001 22.4779 19.0639 22.3195 19.1917 22.1917C19.3195 22.064 19.4778 22.0001 19.6667 22.0001H21.0001C21.189 22.0001 21.3473 22.064 21.4751 22.1917C21.6028 22.3195 21.6667 22.4779 21.6667 22.6667V28.6667C21.6667 28.8556 21.6028 29.014 21.4751 29.1417C21.3473 29.2695 21.189 29.3334 21.0001 29.3334H19.6667Z" fill="#1C1B1F"/>
</g>
<path d="M39.3376 30V19.8182H43.1558C43.938 19.8182 44.5943 19.9541 45.1246 20.2259C45.6582 20.4976 46.0609 20.8788 46.3327 21.3693C46.6078 21.8565 46.7453 22.425 46.7453 23.0746C46.7453 23.7275 46.6061 24.2943 46.3277 24.7749C46.0526 25.2521 45.6466 25.6217 45.1097 25.8835C44.5727 26.142 43.9132 26.2713 43.131 26.2713H40.4115V24.7401H42.8824C43.3398 24.7401 43.7143 24.6771 44.006 24.5511C44.2976 24.4219 44.5131 24.2346 44.6523 23.9893C44.7948 23.7408 44.866 23.4358 44.866 23.0746C44.866 22.7133 44.7948 22.4051 44.6523 22.1499C44.5097 21.8913 44.2927 21.6958 44.001 21.5632C43.7093 21.4273 43.3331 21.3594 42.8724 21.3594H41.1821V30H39.3376ZM44.5976 25.3864L47.1182 30H45.0599L42.5841 25.3864H44.5976ZM51.0749 30.1491C50.3092 30.1491 49.648 29.9901 49.0912 29.6719C48.5377 29.3504 48.1118 28.8963 47.8135 28.3097C47.5152 27.7197 47.3661 27.0253 47.3661 26.2266C47.3661 25.4411 47.5152 24.7517 47.8135 24.1584C48.1151 23.5618 48.536 23.0978 49.0763 22.7663C49.6165 22.4316 50.2512 22.2642 50.9804 22.2642C51.451 22.2642 51.8952 22.3404 52.3128 22.4929C52.7337 22.642 53.1049 22.8741 53.4264 23.1889C53.7512 23.5038 54.0064 23.9048 54.1921 24.392C54.3777 24.8759 54.4705 25.4527 54.4705 26.1222V26.674H48.2112V25.4609H52.7453C52.742 25.1162 52.6674 24.8097 52.5216 24.5412C52.3758 24.2694 52.1719 24.0556 51.9101 23.8999C51.6516 23.7441 51.35 23.6662 51.0053 23.6662C50.6374 23.6662 50.3142 23.7557 50.0358 23.9347C49.7574 24.1103 49.5403 24.3423 49.3845 24.6307C49.2321 24.9157 49.1542 25.2289 49.1509 25.5703V26.6293C49.1509 27.0734 49.2321 27.4545 49.3945 27.7727C49.5569 28.0876 49.7839 28.3295 50.0756 28.4986C50.3672 28.6643 50.7086 28.7472 51.0997 28.7472C51.3616 28.7472 51.5985 28.7107 51.8107 28.6378C52.0228 28.5616 52.2067 28.4505 52.3625 28.3047C52.5183 28.1589 52.6359 27.9782 52.7155 27.7628L54.3959 27.9517C54.2898 28.3958 54.0876 28.7836 53.7894 29.1151C53.4944 29.4432 53.1165 29.6984 52.6558 29.8807C52.1951 30.0597 51.6681 30.1491 51.0749 30.1491ZM62.0353 22.3636L59.3158 30H57.3272L54.6077 22.3636H56.5268L58.2817 28.0362H58.3613L60.1212 22.3636H62.0353ZM65.8416 30.1491C65.076 30.1491 64.4147 29.9901 63.8579 29.6719C63.3044 29.3504 62.8785 28.8963 62.5802 28.3097C62.2819 27.7197 62.1328 27.0253 62.1328 26.2266C62.1328 25.4411 62.2819 24.7517 62.5802 24.1584C62.8818 23.5618 63.3028 23.0978 63.843 22.7663C64.3833 22.4316 65.018 22.2642 65.7471 22.2642C66.2178 22.2642 66.6619 22.3404 67.0795 22.4929C67.5004 22.642 67.8717 22.8741 68.1931 23.1889C68.518 23.5038 68.7732 23.9048 68.9588 24.392C69.1444 24.8759 69.2372 25.4527 69.2372 26.1222V26.674H62.9779V25.4609H67.512C67.5087 25.1162 67.4342 24.8097 67.2883 24.5412C67.1425 24.2694 66.9386 24.0556 66.6768 23.8999C66.4183 23.7441 66.1167 23.6662 65.772 23.6662C65.4041 23.6662 65.0809 23.7557 64.8025 23.9347C64.5241 24.1103 64.307 24.3423 64.1512 24.6307C63.9988 24.9157 63.9209 25.2289 63.9176 25.5703V26.6293C63.9176 27.0734 63.9988 27.4545 64.1612 27.7727C64.3236 28.0876 64.5506 28.3295 64.8423 28.4986C65.134 28.6643 65.4753 28.7472 65.8664 28.7472C66.1283 28.7472 66.3653 28.7107 66.5774 28.6378C66.7895 28.5616 66.9734 28.4505 67.1292 28.3047C67.285 28.1589 67.4027 27.9782 67.4822 27.7628L69.1626 27.9517C69.0565 28.3958 68.8544 28.7836 68.5561 29.1151C68.2611 29.4432 67.8833 29.6984 67.4226 29.8807C66.9618 30.0597 66.4349 30.1491 65.8416 30.1491ZM71.9994 25.5256V30H70.1997V22.3636H71.9199V23.6612H72.0094C72.1851 23.2337 72.4651 22.8939 72.8496 22.642C73.2374 22.3902 73.7163 22.2642 74.2864 22.2642C74.8134 22.2642 75.2724 22.3769 75.6635 22.6023C76.0579 22.8277 76.3628 23.1541 76.5783 23.5817C76.797 24.0092 76.9047 24.5279 76.9014 25.1378V30H75.1017V25.4162C75.1017 24.9058 74.9691 24.5064 74.704 24.218C74.4422 23.9297 74.0792 23.7855 73.6152 23.7855C73.3003 23.7855 73.0203 23.8551 72.775 23.9943C72.5331 24.1302 72.3425 24.3274 72.2033 24.5859C72.0674 24.8445 71.9994 25.1577 71.9994 25.5256ZM83.0382 26.7884V22.3636H84.8379V30H83.0929V28.6428H83.0133C82.841 29.0703 82.5576 29.42 82.1632 29.6918C81.7721 29.9635 81.2898 30.0994 80.7164 30.0994C80.216 30.0994 79.7735 29.9884 79.389 29.7663C79.0079 29.541 78.7096 29.2145 78.4941 28.7869C78.2787 28.3561 78.171 27.8357 78.171 27.2259V22.3636H79.9707V26.9474C79.9707 27.4313 80.1033 27.8158 80.3684 28.1009C80.6336 28.3859 80.9816 28.5284 81.4125 28.5284C81.6776 28.5284 81.9345 28.4638 82.1831 28.3345C82.4316 28.2053 82.6355 28.013 82.7946 27.7578C82.957 27.4993 83.0382 27.1761 83.0382 26.7884ZM89.5092 30.1491C88.7436 30.1491 88.0824 29.9901 87.5256 29.6719C86.9721 29.3504 86.5462 28.8963 86.2479 28.3097C85.9496 27.7197 85.8004 27.0253 85.8004 26.2266C85.8004 25.4411 85.9496 24.7517 86.2479 24.1584C86.5495 23.5618 86.9704 23.0978 87.5107 22.7663C88.0509 22.4316 88.6856 22.2642 89.4148 22.2642C89.8854 22.2642 90.3296 22.3404 90.7472 22.4929C91.1681 22.642 91.5393 22.8741 91.8608 23.1889C92.1856 23.5038 92.4408 23.9048 92.6264 24.392C92.812 24.8759 92.9048 25.4527 92.9048 26.1222V26.674H86.6456V25.4609H91.1797C91.1764 25.1162 91.1018 24.8097 90.956 24.5412C90.8101 24.2694 90.6063 24.0556 90.3445 23.8999C90.0859 23.7441 89.7843 23.6662 89.4396 23.6662C89.0717 23.6662 88.7486 23.7557 88.4702 23.9347C88.1918 24.1103 87.9747 24.3423 87.8189 24.6307C87.6664 24.9157 87.5885 25.2289 87.5852 25.5703V26.6293C87.5852 27.0734 87.6664 27.4545 87.8288 27.7727C87.9912 28.0876 88.2183 28.3295 88.51 28.4986C88.8016 28.6643 89.143 28.7472 89.5341 28.7472C89.7959 28.7472 90.0329 28.7107 90.245 28.6378C90.4572 28.5616 90.6411 28.4505 90.7969 28.3047C90.9527 28.1589 91.0703 27.9782 91.1499 27.7628L92.8303 27.9517C92.7242 28.3958 92.522 28.7836 92.2237 29.1151C91.9287 29.4432 91.5509 29.6984 91.0902 29.8807C90.6295 30.0597 90.1025 30.1491 89.5092 30.1491ZM96.4121 21.3643V19.8182H104.536V21.3643H101.389V30H99.5592V21.3643H96.4121ZM104.669 30V22.3636H106.414V23.6364H106.494C106.633 23.1955 106.872 22.8558 107.21 22.6172C107.551 22.3752 107.941 22.2543 108.378 22.2543C108.477 22.2543 108.589 22.2592 108.711 22.2692C108.837 22.2758 108.942 22.2874 109.024 22.304V23.9595C108.948 23.933 108.827 23.9098 108.661 23.8899C108.499 23.8667 108.342 23.8551 108.189 23.8551C107.861 23.8551 107.566 23.9264 107.304 24.0689C107.046 24.2081 106.842 24.402 106.693 24.6506C106.544 24.8991 106.469 25.1858 106.469 25.5107V30H104.669ZM112.726 30.1491C111.961 30.1491 111.299 29.9901 110.743 29.6719C110.189 29.3504 109.763 28.8963 109.465 28.3097C109.167 27.7197 109.017 27.0253 109.017 26.2266C109.017 25.4411 109.167 24.7517 109.465 24.1584C109.767 23.5618 110.187 23.0978 110.728 22.7663C111.268 22.4316 111.903 22.2642 112.632 22.2642C113.102 22.2642 113.547 22.3404 113.964 22.4929C114.385 22.642 114.756 22.8741 115.078 23.1889C115.403 23.5038 115.658 23.9048 115.843 24.392C116.029 24.8759 116.122 25.4527 116.122 26.1222V26.674H109.863V25.4609H114.397C114.393 25.1162 114.319 24.8097 114.173 24.5412C114.027 24.2694 113.823 24.0556 113.562 23.8999C113.303 23.7441 113.001 23.6662 112.657 23.6662C112.289 23.6662 111.966 23.7557 111.687 23.9347C111.409 24.1103 111.192 24.3423 111.036 24.6307C110.883 24.9157 110.806 25.2289 110.802 25.5703V26.6293C110.802 27.0734 110.883 27.4545 111.046 27.7727C111.208 28.0876 111.435 28.3295 111.727 28.4986C112.019 28.6643 112.36 28.7472 112.751 28.7472C113.013 28.7472 113.25 28.7107 113.462 28.6378C113.674 28.5616 113.858 28.4505 114.014 28.3047C114.17 28.1589 114.287 27.9782 114.367 27.7628L116.047 27.9517C115.941 28.3958 115.739 28.7836 115.441 29.1151C115.146 29.4432 114.768 29.6984 114.307 29.8807C113.847 30.0597 113.32 30.1491 112.726 30.1491ZM118.884 25.5256V30H117.084V22.3636H118.805V23.6612H118.894C119.07 23.2337 119.35 22.8939 119.734 22.642C120.122 22.3902 120.601 22.2642 121.171 22.2642C121.698 22.2642 122.157 22.3769 122.548 22.6023C122.943 22.8277 123.248 23.1541 123.463 23.5817C123.682 24.0092 123.789 24.5279 123.786 25.1378V30H121.986V25.4162C121.986 24.9058 121.854 24.5064 121.589 24.218C121.327 23.9297 120.964 23.7855 120.5 23.7855C120.185 23.7855 119.905 23.8551 119.66 23.9943C119.418 24.1302 119.227 24.3274 119.088 24.5859C118.952 24.8445 118.884 25.1577 118.884 25.5256ZM127.889 30.1342C127.29 30.1342 126.753 29.9801 126.279 29.6719C125.805 29.3636 125.43 28.9162 125.155 28.3295C124.88 27.7429 124.742 27.0303 124.742 26.1918C124.742 25.3433 124.882 24.6274 125.16 24.044C125.442 23.4574 125.821 23.0149 126.299 22.7166C126.776 22.415 127.308 22.2642 127.894 22.2642C128.342 22.2642 128.71 22.3404 128.998 22.4929C129.286 22.642 129.515 22.8227 129.684 23.0348C129.853 23.2436 129.984 23.4408 130.077 23.6264H130.152V19.8182H131.956V30H130.186V28.7969H130.077C129.984 28.9825 129.85 29.1797 129.674 29.3885C129.499 29.594 129.267 29.7696 128.978 29.9155C128.69 30.0613 128.327 30.1342 127.889 30.1342ZM128.392 28.6577C128.773 28.6577 129.098 28.5549 129.366 28.3494C129.635 28.1406 129.838 27.8506 129.978 27.4794C130.117 27.1082 130.186 26.6757 130.186 26.1818C130.186 25.688 130.117 25.2588 129.978 24.8942C129.842 24.5296 129.639 24.2462 129.371 24.044C129.106 23.8419 128.779 23.7408 128.392 23.7408C127.991 23.7408 127.656 23.8452 127.387 24.054C127.119 24.2628 126.917 24.5511 126.781 24.919C126.645 25.2869 126.577 25.7079 126.577 26.1818C126.577 26.6591 126.645 27.085 126.781 27.4595C126.92 27.8307 127.124 28.1241 127.392 28.3395C127.664 28.5516 127.997 28.6577 128.392 28.6577ZM139.35 24.3821L137.709 24.5611C137.663 24.3954 137.581 24.2396 137.465 24.0938C137.353 23.9479 137.2 23.8303 137.008 23.7408C136.816 23.6513 136.58 23.6065 136.302 23.6065C135.927 23.6065 135.613 23.6877 135.357 23.8501C135.105 24.0125 134.981 24.223 134.984 24.4815C134.981 24.7036 135.062 24.8842 135.228 25.0234C135.397 25.1626 135.676 25.277 136.063 25.3665L137.366 25.6449C138.088 25.8007 138.625 26.0476 138.977 26.3857C139.331 26.7237 139.51 27.1662 139.514 27.7131C139.51 28.1937 139.369 28.6179 139.091 28.9858C138.816 29.3504 138.433 29.6354 137.943 29.8409C137.452 30.0464 136.889 30.1491 136.252 30.1491C135.318 30.1491 134.565 29.9536 133.995 29.5625C133.425 29.1681 133.085 28.6196 132.976 27.9169L134.731 27.7479C134.81 28.0926 134.98 28.3527 135.238 28.5284C135.497 28.7041 135.833 28.7919 136.247 28.7919C136.675 28.7919 137.018 28.7041 137.276 28.5284C137.538 28.3527 137.669 28.1357 137.669 27.8771C137.669 27.6584 137.585 27.4777 137.416 27.3352C137.25 27.1927 136.991 27.0833 136.64 27.0071L135.337 26.7337C134.605 26.5812 134.063 26.3243 133.712 25.9631C133.36 25.5985 133.186 25.1378 133.19 24.581C133.186 24.1103 133.314 23.7027 133.573 23.358C133.834 23.0099 134.197 22.7415 134.661 22.5526C135.129 22.3603 135.667 22.2642 136.277 22.2642C137.172 22.2642 137.876 22.4548 138.39 22.8359C138.907 23.2171 139.227 23.7325 139.35 24.3821Z" fill="#2B2C36"/>
<mask id="mask1_53_3349" style="mask-type:alpha" maskUnits="userSpaceOnUse" x="280" y="16" width="17" height="16">
<rect x="280.667" y="16" width="16" height="16" fill="#D9D9D9"/>
</mask>
<g mask="url(#mask1_53_3349)">
<path d="M291.334 21.6002L285.4 27.5335C285.278 27.6557 285.122 27.7168 284.934 27.7168C284.745 27.7168 284.589 27.6557 284.467 27.5335C284.345 27.4113 284.284 27.2557 284.284 27.0668C284.284 26.8779 284.345 26.7224 284.467 26.6002L290.4 20.6668H285.334C285.145 20.6668 284.986 20.6029 284.859 20.4752C284.731 20.3474 284.667 20.1891 284.667 20.0002C284.667 19.8113 284.731 19.6529 284.859 19.5252C284.986 19.3974 285.145 19.3335 285.334 19.3335H292C292.189 19.3335 292.347 19.3974 292.475 19.5252C292.603 19.6529 292.667 19.8113 292.667 20.0002V26.6668C292.667 26.8557 292.603 27.0141 292.475 27.1418C292.347 27.2696 292.189 27.3335 292 27.3335C291.811 27.3335 291.653 27.2696 291.525 27.1418C291.397 27.0141 291.334 26.8557 291.334 26.6668V21.6002Z" fill="#949599"/>
</g>
<path d="M20.4548 64.2727V51.5455H21.2702V64.2727H20.4548ZM23.0052 55.4929C22.9522 55.0223 22.7335 54.6577 22.349 54.3991C21.9645 54.1373 21.4806 54.0064 20.8973 54.0064C20.4797 54.0064 20.1184 54.0727 19.8135 54.2053C19.5086 54.3345 19.2716 54.5135 19.1026 54.7422C18.9368 54.9676 18.854 55.2244 18.854 55.5128C18.854 55.7547 18.9103 55.9635 19.023 56.1392C19.139 56.3149 19.2898 56.4624 19.4754 56.5817C19.6643 56.6977 19.8665 56.7955 20.082 56.875C20.2974 56.9512 20.5045 57.0142 20.7034 57.0639L21.6977 57.3224C22.0225 57.402 22.3556 57.5097 22.697 57.6456C23.0384 57.7815 23.3549 57.9605 23.6466 58.1825C23.9383 58.4046 24.1736 58.6797 24.3526 59.0078C24.5348 59.3359 24.626 59.7287 24.626 60.1861C24.626 60.7628 24.4768 61.2749 24.1785 61.7223C23.8836 62.1697 23.4543 62.5227 22.8909 62.7812C22.3308 63.0398 21.653 63.169 20.8575 63.169C20.0952 63.169 19.4356 63.0481 18.8788 62.8061C18.322 62.5642 17.8862 62.2211 17.5713 61.777C17.2564 61.3295 17.0824 60.7992 17.0493 60.1861H18.5905C18.6203 60.554 18.7396 60.8606 18.9484 61.1058C19.1606 61.3478 19.4307 61.5284 19.7588 61.6477C20.0902 61.7637 20.4532 61.8217 20.8476 61.8217C21.2818 61.8217 21.6679 61.7538 22.006 61.6179C22.3473 61.4787 22.6158 61.2865 22.8114 61.0412C23.0069 60.7926 23.1047 60.5026 23.1047 60.1712C23.1047 59.8696 23.0185 59.6226 22.8462 59.4304C22.6771 59.2382 22.4468 59.0791 22.1551 58.9531C21.8668 58.8272 21.5403 58.7161 21.1757 58.62L19.9726 58.2919C19.1572 58.0698 18.5109 57.7434 18.0337 57.3125C17.5597 56.8816 17.3227 56.3116 17.3227 55.6023C17.3227 55.0156 17.4818 54.5036 17.8 54.0661C18.1182 53.6286 18.549 53.2888 19.0926 53.0469C19.6362 52.8016 20.2493 52.679 20.9321 52.679C21.6215 52.679 22.2297 52.8 22.7567 53.0419C23.287 53.2839 23.7046 53.617 24.0095 54.0412C24.3144 54.4621 24.4735 54.946 24.4868 55.4929H23.0052Z" fill="#949599"/>
<path d="M37.0585 75.2685C35.6331 75.2685 34.3675 75.0288 33.2616 74.5494C32.1622 74.07 31.2993 73.4148 30.6729 72.5838C30.0528 71.7464 29.746 70.7972 29.7524 69.7362C29.746 68.9116 29.925 68.1541 30.2893 67.4638C30.6537 66.7734 31.1459 66.1982 31.7659 65.7379C32.3923 65.2713 33.0891 64.9741 33.8561 64.8462V64.712C32.8462 64.4883 32.028 63.9737 31.4016 63.1683C30.7815 62.3565 30.4747 61.4201 30.4811 60.359C30.4747 59.3491 30.756 58.4478 31.3249 57.6552C31.8937 56.8626 32.6736 56.2393 33.6643 55.7855C34.6551 55.3253 35.7865 55.0952 37.0585 55.0952C38.3177 55.0952 39.4396 55.3253 40.4239 55.7855C41.4147 56.2393 42.1945 56.8626 42.7634 57.6552C43.3387 58.4478 43.6263 59.3491 43.6263 60.359C43.6263 61.4201 43.3099 62.3565 42.6771 63.1683C42.0507 63.9737 41.2421 64.4883 40.2513 64.712V64.8462C41.0184 64.9741 41.7087 65.2713 42.3224 65.7379C42.9424 66.1982 43.4346 66.7734 43.7989 67.4638C44.1697 68.1541 44.355 68.9116 44.355 69.7362C44.355 70.7972 44.0418 71.7464 43.4154 72.5838C42.789 73.4148 41.9261 74.07 40.8266 74.5494C39.7336 75.0288 38.4776 75.2685 37.0585 75.2685ZM37.0585 72.5263C37.7936 72.5263 38.4328 72.4016 38.9761 72.1523C39.5195 71.8967 39.9413 71.5387 40.2418 71.0785C40.5422 70.6183 40.6956 70.0877 40.702 69.4869C40.6956 68.8604 40.5326 68.3075 40.213 67.8281C39.8998 67.3423 39.4683 66.962 38.9186 66.6871C38.3753 66.4123 37.7552 66.2749 37.0585 66.2749C36.3554 66.2749 35.729 66.4123 35.1793 66.6871C34.6295 66.962 34.1949 67.3423 33.8753 67.8281C33.5621 68.3075 33.4087 68.8604 33.4151 69.4869C33.4087 70.0877 33.5557 70.6183 33.8561 71.0785C34.1565 71.5323 34.5784 71.8871 35.1217 72.1428C35.6714 72.3984 36.317 72.5263 37.0585 72.5263ZM37.0585 63.5806C37.6594 63.5806 38.1899 63.4592 38.6501 63.2163C39.1168 62.9734 39.4843 62.6346 39.7528 62.1999C40.0212 61.7653 40.1587 61.2635 40.1651 60.6946C40.1587 60.1321 40.0244 59.6399 39.7624 59.218C39.5003 58.7898 39.1359 58.4606 38.6693 58.2305C38.2027 57.994 37.6658 57.8757 37.0585 57.8757C36.4385 57.8757 35.892 57.994 35.419 58.2305C34.9523 58.4606 34.588 58.7898 34.3259 59.218C34.0702 59.6399 33.9456 60.1321 33.952 60.6946C33.9456 61.2635 34.0734 61.7653 34.3355 62.1999C34.604 62.6282 34.9715 62.967 35.4381 63.2163C35.9111 63.4592 36.4513 63.5806 37.0585 63.5806ZM53.6853 75.3739C52.1064 75.3739 50.7513 74.9744 49.6199 74.1754C48.4949 73.37 47.6288 72.2099 47.0216 70.695C46.4207 69.1737 46.1203 67.3423 46.1203 65.201C46.1267 63.0597 46.4303 61.2379 47.0312 59.7358C47.6384 58.2273 48.5045 57.0767 49.6295 56.2841C50.7609 55.4915 52.1128 55.0952 53.6853 55.0952C55.2577 55.0952 56.6096 55.4915 57.741 56.2841C58.8724 57.0767 59.7385 58.2273 60.3394 59.7358C60.9466 61.2443 61.2503 63.0661 61.2503 65.201C61.2503 67.3487 60.9466 69.1832 60.3394 70.7045C59.7385 72.2195 58.8724 73.3764 57.741 74.1754C56.616 74.9744 55.2641 75.3739 53.6853 75.3739ZM53.6853 72.3729C54.9126 72.3729 55.8809 71.7688 56.5905 70.5607C57.3064 69.3462 57.6643 67.5597 57.6643 65.201C57.6643 63.6413 57.5013 62.331 57.1753 61.2699C56.8493 60.2088 56.3891 59.4098 55.7947 58.8729C55.2002 58.3295 54.4971 58.0579 53.6853 58.0579C52.4644 58.0579 51.4992 58.6651 50.7897 59.8796C50.0802 61.0877 49.7222 62.8615 49.7158 65.201C49.7094 66.767 49.866 68.0838 50.1856 69.1513C50.5116 70.2187 50.9719 71.0241 51.5663 71.5675C52.1608 72.1044 52.8671 72.3729 53.6853 72.3729ZM63.5477 55.3636H67.9006L73.7302 69.5923H73.9603L79.7899 55.3636H84.1428V75H80.7295V61.5096H80.5473L75.1205 74.9425H72.57L67.1432 61.4808H66.961V75H63.5477V55.3636Z" fill="#2B2C36"/>
<path d="M17.452 102V91.8182H18.9882V100.678H23.6018V102H17.452ZM26.8973 102.169C26.4134 102.169 25.9759 102.08 25.5848 101.901C25.1937 101.718 24.8838 101.455 24.6551 101.11C24.4297 100.765 24.3171 100.343 24.3171 99.8423C24.3171 99.4115 24.3999 99.0568 24.5656 98.7784C24.7314 98.5 24.9551 98.2796 25.2368 98.1172C25.5185 97.9548 25.8334 97.8321 26.1814 97.7493C26.5294 97.6664 26.8841 97.6035 27.2453 97.5604C27.7027 97.5073 28.0739 97.4643 28.359 97.4311C28.644 97.3946 28.8511 97.3366 28.9804 97.2571C29.1097 97.1776 29.1743 97.0483 29.1743 96.8693V96.8345C29.1743 96.4003 29.0517 96.0639 28.8064 95.8253C28.5644 95.5866 28.2032 95.4673 27.7226 95.4673C27.2221 95.4673 26.8277 95.5784 26.5394 95.8004C26.2543 96.0192 26.0571 96.2628 25.9477 96.5312L24.5507 96.2131C24.7164 95.7491 24.9584 95.3745 25.2766 95.0895C25.5981 94.8011 25.9676 94.5923 26.3852 94.4631C26.8028 94.3305 27.242 94.2642 27.7027 94.2642C28.0076 94.2642 28.3308 94.3007 28.6722 94.3736C29.0169 94.4432 29.3384 94.5724 29.6367 94.7614C29.9383 94.9503 30.1852 95.2204 30.3774 95.5717C30.5697 95.9197 30.6658 96.3722 30.6658 96.929V102H29.2141V100.956H29.1544C29.0583 101.148 28.9141 101.337 28.7219 101.523C28.5296 101.708 28.2827 101.862 27.9811 101.985C27.6795 102.108 27.3182 102.169 26.8973 102.169ZM27.2205 100.976C27.6314 100.976 27.9828 100.895 28.2744 100.732C28.5694 100.57 28.7931 100.358 28.9456 100.096C29.1014 99.8307 29.1793 99.5473 29.1793 99.2457V98.2614C29.1262 98.3144 29.0235 98.3641 28.871 98.4105C28.7219 98.4536 28.5512 98.4917 28.359 98.5249C28.1667 98.5547 27.9795 98.5829 27.7972 98.6094C27.6149 98.6326 27.4624 98.6525 27.3398 98.669C27.0514 98.7055 26.7879 98.7668 26.5493 98.853C26.314 98.9392 26.1251 99.0634 25.9825 99.2259C25.8433 99.3849 25.7737 99.5971 25.7737 99.8622C25.7737 100.23 25.9096 100.509 26.1814 100.697C26.4532 100.883 26.7995 100.976 27.2205 100.976ZM37.808 96.228L36.4607 96.4666C36.4044 96.2943 36.3149 96.1302 36.1922 95.9744C36.0729 95.8187 35.9105 95.6911 35.705 95.5916C35.4995 95.4922 35.2427 95.4425 34.9344 95.4425C34.5135 95.4425 34.1622 95.5369 33.8805 95.7259C33.5987 95.9115 33.4579 96.1518 33.4579 96.4467C33.4579 96.7019 33.5523 96.9074 33.7413 97.0632C33.9302 97.219 34.2351 97.3466 34.656 97.446L35.8691 97.7244C36.5717 97.8868 37.0954 98.1371 37.4401 98.4751C37.7848 98.8132 37.9572 99.2524 37.9572 99.7926C37.9572 100.25 37.8246 100.658 37.5594 101.016C37.2976 101.37 36.9314 101.649 36.4607 101.851C35.9934 102.053 35.4515 102.154 34.835 102.154C33.9799 102.154 33.2822 101.972 32.742 101.607C32.2017 101.239 31.8703 100.717 31.7476 100.041L33.1844 99.8224C33.2739 100.197 33.4579 100.48 33.7363 100.673C34.0147 100.862 34.3776 100.956 34.8251 100.956C35.3123 100.956 35.7017 100.855 35.9934 100.653C36.285 100.447 36.4309 100.197 36.4309 99.902C36.4309 99.6634 36.3414 99.4628 36.1624 99.3004C35.9868 99.138 35.7166 99.0154 35.352 98.9325L34.0594 98.6491C33.3468 98.4867 32.8198 98.2282 32.4785 97.8736C32.1404 97.5189 31.9714 97.0698 31.9714 96.5263C31.9714 96.0755 32.0973 95.6811 32.3492 95.343C32.6011 95.005 32.9491 94.7415 33.3932 94.5526C33.8374 94.3603 34.3461 94.2642 34.9195 94.2642C35.7448 94.2642 36.3944 94.4432 36.8684 94.8011C37.3423 95.1558 37.6556 95.6314 37.808 96.228ZM42.5962 94.3636V95.5568H38.425V94.3636H42.5962ZM39.5436 92.5341H41.0301V99.7578C41.0301 100.046 41.0732 100.263 41.1594 100.409C41.2456 100.552 41.3566 100.649 41.4925 100.702C41.6317 100.752 41.7825 100.777 41.9449 100.777C42.0642 100.777 42.1686 100.769 42.2581 100.752C42.3476 100.736 42.4172 100.722 42.4669 100.712L42.7354 101.94C42.6492 101.973 42.5266 102.007 42.3675 102.04C42.2084 102.076 42.0096 102.096 41.7709 102.099C41.3798 102.106 41.0152 102.036 40.6772 101.891C40.3391 101.745 40.0657 101.519 39.8569 101.214C39.648 100.91 39.5436 100.527 39.5436 100.066V92.5341ZM46.8057 102V100.886L50.2511 97.3168C50.619 96.929 50.9222 96.5893 51.1609 96.2976C51.4028 96.0026 51.5834 95.7225 51.7028 95.4574C51.8221 95.1922 51.8817 94.9105 51.8817 94.6122C51.8817 94.2741 51.8022 93.9825 51.6431 93.7372C51.484 93.4886 51.2669 93.2981 50.9918 93.1655C50.7167 93.0296 50.4068 92.9616 50.0621 92.9616C49.6976 92.9616 49.3794 93.0362 49.1076 93.1854C48.8358 93.3345 48.627 93.545 48.4812 93.8168C48.3353 94.0885 48.2624 94.4067 48.2624 94.7713H46.7958C46.7958 94.1515 46.9383 93.6096 47.2234 93.1456C47.5084 92.6816 47.8995 92.322 48.3967 92.0668C48.8938 91.8082 49.4589 91.679 50.092 91.679C50.7316 91.679 51.2951 91.8066 51.7823 92.0618C52.2728 92.3137 52.6557 92.6584 52.9307 93.0959C53.2058 93.5301 53.3434 94.0206 53.3434 94.5675C53.3434 94.9453 53.2721 95.3149 53.1296 95.6761C52.9904 96.0374 52.7468 96.4401 52.3988 96.8842C52.0508 97.325 51.5669 97.8603 50.9471 98.4901L48.9236 100.608V100.683H53.5075V102H46.8057ZM58.9363 104.864C58.7142 104.864 58.512 104.845 58.3297 104.809C58.1475 104.776 58.0116 104.739 57.9221 104.7L58.28 103.482C58.5518 103.554 58.7938 103.586 59.0059 103.576C59.218 103.566 59.4053 103.487 59.5677 103.337C59.7334 103.188 59.8792 102.945 60.0052 102.607L60.1891 102.099L57.3951 94.3636H58.986L60.9199 100.29H60.9995L62.9334 94.3636H64.5293L61.3823 103.019C61.2365 103.417 61.0509 103.753 60.8255 104.028C60.6001 104.307 60.3316 104.516 60.0201 104.655C59.7085 104.794 59.3473 104.864 58.9363 104.864ZM68.3978 102.154C67.6454 102.154 66.9974 101.993 66.4539 101.672C65.9136 101.347 65.496 100.891 65.201 100.305C64.9094 99.7147 64.7635 99.0237 64.7635 98.2315C64.7635 97.4493 64.9094 96.7599 65.201 96.1634C65.496 95.5668 65.907 95.1011 66.434 94.7663C66.9643 94.4316 67.5841 94.2642 68.2934 94.2642C68.7242 94.2642 69.1418 94.3355 69.5462 94.478C69.9506 94.6205 70.3135 94.8442 70.635 95.1491C70.9565 95.4541 71.21 95.8501 71.3956 96.3374C71.5812 96.8213 71.674 97.4096 71.674 98.1023V98.6293H65.6037V97.5156H70.2174C70.2174 97.1245 70.1378 96.7782 69.9787 96.4766C69.8196 96.1716 69.5959 95.9313 69.3076 95.7557C69.0225 95.58 68.6878 95.4922 68.3033 95.4922C67.8857 95.4922 67.5211 95.5949 67.2096 95.8004C66.9013 96.0026 66.6627 96.2678 66.4936 96.5959C66.3279 96.9207 66.2451 97.2737 66.2451 97.6548V98.5249C66.2451 99.0353 66.3346 99.4695 66.5135 99.8274C66.6958 100.185 66.9494 100.459 67.2742 100.648C67.599 100.833 67.9785 100.926 68.4127 100.926C68.6944 100.926 68.9513 100.886 69.1833 100.807C69.4153 100.724 69.6158 100.601 69.7848 100.439C69.9539 100.277 70.0831 100.076 70.1726 99.8374L71.5796 100.091C71.4669 100.505 71.2647 100.868 70.973 101.18C70.6847 101.488 70.3218 101.728 69.8843 101.901C69.4501 102.07 68.9546 102.154 68.3978 102.154ZM74.9857 102.169C74.5018 102.169 74.0643 102.08 73.6732 101.901C73.2821 101.718 72.9722 101.455 72.7435 101.11C72.5181 100.765 72.4054 100.343 72.4054 99.8423C72.4054 99.4115 72.4883 99.0568 72.654 98.7784C72.8197 98.5 73.0434 98.2796 73.3252 98.1172C73.6069 97.9548 73.9217 97.8321 74.2698 97.7493C74.6178 97.6664 74.9724 97.6035 75.3337 97.5604C75.7911 97.5073 76.1623 97.4643 76.4473 97.4311C76.7324 97.3946 76.9395 97.3366 77.0688 97.2571C77.198 97.1776 77.2627 97.0483 77.2627 96.8693V96.8345C77.2627 96.4003 77.14 96.0639 76.8948 95.8253C76.6528 95.5866 76.2915 95.4673 75.811 95.4673C75.3105 95.4673 74.9161 95.5784 74.6277 95.8004C74.3427 96.0192 74.1455 96.2628 74.0361 96.5312L72.6391 96.2131C72.8048 95.7491 73.0467 95.3745 73.3649 95.0895C73.6864 94.8011 74.056 94.5923 74.4736 94.4631C74.8912 94.3305 75.3304 94.2642 75.7911 94.2642C76.096 94.2642 76.4191 94.3007 76.7605 94.3736C77.1052 94.4432 77.4267 94.5724 77.725 94.7614C78.0266 94.9503 78.2735 95.2204 78.4658 95.5717C78.658 95.9197 78.7541 96.3722 78.7541 96.929V102H77.3024V100.956H77.2428C77.1467 101.148 77.0025 101.337 76.8102 101.523C76.618 101.708 76.3711 101.862 76.0695 101.985C75.7679 102.108 75.4066 102.169 74.9857 102.169ZM75.3088 100.976C75.7198 100.976 76.0711 100.895 76.3628 100.732C76.6578 100.57 76.8815 100.358 77.034 100.096C77.1897 99.8307 77.2676 99.5473 77.2676 99.2457V98.2614C77.2146 98.3144 77.1119 98.3641 76.9594 98.4105C76.8102 98.4536 76.6395 98.4917 76.4473 98.5249C76.2551 98.5547 76.0678 98.5829 75.8855 98.6094C75.7032 98.6326 75.5508 98.6525 75.4281 98.669C75.1398 98.7055 74.8763 98.7668 74.6377 98.853C74.4023 98.9392 74.2134 99.0634 74.0709 99.2259C73.9317 99.3849 73.8621 99.5971 73.8621 99.8622C73.8621 100.23 73.998 100.509 74.2698 100.697C74.5415 100.883 74.8879 100.976 75.3088 100.976ZM80.1741 102V94.3636H81.6109V95.5767H81.6904C81.8296 95.1657 82.0749 94.8426 82.4262 94.6072C82.7808 94.3686 83.1819 94.2493 83.6293 94.2493C83.7221 94.2493 83.8315 94.2526 83.9575 94.2592C84.0867 94.2659 84.1878 94.2741 84.2607 94.2841V95.706C84.2011 95.6894 84.095 95.6712 83.9425 95.6513C83.7901 95.6281 83.6376 95.6165 83.4852 95.6165C83.1338 95.6165 82.8206 95.6911 82.5455 95.8402C82.2737 95.986 82.0583 96.1899 81.8992 96.4517C81.7401 96.7102 81.6606 97.0052 81.6606 97.3366V102H80.1741ZM90.7094 96.228L89.3621 96.4666C89.3058 96.2943 89.2163 96.1302 89.0936 95.9744C88.9743 95.8187 88.8119 95.6911 88.6064 95.5916C88.4009 95.4922 88.1441 95.4425 87.8358 95.4425C87.4149 95.4425 87.0636 95.5369 86.7819 95.7259C86.5001 95.9115 86.3593 96.1518 86.3593 96.4467C86.3593 96.7019 86.4537 96.9074 86.6427 97.0632C86.8316 97.219 87.1365 97.3466 87.5574 97.446L88.7705 97.7244C89.4731 97.8868 89.9968 98.1371 90.3415 98.4751C90.6862 98.8132 90.8586 99.2524 90.8586 99.7926C90.8586 100.25 90.726 100.658 90.4608 101.016C90.199 101.37 89.8328 101.649 89.3621 101.851C88.8948 102.053 88.3529 102.154 87.7364 102.154C86.8813 102.154 86.1836 101.972 85.6434 101.607C85.1031 101.239 84.7717 100.717 84.649 100.041L86.0858 99.8224C86.1753 100.197 86.3593 100.48 86.6377 100.673C86.9161 100.862 87.279 100.956 87.7265 100.956C88.2137 100.956 88.6031 100.855 88.8948 100.653C89.1865 100.447 89.3323 100.197 89.3323 99.902C89.3323 99.6634 89.2428 99.4628 89.0638 99.3004C88.8882 99.138 88.618 99.0154 88.2534 98.9325L86.9608 98.6491C86.2482 98.4867 85.7213 98.2282 85.3799 97.8736C85.0418 97.5189 84.8728 97.0698 84.8728 96.5263C84.8728 96.0755 84.9987 95.6811 85.2506 95.343C85.5025 95.005 85.8505 94.7415 86.2946 94.5526C86.7388 94.3603 87.2475 94.2642 87.8209 94.2642C88.6462 94.2642 89.2958 94.4432 89.7698 94.8011C90.2437 95.1558 90.557 95.6314 90.7094 96.228Z" fill="#949599"/>
<g clip-path="url(#clip0_53_3349)">
<path d="M24.7922 263.727V271H23.6913V264.828H23.6487L21.9087 265.964V264.913L23.7233 263.727H24.7922ZM28.8915 271.121C28.3304 271.118 27.851 270.97 27.4533 270.677C27.0555 270.383 26.7513 269.956 26.5406 269.395C26.3299 268.834 26.2246 268.158 26.2246 267.367C26.2246 266.579 26.3299 265.905 26.5406 265.347C26.7537 264.788 27.0591 264.362 27.4568 264.068C27.8569 263.775 28.3351 263.628 28.8915 263.628C29.4478 263.628 29.9249 263.776 30.3226 264.072C30.7203 264.365 31.0245 264.791 31.2352 265.35C31.4483 265.906 31.5548 266.579 31.5548 267.367C31.5548 268.16 31.4495 268.837 31.2388 269.398C31.0281 269.957 30.7239 270.384 30.3261 270.68C29.9284 270.974 29.4502 271.121 28.8915 271.121ZM28.8915 270.173C29.3839 270.173 29.7686 269.932 30.0456 269.452C30.3249 268.971 30.4646 268.276 30.4646 267.367C30.4646 266.763 30.4007 266.253 30.2729 265.837C30.1474 265.418 29.9663 265.1 29.7295 264.885C29.4952 264.667 29.2158 264.558 28.8915 264.558C28.4014 264.558 28.0167 264.8 27.7374 265.283C27.458 265.766 27.3171 266.46 27.3148 267.367C27.3148 267.973 27.3775 268.486 27.503 268.905C27.6308 269.321 27.8119 269.638 28.0463 269.853C28.2807 270.066 28.5624 270.173 28.8915 270.173Z" fill="#B7B7BA"/>
<g clip-path="url(#clip1_53_3349)">
<path d="M16.3334 121V278" stroke="#F4F6FA"/>
<path d="M46.6667 121V278" stroke="#F4F6FA"/>
<path d="M77.0001 121V278" stroke="#F4F6FA"/>
<path d="M107.333 121V278" stroke="#F4F6FA"/>
<path d="M137.667 121V278" stroke="#F4F6FA"/>
<path d="M168 121V278" stroke="#F4F6FA"/>
<path d="M198.333 121V278" stroke="#F4F6FA"/>
<path d="M228.667 121V278" stroke="#F4F6FA"/>
<path d="M259 121V278" stroke="#F4F6FA"/>
<path d="M289.333 121V278" stroke="#F4F6FA"/>
<path d="M289.667 121L16.6667 121" stroke="#F4F6FA"/>
<path d="M289.667 152.4L16.6667 152.4" stroke="#F4F6FA"/>
<path d="M289.667 183.8L16.6667 183.8" stroke="#F4F6FA"/>
<path d="M289.667 215.2L16.6667 215.2" stroke="#F4F6FA"/>
<path d="M289.667 246.6L16.6667 246.6" stroke="#F4F6FA"/>
<path d="M289.667 278L16.6667 278" stroke="#F4F6FA"/>
</g>
<rect x="16.8334" y="121.5" width="272.333" height="156" rx="3.5" stroke="#EFF1F5"/>
<path d="M16.3334 278L46.8334 246.5L55.3334 236L62.3334 232L70.3334 238L76.8334 215.5L86.8334 205L93.3334 206L101.333 201L107.333 215.5L115.333 206L122.333 209L130.333 202L137.833 184L146.833 174.5L153.833 179.5L161.333 174.5L167.833 184L176.333 192.5L183.833 201L193.333 205L198.333 194.5L206.333 191L211.833 199L221.333 202L228.833 194.5L234.833 191L244.333 188.5L251.833 194.5L258.833 191L265.333 194.5L274.833 202L282.833 194.5L289.333 183.5" stroke="#28A697" stroke-width="2"/>
<circle cx="70.3334" cy="237" r="2.5" fill="white" stroke="#28A697"/>
<circle cx="54.3334" cy="237" r="2.5" fill="white" stroke="#28A697"/>
<circle cx="77.3334" cy="215" r="2.5" fill="white" stroke="#28A697"/>
<circle cx="101.333" cy="202" r="2.5" fill="white" stroke="#28A697"/>
<circle cx="87.3334" cy="206" r="2.5" fill="white" stroke="#28A697"/>
<circle cx="107.333" cy="215" r="2.5" fill="white" stroke="#28A697"/>
<circle cx="122.333" cy="209" r="2.5" fill="white" stroke="#28A697"/>
<circle cx="137.833" cy="184.5" r="2.57143" fill="white" stroke="#28A697" stroke-width="0.857143"/>
<circle cx="153.833" cy="178.5" r="2.57143" fill="white" stroke="#28A697" stroke-width="0.857143"/>
<circle cx="168.833" cy="184.5" r="2.57143" fill="white" stroke="#28A697" stroke-width="0.857143"/>
<circle cx="182.833" cy="200.5" r="2.57143" fill="white" stroke="#28A697" stroke-width="0.857143"/>
<circle cx="182.833" cy="200.5" r="2.57143" fill="white" stroke="#28A697" stroke-width="0.857143"/>
<circle cx="198.833" cy="194.5" r="2.57143" fill="white" stroke="#28A697" stroke-width="0.857143"/>
<circle cx="211.833" cy="198.5" r="2.57143" fill="white" stroke="#28A697" stroke-width="0.857143"/>
<circle cx="228.833" cy="195.5" r="2.57143" fill="white" stroke="#28A697" stroke-width="0.857143"/>
<circle cx="244.333" cy="189" r="2.63265" fill="white" stroke="#28A697" stroke-width="0.734694"/>
<circle cx="258.833" cy="191.5" r="2.63265" fill="white" stroke="#28A697" stroke-width="0.734694"/>
<circle cx="275.333" cy="201" r="2.63265" fill="white" stroke="#28A697" stroke-width="0.734694"/>
<circle cx="287.833" cy="184.5" r="2.63265" fill="white" stroke="#28A697" stroke-width="0.734694"/>
<path d="M24.7922 139.727V147H23.6913V140.828H23.6487L21.9087 141.964V140.913L23.7233 139.727H24.7922ZM28.8915 147.121C28.3304 147.118 27.851 146.97 27.4533 146.677C27.0555 146.383 26.7513 145.956 26.5406 145.395C26.3299 144.834 26.2246 144.158 26.2246 143.367C26.2246 142.579 26.3299 141.905 26.5406 141.347C26.7537 140.788 27.0591 140.362 27.4568 140.068C27.8569 139.775 28.3351 139.628 28.8915 139.628C29.4478 139.628 29.9249 139.776 30.3226 140.072C30.7203 140.365 31.0245 140.791 31.2352 141.35C31.4483 141.906 31.5548 142.579 31.5548 143.367C31.5548 144.16 31.4495 144.837 31.2388 145.398C31.0281 145.957 30.7239 146.384 30.3261 146.68C29.9284 146.974 29.4502 147.121 28.8915 147.121ZM28.8915 146.173C29.3839 146.173 29.7686 145.932 30.0456 145.452C30.3249 144.971 30.4646 144.276 30.4646 143.367C30.4646 142.763 30.4007 142.253 30.2729 141.837C30.1474 141.418 29.9663 141.1 29.7295 140.885C29.4952 140.667 29.2158 140.558 28.8915 140.558C28.4014 140.558 28.0167 140.8 27.7374 141.283C27.458 141.766 27.3171 142.46 27.3148 143.367C27.3148 143.973 27.3775 144.486 27.503 144.905C27.6308 145.321 27.8119 145.638 28.0463 145.853C28.2807 146.066 28.5624 146.173 28.8915 146.173ZM34.9465 147.121C34.3855 147.118 33.9061 146.97 33.5083 146.677C33.1106 146.383 32.8064 145.956 32.5957 145.395C32.385 144.834 32.2796 144.158 32.2796 143.367C32.2796 142.579 32.385 141.905 32.5957 141.347C32.8088 140.788 33.1142 140.362 33.5119 140.068C33.912 139.775 34.3902 139.628 34.9465 139.628C35.5029 139.628 35.9799 139.776 36.3777 140.072C36.7754 140.365 37.0796 140.791 37.2903 141.35C37.5034 141.906 37.6099 142.579 37.6099 143.367C37.6099 144.16 37.5046 144.837 37.2939 145.398C37.0831 145.957 36.7789 146.384 36.3812 146.68C35.9835 146.974 35.5053 147.121 34.9465 147.121ZM34.9465 146.173C35.439 146.173 35.8237 145.932 36.1007 145.452C36.38 144.971 36.5197 144.276 36.5197 143.367C36.5197 142.763 36.4558 142.253 36.3279 141.837C36.2025 141.418 36.0214 141.1 35.7846 140.885C35.5502 140.667 35.2709 140.558 34.9465 140.558C34.4565 140.558 34.0718 140.8 33.7924 141.283C33.5131 141.766 33.3722 142.46 33.3698 143.367C33.3698 143.973 33.4326 144.486 33.5581 144.905C33.6859 145.321 33.867 145.638 34.1014 145.853C34.3358 146.066 34.6175 146.173 34.9465 146.173Z" fill="#B7B7BA"/>
<path d="M24.4903 178.099C23.9813 178.099 23.5315 178.012 23.1409 177.837C22.7526 177.661 22.4484 177.42 22.2283 177.112C22.0081 176.804 21.8992 176.454 21.9016 176.061C21.8992 175.753 21.9619 175.47 22.0898 175.212C22.22 174.952 22.3963 174.735 22.6189 174.562C22.8414 174.387 23.09 174.276 23.3646 174.229V174.186C23.0024 174.098 22.7124 173.904 22.4946 173.604C22.2768 173.303 22.1691 172.957 22.1714 172.567C22.1691 172.195 22.2673 171.864 22.4662 171.572C22.6674 171.279 22.9432 171.048 23.2936 170.88C23.644 170.712 24.0429 170.628 24.4903 170.628C24.933 170.628 25.3284 170.713 25.6764 170.884C26.0268 171.052 26.3026 171.282 26.5038 171.576C26.7051 171.867 26.8069 172.197 26.8092 172.567C26.8069 172.957 26.6956 173.303 26.4754 173.604C26.2552 173.904 25.9688 174.098 25.616 174.186V174.229C25.8883 174.276 26.1333 174.387 26.3511 174.562C26.5713 174.735 26.7465 174.952 26.8767 175.212C27.0093 175.47 27.0767 175.753 27.0791 176.061C27.0767 176.454 26.9655 176.804 26.7453 177.112C26.5251 177.42 26.2197 177.661 25.8291 177.837C25.4409 178.012 24.9946 178.099 24.4903 178.099ZM24.4903 177.201C24.791 177.201 25.0514 177.151 25.2716 177.052C25.4918 176.95 25.6622 176.809 25.7829 176.629C25.9037 176.447 25.9652 176.234 25.9676 175.99C25.9652 175.737 25.899 175.513 25.7687 175.319C25.6409 175.125 25.4669 174.972 25.2467 174.861C25.0266 174.75 24.7744 174.694 24.4903 174.694C24.2039 174.694 23.9494 174.75 23.7268 174.861C23.5043 174.972 23.3291 175.125 23.2013 175.319C23.0734 175.513 23.0107 175.737 23.0131 175.99C23.0107 176.234 23.0687 176.447 23.1871 176.629C23.3078 176.809 23.4794 176.95 23.702 177.052C23.9245 177.151 24.1873 177.201 24.4903 177.201ZM24.4903 173.817C24.7318 173.817 24.9461 173.768 25.1331 173.671C25.3201 173.574 25.4669 173.439 25.5734 173.266C25.6823 173.094 25.738 172.891 25.7403 172.659C25.738 172.432 25.6835 172.233 25.577 172.062C25.4728 171.892 25.3272 171.761 25.1402 171.668C24.9532 171.574 24.7365 171.526 24.4903 171.526C24.2394 171.526 24.0192 171.574 23.8298 171.668C23.6428 171.761 23.4972 171.892 23.393 172.062C23.2889 172.233 23.238 172.432 23.2403 172.659C23.238 172.891 23.2901 173.094 23.3966 173.266C23.5031 173.439 23.6499 173.574 23.8369 173.671C24.0263 173.768 24.2441 173.817 24.4903 173.817ZM30.4833 178.121C29.9222 178.118 29.4428 177.97 29.0451 177.677C28.6473 177.383 28.3431 176.956 28.1324 176.395C27.9217 175.834 27.8164 175.158 27.8164 174.367C27.8164 173.579 27.9217 172.905 28.1324 172.347C28.3455 171.788 28.6509 171.362 29.0486 171.068C29.4487 170.775 29.9269 170.628 30.4833 170.628C31.0396 170.628 31.5166 170.776 31.9144 171.072C32.3121 171.365 32.6163 171.791 32.827 172.35C33.0401 172.906 33.1466 173.579 33.1466 174.367C33.1466 175.16 33.0413 175.837 32.8306 176.398C32.6199 176.957 32.3157 177.384 31.9179 177.68C31.5202 177.974 31.042 178.121 30.4833 178.121ZM30.4833 177.173C30.9757 177.173 31.3604 176.932 31.6374 176.452C31.9167 175.971 32.0564 175.276 32.0564 174.367C32.0564 173.763 31.9925 173.253 31.8647 172.837C31.7392 172.418 31.5581 172.1 31.3213 171.885C31.087 171.667 30.8076 171.558 30.4833 171.558C29.9932 171.558 29.6085 171.8 29.3291 172.283C29.0498 172.766 28.9089 173.46 28.9066 174.367C28.9066 174.973 28.9693 175.486 29.0948 175.905C29.2226 176.321 29.4037 176.638 29.6381 176.853C29.8725 177.066 30.1542 177.173 30.4833 177.173Z" fill="#B7B7BA"/>
<path d="M24.572 209.099C24.2477 209.095 23.9281 209.036 23.6132 208.922C23.3007 208.808 23.0166 208.619 22.7609 208.354C22.5052 208.089 22.3005 207.732 22.1466 207.285C21.9951 206.837 21.9193 206.279 21.9193 205.609C21.9193 204.974 21.982 204.411 22.1075 203.918C22.2354 203.426 22.4188 203.01 22.6579 202.672C22.8971 202.331 23.1859 202.072 23.5244 201.894C23.863 201.717 24.2429 201.628 24.6643 201.628C25.0976 201.628 25.4823 201.713 25.8185 201.884C26.1546 202.054 26.4269 202.29 26.6352 202.59C26.8459 202.891 26.9797 203.233 27.0365 203.616H25.9534C25.88 203.313 25.7344 203.066 25.5166 202.874C25.2988 202.683 25.0147 202.587 24.6643 202.587C24.1317 202.587 23.7162 202.819 23.4179 203.283C23.122 203.747 22.9728 204.392 22.9704 205.218H23.0237C23.1492 205.012 23.3031 204.837 23.4854 204.692C23.67 204.546 23.876 204.433 24.1033 204.355C24.3329 204.275 24.5744 204.234 24.8277 204.234C25.2491 204.234 25.6302 204.337 25.9712 204.543C26.3144 204.747 26.5879 205.029 26.7915 205.388C26.9951 205.748 27.0969 206.16 27.0969 206.624C27.0969 207.088 26.9915 207.509 26.7808 207.885C26.5725 208.261 26.2789 208.56 25.9001 208.78C25.5213 208.998 25.0786 209.104 24.572 209.099ZM24.5685 208.176C24.8478 208.176 25.0976 208.107 25.3177 207.97C25.5379 207.833 25.7119 207.648 25.8398 207.416C25.9676 207.184 26.0315 206.925 26.0315 206.638C26.0315 206.359 25.9688 206.105 25.8433 205.875C25.7202 205.645 25.5498 205.463 25.332 205.328C25.1165 205.193 24.8703 205.126 24.5933 205.126C24.3826 205.126 24.1873 205.166 24.0074 205.246C23.8298 205.327 23.6736 205.438 23.5386 205.58C23.4037 205.722 23.2972 205.886 23.219 206.07C23.1433 206.253 23.1054 206.446 23.1054 206.649C23.1054 206.921 23.1681 207.174 23.2936 207.406C23.4214 207.638 23.5954 207.825 23.8156 207.967C24.0382 208.106 24.2891 208.176 24.5685 208.176ZM30.5223 209.121C29.9613 209.118 29.4818 208.97 29.0841 208.677C28.6864 208.383 28.3822 207.956 28.1715 207.395C27.9608 206.834 27.8554 206.158 27.8554 205.367C27.8554 204.579 27.9608 203.905 28.1715 203.347C28.3845 202.788 28.6899 202.362 29.0877 202.068C29.4878 201.775 29.966 201.628 30.5223 201.628C31.0787 201.628 31.5557 201.776 31.9534 202.072C32.3512 202.365 32.6554 202.791 32.8661 203.35C33.0791 203.906 33.1857 204.579 33.1857 205.367C33.1857 206.16 33.0803 206.837 32.8696 207.398C32.6589 207.957 32.3547 208.384 31.957 208.68C31.5593 208.974 31.081 209.121 30.5223 209.121ZM30.5223 208.173C31.0148 208.173 31.3995 207.932 31.6764 207.452C31.9558 206.971 32.0955 206.276 32.0955 205.367C32.0955 204.763 32.0316 204.253 31.9037 203.837C31.7782 203.418 31.5971 203.1 31.3604 202.885C31.126 202.667 30.8467 202.558 30.5223 202.558C30.0323 202.558 29.6476 202.8 29.3682 203.283C29.0889 203.766 28.948 204.46 28.9456 205.367C28.9456 205.973 29.0084 206.486 29.1338 206.905C29.2617 207.321 29.4428 207.638 29.6772 207.853C29.9115 208.066 30.1933 208.173 30.5223 208.173Z" fill="#B7B7BA"/>
<path d="M21.8802 238.58V237.692L25.023 232.727H25.7226V234.034H25.2787L23.0308 237.592V237.649H27.3383V238.58H21.8802ZM25.3284 240V238.31L25.3355 237.905V232.727H26.376V240H25.3284ZM30.7079 240.121C30.1468 240.118 29.6674 239.97 29.2697 239.677C28.8719 239.383 28.5677 238.956 28.357 238.395C28.1463 237.834 28.041 237.158 28.041 236.367C28.041 235.579 28.1463 234.905 28.357 234.347C28.5701 233.788 28.8755 233.362 29.2732 233.068C29.6733 232.775 30.1515 232.628 30.7079 232.628C31.2642 232.628 31.7413 232.776 32.139 233.072C32.5367 233.365 32.8409 233.791 33.0516 234.35C33.2647 234.906 33.3712 235.579 33.3712 236.367C33.3712 237.16 33.2659 237.837 33.0552 238.398C32.8445 238.957 32.5403 239.384 32.1425 239.68C31.7448 239.974 31.2666 240.121 30.7079 240.121ZM30.7079 239.173C31.2003 239.173 31.585 238.932 31.862 238.452C32.1414 237.971 32.281 237.276 32.281 236.367C32.281 235.763 32.2171 235.253 32.0893 234.837C31.9638 234.418 31.7827 234.1 31.5459 233.885C31.3116 233.667 31.0322 233.558 30.7079 233.558C30.2178 233.558 29.8331 233.8 29.5538 234.283C29.2744 234.766 29.1335 235.46 29.1312 236.367C29.1312 236.973 29.1939 237.486 29.3194 237.905C29.4472 238.321 29.6283 238.638 29.8627 238.853C30.0971 239.066 30.3788 239.173 30.7079 239.173Z" fill="#B7B7BA"/>
</g>
<path d="M32.8663 284.727V292H31.7654V285.828H31.7228L29.9828 286.964V285.913L31.7974 284.727H32.8663Z" fill="#B7B7BA"/>
<path d="M60.2552 292V291.205L62.7161 288.655C62.9789 288.378 63.1955 288.135 63.366 287.927C63.5388 287.716 63.6678 287.516 63.753 287.327C63.8383 287.137 63.8809 286.936 63.8809 286.723C63.8809 286.482 63.8241 286.273 63.7104 286.098C63.5968 285.92 63.4417 285.784 63.2452 285.69C63.0487 285.593 62.8274 285.544 62.5812 285.544C62.3208 285.544 62.0935 285.597 61.8994 285.704C61.7052 285.81 61.5561 285.961 61.4519 286.155C61.3477 286.349 61.2957 286.576 61.2957 286.837H60.2481C60.2481 286.394 60.3499 286.007 60.5535 285.675C60.7571 285.344 61.0364 285.087 61.3915 284.905C61.7467 284.72 62.1503 284.628 62.6025 284.628C63.0594 284.628 63.4619 284.719 63.8099 284.901C64.1602 285.081 64.4337 285.327 64.6302 285.64C64.8267 285.95 64.9249 286.3 64.9249 286.691C64.9249 286.961 64.874 287.225 64.7722 287.483C64.6728 287.741 64.4988 288.029 64.2502 288.346C64.0016 288.661 63.656 289.043 63.2133 289.493L61.768 291.006V291.059H65.0421V292H60.2552Z" fill="#B7B7BA"/>
<path d="M93.9353 292.099C93.4476 292.099 93.012 292.015 92.6285 291.847C92.2473 291.679 91.9454 291.446 91.7229 291.148C91.5027 290.847 91.3844 290.499 91.3678 290.104H92.4829C92.4971 290.319 92.5693 290.506 92.6995 290.665C92.832 290.821 93.0049 290.942 93.2179 291.027C93.431 291.112 93.6678 291.155 93.9282 291.155C94.2146 291.155 94.4679 291.105 94.6881 291.006C94.9106 290.906 95.0847 290.768 95.2101 290.59C95.3356 290.41 95.3983 290.203 95.3983 289.969C95.3983 289.725 95.3356 289.511 95.2101 289.326C95.087 289.139 94.9059 288.992 94.6668 288.886C94.4301 288.779 94.1436 288.726 93.8074 288.726H93.1931V287.831H93.8074C94.0773 287.831 94.3141 287.782 94.5177 287.685C94.7236 287.588 94.8846 287.453 95.0006 287.281C95.1166 287.105 95.1746 286.901 95.1746 286.666C95.1746 286.441 95.1237 286.246 95.0219 286.08C94.9225 285.912 94.7804 285.781 94.5958 285.686C94.4135 285.591 94.1981 285.544 93.9495 285.544C93.7127 285.544 93.4914 285.588 93.2854 285.675C93.0818 285.761 92.9161 285.884 92.7883 286.045C92.6604 286.203 92.5918 286.394 92.5823 286.616H91.5205C91.5323 286.223 91.6483 285.878 91.8685 285.58C92.091 285.281 92.3846 285.048 92.7492 284.88C93.1138 284.712 93.5186 284.628 93.9637 284.628C94.4301 284.628 94.8325 284.719 95.1711 284.901C95.512 285.081 95.7748 285.321 95.9594 285.622C96.1464 285.923 96.2388 286.252 96.2364 286.609C96.2388 287.017 96.1251 287.362 95.8955 287.646C95.6682 287.93 95.3652 288.121 94.9864 288.218V288.275C95.4694 288.348 95.8434 288.54 96.1086 288.85C96.3761 289.16 96.5087 289.545 96.5063 290.004C96.5087 290.404 96.3974 290.763 96.1725 291.08C95.9499 291.397 95.6457 291.647 95.2598 291.83C94.874 292.009 94.4324 292.099 93.9353 292.099Z" fill="#B7B7BA"/>
<path d="M122.399 290.58V289.692L125.542 284.727H126.241V286.034H125.797L123.549 289.592V289.649H127.857V290.58H122.399ZM125.847 292V290.31L125.854 289.905V284.727H126.895V292H125.847Z" fill="#B7B7BA"/>
<path d="M156.1 292.099C155.655 292.099 155.255 292.014 154.9 291.844C154.547 291.671 154.265 291.434 154.055 291.134C153.844 290.833 153.732 290.49 153.717 290.104H154.783C154.809 290.416 154.947 290.673 155.198 290.874C155.449 291.076 155.75 291.176 156.1 291.176C156.38 291.176 156.627 291.112 156.842 290.984C157.06 290.854 157.231 290.675 157.354 290.448C157.479 290.221 157.542 289.962 157.542 289.67C157.542 289.375 157.478 289.111 157.35 288.879C157.222 288.647 157.046 288.464 156.821 288.332C156.599 288.199 156.343 288.132 156.054 288.129C155.834 288.129 155.613 288.167 155.39 288.243C155.167 288.319 154.988 288.418 154.85 288.541L153.845 288.392L154.254 284.727H158.252V285.668H155.166L154.935 287.703H154.978C155.12 287.566 155.308 287.451 155.543 287.359C155.779 287.266 156.033 287.22 156.303 287.22C156.745 287.22 157.14 287.326 157.485 287.536C157.833 287.747 158.107 288.035 158.305 288.399C158.507 288.761 158.606 289.178 158.604 289.649C158.606 290.12 158.5 290.54 158.284 290.91C158.071 291.279 157.775 291.57 157.396 291.783C157.02 291.994 156.588 292.099 156.1 292.099Z" fill="#B7B7BA"/>
<path d="M187.387 292.099C187.062 292.095 186.743 292.036 186.428 291.922C186.116 291.808 185.831 291.619 185.576 291.354C185.32 291.089 185.115 290.732 184.961 290.285C184.81 289.837 184.734 289.279 184.734 288.609C184.734 287.974 184.797 287.411 184.922 286.918C185.05 286.426 185.234 286.01 185.473 285.672C185.712 285.331 186.001 285.072 186.339 284.894C186.678 284.717 187.058 284.628 187.479 284.628C187.912 284.628 188.297 284.713 188.633 284.884C188.969 285.054 189.242 285.29 189.45 285.59C189.661 285.891 189.795 286.233 189.851 286.616H188.768C188.695 286.313 188.549 286.066 188.331 285.874C188.114 285.683 187.83 285.587 187.479 285.587C186.946 285.587 186.531 285.819 186.233 286.283C185.937 286.747 185.788 287.392 185.785 288.218H185.839C185.964 288.012 186.118 287.837 186.3 287.692C186.485 287.546 186.691 287.433 186.918 287.355C187.148 287.275 187.389 287.234 187.643 287.234C188.064 287.234 188.445 287.337 188.786 287.543C189.129 287.747 189.403 288.029 189.606 288.388C189.81 288.748 189.912 289.16 189.912 289.624C189.912 290.088 189.806 290.509 189.596 290.885C189.387 291.261 189.094 291.56 188.715 291.78C188.336 291.998 187.893 292.104 187.387 292.099ZM187.383 291.176C187.663 291.176 187.912 291.107 188.133 290.97C188.353 290.833 188.527 290.648 188.655 290.416C188.782 290.184 188.846 289.925 188.846 289.638C188.846 289.359 188.784 289.105 188.658 288.875C188.535 288.645 188.365 288.463 188.147 288.328C187.931 288.193 187.685 288.126 187.408 288.126C187.197 288.126 187.002 288.166 186.822 288.246C186.645 288.327 186.488 288.438 186.353 288.58C186.219 288.722 186.112 288.886 186.034 289.07C185.958 289.253 185.92 289.446 185.92 289.649C185.92 289.921 185.983 290.174 186.108 290.406C186.236 290.638 186.41 290.825 186.63 290.967C186.853 291.106 187.104 291.176 187.383 291.176Z" fill="#B7B7BA"/>
<path d="M216.741 292L219.916 285.722V285.668H216.244V284.727H221.052V285.7L217.888 292H216.741Z" fill="#B7B7BA"/>
<path d="M249.601 292.099C249.092 292.099 248.643 292.012 248.252 291.837C247.864 291.661 247.56 291.42 247.339 291.112C247.119 290.804 247.01 290.454 247.013 290.061C247.01 289.753 247.073 289.47 247.201 289.212C247.331 288.952 247.507 288.735 247.73 288.562C247.953 288.387 248.201 288.276 248.476 288.229V288.186C248.113 288.098 247.823 287.904 247.606 287.604C247.388 287.303 247.28 286.957 247.283 286.567C247.28 286.195 247.378 285.864 247.577 285.572C247.779 285.279 248.054 285.048 248.405 284.88C248.755 284.712 249.154 284.628 249.601 284.628C250.044 284.628 250.439 284.713 250.787 284.884C251.138 285.052 251.414 285.282 251.615 285.576C251.816 285.867 251.918 286.197 251.92 286.567C251.918 286.957 251.807 287.303 251.587 287.604C251.366 287.904 251.08 288.098 250.727 288.186V288.229C250.999 288.276 251.244 288.387 251.462 288.562C251.682 288.735 251.858 288.952 251.988 289.212C252.12 289.47 252.188 289.753 252.19 290.061C252.188 290.454 252.077 290.804 251.856 291.112C251.636 291.42 251.331 291.661 250.94 291.837C250.552 292.012 250.106 292.099 249.601 292.099ZM249.601 291.201C249.902 291.201 250.162 291.151 250.383 291.052C250.603 290.95 250.773 290.809 250.894 290.629C251.015 290.447 251.076 290.234 251.079 289.99C251.076 289.737 251.01 289.513 250.88 289.319C250.752 289.125 250.578 288.972 250.358 288.861C250.138 288.75 249.886 288.694 249.601 288.694C249.315 288.694 249.06 288.75 248.838 288.861C248.615 288.972 248.44 289.125 248.312 289.319C248.185 289.513 248.122 289.737 248.124 289.99C248.122 290.234 248.18 290.447 248.298 290.629C248.419 290.809 248.591 290.95 248.813 291.052C249.036 291.151 249.298 291.201 249.601 291.201ZM249.601 287.817C249.843 287.817 250.057 287.768 250.244 287.671C250.431 287.574 250.578 287.439 250.685 287.266C250.793 287.094 250.849 286.891 250.851 286.659C250.849 286.432 250.795 286.233 250.688 286.062C250.584 285.892 250.438 285.761 250.251 285.668C250.064 285.574 249.848 285.526 249.601 285.526C249.35 285.526 249.13 285.574 248.941 285.668C248.754 285.761 248.608 285.892 248.504 286.062C248.4 286.233 248.349 286.432 248.351 286.659C248.349 286.891 248.401 287.094 248.508 287.266C248.614 287.439 248.761 287.574 248.948 287.671C249.137 287.768 249.355 287.817 249.601 287.817Z" fill="#B7B7BA"/>
<path d="M280.711 284.628C281.035 284.63 281.354 284.689 281.669 284.805C281.984 284.921 282.268 285.111 282.522 285.374C282.777 285.636 282.981 285.991 283.132 286.439C283.286 286.884 283.364 287.438 283.367 288.101C283.367 288.738 283.303 289.305 283.175 289.802C283.047 290.297 282.864 290.714 282.625 291.055C282.388 291.396 282.1 291.656 281.762 291.833C281.423 292.011 281.042 292.099 280.618 292.099C280.185 292.099 279.8 292.014 279.464 291.844C279.128 291.673 278.854 291.438 278.644 291.137C278.433 290.834 278.302 290.486 278.25 290.093H279.333C279.404 290.406 279.548 290.659 279.766 290.853C279.986 291.045 280.27 291.141 280.618 291.141C281.151 291.141 281.566 290.909 281.865 290.445C282.163 289.978 282.313 289.327 282.316 288.491H282.259C282.136 288.695 281.982 288.87 281.797 289.017C281.615 289.164 281.41 289.277 281.183 289.358C280.956 289.438 280.713 289.479 280.455 289.479C280.036 289.479 279.655 289.376 279.311 289.17C278.968 288.964 278.695 288.681 278.491 288.321C278.287 287.961 278.186 287.55 278.186 287.089C278.186 286.629 278.29 286.213 278.498 285.839C278.709 285.465 279.002 285.169 279.379 284.951C279.758 284.731 280.202 284.623 280.711 284.628ZM280.714 285.551C280.437 285.551 280.187 285.62 279.965 285.757C279.745 285.892 279.571 286.076 279.443 286.308C279.315 286.537 279.251 286.793 279.251 287.075C279.251 287.356 279.313 287.612 279.436 287.842C279.561 288.069 279.732 288.25 279.947 288.385C280.165 288.518 280.413 288.584 280.693 288.584C280.901 288.584 281.095 288.544 281.275 288.463C281.455 288.383 281.613 288.271 281.747 288.129C281.882 287.985 281.988 287.821 282.064 287.639C282.139 287.457 282.177 287.265 282.177 287.064C282.177 286.796 282.113 286.548 281.985 286.318C281.86 286.089 281.687 285.904 281.467 285.764C281.247 285.622 280.996 285.551 280.714 285.551Z" fill="#B7B7BA"/>
<defs>
<clipPath id="clip0_53_3349">
<rect x="16.3334" y="121" width="280.333" height="157" rx="4" fill="white"/>
</clipPath>
<clipPath id="clip1_53_3349">
<rect x="16.3334" y="121" width="273.333" height="157" rx="4" fill="white"/>
</clipPath>
</defs>
</svg>
