<svg width="313" height="311" viewBox="0 0 313 311" fill="none" xmlns="http://www.w3.org/2000/svg">
<rect x="1.16663" y="0.5" width="311.333" height="310" rx="11.5" fill="white"/>
<rect x="1.16663" y="0.5" width="311.333" height="310" rx="11.5" stroke="#EFF1F5"/>
<mask id="mask0_53_3206" style="mask-type:alpha" maskUnits="userSpaceOnUse" x="16" y="16" width="17" height="16">
<rect x="16.6666" y="16" width="16" height="16" fill="#D9D9D9"/>
</mask>
<g mask="url(#mask0_53_3206)">
<path d="M27.9999 29.3334C27.811 29.3334 27.6527 29.2695 27.5249 29.1417C27.3971 29.014 27.3333 28.8556 27.3333 28.6667V25.3334C27.3333 25.1445 27.3971 24.9862 27.5249 24.8584C27.6527 24.7306 27.811 24.6667 27.9999 24.6667H29.3333C29.5221 24.6667 29.6805 24.7306 29.8083 24.8584C29.936 24.9862 29.9999 25.1445 29.9999 25.3334V28.6667C29.9999 28.8556 29.936 29.014 29.8083 29.1417C29.6805 29.2695 29.5221 29.3334 29.3333 29.3334H27.9999ZM23.9999 29.3334C23.811 29.3334 23.6527 29.2695 23.5249 29.1417C23.3971 29.014 23.3333 28.8556 23.3333 28.6667V19.3334C23.3333 19.1445 23.3971 18.9862 23.5249 18.8584C23.6527 18.7306 23.811 18.6667 23.9999 18.6667H25.3333C25.5221 18.6667 25.6805 18.7306 25.8083 18.8584C25.936 18.9862 25.9999 19.1445 25.9999 19.3334V28.6667C25.9999 28.8556 25.936 29.014 25.8083 29.1417C25.6805 29.2695 25.5221 29.3334 25.3333 29.3334H23.9999ZM19.9999 29.3334C19.811 29.3334 19.6527 29.2695 19.5249 29.1417C19.3971 29.014 19.3333 28.8556 19.3333 28.6667V22.6667C19.3333 22.4779 19.3971 22.3195 19.5249 22.1917C19.6527 22.064 19.811 22.0001 19.9999 22.0001H21.3333C21.5221 22.0001 21.6805 22.064 21.8083 22.1917C21.936 22.3195 21.9999 22.4779 21.9999 22.6667V28.6667C21.9999 28.8556 21.936 29.014 21.8083 29.1417C21.6805 29.2695 21.5221 29.3334 21.3333 29.3334H19.9999Z" fill="#1C1B1F"/>
</g>
<path d="M39.6709 30V19.8182H43.4891C44.2713 19.8182 44.9275 19.9541 45.4578 20.2259C45.9914 20.4976 46.3941 20.8788 46.6659 21.3693C46.941 21.8565 47.0786 22.425 47.0786 23.0746C47.0786 23.7275 46.9394 24.2943 46.6609 24.7749C46.3858 25.2521 45.9798 25.6217 45.4429 25.8835C44.906 26.142 44.2464 26.2713 43.4642 26.2713H40.7448V24.7401H43.2156C43.673 24.7401 44.0475 24.6771 44.3392 24.5511C44.6309 24.4219 44.8463 24.2346 44.9855 23.9893C45.128 23.7408 45.1993 23.4358 45.1993 23.0746C45.1993 22.7133 45.128 22.4051 44.9855 22.1499C44.843 21.8913 44.6259 21.6958 44.3342 21.5632C44.0426 21.4273 43.6664 21.3594 43.2057 21.3594H41.5153V30H39.6709ZM44.9308 25.3864L47.4514 30H45.3932L42.9173 25.3864H44.9308ZM51.4081 30.1491C50.6425 30.1491 49.9813 29.9901 49.4245 29.6719C48.8709 29.3504 48.445 28.8963 48.1468 28.3097C47.8485 27.7197 47.6993 27.0253 47.6993 26.2266C47.6993 25.4411 47.8485 24.7517 48.1468 24.1584C48.4484 23.5618 48.8693 23.0978 49.4095 22.7663C49.9498 22.4316 50.5845 22.2642 51.3137 22.2642C51.7843 22.2642 52.2284 22.3404 52.646 22.4929C53.067 22.642 53.4382 22.8741 53.7597 23.1889C54.0845 23.5038 54.3397 23.9048 54.5253 24.392C54.7109 24.8759 54.8037 25.4527 54.8037 26.1222V26.674H48.5445V25.4609H53.0786C53.0753 25.1162 53.0007 24.8097 52.8549 24.5412C52.709 24.2694 52.5052 24.0556 52.2433 23.8999C51.9848 23.7441 51.6832 23.6662 51.3385 23.6662C50.9706 23.6662 50.6475 23.7557 50.3691 23.9347C50.0906 24.1103 49.8736 24.3423 49.7178 24.6307C49.5653 24.9157 49.4874 25.2289 49.4841 25.5703V26.6293C49.4841 27.0734 49.5653 27.4545 49.7277 27.7727C49.8901 28.0876 50.1172 28.3295 50.4088 28.4986C50.7005 28.6643 51.0419 28.7472 51.433 28.7472C51.6948 28.7472 51.9318 28.7107 52.1439 28.6378C52.356 28.5616 52.54 28.4505 52.6958 28.3047C52.8515 28.1589 52.9692 27.9782 53.0487 27.7628L54.7291 27.9517C54.6231 28.3958 54.4209 28.7836 54.1226 29.1151C53.8276 29.4432 53.4498 29.6984 52.9891 29.8807C52.5284 30.0597 52.0014 30.1491 51.4081 30.1491ZM62.3685 22.3636L59.6491 30H57.6604L54.941 22.3636H56.86L58.615 28.0362H58.6945L60.4545 22.3636H62.3685ZM66.1748 30.1491C65.4092 30.1491 64.748 29.9901 64.1912 29.6719C63.6377 29.3504 63.2118 28.8963 62.9135 28.3097C62.6152 27.7197 62.466 27.0253 62.466 26.2266C62.466 25.4411 62.6152 24.7517 62.9135 24.1584C63.2151 23.5618 63.636 23.0978 64.1763 22.7663C64.7165 22.4316 65.3512 22.2642 66.0804 22.2642C66.551 22.2642 66.9951 22.3404 67.4128 22.4929C67.8337 22.642 68.2049 22.8741 68.5264 23.1889C68.8512 23.5038 69.1064 23.9048 69.292 24.392C69.4776 24.8759 69.5704 25.4527 69.5704 26.1222V26.674H63.3112V25.4609H67.8453C67.842 25.1162 67.7674 24.8097 67.6216 24.5412C67.4757 24.2694 67.2719 24.0556 67.0101 23.8999C66.7515 23.7441 66.4499 23.6662 66.1052 23.6662C65.7373 23.6662 65.4142 23.7557 65.1358 23.9347C64.8574 24.1103 64.6403 24.3423 64.4845 24.6307C64.332 24.9157 64.2541 25.2289 64.2508 25.5703V26.6293C64.2508 27.0734 64.332 27.4545 64.4944 27.7727C64.6568 28.0876 64.8839 28.3295 65.1755 28.4986C65.4672 28.6643 65.8086 28.7472 66.1997 28.7472C66.4615 28.7472 66.6985 28.7107 66.9106 28.6378C67.1228 28.5616 67.3067 28.4505 67.4625 28.3047C67.6183 28.1589 67.7359 27.9782 67.8155 27.7628L69.4959 27.9517C69.3898 28.3958 69.1876 28.7836 68.8893 29.1151C68.5943 29.4432 68.2165 29.6984 67.7558 29.8807C67.2951 30.0597 66.7681 30.1491 66.1748 30.1491ZM72.3327 25.5256V30H70.533V22.3636H72.2532V23.6612H72.3426C72.5183 23.2337 72.7984 22.8939 73.1828 22.642C73.5706 22.3902 74.0496 22.2642 74.6196 22.2642C75.1466 22.2642 75.6057 22.3769 75.9968 22.6023C76.3912 22.8277 76.6961 23.1541 76.9115 23.5817C77.1303 24.0092 77.238 24.5279 77.2347 25.1378V30H75.435V25.4162C75.435 24.9058 75.3024 24.5064 75.0372 24.218C74.7754 23.9297 74.4125 23.7855 73.9485 23.7855C73.6336 23.7855 73.3535 23.8551 73.1083 23.9943C72.8663 24.1302 72.6757 24.3274 72.5365 24.5859C72.4006 24.8445 72.3327 25.1577 72.3327 25.5256ZM83.3714 26.7884V22.3636H85.1711V30H83.4261V28.6428H83.3466C83.1742 29.0703 82.8908 29.42 82.4964 29.6918C82.1053 29.9635 81.6231 30.0994 81.0497 30.0994C80.5492 30.0994 80.1067 29.9884 79.7223 29.7663C79.3411 29.541 79.0428 29.2145 78.8274 28.7869C78.612 28.3561 78.5042 27.8357 78.5042 27.2259V22.3636H80.3039V26.9474C80.3039 27.4313 80.4365 27.8158 80.7017 28.1009C80.9668 28.3859 81.3148 28.5284 81.7457 28.5284C82.0109 28.5284 82.2677 28.4638 82.5163 28.3345C82.7649 28.2053 82.9687 28.013 83.1278 27.7578C83.2902 27.4993 83.3714 27.1761 83.3714 26.7884ZM89.8425 30.1491C89.0769 30.1491 88.4156 29.9901 87.8588 29.6719C87.3053 29.3504 86.8794 28.8963 86.5811 28.3097C86.2828 27.7197 86.1337 27.0253 86.1337 26.2266C86.1337 25.4411 86.2828 24.7517 86.5811 24.1584C86.8827 23.5618 87.3037 23.0978 87.8439 22.7663C88.3842 22.4316 89.0189 22.2642 89.748 22.2642C90.2187 22.2642 90.6628 22.3404 91.0804 22.4929C91.5013 22.642 91.8726 22.8741 92.1941 23.1889C92.5189 23.5038 92.7741 23.9048 92.9597 24.392C93.1453 24.8759 93.2381 25.4527 93.2381 26.1222V26.674H86.9789V25.4609H91.5129C91.5096 25.1162 91.4351 24.8097 91.2892 24.5412C91.1434 24.2694 90.9396 24.0556 90.6777 23.8999C90.4192 23.7441 90.1176 23.6662 89.7729 23.6662C89.405 23.6662 89.0818 23.7557 88.8034 23.9347C88.525 24.1103 88.3079 24.3423 88.1522 24.6307C87.9997 24.9157 87.9218 25.2289 87.9185 25.5703V26.6293C87.9185 27.0734 87.9997 27.4545 88.1621 27.7727C88.3245 28.0876 88.5515 28.3295 88.8432 28.4986C89.1349 28.6643 89.4763 28.7472 89.8674 28.7472C90.1292 28.7472 90.3662 28.7107 90.5783 28.6378C90.7904 28.5616 90.9744 28.4505 91.1301 28.3047C91.2859 28.1589 91.4036 27.9782 91.4831 27.7628L93.1635 27.9517C93.0575 28.3958 92.8553 28.7836 92.557 29.1151C92.262 29.4432 91.8842 29.6984 91.4235 29.8807C90.9628 30.0597 90.4358 30.1491 89.8425 30.1491ZM96.7454 21.3643V19.8182H104.869V21.3643H101.722V30H99.8924V21.3643H96.7454ZM105.003 30V22.3636H106.748V23.6364H106.827C106.966 23.1955 107.205 22.8558 107.543 22.6172C107.884 22.3752 108.274 22.2543 108.711 22.2543C108.811 22.2543 108.922 22.2592 109.044 22.2692C109.17 22.2758 109.275 22.2874 109.358 22.304V23.9595C109.281 23.933 109.16 23.9098 108.995 23.8899C108.832 23.8667 108.675 23.8551 108.522 23.8551C108.194 23.8551 107.899 23.9264 107.637 24.0689C107.379 24.2081 107.175 24.402 107.026 24.6506C106.877 24.8991 106.802 25.1858 106.802 25.5107V30H105.003ZM113.06 30.1491C112.294 30.1491 111.633 29.9901 111.076 29.6719C110.522 29.3504 110.096 28.8963 109.798 28.3097C109.5 27.7197 109.351 27.0253 109.351 26.2266C109.351 25.4411 109.5 24.7517 109.798 24.1584C110.1 23.5618 110.521 23.0978 111.061 22.7663C111.601 22.4316 112.236 22.2642 112.965 22.2642C113.436 22.2642 113.88 22.3404 114.297 22.4929C114.718 22.642 115.09 22.8741 115.411 23.1889C115.736 23.5038 115.991 23.9048 116.177 24.392C116.362 24.8759 116.455 25.4527 116.455 26.1222V26.674H110.196V25.4609H114.73C114.727 25.1162 114.652 24.8097 114.506 24.5412C114.36 24.2694 114.157 24.0556 113.895 23.8999C113.636 23.7441 113.335 23.6662 112.99 23.6662C112.622 23.6662 112.299 23.7557 112.02 23.9347C111.742 24.1103 111.525 24.3423 111.369 24.6307C111.217 24.9157 111.139 25.2289 111.136 25.5703V26.6293C111.136 27.0734 111.217 27.4545 111.379 27.7727C111.542 28.0876 111.769 28.3295 112.06 28.4986C112.352 28.6643 112.693 28.7472 113.084 28.7472C113.346 28.7472 113.583 28.7107 113.795 28.6378C114.007 28.5616 114.191 28.4505 114.347 28.3047C114.503 28.1589 114.621 27.9782 114.7 27.7628L116.381 27.9517C116.274 28.3958 116.072 28.7836 115.774 29.1151C115.479 29.4432 115.101 29.6984 114.64 29.8807C114.18 30.0597 113.653 30.1491 113.06 30.1491ZM119.217 25.5256V30H117.418V22.3636H119.138V23.6612H119.227C119.403 23.2337 119.683 22.8939 120.068 22.642C120.455 22.3902 120.934 22.2642 121.504 22.2642C122.031 22.2642 122.49 22.3769 122.881 22.6023C123.276 22.8277 123.581 23.1541 123.796 23.5817C124.015 24.0092 124.123 24.5279 124.119 25.1378V30H122.32V25.4162C122.32 24.9058 122.187 24.5064 121.922 24.218C121.66 23.9297 121.297 23.7855 120.833 23.7855C120.518 23.7855 120.238 23.8551 119.993 23.9943C119.751 24.1302 119.56 24.3274 119.421 24.5859C119.285 24.8445 119.217 25.1577 119.217 25.5256ZM128.223 30.1342C127.623 30.1342 127.086 29.9801 126.612 29.6719C126.138 29.3636 125.763 28.9162 125.488 28.3295C125.213 27.7429 125.076 27.0303 125.076 26.1918C125.076 25.3433 125.215 24.6274 125.493 24.044C125.775 23.4574 126.155 23.0149 126.632 22.7166C127.109 22.415 127.641 22.2642 128.228 22.2642C128.675 22.2642 129.043 22.3404 129.331 22.4929C129.62 22.642 129.848 22.8227 130.017 23.0348C130.187 23.2436 130.317 23.4408 130.41 23.6264H130.485V19.8182H132.289V30H130.52V28.7969H130.41C130.317 28.9825 130.183 29.1797 130.008 29.3885C129.832 29.594 129.6 29.7696 129.312 29.9155C129.023 30.0613 128.66 30.1342 128.223 30.1342ZM128.725 28.6577C129.106 28.6577 129.431 28.5549 129.699 28.3494C129.968 28.1406 130.172 27.8506 130.311 27.4794C130.45 27.1082 130.52 26.6757 130.52 26.1818C130.52 25.688 130.45 25.2588 130.311 24.8942C130.175 24.5296 129.973 24.2462 129.704 24.044C129.439 23.8419 129.113 23.7408 128.725 23.7408C128.324 23.7408 127.989 23.8452 127.721 24.054C127.452 24.2628 127.25 24.5511 127.114 24.919C126.978 25.2869 126.91 25.7079 126.91 26.1818C126.91 26.6591 126.978 27.085 127.114 27.4595C127.253 27.8307 127.457 28.1241 127.726 28.3395C127.997 28.5516 128.33 28.6577 128.725 28.6577ZM139.683 24.3821L138.042 24.5611C137.996 24.3954 137.915 24.2396 137.799 24.0938C137.686 23.9479 137.533 23.8303 137.341 23.7408C137.149 23.6513 136.914 23.6065 136.635 23.6065C136.261 23.6065 135.946 23.6877 135.691 23.8501C135.439 24.0125 135.314 24.223 135.318 24.4815C135.314 24.7036 135.396 24.8842 135.561 25.0234C135.73 25.1626 136.009 25.277 136.397 25.3665L137.699 25.6449C138.422 25.8007 138.959 26.0476 139.31 26.3857C139.665 26.7237 139.844 27.1662 139.847 27.7131C139.844 28.1937 139.703 28.6179 139.424 28.9858C139.149 29.3504 138.766 29.6354 138.276 29.8409C137.785 30.0464 137.222 30.1491 136.585 30.1491C135.651 30.1491 134.898 29.9536 134.328 29.5625C133.758 29.1681 133.419 28.6196 133.309 27.9169L135.064 27.7479C135.144 28.0926 135.313 28.3527 135.571 28.5284C135.83 28.7041 136.166 28.7919 136.581 28.7919C137.008 28.7919 137.351 28.7041 137.61 28.5284C137.871 28.3527 138.002 28.1357 138.002 27.8771C138.002 27.6584 137.918 27.4777 137.749 27.3352C137.583 27.1927 137.325 27.0833 136.973 27.0071L135.671 26.7337C134.938 26.5812 134.396 26.3243 134.045 25.9631C133.694 25.5985 133.52 25.1378 133.523 24.581C133.52 24.1103 133.647 23.7027 133.906 23.358C134.168 23.0099 134.531 22.7415 134.995 22.5526C135.462 22.3603 136.001 22.2642 136.61 22.2642C137.505 22.2642 138.21 22.4548 138.723 22.8359C139.24 23.2171 139.56 23.7325 139.683 24.3821Z" fill="#2B2C36"/>
<mask id="mask1_53_3206" style="mask-type:alpha" maskUnits="userSpaceOnUse" x="281" y="16" width="16" height="16">
<rect x="281" y="16" width="16" height="16" fill="#D9D9D9"/>
</mask>
<g mask="url(#mask1_53_3206)">
<path d="M291.667 21.6002L285.733 27.5335C285.611 27.6557 285.456 27.7168 285.267 27.7168C285.078 27.7168 284.922 27.6557 284.8 27.5335C284.678 27.4113 284.617 27.2557 284.617 27.0668C284.617 26.8779 284.678 26.7224 284.8 26.6002L290.733 20.6668H285.667C285.478 20.6668 285.32 20.6029 285.192 20.4752C285.064 20.3474 285 20.1891 285 20.0002C285 19.8113 285.064 19.6529 285.192 19.5252C285.32 19.3974 285.478 19.3335 285.667 19.3335H292.333C292.522 19.3335 292.681 19.3974 292.808 19.5252C292.936 19.6529 293 19.8113 293 20.0002V26.6668C293 26.8557 292.936 27.0141 292.808 27.1418C292.681 27.2696 292.522 27.3335 292.333 27.3335C292.145 27.3335 291.986 27.2696 291.858 27.1418C291.731 27.0141 291.667 26.8557 291.667 26.6668V21.6002Z" fill="#949599"/>
</g>
<path d="M18.4117 75V72.4304L25.2288 65.7475C25.8808 65.0891 26.4241 64.5043 26.8587 63.9929C27.2934 63.4815 27.6194 62.9862 27.8367 62.5067C28.0541 62.0273 28.1627 61.516 28.1627 60.9727C28.1627 60.3526 28.0221 59.8221 27.7408 59.381C27.4596 58.9336 27.0729 58.5884 26.5807 58.3455C26.0885 58.1026 25.5292 57.9812 24.9028 57.9812C24.2572 57.9812 23.6915 58.1154 23.2057 58.3839C22.7199 58.646 22.3428 59.0199 22.0743 59.5057C21.8122 59.9915 21.6812 60.57 21.6812 61.2411H18.2966C18.2966 59.9947 18.581 58.9112 19.1499 57.9908C19.7188 57.0703 20.5019 56.3576 21.499 55.8526C22.5026 55.3477 23.6531 55.0952 24.9507 55.0952C26.2675 55.0952 27.4244 55.3413 28.4216 55.8335C29.4188 56.3256 30.1922 57 30.7419 57.8565C31.298 58.7131 31.5761 59.6911 31.5761 60.7905C31.5761 61.5256 31.4354 62.2479 31.1542 62.9574C30.8729 63.6669 30.3776 64.4531 29.668 65.3161C28.9649 66.179 27.9774 67.2241 26.7053 68.4513L23.3207 71.8935V72.0277H31.8733V75H18.4117ZM33.3246 71.3565V68.5281L41.6566 55.3636H44.0152V59.3906H42.577L36.968 68.2788V68.4322H48.5983V71.3565H33.3246ZM42.6921 75V70.4936L42.7304 69.228V55.3636H46.0863V75H42.6921ZM57.8399 75.3739C56.2611 75.3739 54.906 74.9744 53.7746 74.1754C52.6496 73.37 51.7834 72.2099 51.1762 70.695C50.5753 69.1737 50.2749 67.3423 50.2749 65.201C50.2813 63.0597 50.5849 61.2379 51.1858 59.7358C51.793 58.2273 52.6591 57.0767 53.7841 56.2841C54.9155 55.4915 56.2675 55.0952 57.8399 55.0952C59.4123 55.0952 60.7643 55.4915 61.8957 56.2841C63.027 57.0767 63.8932 58.2273 64.494 59.7358C65.1013 61.2443 65.4049 63.0661 65.4049 65.201C65.4049 67.3487 65.1013 69.1832 64.494 70.7045C63.8932 72.2195 63.027 73.3764 61.8957 74.1754C60.7707 74.9744 59.4187 75.3739 57.8399 75.3739ZM57.8399 72.3729C59.0672 72.3729 60.0356 71.7688 60.7451 70.5607C61.461 69.3462 61.8189 67.5597 61.8189 65.201C61.8189 63.6413 61.656 62.331 61.33 61.2699C61.004 60.2088 60.5437 59.4098 59.9493 58.8729C59.3548 58.3295 58.6517 58.0579 57.8399 58.0579C56.619 58.0579 55.6538 58.6651 54.9443 59.8796C54.2348 61.0877 53.8768 62.8615 53.8704 65.201C53.864 66.767 54.0207 68.0838 54.3403 69.1513C54.6662 70.2187 55.1265 71.0241 55.7209 71.5675C56.3154 72.1044 57.0217 72.3729 57.8399 72.3729ZM70.8592 72.3153L70.7345 73.37C70.645 74.1754 70.4852 74.9936 70.2551 75.8246C70.0314 76.6619 69.7949 77.4322 69.5456 78.1353C69.2963 78.8384 69.0949 79.3913 68.9415 79.794H66.6021C66.6915 79.4041 66.813 78.8736 66.9664 78.2024C67.1262 77.5313 67.2796 76.777 67.4266 75.9396C67.5736 75.1023 67.6727 74.2521 67.7239 73.3892L67.791 72.3153H70.8592ZM80.1223 75.3739C78.5434 75.3739 77.1883 74.9744 76.0569 74.1754C74.9319 73.37 74.0658 72.2099 73.4586 70.695C72.8577 69.1737 72.5573 67.3423 72.5573 65.201C72.5637 63.0597 72.8673 61.2379 73.4682 59.7358C74.0754 58.2273 74.9415 57.0767 76.0665 56.2841C77.1979 55.4915 78.5498 55.0952 80.1223 55.0952C81.6947 55.0952 83.0466 55.4915 84.178 56.2841C85.3094 57.0767 86.1756 58.2273 86.7764 59.7358C87.3836 61.2443 87.6873 63.0661 87.6873 65.201C87.6873 67.3487 87.3836 69.1832 86.7764 70.7045C86.1756 72.2195 85.3094 73.3764 84.178 74.1754C83.053 74.9744 81.7011 75.3739 80.1223 75.3739ZM80.1223 72.3729C81.3496 72.3729 82.318 71.7688 83.0275 70.5607C83.7434 69.3462 84.1013 67.5597 84.1013 65.201C84.1013 63.6413 83.9383 62.331 83.6123 61.2699C83.2863 60.2088 82.8261 59.4098 82.2317 58.8729C81.6372 58.3295 80.9341 58.0579 80.1223 58.0579C78.9014 58.0579 77.9362 58.6651 77.2267 59.8796C76.5172 61.0877 76.1592 62.8615 76.1528 65.201C76.1464 66.767 76.303 68.0838 76.6226 69.1513C76.9486 70.2187 77.4089 71.0241 78.0033 71.5675C78.5978 72.1044 79.3041 72.3729 80.1223 72.3729ZM97.0511 75.3739C95.4722 75.3739 94.1171 74.9744 92.9857 74.1754C91.8607 73.37 90.9946 72.2099 90.3874 70.695C89.7865 69.1737 89.4861 67.3423 89.4861 65.201C89.4925 63.0597 89.7961 61.2379 90.397 59.7358C91.0042 58.2273 91.8703 57.0767 92.9953 56.2841C94.1267 55.4915 95.4786 55.0952 97.0511 55.0952C98.6235 55.0952 99.9754 55.4915 101.107 56.2841C102.238 57.0767 103.104 58.2273 103.705 59.7358C104.312 61.2443 104.616 63.0661 104.616 65.201C104.616 67.3487 104.312 69.1832 103.705 70.7045C103.104 72.2195 102.238 73.3764 101.107 74.1754C99.9818 74.9744 98.6299 75.3739 97.0511 75.3739ZM97.0511 72.3729C98.2783 72.3729 99.2467 71.7688 99.9563 70.5607C100.672 69.3462 101.03 67.5597 101.03 65.201C101.03 63.6413 100.867 62.331 100.541 61.2699C100.215 60.2088 99.7549 59.4098 99.1604 58.8729C98.566 58.3295 97.8629 58.0579 97.0511 58.0579C95.8302 58.0579 94.865 58.6651 94.1555 59.8796C93.446 61.0877 93.088 62.8615 93.0816 65.201C93.0752 66.767 93.2318 68.0838 93.5514 69.1513C93.8774 70.2187 94.3376 71.0241 94.9321 71.5675C95.5266 72.1044 96.2329 72.3729 97.0511 72.3729ZM113.98 75.3739C112.401 75.3739 111.046 74.9744 109.915 74.1754C108.79 73.37 107.923 72.2099 107.316 70.695C106.715 69.1737 106.415 67.3423 106.415 65.201C106.421 63.0597 106.725 61.2379 107.326 59.7358C107.933 58.2273 108.799 57.0767 109.924 56.2841C111.055 55.4915 112.407 55.0952 113.98 55.0952C115.552 55.0952 116.904 55.4915 118.036 56.2841C119.167 57.0767 120.033 58.2273 120.634 59.7358C121.241 61.2443 121.545 63.0661 121.545 65.201C121.545 67.3487 121.241 69.1832 120.634 70.7045C120.033 72.2195 119.167 73.3764 118.036 74.1754C116.911 74.9744 115.559 75.3739 113.98 75.3739ZM113.98 72.3729C115.207 72.3729 116.176 71.7688 116.885 70.5607C117.601 69.3462 117.959 67.5597 117.959 65.201C117.959 63.6413 117.796 62.331 117.47 61.2699C117.144 60.2088 116.684 59.4098 116.089 58.8729C115.495 58.3295 114.792 58.0579 113.98 58.0579C112.759 58.0579 111.794 58.6651 111.084 59.8796C110.375 61.0877 110.017 62.8615 110.01 65.201C110.004 66.767 110.161 68.0838 110.48 69.1513C110.806 70.2187 111.266 71.0241 111.861 71.5675C112.455 72.1044 113.162 72.3729 113.98 72.3729Z" fill="#2B2C36"/>
<path d="M19.1524 91.8182V102H17.6659V91.8182H19.1524ZM22.8145 102.169C22.3306 102.169 21.8931 102.08 21.502 101.901C21.1109 101.718 20.8011 101.455 20.5724 101.11C20.347 100.765 20.2343 100.343 20.2343 99.8423C20.2343 99.4115 20.3171 99.0568 20.4829 98.7784C20.6486 98.5 20.8723 98.2796 21.154 98.1172C21.4358 97.9548 21.7506 97.8321 22.0986 97.7493C22.4466 97.6664 22.8013 97.6035 23.1626 97.5604C23.6199 97.5073 23.9912 97.4643 24.2762 97.4311C24.5612 97.3946 24.7684 97.3366 24.8976 97.2571C25.0269 97.1776 25.0915 97.0483 25.0915 96.8693V96.8345C25.0915 96.4003 24.9689 96.0639 24.7236 95.8253C24.4817 95.5866 24.1204 95.4673 23.6398 95.4673C23.1394 95.4673 22.7449 95.5784 22.4566 95.8004C22.1716 96.0192 21.9743 96.2628 21.865 96.5312L20.468 96.2131C20.6337 95.7491 20.8756 95.3745 21.1938 95.0895C21.5153 94.8011 21.8849 94.5923 22.3025 94.4631C22.7201 94.3305 23.1592 94.2642 23.6199 94.2642C23.9249 94.2642 24.248 94.3007 24.5894 94.3736C24.9341 94.4432 25.2556 94.5724 25.5539 94.7614C25.8555 94.9503 26.1024 95.2204 26.2947 95.5717C26.4869 95.9197 26.583 96.3722 26.583 96.929V102H25.1313V100.956H25.0716C24.9755 101.148 24.8314 101.337 24.6391 101.523C24.4469 101.708 24.2 101.862 23.8984 101.985C23.5967 102.108 23.2355 102.169 22.8145 102.169ZM23.1377 100.976C23.5487 100.976 23.9 100.895 24.1917 100.732C24.4867 100.57 24.7104 100.358 24.8628 100.096C25.0186 99.8307 25.0965 99.5473 25.0965 99.2457V98.2614C25.0435 98.3144 24.9407 98.3641 24.7883 98.4105C24.6391 98.4536 24.4684 98.4917 24.2762 98.5249C24.084 98.5547 23.8967 98.5829 23.7144 98.6094C23.5321 98.6326 23.3796 98.6525 23.257 98.669C22.9687 98.7055 22.7052 98.7668 22.4665 98.853C22.2312 98.9392 22.0423 99.0634 21.8998 99.2259C21.7606 99.3849 21.691 99.5971 21.691 99.8622C21.691 100.23 21.8269 100.509 22.0986 100.697C22.3704 100.883 22.7168 100.976 23.1377 100.976ZM33.7252 96.228L32.3779 96.4666C32.3216 96.2943 32.2321 96.1302 32.1095 95.9744C31.9902 95.8187 31.8278 95.6911 31.6223 95.5916C31.4168 95.4922 31.1599 95.4425 30.8517 95.4425C30.4307 95.4425 30.0794 95.5369 29.7977 95.7259C29.516 95.9115 29.3751 96.1518 29.3751 96.4467C29.3751 96.7019 29.4696 96.9074 29.6585 97.0632C29.8474 97.219 30.1523 97.3466 30.5733 97.446L31.7863 97.7244C32.489 97.8868 33.0127 98.1371 33.3574 98.4751C33.702 98.8132 33.8744 99.2524 33.8744 99.7926C33.8744 100.25 33.7418 100.658 33.4767 101.016C33.2148 101.37 32.8486 101.649 32.3779 101.851C31.9106 102.053 31.3687 102.154 30.7522 102.154C29.8971 102.154 29.1994 101.972 28.6592 101.607C28.119 101.239 27.7875 100.717 27.6649 100.041L29.1017 99.8224C29.1912 100.197 29.3751 100.48 29.6535 100.673C29.9319 100.862 30.2949 100.956 30.7423 100.956C31.2295 100.956 31.619 100.855 31.9106 100.653C32.2023 100.447 32.3481 100.197 32.3481 99.902C32.3481 99.6634 32.2586 99.4628 32.0797 99.3004C31.904 99.138 31.6339 99.0154 31.2693 98.9325L29.9767 98.6491C29.2641 98.4867 28.7371 98.2282 28.3957 97.8736C28.0576 97.5189 27.8886 97.0698 27.8886 96.5263C27.8886 96.0755 28.0145 95.6811 28.2664 95.343C28.5183 95.005 28.8663 94.7415 29.3105 94.5526C29.7546 94.3603 30.2634 94.2642 30.8368 94.2642C31.662 94.2642 32.3117 94.4432 32.7856 94.8011C33.2596 95.1558 33.5728 95.6314 33.7252 96.228ZM38.5134 94.3636V95.5568H34.3423V94.3636H38.5134ZM35.4609 92.5341H36.9474V99.7578C36.9474 100.046 36.9905 100.263 37.0766 100.409C37.1628 100.552 37.2739 100.649 37.4097 100.702C37.5489 100.752 37.6998 100.777 37.8622 100.777C37.9815 100.777 38.0859 100.769 38.1754 100.752C38.2649 100.736 38.3345 100.722 38.3842 100.712L38.6526 101.94C38.5665 101.973 38.4438 102.007 38.2847 102.04C38.1257 102.076 37.9268 102.096 37.6882 102.099C37.2971 102.106 36.9325 102.036 36.5944 101.891C36.2563 101.745 35.9829 101.519 35.7741 101.214C35.5653 100.91 35.4609 100.527 35.4609 100.066V92.5341ZM42.723 102V100.886L46.1683 97.3168C46.5362 96.929 46.8395 96.5893 47.0781 96.2976C47.32 96.0026 47.5007 95.7225 47.62 95.4574C47.7393 95.1922 47.799 94.9105 47.799 94.6122C47.799 94.2741 47.7194 93.9825 47.5603 93.7372C47.4013 93.4886 47.1842 93.2981 46.9091 93.1655C46.634 93.0296 46.3241 92.9616 45.9794 92.9616C45.6148 92.9616 45.2966 93.0362 45.0248 93.1854C44.753 93.3345 44.5442 93.545 44.3984 93.8168C44.2526 94.0885 44.1797 94.4067 44.1797 94.7713H42.713C42.713 94.1515 42.8556 93.6096 43.1406 93.1456C43.4256 92.6816 43.8167 92.322 44.3139 92.0668C44.8111 91.8082 45.3762 91.679 46.0092 91.679C46.6489 91.679 47.2123 91.8066 47.6995 92.0618C48.1901 92.3137 48.5729 92.6584 48.848 93.0959C49.1231 93.5301 49.2606 94.0206 49.2606 94.5675C49.2606 94.9453 49.1894 95.3149 49.0468 95.6761C48.9076 96.0374 48.664 96.4401 48.316 96.8842C47.968 97.325 47.4841 97.8603 46.8643 98.4901L44.8409 100.608V100.683H49.4247V102H42.723ZM54.8535 104.864C54.6315 104.864 54.4293 104.845 54.247 104.809C54.0647 104.776 53.9288 104.739 53.8393 104.7L54.1973 103.482C54.469 103.554 54.711 103.586 54.9231 103.576C55.1352 103.566 55.3225 103.487 55.4849 103.337C55.6506 103.188 55.7965 102.945 55.9224 102.607L56.1064 102.099L53.3123 94.3636H54.9032L56.8372 100.29H56.9167L58.8507 94.3636H60.4466L57.2995 103.019C57.1537 103.417 56.9681 103.753 56.7427 104.028C56.5173 104.307 56.2489 104.516 55.9373 104.655C55.6258 104.794 55.2645 104.864 54.8535 104.864ZM64.315 102.154C63.5626 102.154 62.9147 101.993 62.3711 101.672C61.8309 101.347 61.4132 100.891 61.1183 100.305C60.8266 99.7147 60.6808 99.0237 60.6808 98.2315C60.6808 97.4493 60.8266 96.7599 61.1183 96.1634C61.4132 95.5668 61.8242 95.1011 62.3512 94.7663C62.8815 94.4316 63.5013 94.2642 64.2106 94.2642C64.6415 94.2642 65.0591 94.3355 65.4634 94.478C65.8678 94.6205 66.2307 94.8442 66.5522 95.1491C66.8737 95.4541 67.1273 95.8501 67.3129 96.3374C67.4985 96.8213 67.5913 97.4096 67.5913 98.1023V98.6293H61.521V97.5156H66.1346C66.1346 97.1245 66.0551 96.7782 65.896 96.4766C65.7369 96.1716 65.5132 95.9313 65.2248 95.7557C64.9398 95.58 64.605 95.4922 64.2205 95.4922C63.8029 95.4922 63.4383 95.5949 63.1268 95.8004C62.8186 96.0026 62.5799 96.2678 62.4109 96.5959C62.2452 96.9207 62.1623 97.2737 62.1623 97.6548V98.5249C62.1623 99.0353 62.2518 99.4695 62.4308 99.8274C62.6131 100.185 62.8666 100.459 63.1914 100.648C63.5162 100.833 63.8957 100.926 64.3299 100.926C64.6116 100.926 64.8685 100.886 65.1005 100.807C65.3325 100.724 65.533 100.601 65.7021 100.439C65.8711 100.277 66.0004 100.076 66.0899 99.8374L67.4968 100.091C67.3841 100.505 67.182 100.868 66.8903 101.18C66.6019 101.488 66.239 101.728 65.8015 101.901C65.3673 102.07 64.8718 102.154 64.315 102.154ZM70.9029 102.169C70.419 102.169 69.9815 102.08 69.5904 101.901C69.1993 101.718 68.8894 101.455 68.6607 101.11C68.4353 100.765 68.3226 100.343 68.3226 99.8423C68.3226 99.4115 68.4055 99.0568 68.5712 98.7784C68.7369 98.5 68.9607 98.2796 69.2424 98.1172C69.5241 97.9548 69.839 97.8321 70.187 97.7493C70.535 97.6664 70.8896 97.6035 71.2509 97.5604C71.7083 97.5073 72.0795 97.4643 72.3646 97.4311C72.6496 97.3946 72.8567 97.3366 72.986 97.2571C73.1153 97.1776 73.1799 97.0483 73.1799 96.8693V96.8345C73.1799 96.4003 73.0573 96.0639 72.812 95.8253C72.57 95.5866 72.2088 95.4673 71.7282 95.4673C71.2277 95.4673 70.8333 95.5784 70.5449 95.8004C70.2599 96.0192 70.0627 96.2628 69.9533 96.5312L68.5563 96.2131C68.722 95.7491 68.964 95.3745 69.2822 95.0895C69.6037 94.8011 69.9732 94.5923 70.3908 94.4631C70.8084 94.3305 71.2476 94.2642 71.7083 94.2642C72.0132 94.2642 72.3364 94.3007 72.6778 94.3736C73.0225 94.4432 73.344 94.5724 73.6423 94.7614C73.9439 94.9503 74.1908 95.2204 74.383 95.5717C74.5753 95.9197 74.6714 96.3722 74.6714 96.929V102H73.2197V100.956H73.16C73.0639 101.148 72.9197 101.337 72.7275 101.523C72.5352 101.708 72.2883 101.862 71.9867 101.985C71.6851 102.108 71.3238 102.169 70.9029 102.169ZM71.2261 100.976C71.637 100.976 71.9884 100.895 72.28 100.732C72.575 100.57 72.7987 100.358 72.9512 100.096C73.107 99.8307 73.1849 99.5473 73.1849 99.2457V98.2614C73.1318 98.3144 73.0291 98.3641 72.8766 98.4105C72.7275 98.4536 72.5568 98.4917 72.3646 98.5249C72.1723 98.5547 71.9851 98.5829 71.8028 98.6094C71.6205 98.6326 71.468 98.6525 71.3454 98.669C71.057 98.7055 70.7935 98.7668 70.5549 98.853C70.3196 98.9392 70.1306 99.0634 69.9881 99.2259C69.8489 99.3849 69.7793 99.5971 69.7793 99.8622C69.7793 100.23 69.9152 100.509 70.187 100.697C70.4588 100.883 70.8051 100.976 71.2261 100.976ZM76.0913 102V94.3636H77.5281V95.5767H77.6076C77.7468 95.1657 77.9921 94.8426 78.3434 94.6072C78.6981 94.3686 79.0991 94.2493 79.5466 94.2493C79.6394 94.2493 79.7487 94.2526 79.8747 94.2592C80.004 94.2659 80.105 94.2741 80.178 94.2841V95.706C80.1183 95.6894 80.0122 95.6712 79.8598 95.6513C79.7073 95.6281 79.5548 95.6165 79.4024 95.6165C79.0511 95.6165 78.7379 95.6911 78.4628 95.8402C78.191 95.986 77.9755 96.1899 77.8165 96.4517C77.6574 96.7102 77.5778 97.0052 77.5778 97.3366V102H76.0913ZM86.6267 96.228L85.2794 96.4666C85.223 96.2943 85.1335 96.1302 85.0109 95.9744C84.8916 95.8187 84.7292 95.6911 84.5237 95.5916C84.3182 95.4922 84.0613 95.4425 83.7531 95.4425C83.3321 95.4425 82.9808 95.5369 82.6991 95.7259C82.4174 95.9115 82.2765 96.1518 82.2765 96.4467C82.2765 96.7019 82.371 96.9074 82.5599 97.0632C82.7488 97.219 83.0537 97.3466 83.4747 97.446L84.6877 97.7244C85.3904 97.8868 85.9141 98.1371 86.2588 98.4751C86.6035 98.8132 86.7758 99.2524 86.7758 99.7926C86.7758 100.25 86.6432 100.658 86.3781 101.016C86.1162 101.37 85.75 101.649 85.2794 101.851C84.812 102.053 84.2701 102.154 83.6536 102.154C82.7985 102.154 82.1008 101.972 81.5606 101.607C81.0204 101.239 80.6889 100.717 80.5663 100.041L82.0031 99.8224C82.0926 100.197 82.2765 100.48 82.5549 100.673C82.8333 100.862 83.1963 100.956 83.6437 100.956C84.1309 100.956 84.5204 100.855 84.812 100.653C85.1037 100.447 85.2495 100.197 85.2495 99.902C85.2495 99.6634 85.16 99.4628 84.9811 99.3004C84.8054 99.138 84.5353 99.0154 84.1707 98.9325L82.8781 98.6491C82.1655 98.4867 81.6385 98.2282 81.2971 97.8736C80.959 97.5189 80.79 97.0698 80.79 96.5263C80.79 96.0755 80.916 95.6811 81.1678 95.343C81.4197 95.005 81.7678 94.7415 82.2119 94.5526C82.656 94.3603 83.1648 94.2642 83.7382 94.2642C84.5634 94.2642 85.2131 94.4432 85.687 94.8011C86.161 95.1558 86.4742 95.6314 86.6267 96.228Z" fill="#949599"/>
<g clip-path="url(#clip0_53_3206)">
<path d="M25.1254 263.727V271H24.0246V264.828H23.982L22.2419 265.964V264.913L24.0565 263.727H25.1254ZM29.2247 271.121C28.6636 271.118 28.1842 270.97 27.7865 270.677C27.3888 270.383 27.0846 269.956 26.8739 269.395C26.6632 268.834 26.5578 268.158 26.5578 267.367C26.5578 266.579 26.6632 265.905 26.8739 265.347C27.0869 264.788 27.3923 264.362 27.7901 264.068C28.1902 263.775 28.6684 263.628 29.2247 263.628C29.7811 263.628 30.2581 263.776 30.6558 264.072C31.0536 264.365 31.3578 264.791 31.5685 265.35C31.7815 265.906 31.8881 266.579 31.8881 267.367C31.8881 268.16 31.7827 268.837 31.572 269.398C31.3613 269.957 31.0571 270.384 30.6594 270.68C30.2617 270.974 29.7834 271.121 29.2247 271.121ZM29.2247 270.173C29.7171 270.173 30.1019 269.932 30.3788 269.452C30.6582 268.971 30.7979 268.276 30.7979 267.367C30.7979 266.763 30.734 266.253 30.6061 265.837C30.4806 265.418 30.2995 265.1 30.0628 264.885C29.8284 264.667 29.5491 264.558 29.2247 264.558C28.7347 264.558 28.35 264.8 28.0706 265.283C27.7912 265.766 27.6504 266.46 27.648 267.367C27.648 267.973 27.7108 268.486 27.8362 268.905C27.9641 269.321 28.1452 269.638 28.3796 269.853C28.6139 270.066 28.8957 270.173 29.2247 270.173Z" fill="#B7B7BA"/>
<g clip-path="url(#clip1_53_3206)">
<path d="M16.6666 121V278" stroke="#F4F6FA"/>
<path d="M47 121V278" stroke="#F4F6FA"/>
<path d="M77.3333 121V278" stroke="#F4F6FA"/>
<path d="M107.667 121V278" stroke="#F4F6FA"/>
<path d="M138 121V278" stroke="#F4F6FA"/>
<path d="M168.333 121V278" stroke="#F4F6FA"/>
<path d="M198.667 121V278" stroke="#F4F6FA"/>
<path d="M229 121V278" stroke="#F4F6FA"/>
<path d="M259.333 121V278" stroke="#F4F6FA"/>
<path d="M289.667 121V278" stroke="#F4F6FA"/>
<path d="M290 121L17 121" stroke="#F4F6FA"/>
<path d="M290 152.4L17 152.4" stroke="#F4F6FA"/>
<path d="M290 183.8L17 183.8" stroke="#F4F6FA"/>
<path d="M290 215.2L17 215.2" stroke="#F4F6FA"/>
<path d="M290 246.6L17 246.6" stroke="#F4F6FA"/>
<path d="M290 278L17 278" stroke="#F4F6FA"/>
</g>
<rect x="17.1666" y="121.5" width="272.333" height="156" rx="3.5" stroke="#EFF1F5"/>
<path d="M16.6666 278L47.1666 246.5L55.6666 236L62.6666 232L70.6666 238L77.1666 215.5L87.1666 205L93.6666 206L101.667 201L107.667 215.5L115.667 206L122.667 209L130.667 202L138.167 184L147.167 174.5L154.167 179.5L161.667 174.5L168.167 184L176.667 192.5L184.167 201L193.667 205L198.667 194.5L206.667 191L212.167 199L221.667 202L229.167 194.5L235.167 191L244.667 188.5L252.167 194.5L259.167 191L265.667 194.5L275.167 202L283.167 194.5L289.667 183.5" stroke="#FFA44A" stroke-width="2"/>
<circle cx="70.6666" cy="237" r="2.5" fill="white" stroke="#FFA44A"/>
<circle cx="54.6666" cy="237" r="2.5" fill="white" stroke="#FFA44A"/>
<circle cx="77.6666" cy="215" r="2.5" fill="white" stroke="#FFA44A"/>
<circle cx="101.667" cy="202" r="2.5" fill="white" stroke="#FFA44A"/>
<circle cx="87.6666" cy="206" r="2.5" fill="white" stroke="#FFA44A"/>
<circle cx="107.667" cy="215" r="2.5" fill="white" stroke="#FFA44A"/>
<circle cx="122.667" cy="209" r="2.5" fill="white" stroke="#FFA44A"/>
<circle cx="138.167" cy="184.5" r="2.57143" fill="white" stroke="#FFA44A" stroke-width="0.857143"/>
<circle cx="154.167" cy="178.5" r="2.57143" fill="white" stroke="#FFA44A" stroke-width="0.857143"/>
<circle cx="169.167" cy="184.5" r="2.57143" fill="white" stroke="#FFA44A" stroke-width="0.857143"/>
<circle cx="183.167" cy="200.5" r="2.57143" fill="white" stroke="#FFA44A" stroke-width="0.857143"/>
<circle cx="183.167" cy="200.5" r="2.57143" fill="white" stroke="#FFA44A" stroke-width="0.857143"/>
<circle cx="199.167" cy="194.5" r="2.57143" fill="white" stroke="#FFA44A" stroke-width="0.857143"/>
<circle cx="212.167" cy="198.5" r="2.57143" fill="white" stroke="#FFA44A" stroke-width="0.857143"/>
<circle cx="229.167" cy="195.5" r="2.57143" fill="white" stroke="#FFA44A" stroke-width="0.857143"/>
<circle cx="244.667" cy="189" r="2.63265" fill="white" stroke="#FFA44A" stroke-width="0.734694"/>
<circle cx="259.167" cy="191.5" r="2.63265" fill="white" stroke="#FFA44A" stroke-width="0.734694"/>
<circle cx="275.667" cy="201" r="2.63265" fill="white" stroke="#FFA44A" stroke-width="0.734694"/>
<circle cx="288.167" cy="184.5" r="2.63265" fill="white" stroke="#FFA44A" stroke-width="0.734694"/>
<path d="M25.1254 139.727V147H24.0246V140.828H23.982L22.2419 141.964V140.913L24.0565 139.727H25.1254ZM29.2247 147.121C28.6636 147.118 28.1842 146.97 27.7865 146.677C27.3888 146.383 27.0846 145.956 26.8739 145.395C26.6632 144.834 26.5578 144.158 26.5578 143.367C26.5578 142.579 26.6632 141.905 26.8739 141.347C27.0869 140.788 27.3923 140.362 27.7901 140.068C28.1902 139.775 28.6684 139.628 29.2247 139.628C29.7811 139.628 30.2581 139.776 30.6558 140.072C31.0536 140.365 31.3578 140.791 31.5685 141.35C31.7815 141.906 31.8881 142.579 31.8881 143.367C31.8881 144.16 31.7827 144.837 31.572 145.398C31.3613 145.957 31.0571 146.384 30.6594 146.68C30.2617 146.974 29.7834 147.121 29.2247 147.121ZM29.2247 146.173C29.7171 146.173 30.1019 145.932 30.3788 145.452C30.6582 144.971 30.7979 144.276 30.7979 143.367C30.7979 142.763 30.734 142.253 30.6061 141.837C30.4806 141.418 30.2995 141.1 30.0628 140.885C29.8284 140.667 29.5491 140.558 29.2247 140.558C28.7347 140.558 28.35 140.8 28.0706 141.283C27.7912 141.766 27.6504 142.46 27.648 143.367C27.648 143.973 27.7108 144.486 27.8362 144.905C27.9641 145.321 28.1452 145.638 28.3796 145.853C28.6139 146.066 28.8957 146.173 29.2247 146.173ZM35.2798 147.121C34.7187 147.118 34.2393 146.97 33.8416 146.677C33.4439 146.383 33.1396 145.956 32.9289 145.395C32.7182 144.834 32.6129 144.158 32.6129 143.367C32.6129 142.579 32.7182 141.905 32.9289 141.347C33.142 140.788 33.4474 140.362 33.8451 140.068C34.2452 139.775 34.7235 139.628 35.2798 139.628C35.8361 139.628 36.3132 139.776 36.7109 140.072C37.1086 140.365 37.4128 140.791 37.6236 141.35C37.8366 141.906 37.9432 142.579 37.9432 143.367C37.9432 144.16 37.8378 144.837 37.6271 145.398C37.4164 145.957 37.1122 146.384 36.7145 146.68C36.3167 146.974 35.8385 147.121 35.2798 147.121ZM35.2798 146.173C35.7722 146.173 36.1569 145.932 36.4339 145.452C36.7133 144.971 36.853 144.276 36.853 143.367C36.853 142.763 36.789 142.253 36.6612 141.837C36.5357 141.418 36.3546 141.1 36.1179 140.885C35.8835 140.667 35.6041 140.558 35.2798 140.558C34.7897 140.558 34.405 140.8 34.1257 141.283C33.8463 141.766 33.7055 142.46 33.7031 143.367C33.7031 143.973 33.7658 144.486 33.8913 144.905C34.0191 145.321 34.2003 145.638 34.4346 145.853C34.669 146.066 34.9507 146.173 35.2798 146.173Z" fill="#B7B7BA"/>
<path d="M24.8236 178.099C24.3146 178.099 23.8648 178.012 23.4742 177.837C23.0859 177.661 22.7817 177.42 22.5615 177.112C22.3413 176.804 22.2324 176.454 22.2348 176.061C22.2324 175.753 22.2952 175.47 22.423 175.212C22.5532 174.952 22.7296 174.735 22.9521 174.562C23.1747 174.387 23.4233 174.276 23.6979 174.229V174.186C23.3357 174.098 23.0457 173.904 22.8278 173.604C22.61 173.303 22.5023 172.957 22.5047 172.567C22.5023 172.195 22.6006 171.864 22.7994 171.572C23.0007 171.279 23.2765 171.048 23.6269 170.88C23.9772 170.712 24.3761 170.628 24.8236 170.628C25.2663 170.628 25.6617 170.713 26.0097 170.884C26.36 171.052 26.6358 171.282 26.8371 171.576C27.0383 171.867 27.1401 172.197 27.1425 172.567C27.1401 172.957 27.0288 173.303 26.8087 173.604C26.5885 173.904 26.302 174.098 25.9493 174.186V174.229C26.2216 174.276 26.4666 174.387 26.6844 174.562C26.9046 174.735 27.0797 174.952 27.2099 175.212C27.3425 175.47 27.41 175.753 27.4124 176.061C27.41 176.454 27.2987 176.804 27.0786 177.112C26.8584 177.42 26.553 177.661 26.1624 177.837C25.7741 178.012 25.3278 178.099 24.8236 178.099ZM24.8236 177.201C25.1242 177.201 25.3847 177.151 25.6048 177.052C25.825 176.95 25.9955 176.809 26.1162 176.629C26.2369 176.447 26.2985 176.234 26.3009 175.99C26.2985 175.737 26.2322 175.513 26.102 175.319C25.9742 175.125 25.8001 174.972 25.58 174.861C25.3598 174.75 25.1077 174.694 24.8236 174.694C24.5371 174.694 24.2826 174.75 24.0601 174.861C23.8376 174.972 23.6624 175.125 23.5345 175.319C23.4067 175.513 23.3439 175.737 23.3463 175.99C23.3439 176.234 23.4019 176.447 23.5203 176.629C23.6411 176.809 23.8127 176.95 24.0352 177.052C24.2578 177.151 24.5206 177.201 24.8236 177.201ZM24.8236 173.817C25.0651 173.817 25.2793 173.768 25.4663 173.671C25.6534 173.574 25.8001 173.439 25.9067 173.266C26.0156 173.094 26.0712 172.891 26.0736 172.659C26.0712 172.432 26.0168 172.233 25.9102 172.062C25.8061 171.892 25.6605 171.761 25.4734 171.668C25.2864 171.574 25.0698 171.526 24.8236 171.526C24.5726 171.526 24.3525 171.574 24.1631 171.668C23.976 171.761 23.8305 171.892 23.7263 172.062C23.6221 172.233 23.5712 172.432 23.5736 172.659C23.5712 172.891 23.6233 173.094 23.7298 173.266C23.8364 173.439 23.9832 173.574 24.1702 173.671C24.3596 173.768 24.5774 173.817 24.8236 173.817ZM30.8165 178.121C30.2554 178.118 29.776 177.97 29.3783 177.677C28.9806 177.383 28.6764 176.956 28.4657 176.395C28.255 175.834 28.1496 175.158 28.1496 174.367C28.1496 173.579 28.255 172.905 28.4657 172.347C28.6787 171.788 28.9841 171.362 29.3819 171.068C29.782 170.775 30.2602 170.628 30.8165 170.628C31.3729 170.628 31.8499 170.776 32.2476 171.072C32.6454 171.365 32.9496 171.791 33.1603 172.35C33.3733 172.906 33.4799 173.579 33.4799 174.367C33.4799 175.16 33.3745 175.837 33.1638 176.398C32.9531 176.957 32.6489 177.384 32.2512 177.68C31.8535 177.974 31.3752 178.121 30.8165 178.121ZM30.8165 177.173C31.3089 177.173 31.6937 176.932 31.9706 176.452C32.25 175.971 32.3897 175.276 32.3897 174.367C32.3897 173.763 32.3258 173.253 32.1979 172.837C32.0724 172.418 31.8913 172.1 31.6546 171.885C31.4202 171.667 31.1409 171.558 30.8165 171.558C30.3265 171.558 29.9418 171.8 29.6624 172.283C29.383 172.766 29.2422 173.46 29.2398 174.367C29.2398 174.973 29.3026 175.486 29.428 175.905C29.5559 176.321 29.737 176.638 29.9713 176.853C30.2057 177.066 30.4874 177.173 30.8165 177.173Z" fill="#B7B7BA"/>
<path d="M24.9053 209.099C24.5809 209.095 24.2613 209.036 23.9465 208.922C23.634 208.808 23.3499 208.619 23.0942 208.354C22.8385 208.089 22.6337 207.732 22.4798 207.285C22.3283 206.837 22.2526 206.279 22.2526 205.609C22.2526 204.974 22.3153 204.411 22.4408 203.918C22.5686 203.426 22.7521 203.01 22.9912 202.672C23.2303 202.331 23.5191 202.072 23.8577 201.894C24.1962 201.717 24.5762 201.628 24.9976 201.628C25.4308 201.628 25.8155 201.713 26.1517 201.884C26.4879 202.054 26.7601 202.29 26.9685 202.59C27.1792 202.891 27.3129 203.233 27.3698 203.616H26.2867C26.2133 203.313 26.0677 203.066 25.8499 202.874C25.6321 202.683 25.348 202.587 24.9976 202.587C24.4649 202.587 24.0494 202.819 23.7511 203.283C23.4552 203.747 23.3061 204.392 23.3037 205.218H23.357C23.4824 205.012 23.6363 204.837 23.8186 204.692C24.0033 204.546 24.2092 204.433 24.4365 204.355C24.6662 204.275 24.9076 204.234 25.1609 204.234C25.5823 204.234 25.9635 204.337 26.3044 204.543C26.6477 204.747 26.9211 205.029 27.1247 205.388C27.3283 205.748 27.4301 206.16 27.4301 206.624C27.4301 207.088 27.3248 207.509 27.1141 207.885C26.9057 208.261 26.6122 208.56 26.2334 208.78C25.8546 208.998 25.4119 209.104 24.9053 209.099ZM24.9017 208.176C25.1811 208.176 25.4308 208.107 25.651 207.97C25.8712 207.833 26.0452 207.648 26.173 207.416C26.3009 207.184 26.3648 206.925 26.3648 206.638C26.3648 206.359 26.302 206.105 26.1766 205.875C26.0535 205.645 25.883 205.463 25.6652 205.328C25.4498 205.193 25.2036 205.126 24.9266 205.126C24.7159 205.126 24.5206 205.166 24.3406 205.246C24.1631 205.327 24.0068 205.438 23.8719 205.58C23.7369 205.722 23.6304 205.886 23.5523 206.07C23.4765 206.253 23.4386 206.446 23.4386 206.649C23.4386 206.921 23.5014 207.174 23.6269 207.406C23.7547 207.638 23.9287 207.825 24.1489 207.967C24.3714 208.106 24.6224 208.176 24.9017 208.176ZM30.8556 209.121C30.2945 209.118 29.8151 208.97 29.4174 208.677C29.0196 208.383 28.7154 207.956 28.5047 207.395C28.294 206.834 28.1887 206.158 28.1887 205.367C28.1887 204.579 28.294 203.905 28.5047 203.347C28.7178 202.788 29.0232 202.362 29.4209 202.068C29.821 201.775 30.2992 201.628 30.8556 201.628C31.4119 201.628 31.889 201.776 32.2867 202.072C32.6844 202.365 32.9886 202.791 33.1993 203.35C33.4124 203.906 33.5189 204.579 33.5189 205.367C33.5189 206.16 33.4136 206.837 33.2029 207.398C32.9922 207.957 32.688 208.384 32.2902 208.68C31.8925 208.974 31.4143 209.121 30.8556 209.121ZM30.8556 208.173C31.348 208.173 31.7327 207.932 32.0097 207.452C32.2891 206.971 32.4287 206.276 32.4287 205.367C32.4287 204.763 32.3648 204.253 32.237 203.837C32.1115 203.418 31.9304 203.1 31.6937 202.885C31.4593 202.667 31.1799 202.558 30.8556 202.558C30.3655 202.558 29.9808 202.8 29.7015 203.283C29.4221 203.766 29.2812 204.46 29.2789 205.367C29.2789 205.973 29.3416 206.486 29.4671 206.905C29.5949 207.321 29.776 207.638 30.0104 207.853C30.2448 208.066 30.5265 208.173 30.8556 208.173Z" fill="#B7B7BA"/>
<path d="M22.2135 238.58V237.692L25.3563 232.727H26.0558V234.034H25.6119L23.3641 237.592V237.649H27.6716V238.58H22.2135ZM25.6617 240V238.31L25.6688 237.905V232.727H26.7092V240H25.6617ZM31.0411 240.121C30.48 240.118 30.0006 239.97 29.6029 239.677C29.2052 239.383 28.901 238.956 28.6903 238.395C28.4796 237.834 28.3742 237.158 28.3742 236.367C28.3742 235.579 28.4796 234.905 28.6903 234.347C28.9033 233.788 29.2087 233.362 29.6065 233.068C30.0066 232.775 30.4848 232.628 31.0411 232.628C31.5975 232.628 32.0745 232.776 32.4722 233.072C32.87 233.365 33.1742 233.791 33.3849 234.35C33.5979 234.906 33.7045 235.579 33.7045 236.367C33.7045 237.16 33.5991 237.837 33.3884 238.398C33.1777 238.957 32.8735 239.384 32.4758 239.68C32.0781 239.974 31.5998 240.121 31.0411 240.121ZM31.0411 239.173C31.5336 239.173 31.9183 238.932 32.1952 238.452C32.4746 237.971 32.6143 237.276 32.6143 236.367C32.6143 235.763 32.5504 235.253 32.4225 234.837C32.297 234.418 32.1159 234.1 31.8792 233.885C31.6448 233.667 31.3655 233.558 31.0411 233.558C30.5511 233.558 30.1664 233.8 29.887 234.283C29.6077 234.766 29.4668 235.46 29.4644 236.367C29.4644 236.973 29.5272 237.486 29.6526 237.905C29.7805 238.321 29.9616 238.638 30.196 238.853C30.4303 239.066 30.7121 239.173 31.0411 239.173Z" fill="#B7B7BA"/>
</g>
<path d="M33.1995 284.727V292H32.0987V285.828H32.0561L30.316 286.964V285.913L32.1306 284.727H33.1995Z" fill="#B7B7BA"/>
<path d="M60.5885 292V291.205L63.0494 288.655C63.3122 288.378 63.5288 288.135 63.6993 287.927C63.8721 287.716 64.0011 287.516 64.0864 287.327C64.1716 287.137 64.2142 286.936 64.2142 286.723C64.2142 286.482 64.1574 286.273 64.0437 286.098C63.9301 285.92 63.775 285.784 63.5785 285.69C63.3821 285.593 63.1607 285.544 62.9145 285.544C62.6541 285.544 62.4268 285.597 62.2327 285.704C62.0385 285.81 61.8894 285.961 61.7852 286.155C61.6811 286.349 61.629 286.576 61.629 286.837H60.5814C60.5814 286.394 60.6832 286.007 60.8868 285.675C61.0904 285.344 61.3697 285.087 61.7249 284.905C62.08 284.72 62.4836 284.628 62.9358 284.628C63.3927 284.628 63.7952 284.719 64.1432 284.901C64.4936 285.081 64.767 285.327 64.9635 285.64C65.16 285.95 65.2582 286.3 65.2582 286.691C65.2582 286.961 65.2073 287.225 65.1055 287.483C65.0061 287.741 64.8321 288.029 64.5835 288.346C64.3349 288.661 63.9893 289.043 63.5466 289.493L62.1013 291.006V291.059H65.3754V292H60.5885Z" fill="#B7B7BA"/>
<path d="M94.2685 292.099C93.7808 292.099 93.3452 292.015 92.9617 291.847C92.5805 291.679 92.2787 291.446 92.0562 291.148C91.836 290.847 91.7176 290.499 91.701 290.104H92.8161C92.8303 290.319 92.9025 290.506 93.0327 290.665C93.1653 290.821 93.3381 290.942 93.5512 291.027C93.7643 291.112 94.001 291.155 94.2614 291.155C94.5479 291.155 94.8012 291.105 95.0214 291.006C95.2439 290.906 95.4179 290.768 95.5434 290.59C95.6689 290.41 95.7316 290.203 95.7316 289.969C95.7316 289.725 95.6689 289.511 95.5434 289.326C95.4203 289.139 95.2392 288.992 95.0001 288.886C94.7633 288.779 94.4769 288.726 94.1407 288.726H93.5263V287.831H94.1407C94.4106 287.831 94.6473 287.782 94.8509 287.685C95.0569 287.588 95.2179 287.453 95.3339 287.281C95.4499 287.105 95.5079 286.901 95.5079 286.666C95.5079 286.441 95.457 286.246 95.3552 286.08C95.2557 285.912 95.1137 285.781 94.929 285.686C94.7467 285.591 94.5313 285.544 94.2827 285.544C94.046 285.544 93.8246 285.588 93.6187 285.675C93.4151 285.761 93.2493 285.884 93.1215 286.045C92.9937 286.203 92.925 286.394 92.9155 286.616H91.8537C91.8656 286.223 91.9816 285.878 92.2018 285.58C92.4243 285.281 92.7179 285.048 93.0824 284.88C93.447 284.712 93.8519 284.628 94.2969 284.628C94.7633 284.628 95.1658 284.719 95.5043 284.901C95.8452 285.081 96.108 285.321 96.2927 285.622C96.4797 285.923 96.572 286.252 96.5697 286.609C96.572 287.017 96.4584 287.362 96.2287 287.646C96.0015 287.93 95.6984 288.121 95.3197 288.218V288.275C95.8026 288.348 96.1767 288.54 96.4418 288.85C96.7093 289.16 96.8419 289.545 96.8395 290.004C96.8419 290.404 96.7306 290.763 96.5057 291.08C96.2832 291.397 95.979 291.647 95.5931 291.83C95.2072 292.009 94.7657 292.099 94.2685 292.099Z" fill="#B7B7BA"/>
<path d="M122.732 290.58V289.692L125.875 284.727H126.574V286.034H126.13L123.883 289.592V289.649H128.19V290.58H122.732ZM126.18 292V290.31L126.187 289.905V284.727H127.228V292H126.18Z" fill="#B7B7BA"/>
<path d="M156.433 292.099C155.988 292.099 155.588 292.014 155.233 291.844C154.88 291.671 154.599 291.434 154.388 291.134C154.177 290.833 154.065 290.49 154.051 290.104H155.116C155.142 290.416 155.28 290.673 155.531 290.874C155.782 291.076 156.083 291.176 156.433 291.176C156.713 291.176 156.96 291.112 157.176 290.984C157.393 290.854 157.564 290.675 157.687 290.448C157.812 290.221 157.875 289.962 157.875 289.67C157.875 289.375 157.811 289.111 157.683 288.879C157.556 288.647 157.379 288.464 157.154 288.332C156.932 288.199 156.676 288.132 156.387 288.129C156.167 288.129 155.946 288.167 155.723 288.243C155.501 288.319 155.321 288.418 155.183 288.541L154.178 288.392L154.587 284.727H158.585V285.668H155.499L155.269 287.703H155.311C155.453 287.566 155.641 287.451 155.876 287.359C156.113 287.266 156.366 287.22 156.636 287.22C157.079 287.22 157.473 287.326 157.818 287.536C158.166 287.747 158.44 288.035 158.639 288.399C158.84 288.761 158.939 289.178 158.937 289.649C158.939 290.12 158.833 290.54 158.617 290.91C158.404 291.279 158.108 291.57 157.73 291.783C157.353 291.994 156.921 292.099 156.433 292.099Z" fill="#B7B7BA"/>
<path d="M187.72 292.099C187.396 292.095 187.076 292.036 186.761 291.922C186.449 291.808 186.165 291.619 185.909 291.354C185.653 291.089 185.449 290.732 185.295 290.285C185.143 289.837 185.067 289.279 185.067 288.609C185.067 287.974 185.13 287.411 185.256 286.918C185.383 286.426 185.567 286.01 185.806 285.672C186.045 285.331 186.334 285.072 186.672 284.894C187.011 284.717 187.391 284.628 187.812 284.628C188.246 284.628 188.63 284.713 188.967 284.884C189.303 285.054 189.575 285.29 189.783 285.59C189.994 285.891 190.128 286.233 190.185 286.616H189.101C189.028 286.313 188.882 286.066 188.665 285.874C188.447 285.683 188.163 285.587 187.812 285.587C187.28 285.587 186.864 285.819 186.566 286.283C186.27 286.747 186.121 287.392 186.119 288.218H186.172C186.297 288.012 186.451 287.837 186.633 287.692C186.818 287.546 187.024 287.433 187.251 287.355C187.481 287.275 187.722 287.234 187.976 287.234C188.397 287.234 188.778 287.337 189.119 287.543C189.463 287.747 189.736 288.029 189.94 288.388C190.143 288.748 190.245 289.16 190.245 289.624C190.245 290.088 190.14 290.509 189.929 290.885C189.721 291.261 189.427 291.56 189.048 291.78C188.669 291.998 188.227 292.104 187.72 292.099ZM187.717 291.176C187.996 291.176 188.246 291.107 188.466 290.97C188.686 290.833 188.86 290.648 188.988 290.416C189.116 290.184 189.18 289.925 189.18 289.638C189.18 289.359 189.117 289.105 188.991 288.875C188.868 288.645 188.698 288.463 188.48 288.328C188.265 288.193 188.018 288.126 187.741 288.126C187.531 288.126 187.335 288.166 187.155 288.246C186.978 288.327 186.822 288.438 186.687 288.58C186.552 288.722 186.445 288.886 186.367 289.07C186.291 289.253 186.253 289.446 186.253 289.649C186.253 289.921 186.316 290.174 186.442 290.406C186.57 290.638 186.744 290.825 186.964 290.967C187.186 291.106 187.437 291.176 187.717 291.176Z" fill="#B7B7BA"/>
<path d="M217.074 292L220.249 285.722V285.668H216.577V284.727H221.385V285.7L218.221 292H217.074Z" fill="#B7B7BA"/>
<path d="M249.935 292.099C249.426 292.099 248.976 292.012 248.585 291.837C248.197 291.661 247.893 291.42 247.673 291.112C247.452 290.804 247.344 290.454 247.346 290.061C247.344 289.753 247.406 289.47 247.534 289.212C247.664 288.952 247.841 288.735 248.063 288.562C248.286 288.387 248.534 288.276 248.809 288.229V288.186C248.447 288.098 248.157 287.904 247.939 287.604C247.721 287.303 247.613 286.957 247.616 286.567C247.613 286.195 247.712 285.864 247.911 285.572C248.112 285.279 248.388 285.048 248.738 284.88C249.088 284.712 249.487 284.628 249.935 284.628C250.377 284.628 250.773 284.713 251.121 284.884C251.471 285.052 251.747 285.282 251.948 285.576C252.149 285.867 252.251 286.197 252.254 286.567C252.251 286.957 252.14 287.303 251.92 287.604C251.7 287.904 251.413 288.098 251.06 288.186V288.229C251.333 288.276 251.578 288.387 251.795 288.562C252.016 288.735 252.191 288.952 252.321 289.212C252.454 289.47 252.521 289.753 252.523 290.061C252.521 290.454 252.41 290.804 252.19 291.112C251.969 291.42 251.664 291.661 251.273 291.837C250.885 292.012 250.439 292.099 249.935 292.099ZM249.935 291.201C250.235 291.201 250.496 291.151 250.716 291.052C250.936 290.95 251.107 290.809 251.227 290.629C251.348 290.447 251.41 290.234 251.412 289.99C251.41 289.737 251.343 289.513 251.213 289.319C251.085 289.125 250.911 288.972 250.691 288.861C250.471 288.75 250.219 288.694 249.935 288.694C249.648 288.694 249.394 288.75 249.171 288.861C248.949 288.972 248.773 289.125 248.646 289.319C248.518 289.513 248.455 289.737 248.457 289.99C248.455 290.234 248.513 290.447 248.631 290.629C248.752 290.809 248.924 290.95 249.146 291.052C249.369 291.151 249.632 291.201 249.935 291.201ZM249.935 287.817C250.176 287.817 250.39 287.768 250.577 287.671C250.764 287.574 250.911 287.439 251.018 287.266C251.127 287.094 251.182 286.891 251.185 286.659C251.182 286.432 251.128 286.233 251.021 286.062C250.917 285.892 250.772 285.761 250.585 285.668C250.398 285.574 250.181 285.526 249.935 285.526C249.684 285.526 249.464 285.574 249.274 285.668C249.087 285.761 248.942 285.892 248.837 286.062C248.733 286.233 248.682 286.432 248.685 286.659C248.682 286.891 248.734 287.094 248.841 287.266C248.947 287.439 249.094 287.574 249.281 287.671C249.471 287.768 249.688 287.817 249.935 287.817Z" fill="#B7B7BA"/>
<path d="M281.044 284.628C281.368 284.63 281.688 284.689 282.003 284.805C282.317 284.921 282.602 285.111 282.855 285.374C283.111 285.636 283.314 285.991 283.466 286.439C283.62 286.884 283.698 287.438 283.7 288.101C283.7 288.738 283.636 289.305 283.508 289.802C283.38 290.297 283.197 290.714 282.958 291.055C282.721 291.396 282.433 291.656 282.095 291.833C281.756 292.011 281.375 292.099 280.951 292.099C280.518 292.099 280.134 292.014 279.797 291.844C279.461 291.673 279.188 291.438 278.977 291.137C278.766 290.834 278.635 290.486 278.583 290.093H279.666C279.737 290.406 279.881 290.659 280.099 290.853C280.319 291.045 280.603 291.141 280.951 291.141C281.484 291.141 281.9 290.909 282.198 290.445C282.496 289.978 282.647 289.327 282.649 288.491H282.592C282.469 288.695 282.315 288.87 282.13 289.017C281.948 289.164 281.743 289.277 281.516 289.358C281.289 289.438 281.046 289.479 280.788 289.479C280.369 289.479 279.988 289.376 279.645 289.17C279.301 288.964 279.028 288.681 278.824 288.321C278.621 287.961 278.519 287.55 278.519 287.089C278.519 286.629 278.623 286.213 278.831 285.839C279.042 285.465 279.336 285.169 279.712 284.951C280.091 284.731 280.535 284.623 281.044 284.628ZM281.047 285.551C280.77 285.551 280.521 285.62 280.298 285.757C280.078 285.892 279.904 286.076 279.776 286.308C279.648 286.537 279.584 286.793 279.584 287.075C279.584 287.356 279.646 287.612 279.769 287.842C279.894 288.069 280.065 288.25 280.28 288.385C280.498 288.518 280.747 288.584 281.026 288.584C281.234 288.584 281.429 288.544 281.608 288.463C281.788 288.383 281.946 288.271 282.081 288.129C282.216 287.985 282.321 287.821 282.397 287.639C282.473 287.457 282.51 287.265 282.51 287.064C282.51 286.796 282.447 286.548 282.319 286.318C282.193 286.089 282.02 285.904 281.8 285.764C281.58 285.622 281.329 285.551 281.047 285.551Z" fill="#B7B7BA"/>
<defs>
<clipPath id="clip0_53_3206">
<rect x="16.6666" y="121" width="280.333" height="157" rx="4" fill="white"/>
</clipPath>
<clipPath id="clip1_53_3206">
<rect x="16.6666" y="121" width="273.333" height="157" rx="4" fill="white"/>
</clipPath>
</defs>
</svg>
