<svg width="24" height="24" viewBox="0 0 24 24" fill="none" xmlns="http://www.w3.org/2000/svg">
<path d="M19.7129 9.12786L19.4669 9.69386C19.4284 9.78603 19.3636 9.86476 19.2805 9.92013C19.1974 9.97551 19.0997 10.0051 18.9999 10.0051C18.9 10.0051 18.8024 9.97551 18.7193 9.92013C18.6362 9.86476 18.5713 9.78603 18.5329 9.69386L18.2869 9.12786C17.8544 8.12658 17.0623 7.32378 16.0669 6.87786L15.3079 6.53886C15.2158 6.4965 15.1378 6.42863 15.0831 6.34329C15.0284 6.25795 14.9994 6.15872 14.9994 6.05736C14.9994 5.956 15.0284 5.85677 15.0831 5.77143C15.1378 5.68609 15.2158 5.61822 15.3079 5.57586L16.0249 5.25686C17.0453 4.79824 17.8509 3.96574 18.2759 2.93086L18.5289 2.31986C18.566 2.22521 18.6308 2.14396 18.7149 2.08669C18.7989 2.02941 18.8982 1.99878 18.9999 1.99878C19.1016 1.99878 19.2009 2.02941 19.2849 2.08669C19.3689 2.14396 19.4337 2.22521 19.4709 2.31986L19.7239 2.92986C20.1484 3.96494 20.9537 4.79779 21.9739 5.25686L22.6919 5.57686C22.7837 5.61934 22.8614 5.6872 22.9159 5.77243C22.9704 5.85767 22.9993 5.95671 22.9993 6.05786C22.9993 6.15901 22.9704 6.25805 22.9159 6.34329C22.8614 6.42852 22.7837 6.49638 22.6919 6.53886L21.9319 6.87686C20.9367 7.32323 20.1449 8.12639 19.7129 9.12786ZM5.99988 4.99986C5.46944 4.99986 4.96074 5.21057 4.58566 5.58565C4.21059 5.96072 3.99988 6.46943 3.99988 6.99986V16.9999C3.99988 17.5303 4.21059 18.039 4.58566 18.4141C4.96074 18.7891 5.46944 18.9999 5.99988 18.9999H17.9999C18.5303 18.9999 19.039 18.7891 19.4141 18.4141C19.7892 18.039 19.9999 17.5303 19.9999 16.9999V11.9999H21.9999V16.9999C21.9999 18.0607 21.5784 19.0781 20.8283 19.8283C20.0782 20.5784 19.0607 20.9999 17.9999 20.9999H5.99988C4.93901 20.9999 3.9216 20.5784 3.17145 19.8283C2.42131 19.0781 1.99988 18.0607 1.99988 16.9999V6.99986C1.99988 5.93899 2.42131 4.92158 3.17145 4.17143C3.9216 3.42129 4.93901 2.99986 5.99988 2.99986H12.9999V4.99986H5.99988Z" fill="#2B2C36"/>
</svg>
