<svg width="24" height="24" viewBox="0 0 24 24" fill="none" xmlns="http://www.w3.org/2000/svg">
<path d="M11.9429 1.25024H13.4999C13.6988 1.25024 13.8896 1.32926 14.0302 1.46991C14.1709 1.61057 14.2499 1.80133 14.2499 2.00024C14.2499 2.19916 14.1709 2.38992 14.0302 2.53057C13.8896 2.67123 13.6988 2.75024 13.4999 2.75024H11.9999C9.62188 2.75024 7.91388 2.75224 6.61388 2.92624C5.33488 3.09824 4.56388 3.42624 3.99388 3.99524C3.42488 4.56524 3.09788 5.33524 2.92588 6.61424C2.75188 7.91424 2.74988 9.62224 2.74988 12.0002C2.74988 14.3782 2.75188 16.0862 2.92588 17.3862C3.09788 18.6652 3.42588 19.4362 3.99488 20.0062C4.56488 20.5752 5.33488 20.9022 6.61388 21.0742C7.91388 21.2482 9.62188 21.2502 11.9999 21.2502C14.3779 21.2502 16.0859 21.2482 17.3859 21.0742C18.6649 20.9022 19.4359 20.5742 20.0059 20.0052C20.5749 19.4352 20.9019 18.6652 21.0739 17.3862C21.2479 16.0862 21.2499 14.3782 21.2499 12.0002V10.5002C21.2499 10.3013 21.3289 10.1106 21.4695 9.96991C21.6102 9.82926 21.801 9.75024 21.9999 9.75024C22.1988 9.75024 22.3896 9.82926 22.5302 9.96991C22.6709 10.1106 22.7499 10.3013 22.7499 10.5002V12.0572C22.7499 14.3662 22.7499 16.1752 22.5599 17.5872C22.3659 19.0312 21.9599 20.1712 21.0659 21.0662C20.1709 21.9612 19.0309 22.3662 17.5859 22.5602C16.1749 22.7502 14.3659 22.7502 12.0569 22.7502H11.9429C9.63388 22.7502 7.82488 22.7502 6.41288 22.5602C4.96888 22.3662 3.82888 21.9602 2.93388 21.0662C2.03888 20.1712 1.63388 19.0312 1.43988 17.5862C1.24988 16.1752 1.24988 14.3662 1.24988 12.0572V11.9432C1.24988 9.63424 1.24988 7.82524 1.43988 6.41324C1.63388 4.96924 2.03988 3.82924 2.93388 2.93424C3.82888 2.03924 4.96888 1.63424 6.41388 1.44024C7.82488 1.25024 9.63388 1.25024 11.9429 1.25024Z" fill="#2B2C36"/>
<path d="M17.4803 9.42345C17.633 9.55079 17.7289 9.73356 17.7469 9.93158C17.7649 10.1296 17.7036 10.3267 17.5763 10.4795L15.7473 12.6745C15.4193 13.0685 15.1233 13.4245 14.8473 13.6745C14.5453 13.9445 14.1673 14.1875 13.6673 14.1875C13.1673 14.1875 12.7883 13.9455 12.4873 13.6735C12.2113 13.4235 11.9153 13.0685 11.5863 12.6735L11.2943 12.3235C10.9233 11.8785 10.6953 11.6075 10.5073 11.4385C10.4584 11.391 10.4036 11.35 10.3443 11.3165L10.3373 11.3135L10.3333 11.3115L10.3233 11.3165C10.2637 11.3499 10.2085 11.3909 10.1593 11.4385C9.97232 11.6085 9.74432 11.8785 9.37332 12.3235L7.57632 14.4795C7.4474 14.6268 7.26597 14.7179 7.07078 14.7333C6.87559 14.7487 6.68212 14.6871 6.5317 14.5618C6.38129 14.4364 6.28586 14.2572 6.26579 14.0625C6.24573 13.8677 6.30262 13.6728 6.42432 13.5195L8.25332 11.3245C8.58132 10.9305 8.87732 10.5745 9.15332 10.3245C9.45532 10.0545 9.83332 9.81145 10.3333 9.81145C10.8333 9.81145 11.2123 10.0535 11.5133 10.3255C11.7893 10.5755 12.0853 10.9305 12.4143 11.3255L12.7063 11.6755C13.0773 12.1205 13.3053 12.3915 13.4933 12.5605C13.5793 12.6385 13.6313 12.6705 13.6563 12.6825L13.6663 12.6875L13.6713 12.6855L13.6783 12.6825C13.7376 12.6489 13.7924 12.6079 13.8413 12.5605C14.0283 12.3905 14.2563 12.1205 14.6273 11.6755L16.4243 9.51945C16.5517 9.36674 16.7344 9.27084 16.9324 9.25284C17.1305 9.23484 17.3275 9.2962 17.4803 9.42345Z" fill="#2B2C36"/>
<path fill-rule="evenodd" clip-rule="evenodd" d="M19.0001 1.25024C18.0056 1.25024 17.0517 1.64533 16.3485 2.34859C15.6452 3.05186 15.2501 4.00568 15.2501 5.00024C15.2501 5.99481 15.6452 6.94863 16.3485 7.65189C17.0517 8.35516 18.0056 8.75024 19.0001 8.75024C19.9947 8.75024 20.9485 8.35516 21.6518 7.65189C22.355 6.94863 22.7501 5.99481 22.7501 5.00024C22.7501 4.00568 22.355 3.05186 21.6518 2.34859C20.9485 1.64533 19.9947 1.25024 19.0001 1.25024ZM16.7501 5.00024C16.7501 4.40351 16.9872 3.83121 17.4091 3.40925C17.8311 2.9873 18.4034 2.75024 19.0001 2.75024C19.5969 2.75024 20.1692 2.9873 20.5911 3.40925C21.0131 3.83121 21.2501 4.40351 21.2501 5.00024C21.2501 5.59698 21.0131 6.16928 20.5911 6.59123C20.1692 7.01319 19.5969 7.25024 19.0001 7.25024C18.4034 7.25024 17.8311 7.01319 17.4091 6.59123C16.9872 6.16928 16.7501 5.59698 16.7501 5.00024Z" fill="#2B2C36"/>
</svg>
