<svg width="24" height="24" viewBox="0 0 24 24" fill="none" xmlns="http://www.w3.org/2000/svg">
<g clip-path="url(#clip0_300_23144)">
<path d="M12 0C8.8174 0 5.76515 1.26428 3.51472 3.51472C1.26428 5.76515 0 8.8174 0 12C0 15.1826 1.26428 18.2348 3.51472 20.4853C5.76515 22.7357 8.8174 24 12 24C15.1826 24 18.2348 22.7357 20.4853 20.4853C22.7357 18.2348 24 15.1826 24 12C24 8.8174 22.7357 5.76515 20.4853 3.51472C18.2348 1.26428 15.1826 0 12 0ZM12.642 4.134C13.597 4.134 14.372 4.909 14.372 5.867V14.933H15.972C16.7366 14.913 17.4632 14.5953 17.997 14.0474C18.5307 13.4995 18.8294 12.7649 18.8294 12C18.8294 11.2351 18.5307 10.5005 17.997 9.95261C17.4632 9.40474 16.7366 9.08697 15.972 9.067H15.306V7.333H15.971C16.5834 7.33353 17.1896 7.45466 17.7551 7.68948C18.3207 7.9243 18.8344 8.26822 19.2671 8.70159C19.6997 9.13496 20.0427 9.6493 20.2766 10.2152C20.5104 10.7812 20.6305 11.3876 20.63 12C20.6309 12.6124 20.5111 13.2189 20.2775 13.785C20.0438 14.351 19.7009 14.8655 19.2683 15.2989C18.8357 15.7324 18.3219 16.0763 17.7563 16.311C17.1907 16.5458 16.5844 16.6667 15.972 16.667H12.643L12.642 4.134ZM7.984 7.333H11.313V19.866C10.357 19.866 9.583 19.09 9.583 18.133V9.066H7.983C7.21437 9.08019 6.48201 9.39549 5.94345 9.94409C5.40489 10.4927 5.10316 11.2307 5.10316 11.9995C5.10316 12.7683 5.40489 13.5063 5.94345 14.0549C6.48201 14.6035 7.21437 14.9188 7.983 14.933H8.649V16.666H7.984C7.3717 16.6657 6.76546 16.5448 6.19992 16.3101C5.63439 16.0755 5.12064 15.7316 4.68805 15.2983C4.25547 14.865 3.91252 14.3506 3.67881 13.7847C3.4451 13.2187 3.32521 12.6123 3.326 12C3.32508 11.3876 3.44487 10.7811 3.67852 10.215C3.91217 9.64895 4.2551 9.1345 4.6877 8.70106C5.1203 8.26763 5.63409 7.92371 6.19969 7.68896C6.76529 7.45422 7.37162 7.33326 7.984 7.333Z" fill="#2B2C36"/>
</g>
<defs>
<clipPath id="clip0_300_23144">
<rect width="24" height="24" fill="white"/>
</clipPath>
</defs>
</svg>
