      <svg
        width="24"
        height="24"
        viewBox="0 0 24 24"
        fill="none"
        xmlns="http://www.w3.org/2000/svg"
      >
        <path
          d="M19.713 9.1281L19.467 9.6941C19.4286 9.78627 19.3637 9.865 19.2806 9.92038C19.1975 9.97575 19.0999 10.0053 19 10.0053C18.9001 10.0053 18.8025 9.97575 18.7194 9.92038C18.6363 9.865 18.5714 9.78627 18.533 9.6941L18.287 9.1281C17.8545 8.12683 17.0624 7.32402 16.067 6.8781L15.308 6.5391C15.2159 6.49675 15.1379 6.42887 15.0832 6.34353C15.0286 6.25819 14.9995 6.15896 14.9995 6.0576C14.9995 5.95625 15.0286 5.85702 15.0832 5.77168C15.1379 5.68633 15.2159 5.61846 15.308 5.5761L16.025 5.2571C17.0454 4.79848 17.8511 3.96599 18.276 2.9311L18.529 2.3201C18.5662 2.22546 18.631 2.1442 18.715 2.08693C18.799 2.02966 18.8983 1.99902 19 1.99902C19.1017 1.99902 19.201 2.02966 19.285 2.08693C19.369 2.1442 19.4338 2.22546 19.471 2.3201L19.724 2.9301C20.1485 3.96518 20.9538 4.79804 21.974 5.2571L22.692 5.5771C22.7838 5.61958 22.8615 5.68745 22.916 5.77268C22.9705 5.85791 22.9994 5.95695 22.9994 6.0581C22.9994 6.15926 22.9705 6.2583 22.916 6.34353C22.8615 6.42876 22.7838 6.49662 22.692 6.5391L21.932 6.8771C20.9368 7.32347 20.1451 8.12663 19.713 9.1281ZM6 5.0001C5.46957 5.0001 4.96086 5.21082 4.58579 5.58589C4.21071 5.96096 4 6.46967 4 7.0001V17.0001C4 17.5305 4.21071 18.0392 4.58579 18.4143C4.96086 18.7894 5.46957 19.0001 6 19.0001H18C18.5304 19.0001 19.0391 18.7894 19.4142 18.4143C19.7893 18.0392 20 17.5305 20 17.0001V12.0001H22V17.0001C22 18.061 21.5786 19.0784 20.8284 19.8285C20.0783 20.5787 19.0609 21.0001 18 21.0001H6C4.93913 21.0001 3.92172 20.5787 3.17157 19.8285C2.42143 19.0784 2 18.061 2 17.0001V7.0001C2 5.93924 2.42143 4.92182 3.17157 4.17168C3.92172 3.42153 4.93913 3.0001 6 3.0001H13V5.0001H6Z"
          fill="#767A8B"
        />
      </svg>