      <svg
        width="24"
        height="24"
        viewBox="0 0 24 24"
        fill="none"
        xmlns="http://www.w3.org/2000/svg"
      >
        <path
          d="M11.943 1.25H13.5C13.6989 1.25 13.8897 1.32902 14.0303 1.46967C14.171 1.61032 14.25 1.80109 14.25 2C14.25 2.19891 14.171 2.38968 14.0303 2.53033C13.8897 2.67098 13.6989 2.75 13.5 2.75H12C9.622 2.75 7.914 2.752 6.614 2.926C5.335 3.098 4.564 3.426 3.994 3.995C3.425 4.565 3.098 5.335 2.926 6.614C2.752 7.914 2.75 9.622 2.75 12C2.75 14.378 2.752 16.086 2.926 17.386C3.098 18.665 3.426 19.436 3.995 20.006C4.565 20.575 5.335 20.902 6.614 21.074C7.914 21.248 9.622 21.25 12 21.25C14.378 21.25 16.086 21.248 17.386 21.074C18.665 20.902 19.436 20.574 20.006 20.005C20.575 19.435 20.902 18.665 21.074 17.386C21.248 16.086 21.25 14.378 21.25 12V10.5C21.25 10.3011 21.329 10.1103 21.4697 9.96967C21.6103 9.82902 21.8011 9.75 22 9.75C22.1989 9.75 22.3897 9.82902 22.5303 9.96967C22.671 10.1103 22.75 10.3011 22.75 10.5V12.057C22.75 14.366 22.75 16.175 22.56 17.587C22.366 19.031 21.96 20.171 21.066 21.066C20.171 21.961 19.031 22.366 17.586 22.56C16.175 22.75 14.366 22.75 12.057 22.75H11.943C9.634 22.75 7.825 22.75 6.413 22.56C4.969 22.366 3.829 21.96 2.934 21.066C2.039 20.171 1.634 19.031 1.44 17.586C1.25 16.175 1.25 14.366 1.25 12.057V11.943C1.25 9.634 1.25 7.825 1.44 6.413C1.634 4.969 2.04 3.829 2.934 2.934C3.829 2.039 4.969 1.634 6.414 1.44C7.825 1.25 9.634 1.25 11.943 1.25Z"
          fill="#767A8B"
        />
        <path
          d="M17.4802 9.4237C17.6329 9.55103 17.7288 9.7338 17.7468 9.93182C17.7648 10.1298 17.7034 10.3269 17.5762 10.4797L15.7472 12.6747C15.4192 13.0687 15.1232 13.4247 14.8472 13.6747C14.5452 13.9447 14.1672 14.1877 13.6672 14.1877C13.1672 14.1877 12.7882 13.9457 12.4872 13.6737C12.2112 13.4237 11.9152 13.0687 11.5862 12.6737L11.2942 12.3237C10.9232 11.8787 10.6952 11.6077 10.5072 11.4387C10.4583 11.3913 10.4035 11.3503 10.3442 11.3167L10.3372 11.3137L10.3332 11.3117L10.3232 11.3167C10.2635 11.3502 10.2084 11.3912 10.1592 11.4387C9.9722 11.6087 9.7442 11.8787 9.3732 12.3237L7.5762 14.4797C7.44728 14.6271 7.26584 14.7182 7.07065 14.7336C6.87546 14.7489 6.682 14.6874 6.53158 14.562C6.38117 14.4367 6.28573 14.2575 6.26567 14.0627C6.2456 13.868 6.3025 13.6731 6.4242 13.5197L8.2532 11.3247C8.5812 10.9307 8.8772 10.5747 9.1532 10.3247C9.4552 10.0547 9.8332 9.8117 10.3332 9.8117C10.8332 9.8117 11.2122 10.0537 11.5132 10.3257C11.7892 10.5757 12.0852 10.9307 12.4142 11.3257L12.7062 11.6757C13.0772 12.1207 13.3052 12.3917 13.4932 12.5607C13.5792 12.6387 13.6312 12.6707 13.6562 12.6827L13.6662 12.6877L13.6712 12.6857L13.6782 12.6827C13.7375 12.6491 13.7923 12.6081 13.8412 12.5607C14.0282 12.3907 14.2562 12.1207 14.6272 11.6757L16.4242 9.5197C16.5515 9.36698 16.7343 9.27108 16.9323 9.25308C17.1303 9.23508 17.3274 9.29645 17.4802 9.4237Z"
          fill="#767A8B"
        />
        <path
          fillRule="evenodd"
          clipRule="evenodd"
          d="M19 1.25C18.0054 1.25 17.0516 1.64509 16.3483 2.34835C15.6451 3.05161 15.25 4.00544 15.25 5C15.25 5.99456 15.6451 6.94839 16.3483 7.65165C17.0516 8.35491 18.0054 8.75 19 8.75C19.9946 8.75 20.9484 8.35491 21.6517 7.65165C22.3549 6.94839 22.75 5.99456 22.75 5C22.75 4.00544 22.3549 3.05161 21.6517 2.34835C20.9484 1.64509 19.9946 1.25 19 1.25ZM16.75 5C16.75 4.40326 16.9871 3.83097 17.409 3.40901C17.831 2.98705 18.4033 2.75 19 2.75C19.5967 2.75 20.169 2.98705 20.591 3.40901C21.0129 3.83097 21.25 4.40326 21.25 5C21.25 5.59674 21.0129 6.16903 20.591 6.59099C20.169 7.01295 19.5967 7.25 19 7.25C18.4033 7.25 17.831 7.01295 17.409 6.59099C16.9871 6.16903 16.75 5.59674 16.75 5Z"
          fill="#767A8B"
        />
      </svg>