      <svg
        width="24"
        height="24"
        viewBox="0 0 24 24"
        fill="none"
        xmlns="http://www.w3.org/2000/svg"
      >
        <path
          d="M18 9.75C16.6065 9.75 15.4425 10.71 15.1065 12H10.5C8.43225 12 6.75 10.3177 6.75 8.25V7.3935C8.04 7.05825 9 5.8935 9 4.5C9 2.8455 7.6545 1.5 6 1.5C4.3455 1.5 3 2.8455 3 4.5C3 5.8935 3.96 7.0575 5.25 7.3935V16.6065C3.96 16.9418 3 18.1065 3 19.5C3 21.1545 4.3455 22.5 6 22.5C7.6545 22.5 9 21.1545 9 19.5C9 18.1065 8.04 16.9418 6.75 16.6065V11.9175C7.23774 12.4183 7.82084 12.8163 8.4649 13.0881C9.10896 13.3599 9.80094 13.5 10.5 13.5H15.1065C15.4418 14.79 16.6065 15.75 18 15.75C19.6545 15.75 21 14.4045 21 12.75C21 11.0955 19.6545 9.75 18 9.75ZM7.5 19.5C7.5 20.3272 6.82725 21 6 21C5.17275 21 4.5 20.3272 4.5 19.5C4.5 18.6728 5.17275 18 6 18C6.82725 18 7.5 18.6735 7.5 19.5ZM4.5 4.5C4.5 3.67275 5.17275 3 6 3C6.82725 3 7.5 3.67275 7.5 4.5C7.5 5.32725 6.82725 6 6 6C5.17275 6 4.5 5.32725 4.5 4.5ZM18 14.25C17.1727 14.25 16.5 13.5773 16.5 12.75C16.5 11.9227 17.1727 11.25 18 11.25C18.8273 11.25 19.5 11.9235 19.5 12.75C19.5 13.5765 18.8273 14.25 18 14.25Z"
          fill="#767A8B"
        />
      </svg>