      <svg
        width="24"
        height="24"
        viewBox="0 0 24 24"
        fill="none"
        xmlns="http://www.w3.org/2000/svg"
      >
        <path
          fillRule="evenodd"
          clipRule="evenodd"
          d="M15.2878 3.70641C14.2578 3.56641 12.9078 3.56641 10.9978 3.56641H10.7478V3.86641C10.7478 5.23641 10.7478 6.33641 10.6278 7.20641C10.5078 8.10641 10.2478 8.86641 9.64781 9.46641C9.04781 10.0664 8.28781 10.3264 7.38781 10.4464C6.51781 10.5664 5.41781 10.5664 4.04781 10.5664H3.74781V14.8264C3.74781 16.7264 3.74781 18.0864 3.88781 19.1064C4.02781 20.1064 4.27781 20.6864 4.69781 21.1164C5.11781 21.5464 5.69781 21.7964 6.70781 21.9364C7.73781 22.0764 9.08781 22.0764 10.9878 22.0764C11.3978 22.0764 11.7378 22.4164 11.7378 22.8264C11.7378 23.2364 11.3978 23.5764 10.9878 23.5764H10.9278C9.09781 23.5764 7.63781 23.5764 6.50781 23.4264C5.33781 23.2664 4.38781 22.9364 3.63781 22.1964C2.88781 21.4364 2.55781 20.4964 2.40781 19.3164C2.25781 18.1764 2.25781 16.7264 2.25781 14.8864V9.82641C2.25781 9.61641 2.33781 9.42641 2.47781 9.27641L9.41781 2.35641C9.55781 2.17641 9.76781 2.06641 10.0078 2.06641H11.0678C12.9078 2.06641 14.3578 2.06641 15.4978 2.21641C16.6678 2.37641 17.6178 2.70641 18.3678 3.45641C19.1178 4.20641 19.4478 5.15641 19.6078 6.32641C19.7578 7.46641 19.7578 8.92641 19.7578 10.7564V11.8164C19.7578 12.2264 19.4178 12.5664 19.0078 12.5664C18.5978 12.5664 18.2578 12.2264 18.2578 11.8164V10.8164C18.2578 8.90641 18.2578 7.55641 18.1178 6.52641C17.9778 5.51641 17.7278 4.93641 17.3078 4.51641C16.8878 4.09641 16.3078 3.83641 15.2978 3.70641H15.2878ZM4.79781 9.06641L9.24781 4.63641C9.24781 5.64641 9.22781 6.40641 9.14781 7.01641C9.04781 7.74641 8.86781 8.13641 8.58781 8.41641C8.30781 8.69641 7.92781 8.87641 7.18781 8.97641C6.57781 9.05641 5.81781 9.07641 4.79781 9.07641V9.06641ZM20.8678 20.1064C19.7478 20.5464 18.7278 21.5664 18.2878 22.6864C17.8278 23.8564 16.1678 23.8564 15.7078 22.6864C15.2678 21.5664 14.2478 20.5464 13.1278 20.1064C11.9578 19.6464 11.9578 17.9864 13.1278 17.5264C14.2478 17.0864 15.2678 16.0664 15.7078 14.9464C16.1678 13.7764 17.8278 13.7764 18.2878 14.9464C18.7278 16.0664 19.7478 17.0864 20.8678 17.5264C22.0378 17.9864 22.0378 19.6464 20.8678 20.1064ZM13.9278 18.8164C15.2478 19.4164 16.3978 20.5664 16.9978 21.8864C17.5978 20.5664 18.7478 19.4064 20.0678 18.8164C18.7161 18.1849 17.6294 17.0982 16.9978 15.7464C16.3978 17.0664 15.2478 18.2264 13.9278 18.8164Z"
          fill="#767A8B"
        />
        <path
          d="M8.75 19.8749C8.75 20.3582 9.14178 20.75 9.62506 20.75C10.1083 20.75 10.5001 20.3582 10.5001 19.8749V14.6251C10.5001 14.1418 10.1083 13.75 9.62506 13.75C9.14178 13.75 8.75 14.1418 8.75 14.6251V19.8749Z"
          fill="#767A8B"
        />
        <path
          d="M6.12506 20.75C5.64185 20.75 5.25012 20.3583 5.25012 19.8751V17.6249C5.25012 17.1417 5.64185 16.75 6.12506 16.75C6.60828 16.75 7 17.1417 7 17.6249V19.8751C7 20.3583 6.60828 20.75 6.12506 20.75Z"
          fill="#767A8B"
        />
      </svg>