<svg width="13" height="14" viewBox="0 0 13 14" fill="none" xmlns="http://www.w3.org/2000/svg">
<path d="M5.36248 4.18251L2.69573 6.84952C2.48439 7.06068 2.21914 7.16627 1.89998 7.16627C1.58081 7.16627 1.31556 7.06068 1.10423 6.84952C0.893059 6.63818 0.787476 6.37293 0.787476 6.05377C0.787476 5.7346 0.893059 5.46943 1.10423 5.25827L5.69823 0.664265C5.92623 0.436265 6.19348 0.322266 6.49998 0.322266C6.80648 0.322266 7.07373 0.436265 7.30173 0.664265L11.8957 5.25827C12.1069 5.46943 12.2125 5.7346 12.2125 6.05377C12.2125 6.37293 12.1069 6.63818 11.8957 6.84952C11.6844 7.06068 11.4191 7.16627 11.1 7.16627C10.7808 7.16627 10.5156 7.06068 10.3042 6.84952L7.63748 4.18251V12.0538C7.63748 12.3729 7.52773 12.6423 7.30823 12.862C7.08856 13.0815 6.81914 13.1913 6.49998 13.1913C6.18081 13.1913 5.91139 13.0815 5.69173 12.862C5.47223 12.6423 5.36248 12.3729 5.36248 12.0538V4.18251Z" fill="#F1F1F1"/>
</svg>
