<svg width="20" height="21" viewBox="0 0 20 21" fill="none" xmlns="http://www.w3.org/2000/svg">
<g clip-path="url(#clip0_403_3103)">
<path d="M10 0.5C7.34784 0.5 4.8043 1.55357 2.92893 3.42893C1.05357 5.3043 0 7.84784 0 10.5C0 13.1522 1.05357 15.6957 2.92893 17.5711C4.8043 19.4464 7.34784 20.5 10 20.5C12.6522 20.5 15.1957 19.4464 17.0711 17.5711C18.9464 15.6957 20 13.1522 20 10.5C20 7.84784 18.9464 5.3043 17.0711 3.42893C15.1957 1.55357 12.6522 0.5 10 0.5ZM10.535 3.945C11.3308 3.945 11.9767 4.59083 11.9767 5.38917V12.9442H13.31C13.9472 12.9275 14.5527 12.6627 14.9975 12.2062C15.4423 11.7496 15.6912 11.1374 15.6912 10.5C15.6912 9.8626 15.4423 9.2504 14.9975 8.79384C14.5527 8.33729 13.9472 8.07247 13.31 8.05583H12.755V6.61083H13.3092C13.8195 6.61127 14.3247 6.71221 14.796 6.9079C15.2672 7.10359 15.6954 7.39018 16.0559 7.75132C16.4164 8.11247 16.7023 8.54108 16.8972 9.0127C17.092 9.48432 17.1921 9.98971 17.1917 10.5C17.1924 11.0103 17.0926 11.5158 16.8979 11.9875C16.7032 12.4592 16.4174 12.8879 16.0569 13.2491C15.6964 13.6103 15.2683 13.8969 14.7969 14.0925C14.3256 14.2881 13.8203 14.3889 13.31 14.3892H10.5358L10.535 3.945ZM6.65333 6.61083H9.4275V17.055C8.63083 17.055 7.98583 16.4083 7.98583 15.6108V8.055H6.6525C6.01197 8.06683 5.40167 8.32958 4.95288 8.78674C4.50408 9.2439 4.25264 9.85895 4.25264 10.4996C4.25264 11.1402 4.50408 11.7553 4.95288 12.2124C5.40167 12.6696 6.01197 12.9323 6.6525 12.9442H7.2075V14.3883H6.65333C6.14309 14.3881 5.63788 14.2873 5.1666 14.0918C4.69532 13.8962 4.2672 13.6097 3.90671 13.2486C3.54622 12.8875 3.26043 12.4589 3.06567 11.9872C2.87091 11.5156 2.77101 11.0102 2.77167 10.5C2.7709 9.98968 2.87072 9.48422 3.06543 9.01251C3.26014 8.54079 3.54591 8.11208 3.90642 7.75089C4.26692 7.38969 4.69507 7.10309 5.16641 6.90747C5.63774 6.71185 6.14302 6.61105 6.65333 6.61083Z" fill="#2CA01C"/>
</g>
<defs>
<clipPath id="clip0_403_3103">
<rect width="20" height="20" fill="white" transform="translate(0 0.5)"/>
</clipPath>
</defs>
</svg>
